<svg width="14" height="14" viewBox="0 0 14 14" fill="none" xmlns="http://www.w3.org/2000/svg">
<path d="M7.69974 1.12211C7.50448 0.926847 7.1879 0.926846 6.99264 1.12211L6.54279 1.57196C6.34765 1.7671 6.34751 2.08344 6.54247 2.27875L9.91518 5.65751C10.2297 5.97262 10.0065 6.51074 9.56131 6.51074L1.28369 6.51074C1.00755 6.51074 0.783691 6.7346 0.783691 7.01074L0.783691 7.65137C0.783691 7.92751 1.00755 8.15137 1.28369 8.15137L9.56131 8.15137C10.0066 8.15137 10.2297 8.68949 9.91518 9.00461L6.54247 12.3834C6.34751 12.5787 6.34765 12.895 6.54279 13.0902L6.99264 13.54C7.1879 13.7353 7.50448 13.7353 7.69974 13.54L13.5551 7.68461C13.7504 7.48935 13.7504 7.17276 13.5551 6.9775L7.69974 1.12211Z" fill="white"/>
</svg>
