<svg width="14" height="14" viewBox="0 0 14 14" fill="none" xmlns="http://www.w3.org/2000/svg">
<path d="M7.43735 0.956508C7.24213 0.761495 6.92584 0.761495 6.73062 0.956508L6.29766 1.389C6.10228 1.58418 6.10213 1.90081 6.29735 2.09617L9.60302 5.40426C9.91782 5.71929 9.6947 6.25768 9.24934 6.25768L1.11523 6.25768C0.839092 6.25768 0.615234 6.48154 0.615234 6.75768L0.615234 7.37316C0.615234 7.6493 0.839092 7.87316 1.11523 7.87316L9.24934 7.87316C9.6947 7.87316 9.91782 8.41155 9.60302 8.72658L6.29735 12.0347C6.10213 12.23 6.10228 12.5467 6.29766 12.7418L6.73062 13.1743C6.92584 13.3693 7.24213 13.3693 7.43735 13.1743L13.1986 7.41916C13.3941 7.22386 13.3941 6.90699 13.1986 6.71168L7.43735 0.956508Z" fill="#042449"/>
</svg>
