<svg width="21" height="20" viewBox="0 0 21 20" fill="none" xmlns="http://www.w3.org/2000/svg">
<path d="M9.65753 0.352992C9.85275 0.157979 10.169 0.15798 10.3643 0.352992L11.4215 1.40908C11.6169 1.60426 11.617 1.92088 11.4218 2.11624L5.64567 7.89658C5.33087 8.21161 5.55399 8.75 5.99936 8.75L19.5215 8.75C19.7976 8.75 20.0215 8.97386 20.0215 9.25V10.75C20.0215 11.0261 19.7976 11.25 19.5215 11.25L5.99936 11.25C5.55399 11.25 5.33087 11.7884 5.64567 12.1034L11.4218 17.8838C11.617 18.0791 11.6169 18.3957 11.4215 18.5909L10.3643 19.647C10.169 19.842 9.85275 19.842 9.65753 19.647L0.35442 10.3537C0.158909 10.1584 0.158909 9.84156 0.35442 9.64626L9.65753 0.352992Z" fill="#042449"/>
</svg>
