<svg width="47" height="47" viewBox="0 0 47 47" fill="none" xmlns="http://www.w3.org/2000/svg">
<g clip-path="url(#clip0_437_49556)">
<path d="M8.7974 7.34448C3.23032 7.49018 2.5404 15.2796 7.93085 16.4419C8.13337 18.0854 8.95521 19.3678 10.4305 20.3431C10.8477 20.6206 11.4214 20.5098 11.7026 20.0836C11.9822 19.6606 11.866 19.0911 11.4431 18.8114C10.4744 18.171 9.95103 17.4289 9.77999 16.418C15.0741 15.1395 14.2924 7.4799 8.7974 7.34448ZM8.79804 14.6888C8.79768 14.6888 8.79731 14.6888 8.79685 14.6888C7.27848 14.6886 6.04324 13.4531 6.04324 11.9347C6.18168 8.28586 11.4138 8.28696 11.5517 11.9347C11.5517 13.4531 10.3165 14.6886 8.79804 14.6888Z" fill="#FF771B"/>
<path d="M42.7662 11.9347C42.7662 9.40364 40.707 7.34444 38.1759 7.34444C32.6792 7.48068 31.9018 15.1395 37.1915 16.4176C36.8522 18.3872 35.2063 19.1487 32.6975 20.1493C30.005 21.223 26.6963 22.5423 26.2841 26.8085C26.2699 26.8078 26.2555 26.8075 26.2412 26.8075H24.4052V9.08819C29.7534 7.87342 29.0217 0.140462 23.487 0C17.9514 0.141013 17.2219 7.87443 22.5691 9.08819V26.8075H20.733C20.7187 26.8075 20.7045 26.8078 20.6905 26.8085C20.5337 25.1744 19.9416 23.8508 18.8934 22.7817C18.5386 22.4197 17.9573 22.4139 17.5951 22.7689C17.2331 23.1239 17.2273 23.7051 17.5822 24.0672C18.4791 24.9818 18.8967 26.1443 18.8967 27.7256V35.988H17.0607C16.7183 35.988 16.4045 36.1785 16.2463 36.4821C16.0883 36.7858 16.1122 37.1521 16.3086 37.4326L22.735 46.6131C23.0752 47.1292 23.8991 47.1291 24.2392 46.6131L30.6656 37.4326C30.862 37.1521 30.8858 36.7858 30.7278 36.4821C30.5697 36.1785 30.2558 35.988 29.9135 35.988H28.0773V27.7256C28.0773 23.9687 30.5336 22.9891 33.3777 21.8548C35.8588 20.8653 38.6446 19.7519 39.0435 16.4417C41.1611 16.0347 42.7662 14.1692 42.7662 11.9347ZM20.733 4.59027C20.733 3.07163 21.9685 1.83611 23.4871 1.83611C27.1359 1.97455 27.1349 7.20655 23.4871 7.34444C21.9685 7.34444 20.733 6.10892 20.733 4.59027ZM28.1502 37.824L23.4871 44.4856L18.8241 37.824H19.8148C20.3218 37.824 20.7329 37.413 20.7329 36.906V28.6436H20.733H26.2412V36.906C26.2412 37.413 26.6523 37.824 27.1593 37.824H28.1502ZM38.1765 14.6888C38.176 14.6888 38.1757 14.6888 38.1753 14.6888C36.6569 14.6884 35.4218 13.4531 35.4218 11.9346C35.5602 8.2859 40.7922 8.28682 40.9301 11.9346C40.9301 13.4532 39.6948 14.6885 38.1765 14.6888Z" fill="#FF771B"/>
<path d="M14.6898 20.3877H14.6892C14.1822 20.3877 13.7715 20.7987 13.7715 21.3058C13.8167 22.5221 15.563 22.522 15.6079 21.3058C15.6079 20.7987 15.1968 20.3877 14.6898 20.3877Z" fill="#FF771B"/>
</g>
<defs>
<clipPath id="clip0_437_49556">
<rect width="47" height="47" fill="white"/>
</clipPath>
</defs>
</svg>
