<svg width="401" height="371" viewBox="0 0 401 371" fill="none" xmlns="http://www.w3.org/2000/svg">
<g style="mix-blend-mode:lighten">
<path d="M200.084 248.754C198.867 248.786 197.663 248.504 196.586 247.935L117.94 202.53C117.488 202.314 117.103 201.98 116.826 201.563C116.549 201.146 116.391 200.662 116.367 200.161C116.43 199.534 116.658 198.933 117.026 198.421C117.394 197.908 117.891 197.502 118.466 197.242L196.057 152.443C197.261 151.765 198.61 151.384 199.991 151.331C201.372 151.279 202.746 151.556 203.999 152.141L282.644 197.546C283.096 197.761 283.481 198.096 283.758 198.513C284.035 198.93 284.194 199.414 284.218 199.914C284.154 200.542 283.927 201.143 283.559 201.655C283.19 202.167 282.694 202.574 282.119 202.834L204.528 247.633C203.166 248.38 201.637 248.766 200.084 248.754ZM197.194 246.88C198.263 247.349 199.426 247.566 200.592 247.513C201.758 247.461 202.897 247.141 203.919 246.578L281.51 201.779C282.443 201.24 282.999 200.543 282.999 199.913C282.966 199.629 282.86 199.359 282.691 199.129C282.523 198.899 282.297 198.717 282.036 198.601L203.39 153.196C202.321 152.728 201.158 152.512 199.993 152.565C198.827 152.617 197.688 152.937 196.665 153.498L119.074 198.297C118.141 198.836 117.585 199.533 117.585 200.163C117.618 200.446 117.724 200.716 117.893 200.946C118.062 201.176 118.288 201.358 118.549 201.475L197.194 246.88Z" fill="#86A4F2"/>
</g>
<path opacity="0.5" d="M107.773 253.975C107.639 253.975 107.508 253.93 107.402 253.849C107.296 253.767 107.219 253.652 107.185 253.523C107.15 253.393 107.159 253.256 107.21 253.132C107.262 253.008 107.352 252.905 107.469 252.838L157.15 224.155C157.289 224.074 157.456 224.052 157.612 224.094C157.689 224.115 157.761 224.151 157.825 224.199C157.888 224.248 157.941 224.309 157.981 224.378C158.021 224.447 158.047 224.524 158.058 224.603C158.068 224.682 158.063 224.763 158.042 224.84C158.021 224.917 157.985 224.99 157.937 225.053C157.888 225.117 157.827 225.17 157.758 225.21L108.077 253.893C107.985 253.947 107.88 253.975 107.773 253.975Z" fill="url(#paint0_linear_2536_10512)"/>
<path opacity="0.5" d="M292.705 253.814C292.598 253.814 292.493 253.785 292.401 253.731L243 225.21C242.86 225.129 242.758 224.996 242.716 224.84C242.674 224.684 242.696 224.518 242.777 224.378C242.857 224.238 242.99 224.136 243.146 224.094C243.302 224.052 243.469 224.074 243.608 224.155L293.009 252.676C293.125 252.743 293.216 252.847 293.267 252.971C293.318 253.094 293.327 253.232 293.293 253.361C293.258 253.491 293.182 253.605 293.076 253.687C292.969 253.769 292.839 253.813 292.705 253.814Z" fill="url(#paint1_linear_2536_10512)"/>
<path opacity="0.5" d="M200.089 349.617C198.056 349.618 196.059 349.083 194.299 348.066C174.048 336.327 106.615 297.342 104.998 296.623C104.922 296.601 104.852 296.564 104.792 296.514C104.731 296.464 104.681 296.402 104.645 296.333C104.608 296.263 104.586 296.187 104.58 296.109C104.574 296.03 104.583 295.952 104.608 295.877C104.659 295.721 104.77 295.591 104.916 295.515C105.062 295.439 105.232 295.424 105.389 295.472C106.439 295.774 194.026 346.499 194.91 347.011C196.487 347.919 198.275 348.398 200.096 348.397C201.916 348.396 203.704 347.917 205.28 347.008L294.359 295.378C294.429 295.338 294.505 295.312 294.584 295.301C294.664 295.291 294.744 295.296 294.822 295.316C294.899 295.337 294.972 295.373 295.035 295.421C295.099 295.47 295.152 295.531 295.193 295.6C295.233 295.669 295.259 295.746 295.269 295.825C295.28 295.904 295.275 295.985 295.254 296.062C295.234 296.14 295.198 296.212 295.149 296.276C295.101 296.34 295.04 296.393 294.971 296.433L205.892 348.063C204.128 349.082 202.126 349.618 200.089 349.617Z" fill="url(#paint2_linear_2536_10512)"/>
<path d="M283.609 166.811V176.462L200.091 224.682L116.57 176.461V166.81L283.609 166.811Z" fill="url(#paint3_linear_2536_10512)"/>
<path d="M200.091 215.03L116.57 166.81L200.089 118.591L283.609 166.811L200.091 215.03Z" fill="#BCDFFF"/>
<path d="M200.091 213.903L117.547 166.246L116.57 166.81L200.091 215.03L283.609 166.811L282.634 166.247L200.091 213.903Z" fill="white"/>
<path d="M200.09 203.908L135.852 166.821L200.088 129.733L264.327 166.822L200.09 203.908Z" fill="#0F054C"/>
<path opacity="0.5" d="M200.091 203.91L135.852 166.821L200.089 129.733L264.329 166.822L200.091 203.91Z" fill="url(#paint4_linear_2536_10512)"/>
<path opacity="0.5" d="M200.086 120.381L264.326 157.469V166.822L200.086 129.732V120.381Z" fill="url(#paint5_linear_2536_10512)"/>
<path opacity="0.5" d="M200.091 129.732L135.852 166.821V157.468L200.089 120.381L200.091 129.732Z" fill="url(#paint6_linear_2536_10512)"/>
<path opacity="0.5" d="M200.091 194.558L135.852 157.468L200.089 120.381L264.329 157.469L200.091 194.558Z" fill="url(#paint7_linear_2536_10512)"/>
<path opacity="0.5" d="M200.092 172.29L174.422 157.469L200.091 142.65L225.759 157.47L200.092 172.29Z" fill="#42A2E8"/>
<path opacity="0.5" d="M200.091 144.014L224.578 158.151L225.759 157.47L200.091 142.65L174.422 157.47L175.603 158.151L200.091 144.014Z" fill="#42A2E8"/>
<path opacity="0.5" d="M200.094 194.558V203.909L264.331 166.822V157.47L200.094 194.558Z" fill="url(#paint8_linear_2536_10512)"/>
<path opacity="0.5" d="M135.852 157.468V166.82L200.091 203.909V194.557L135.852 157.468Z" fill="url(#paint9_linear_2536_10512)"/>
<path opacity="0.8" d="M200.091 193.536L136.735 156.958L135.852 157.468L200.091 194.558L264.329 157.469L263.446 156.959L200.091 193.536Z" fill="#42A2E8"/>
<g opacity="0.11">
<path d="M76.538 235.331C74.8858 234.378 73.0119 233.875 71.1041 233.874C69.1964 233.873 67.322 234.374 65.6688 235.326L0.889778 272.64C0.657253 272.774 0.464165 272.967 0.329918 273.2C0.195672 273.433 0.125 273.696 0.125 273.965C0.125 274.233 0.195672 274.497 0.329918 274.73C0.464165 274.962 0.657253 275.155 0.889778 275.29L66.2086 313.001C67.6667 313.843 69.3207 314.286 71.0044 314.286C72.6881 314.286 74.3421 313.843 75.8003 313.001L141.22 275.325C141.452 275.191 141.645 274.998 141.78 274.765C141.914 274.533 141.985 274.269 141.985 274C141.985 273.732 141.914 273.468 141.78 273.235C141.645 273.003 141.452 272.81 141.22 272.675L76.538 235.331Z" fill="url(#paint10_linear_2536_10512)"/>
</g>
<g opacity="0.11">
<path d="M76.538 224.418C74.8858 223.464 73.0119 222.962 71.1041 222.961C69.1964 222.96 67.3219 223.461 65.6688 224.413L0.889778 261.727C0.657253 261.861 0.464165 262.054 0.329918 262.287C0.195672 262.519 0.125 262.783 0.125 263.052C0.125 263.32 0.195672 263.584 0.329918 263.816C0.464165 264.049 0.657253 264.242 0.889778 264.376L66.2086 302.088C67.6667 302.93 69.3207 303.373 71.0044 303.373C72.6881 303.373 74.3421 302.93 75.8003 302.088L141.22 264.412C141.452 264.278 141.645 264.084 141.78 263.852C141.914 263.619 141.984 263.356 141.984 263.087C141.984 262.819 141.914 262.555 141.78 262.322C141.645 262.09 141.452 261.897 141.22 261.762L76.538 224.418Z" fill="url(#paint11_linear_2536_10512)"/>
</g>
<g opacity="0.11">
<path d="M76.538 213.505C74.8858 212.551 73.0119 212.049 71.1041 212.048C69.1964 212.047 67.3219 212.548 65.6688 213.5L0.889778 250.814C0.657253 250.948 0.464165 251.141 0.329918 251.374C0.195672 251.606 0.125 251.87 0.125 252.138C0.125 252.407 0.195672 252.671 0.329918 252.903C0.464165 253.136 0.657253 253.329 0.889778 253.463L66.2086 291.175C67.6667 292.017 69.3207 292.46 71.0044 292.46C72.6881 292.46 74.3421 292.017 75.8003 291.175L141.22 253.499C141.452 253.364 141.645 253.171 141.78 252.939C141.914 252.706 141.984 252.442 141.984 252.174C141.984 251.905 141.914 251.642 141.78 251.409C141.645 251.177 141.452 250.984 141.22 250.849L76.538 213.505Z" fill="url(#paint12_linear_2536_10512)"/>
</g>
<g opacity="0.11">
<path d="M76.538 202.593C74.8858 201.639 73.0119 201.137 71.1041 201.136C69.1964 201.135 67.322 201.636 65.6688 202.588L0.889778 239.902C0.657253 240.036 0.464165 240.229 0.329918 240.462C0.195672 240.694 0.125 240.958 0.125 241.226C0.125 241.495 0.195672 241.759 0.329918 241.991C0.464165 242.224 0.657253 242.417 0.889778 242.551L66.2086 280.263C67.6667 281.105 69.3207 281.548 71.0044 281.548C72.6881 281.548 74.3421 281.105 75.8003 280.263L141.22 242.587C141.452 242.452 141.645 242.259 141.78 242.027C141.914 241.794 141.985 241.53 141.985 241.262C141.985 240.993 141.914 240.73 141.78 240.497C141.645 240.264 141.452 240.071 141.22 239.937L76.538 202.593Z" fill="url(#paint13_linear_2536_10512)"/>
</g>
<path opacity="0.2" d="M141.22 239.937L76.5381 202.593C74.8859 201.639 73.012 201.137 71.1042 201.136C69.1965 201.135 67.322 201.636 65.6689 202.588L0.889876 239.902C0.656341 240.035 0.462426 240.228 0.32802 240.46C0.193613 240.693 0.12355 240.958 0.125023 241.226V263.167C0.12355 263.436 0.193613 263.701 0.32802 263.933C0.462426 264.166 0.656341 264.359 0.889876 264.492L66.2087 302.204C67.6668 303.046 69.3208 303.489 71.0045 303.489C72.6882 303.489 74.3422 303.046 75.8004 302.204L141.22 264.528C141.453 264.395 141.647 264.202 141.782 263.969C141.916 263.736 141.986 263.472 141.985 263.203V241.262C141.986 240.993 141.916 240.729 141.782 240.496C141.647 240.263 141.453 240.07 141.22 239.937Z" fill="url(#paint14_linear_2536_10512)"/>
<g opacity="0.11">
<path d="M76.538 202.593C74.8858 201.639 73.0119 201.137 71.1041 201.136C69.1964 201.135 67.322 201.636 65.6688 202.588L0.889778 239.902C0.657253 240.036 0.464165 240.229 0.329918 240.462C0.195672 240.694 0.125 240.958 0.125 241.226C0.125 241.495 0.195672 241.759 0.329918 241.991C0.464165 242.224 0.657253 242.417 0.889778 242.551L66.2086 280.263C67.6667 281.105 69.3207 281.548 71.0044 281.548C72.6881 281.548 74.3421 281.105 75.8003 280.263L141.22 242.587C141.452 242.452 141.645 242.259 141.78 242.027C141.914 241.794 141.985 241.53 141.985 241.262C141.985 240.993 141.914 240.73 141.78 240.497C141.645 240.264 141.452 240.071 141.22 239.937L76.538 202.593Z" fill="url(#paint15_linear_2536_10512)"/>
</g>
<g opacity="0.5">
<path d="M73.3789 223.983C72.6786 223.579 71.8842 223.366 71.0755 223.365C70.2668 223.365 69.4722 223.577 68.7714 223.981L39.7475 240.699C39.6437 240.759 39.5576 240.845 39.4977 240.949C39.4378 241.053 39.4062 241.17 39.4062 241.29C39.4062 241.41 39.4378 241.528 39.4977 241.631C39.5576 241.735 39.6437 241.821 39.7475 241.881L68.8912 258.707C69.5418 259.083 70.2798 259.281 71.031 259.281C71.7822 259.281 72.5202 259.083 73.1708 258.707L102.359 241.897C102.463 241.837 102.549 241.751 102.609 241.647C102.669 241.543 102.701 241.426 102.701 241.306C102.701 241.186 102.669 241.068 102.609 240.965C102.549 240.861 102.463 240.775 102.359 240.715L73.3789 223.983Z" fill="#7FC9FF"/>
</g>
<path d="M39.7468 241.748L68.7708 225.029C69.4715 224.626 70.2661 224.413 71.0748 224.414C71.8835 224.414 72.6779 224.627 73.3783 225.032L102.359 241.763C102.388 241.78 102.399 241.81 102.425 241.83C102.513 241.764 102.583 241.676 102.63 241.576C102.676 241.475 102.697 241.365 102.69 241.255C102.684 241.145 102.65 241.038 102.592 240.943C102.534 240.849 102.454 240.771 102.359 240.715L73.3783 223.983C72.6779 223.579 71.8835 223.366 71.0748 223.365C70.2661 223.365 69.4715 223.577 68.7708 223.981L39.7468 240.699C39.6513 240.755 39.5711 240.833 39.5133 240.927C39.4555 241.022 39.4218 241.129 39.4152 241.239C39.4087 241.349 39.4295 241.46 39.4758 241.56C39.5222 241.66 39.5926 241.748 39.6808 241.814C39.7063 241.794 39.7174 241.765 39.7468 241.748Z" fill="#42A2E8"/>
<path d="M141.22 241.079L75.8009 278.756C74.3428 279.597 72.6888 280.041 71.0051 280.041C69.3214 280.041 67.6674 279.597 66.2092 278.756L0.890331 241.044C0.653191 240.908 0.457163 240.711 0.32301 240.473C0.124524 240.824 0.0727759 241.239 0.179019 241.629C0.285261 242.018 0.540905 242.349 0.890331 242.551L66.2092 280.263C67.6674 281.105 69.3214 281.548 71.0051 281.548C72.6888 281.548 74.3428 281.105 75.8009 280.263L141.22 242.587C141.57 242.385 141.825 242.053 141.932 241.664C142.038 241.275 141.986 240.859 141.788 240.508C141.654 240.746 141.457 240.943 141.22 241.079Z" fill="url(#paint16_linear_2536_10512)"/>
<g opacity="0.11">
<path d="M334.608 235.331C332.956 234.378 331.082 233.875 329.175 233.874C327.267 233.873 325.392 234.374 323.739 235.326L258.96 272.64C258.728 272.774 258.534 272.967 258.4 273.2C258.266 273.433 258.195 273.696 258.195 273.965C258.195 274.233 258.266 274.497 258.4 274.73C258.534 274.962 258.728 275.155 258.96 275.29L324.279 313.001C325.737 313.843 327.391 314.286 329.075 314.286C330.758 314.286 332.412 313.843 333.871 313.001L399.29 275.325C399.523 275.191 399.716 274.998 399.85 274.765C399.984 274.533 400.055 274.269 400.055 274C400.055 273.732 399.984 273.468 399.85 273.235C399.716 273.003 399.523 272.81 399.29 272.675L334.608 235.331Z" fill="url(#paint17_linear_2536_10512)"/>
</g>
<g opacity="0.11">
<path d="M334.608 224.418C332.956 223.464 331.082 222.962 329.175 222.961C327.267 222.96 325.392 223.461 323.739 224.413L258.96 261.727C258.728 261.861 258.534 262.054 258.4 262.287C258.266 262.519 258.195 262.783 258.195 263.052C258.195 263.32 258.266 263.584 258.4 263.816C258.534 264.049 258.728 264.242 258.96 264.376L324.279 302.088C325.737 302.93 327.391 303.373 329.075 303.373C330.758 303.373 332.412 302.93 333.871 302.088L399.29 264.412C399.522 264.278 399.716 264.084 399.85 263.852C399.984 263.619 400.055 263.356 400.055 263.087C400.055 262.819 399.984 262.555 399.85 262.322C399.716 262.09 399.522 261.897 399.29 261.762L334.608 224.418Z" fill="url(#paint18_linear_2536_10512)"/>
</g>
<g opacity="0.11">
<path d="M334.608 213.506C332.956 212.552 331.082 212.05 329.175 212.049C327.267 212.048 325.392 212.549 323.739 213.501L258.96 250.815C258.728 250.949 258.534 251.142 258.4 251.375C258.266 251.607 258.195 251.871 258.195 252.139C258.195 252.408 258.266 252.672 258.4 252.904C258.534 253.137 258.728 253.33 258.96 253.464L324.279 291.176C325.737 292.018 327.391 292.461 329.075 292.461C330.758 292.461 332.412 292.018 333.871 291.176L399.29 253.5C399.522 253.365 399.716 253.172 399.85 252.94C399.984 252.707 400.055 252.443 400.055 252.175C400.055 251.906 399.984 251.643 399.85 251.41C399.716 251.178 399.522 250.984 399.29 250.85L334.608 213.506Z" fill="url(#paint19_linear_2536_10512)"/>
</g>
<g opacity="0.11">
<path d="M334.608 202.593C332.956 201.639 331.082 201.137 329.175 201.136C327.267 201.135 325.392 201.636 323.739 202.588L258.96 239.902C258.728 240.036 258.534 240.229 258.4 240.462C258.266 240.694 258.195 240.958 258.195 241.226C258.195 241.495 258.266 241.759 258.4 241.991C258.534 242.224 258.728 242.417 258.96 242.551L324.279 280.263C325.737 281.105 327.391 281.548 329.075 281.548C330.758 281.548 332.412 281.105 333.871 280.263L399.29 242.587C399.523 242.452 399.716 242.259 399.85 242.027C399.984 241.794 400.055 241.53 400.055 241.262C400.055 240.993 399.984 240.73 399.85 240.497C399.716 240.264 399.523 240.071 399.29 239.937L334.608 202.593Z" fill="url(#paint20_linear_2536_10512)"/>
</g>
<path opacity="0.2" d="M399.29 239.937L334.608 202.593C332.956 201.639 331.082 201.137 329.175 201.136C327.267 201.135 325.392 201.636 323.739 202.588L258.96 239.902C258.727 240.035 258.533 240.228 258.398 240.46C258.264 240.693 258.194 240.958 258.195 241.226V263.167C258.194 263.436 258.264 263.701 258.398 263.933C258.533 264.166 258.727 264.359 258.96 264.492L324.279 302.204C325.737 303.046 327.391 303.489 329.075 303.489C330.759 303.489 332.413 303.046 333.871 302.204L399.29 264.528C399.524 264.395 399.718 264.202 399.852 263.969C399.986 263.736 400.056 263.472 400.055 263.203V241.262C400.056 240.993 399.986 240.729 399.852 240.496C399.718 240.263 399.524 240.07 399.29 239.937Z" fill="url(#paint21_linear_2536_10512)"/>
<g opacity="0.11">
<path d="M334.608 202.593C332.956 201.639 331.082 201.137 329.175 201.136C327.267 201.135 325.392 201.636 323.739 202.588L258.96 239.902C258.728 240.036 258.534 240.229 258.4 240.462C258.266 240.694 258.195 240.958 258.195 241.226C258.195 241.495 258.266 241.759 258.4 241.991C258.534 242.224 258.728 242.417 258.96 242.551L324.279 280.263C325.737 281.105 327.391 281.548 329.075 281.548C330.758 281.548 332.412 281.105 333.871 280.263L399.29 242.587C399.523 242.452 399.716 242.259 399.85 242.027C399.984 241.794 400.055 241.53 400.055 241.262C400.055 240.993 399.984 240.73 399.85 240.497C399.716 240.264 399.523 240.071 399.29 239.937L334.608 202.593Z" fill="url(#paint22_linear_2536_10512)"/>
</g>
<g opacity="0.5">
<path d="M331.449 223.983C330.749 223.579 329.955 223.366 329.146 223.365C328.337 223.365 327.543 223.577 326.842 223.981L297.818 240.699C297.714 240.759 297.628 240.845 297.568 240.949C297.508 241.053 297.477 241.17 297.477 241.29C297.477 241.41 297.508 241.528 297.568 241.631C297.628 241.735 297.714 241.821 297.818 241.881L326.962 258.707C327.612 259.083 328.35 259.281 329.101 259.281C329.853 259.281 330.591 259.083 331.241 258.707L360.43 241.897C360.533 241.837 360.62 241.751 360.68 241.647C360.739 241.543 360.771 241.426 360.771 241.306C360.771 241.186 360.739 241.068 360.68 240.965C360.62 240.861 360.533 240.775 360.43 240.715L331.449 223.983Z" fill="#42A2E8"/>
</g>
<path d="M297.817 241.748L326.841 225.029C327.542 224.626 328.336 224.413 329.145 224.414C329.954 224.414 330.748 224.627 331.449 225.032L360.429 241.763C360.458 241.78 360.47 241.81 360.495 241.83C360.583 241.764 360.654 241.676 360.7 241.576C360.746 241.475 360.767 241.365 360.761 241.255C360.754 241.145 360.72 241.037 360.663 240.943C360.605 240.849 360.524 240.771 360.429 240.715L331.449 223.983C330.748 223.579 329.954 223.366 329.145 223.365C328.336 223.365 327.542 223.577 326.841 223.981L297.817 240.699C297.722 240.755 297.641 240.833 297.584 240.927C297.526 241.022 297.492 241.129 297.486 241.239C297.479 241.349 297.5 241.46 297.546 241.56C297.592 241.66 297.663 241.748 297.751 241.814C297.777 241.794 297.788 241.765 297.817 241.748Z" fill="#42A2E8"/>
<path d="M399.291 241.079L333.871 278.756C332.413 279.597 330.759 280.041 329.075 280.041C327.392 280.041 325.738 279.597 324.279 278.756L258.961 241.044C258.723 240.908 258.527 240.711 258.393 240.473C258.195 240.824 258.143 241.239 258.249 241.629C258.356 242.018 258.611 242.349 258.961 242.551L324.279 280.263C325.738 281.105 327.392 281.548 329.075 281.548C330.759 281.548 332.413 281.105 333.871 280.263L399.291 242.587C399.64 242.385 399.896 242.053 400.002 241.664C400.108 241.275 400.056 240.859 399.858 240.508C399.724 240.746 399.528 240.944 399.291 241.079Z" fill="url(#paint23_linear_2536_10512)"/>
<path opacity="0.50196" d="M382.487 149.805V111.005C381.588 97.782 376.356 85.1773 367.572 73.6548V112.455C376.356 123.978 381.588 136.582 382.487 149.805ZM363.082 107.005V68.2047C359.881 64.6119 356.449 61.231 352.809 58.0835V96.8838C356.449 100.031 359.881 103.412 363.082 107.005ZM346.453 91.7128V52.9125C342.249 49.7149 337.878 46.7415 333.36 44.0047V82.8049C337.878 85.5417 342.249 88.5152 346.453 91.7128ZM324.57 89.2735V27.543C360.315 46.5062 382.626 73.6264 382.626 103.631V165.362C382.626 135.357 360.315 108.237 324.57 89.2735Z" fill="#42A2E8"/>
<path opacity="0.50196" d="M259.2 59.6379V48.4905C256.473 47.9681 253.717 47.4824 250.932 47.0331V58.1806C253.716 58.6295 256.472 59.1153 259.2 59.6379ZM244.326 46.0455V36.1801C241.5 35.7902 238.648 35.4387 235.77 35.1256V44.9911C238.647 45.3039 241.499 45.6554 244.326 46.0455ZM273.514 51.6277V38.1778C270.897 37.5294 268.247 36.9157 265.566 36.3367V49.7866C268.247 50.3652 270.896 50.9789 273.514 51.6277ZM228.941 44.3264V24.4696C226.029 24.219 223.094 24.0084 220.137 23.838V43.6949C223.094 43.865 226.028 44.0755 228.941 44.3264ZM196.996 43.2078V23.351C194.002 23.3963 191.027 23.4832 188.069 23.6117V43.4685C191.026 43.3404 194.002 43.2535 196.996 43.2078ZM181.127 43.8466V18.873C178.201 19.065 175.297 19.2968 172.414 19.5685V44.5422C175.296 44.2708 178.201 44.0389 181.127 43.8466ZM213.12 43.3696V14.8028C210.447 14.7086 207.758 14.6479 205.054 14.6206C204.734 14.6173 204.414 14.6146 204.094 14.6124V43.1792C204.414 43.1814 204.734 43.1841 205.054 43.1873C207.758 43.2143 210.447 43.2751 213.12 43.3696ZM165.654 45.255V9.51947C162.806 9.85223 159.981 10.2233 157.181 10.6325V46.3681C159.981 45.9592 162.805 45.5881 165.654 45.255ZM138.984 6.46214C160.706 1.90715 182.862 -0.252012 205.054 0.0233692C236.078 0.334018 265.139 5.1107 290.407 13.2663V74.9969C265.139 66.8412 236.078 62.0645 205.054 61.754C182.862 61.4786 160.706 63.6378 138.984 68.1928V6.46214Z" fill="#42A2E8"/>
<path opacity="0.50196" d="M33.9569 90.1934V77.7649C30.3524 82.8967 27.4053 88.46 25.1844 94.3248V131.136C27.4052 125.271 30.3524 119.708 33.9569 114.576V102.147C35.0269 100.607 36.1586 99.0861 37.3521 97.5835V104.286C39.6711 101.375 42.15 98.5946 44.7774 95.9582V89.2556C56.4222 77.5367 71.9309 67.2577 90.2912 58.9792V47.0253C87.0242 48.4983 83.8493 50.0337 80.7666 51.6314C79.225 52.4303 77.7076 53.2442 76.2144 54.0731C65.142 60.0809 54.9226 67.5423 45.8279 76.2588C45.4743 76.6051 45.1242 76.9527 44.7774 77.3016V70.5991C42.15 73.2354 39.6711 76.0157 37.3521 78.927V85.6296C36.1592 87.1318 35.0275 88.6531 33.9569 90.1934ZM22.7812 89.8046C29.8011 59.6801 59.3125 33.736 101.173 17.5898V79.3205C59.3125 95.4666 29.8011 121.411 22.7812 151.535V89.8046Z" fill="#42A2E8"/>
<path opacity="0.75294" d="M44.7814 77.3021C45.1282 76.9532 45.4784 76.6056 45.8319 76.2592V88.2132C52.4685 81.7943 59.7539 76.082 67.5708 71.1684C70.3507 69.3983 73.2332 67.6847 76.2184 66.0276V54.0736C77.7113 53.2449 79.2287 52.431 80.7706 51.6318V63.5858C83.8514 61.9891 87.0263 60.4538 90.2952 58.9797C71.9349 67.2581 56.4262 77.5372 44.7814 89.2561V77.3021ZM33.9609 90.1938C35.0309 88.6538 36.1626 87.1326 37.3561 85.63V97.5839C36.1632 99.0863 35.0315 100.608 33.9609 102.148V90.1938Z" fill="#42A2E8"/>
<path opacity="0.87843" d="M80.7656 51.6315C83.8464 50.0349 87.0212 48.4995 90.2902 47.0254V58.9793C87.0232 60.4524 83.8483 61.9878 80.7656 63.5854V51.6315Z" fill="#42A2E8"/>
<path opacity="0.6" d="M45.8281 76.2587C52.4648 69.8398 59.7502 64.1275 67.5671 59.2139V71.1679C59.7502 76.0815 52.4648 81.7938 45.8281 88.2128V76.2587Z" fill="#42A2E8"/>
<path opacity="0.97255" d="M67.5703 59.213C70.3502 57.443 73.2327 55.7294 76.2179 54.0723V66.0263C73.2346 67.6824 70.3521 69.396 67.5703 71.1671V59.213Z" fill="#42A2E8"/>
<path opacity="0.75294" d="M25.1875 94.3245C27.4084 88.4597 30.3555 82.8964 33.96 77.7646V90.1931C30.3555 95.3249 27.4084 100.888 25.1875 106.753V118.707C27.4083 112.842 30.3555 107.279 33.96 102.147V114.576C30.3555 119.707 27.4083 125.271 25.1875 131.136V94.3245Z" fill="#42A2E8"/>
<path opacity="0.87843" d="M25.1875 106.753C27.4084 100.888 30.3555 95.3252 33.96 90.1934V102.147C30.3555 107.279 27.4083 112.842 25.1875 118.707V106.753Z" fill="#42A2E8"/>
<path opacity="0.75294" d="M37.3516 97.5831C39.6706 94.6718 42.1496 91.8916 44.7769 89.2552V95.9578C42.1495 98.5942 39.6706 101.374 37.3516 104.286V97.5831ZM37.3516 78.9266C39.6706 76.0153 42.1495 73.235 44.7769 70.5986V77.3012C42.1495 79.9376 39.6706 82.7178 37.3516 85.6292V78.9266Z" fill="#42A2E8"/>
<path opacity="0.87843" d="M37.3516 85.6287C39.6706 82.7174 42.1495 79.9372 44.7769 77.3008V89.2548C42.1496 91.8912 39.6706 94.6714 37.3516 97.5827V85.6287Z" fill="#42A2E8"/>
<path opacity="0.75294" d="M367.57 73.6543C376.355 85.1768 381.587 97.7815 382.486 111.004V149.805C381.587 136.582 376.355 123.977 367.57 112.455V73.6543Z" fill="#42A2E8"/>
<path d="M352.812 58.083C356.452 61.2305 359.884 64.6114 363.085 68.2042V107.005C359.884 103.412 356.452 100.031 352.812 96.8833V58.083Z" fill="#42A2E8"/>
<path opacity="0.75294" d="M333.359 44.0049C337.877 46.7416 342.248 49.715 346.452 52.9126V91.7129C342.248 88.5153 337.877 85.5419 333.359 82.805V44.0049Z" fill="#42A2E8"/>
<path opacity="0.75294" d="M265.57 36.3359C268.251 36.9146 270.9 37.5284 273.519 38.1771V51.627C270.901 50.9785 268.251 50.3648 265.57 49.7858V36.3359Z" fill="#42A2E8"/>
<path opacity="0.75294" d="M250.938 47.0332C253.722 47.482 256.478 47.9678 259.206 48.4905V59.638C256.478 59.1157 253.722 58.6299 250.938 58.1807V47.0332Z" fill="#42A2E8"/>
<path opacity="0.75294" d="M235.773 35.125C238.651 35.4377 241.503 35.7892 244.33 36.1795V46.0449C241.504 45.6551 238.651 45.3036 235.773 44.9904V35.125Z" fill="#42A2E8"/>
<path opacity="0.75294" d="M220.141 23.8379C223.098 24.0079 226.032 24.2185 228.945 24.4695V44.3263C226.033 44.0758 223.098 43.8652 220.141 43.6947V23.8379Z" fill="#42A2E8"/>
<path opacity="0.75294" d="M204.094 14.6123C204.413 14.6146 204.733 14.6173 205.053 14.6205C207.757 14.6476 210.446 14.7083 213.119 14.8027V43.3695C210.446 43.2754 207.758 43.2146 205.053 43.1872C204.733 43.184 204.413 43.1813 204.094 43.1791V14.6123Z" fill="#42A2E8"/>
<path d="M188.07 23.6113C191.027 23.4831 194.003 23.3962 196.997 23.3506V43.2074C194.004 43.2527 191.028 43.3396 188.07 43.4681V23.6113Z" fill="#42A2E8"/>
<path opacity="0.75294" d="M172.414 19.5686C175.297 19.2972 178.201 19.0654 181.127 18.873V43.8466C178.202 44.0386 175.297 44.2704 172.414 44.5422V19.5686Z" fill="#42A2E8"/>
<path d="M157.188 10.6326C159.987 10.2237 162.811 9.8527 165.66 9.51953V45.255C162.812 45.5879 159.987 45.959 157.188 46.3682V10.6326Z" fill="#42A2E8"/>
<g opacity="0.11">
<path d="M194.663 295.037C196.217 294.14 197.979 293.668 199.772 293.667C201.566 293.666 203.328 294.137 204.882 295.032L265.785 330.113C266.004 330.24 266.186 330.421 266.312 330.64C266.438 330.858 266.504 331.106 266.504 331.359C266.504 331.611 266.438 331.859 266.312 332.078C266.186 332.297 266.004 332.478 265.785 332.604L204.375 368.06C203.004 368.851 201.449 369.268 199.866 369.268C198.283 369.268 196.728 368.851 195.357 368.06L133.852 332.638C133.633 332.511 133.452 332.33 133.325 332.111C133.199 331.893 133.133 331.645 133.133 331.392C133.133 331.14 133.199 330.892 133.325 330.673C133.452 330.455 133.633 330.273 133.852 330.147L194.663 295.037Z" fill="url(#paint24_linear_2536_10512)"/>
</g>
<g opacity="0.11">
<path d="M194.663 284.778C196.217 283.882 197.979 283.409 199.772 283.408C201.566 283.407 203.328 283.878 204.882 284.773L265.785 319.855C266.004 319.981 266.186 320.163 266.312 320.381C266.438 320.6 266.504 320.848 266.504 321.1C266.504 321.353 266.438 321.601 266.312 321.819C266.186 322.038 266.004 322.219 265.785 322.346L204.375 357.801C203.004 358.593 201.449 359.009 199.866 359.009C198.283 359.009 196.728 358.593 195.357 357.801L133.852 322.379C133.633 322.253 133.452 322.071 133.325 321.853C133.199 321.634 133.133 321.386 133.133 321.134C133.133 320.881 133.199 320.633 133.325 320.414C133.452 320.196 133.633 320.014 133.852 319.888L194.663 284.778Z" fill="url(#paint25_linear_2536_10512)"/>
</g>
<g opacity="0.11">
<path d="M193.57 259.62C195.454 258.533 197.59 257.96 199.765 257.959C201.94 257.958 204.077 258.529 205.961 259.614L279.81 302.152C280.075 302.305 280.295 302.526 280.448 302.791C280.601 303.056 280.681 303.356 280.681 303.663C280.681 303.969 280.601 304.269 280.448 304.534C280.295 304.799 280.075 305.02 279.81 305.173L205.346 348.164C203.684 349.124 201.798 349.629 199.879 349.629C197.959 349.629 196.073 349.124 194.411 348.164L119.833 305.213C119.568 305.06 119.348 304.84 119.195 304.575C119.042 304.31 118.961 304.009 118.961 303.703C118.961 303.397 119.042 303.096 119.195 302.831C119.348 302.566 119.568 302.346 119.833 302.193L193.57 259.62Z" fill="url(#paint26_linear_2536_10512)"/>
</g>
<g opacity="0.11">
<path d="M193.57 247.18C195.454 246.093 197.59 245.52 199.765 245.519C201.94 245.517 204.077 246.088 205.961 247.174L279.81 289.712C280.075 289.865 280.295 290.085 280.448 290.35C280.601 290.615 280.681 290.916 280.681 291.222C280.681 291.528 280.601 291.829 280.448 292.094C280.295 292.359 280.075 292.579 279.81 292.732L205.346 335.724C203.684 336.684 201.798 337.189 199.879 337.189C197.959 337.189 196.074 336.684 194.411 335.724L119.833 292.773C119.568 292.62 119.348 292.4 119.195 292.134C119.042 291.869 118.961 291.569 118.961 291.263C118.961 290.956 119.042 290.656 119.195 290.391C119.348 290.126 119.568 289.905 119.833 289.752L193.57 247.18Z" fill="url(#paint27_linear_2536_10512)"/>
</g>
<g opacity="0.11">
<path d="M193.57 234.74C195.454 233.652 197.59 233.079 199.765 233.078C201.94 233.077 204.077 233.648 205.961 234.733L279.81 277.271C280.075 277.425 280.295 277.645 280.448 277.91C280.601 278.175 280.681 278.476 280.681 278.782C280.681 279.088 280.601 279.388 280.448 279.654C280.295 279.919 280.075 280.139 279.81 280.292L205.346 323.284C203.684 324.243 201.798 324.748 199.879 324.748C197.959 324.748 196.074 324.243 194.411 323.284L119.833 280.332C119.568 280.179 119.348 279.959 119.195 279.694C119.042 279.429 118.961 279.128 118.961 278.822C118.961 278.516 119.042 278.215 119.195 277.95C119.348 277.685 119.568 277.465 119.833 277.312L193.57 234.74Z" fill="url(#paint28_linear_2536_10512)"/>
</g>
<g opacity="0.11">
<path d="M193.57 222.298C195.454 221.211 197.59 220.638 199.765 220.637C201.94 220.636 204.077 221.206 205.961 222.292L279.81 264.83C280.075 264.983 280.295 265.203 280.448 265.468C280.601 265.733 280.681 266.034 280.681 266.34C280.681 266.646 280.601 266.947 280.448 267.212C280.295 267.477 280.075 267.697 279.81 267.851L205.346 310.842C203.684 311.802 201.798 312.307 199.879 312.307C197.959 312.307 196.073 311.802 194.411 310.842L119.833 267.891C119.568 267.738 119.348 267.518 119.195 267.253C119.042 266.988 118.961 266.687 118.961 266.381C118.961 266.075 119.042 265.774 119.195 265.509C119.348 265.244 119.568 265.024 119.833 264.871L193.57 222.298Z" fill="url(#paint29_linear_2536_10512)"/>
</g>
<path opacity="0.4" d="M119.833 264.871L193.57 222.298C195.454 221.211 197.59 220.638 199.765 220.637C201.94 220.636 204.077 221.206 205.961 222.292L279.81 264.83C280.076 264.982 280.297 265.202 280.45 265.467C280.603 265.733 280.683 266.034 280.682 266.34V303.662C280.683 303.969 280.603 304.27 280.45 304.535C280.297 304.801 280.076 305.021 279.81 305.172L205.346 348.164C203.684 349.124 201.798 349.629 199.879 349.629C197.959 349.629 196.074 349.124 194.411 348.164L119.833 305.213C119.567 305.061 119.346 304.841 119.192 304.576C119.039 304.31 118.959 304.009 118.961 303.703V266.381C118.959 266.074 119.039 265.773 119.192 265.508C119.346 265.242 119.567 265.022 119.833 264.871Z" fill="url(#paint30_linear_2536_10512)"/>
<g opacity="0.11">
<path d="M193.57 222.298C195.454 221.211 197.59 220.638 199.765 220.637C201.94 220.636 204.077 221.206 205.961 222.292L279.81 264.83C280.075 264.983 280.295 265.203 280.448 265.468C280.601 265.733 280.681 266.034 280.681 266.34C280.681 266.646 280.601 266.947 280.448 267.212C280.295 267.477 280.075 267.697 279.81 267.851L205.346 310.842C203.684 311.802 201.798 312.307 199.879 312.307C197.959 312.307 196.073 311.802 194.411 310.842L119.833 267.891C119.568 267.738 119.348 267.518 119.195 267.253C119.042 266.988 118.961 266.687 118.961 266.381C118.961 266.075 119.042 265.774 119.195 265.509C119.348 265.244 119.568 265.024 119.833 264.871L193.57 222.298Z" fill="url(#paint31_linear_2536_10512)"/>
</g>
<path d="M119.826 266.173L194.404 309.124C196.066 310.084 197.952 310.589 199.871 310.589C201.791 310.589 203.676 310.084 205.339 309.124L279.802 266.133C280.073 265.978 280.296 265.753 280.449 265.481C280.675 265.882 280.734 266.356 280.613 266.799C280.492 267.243 280.201 267.621 279.802 267.851L205.339 310.842C203.676 311.802 201.791 312.307 199.871 312.307C197.952 312.307 196.066 311.802 194.404 310.842L119.826 267.891C119.427 267.661 119.136 267.283 119.015 266.84C118.894 266.396 118.953 265.922 119.179 265.522C119.332 265.793 119.555 266.018 119.826 266.173Z" fill="url(#paint32_linear_2536_10512)"/>
<path opacity="0.2" d="M199.814 289.946C222.269 289.946 240.472 279.436 240.472 266.472C240.472 253.508 222.269 242.998 199.814 242.998C177.359 242.998 159.156 253.508 159.156 266.472C159.156 279.436 177.359 289.946 199.814 289.946Z" fill="#180D5B"/>
<path d="M215.291 246.569C215.291 246.569 216.279 247.6 217.305 248.814C218.865 250.225 220.583 251.452 222.425 252.47C223.636 253.222 229.185 257.428 230.345 261.57C231.505 265.712 227.54 266.26 223.483 265.54C219.427 264.821 215.637 261.079 214.533 259.728C213.429 258.377 209.59 255.31 204.612 252.733C199.634 250.157 202.644 246.693 202.644 246.693L215.291 246.569Z" fill="#160A5B"/>
<path d="M178.333 258.873C177.781 260.235 177.426 261.669 177.28 263.131C177.047 265.527 176.712 270.72 176.588 272.239C176.314 275.378 177.204 278.508 179.087 281.034C181.761 284.594 183.142 285.999 186.696 284.599C190.249 283.199 190.168 277.235 189.54 274.167C188.933 270.645 188.55 267.087 188.391 263.516C188.438 263.111 188.367 262.701 188.188 262.335L178.333 258.873Z" fill="#160A5B"/>
<path d="M227.554 176.2C227.554 176.2 226.805 203.551 220.431 218.07C217.452 227.126 215.713 236.544 215.263 246.066C215.555 246.839 215.667 247.668 215.591 248.491C215.514 249.314 215.251 250.108 214.822 250.814C213.327 252.944 203.969 254.892 202.423 247.898C200.876 240.905 201.471 227.818 203.17 222.36C204.87 216.903 202.565 201.862 202.565 201.862C202.565 201.862 200.007 203.496 196.654 214.302C193.302 225.108 190.835 229.23 189.681 232.215C188.528 235.201 187.467 253.514 188.198 262.457C188.198 262.457 180.62 263.533 178.429 259.91C176.238 256.288 175.505 237.547 176.061 231.573C176.616 225.598 179.115 206.458 178.771 200.535C178.428 194.613 177.194 189.803 178.549 183.888C179.904 177.973 219.891 164.83 219.891 164.83L227.554 176.2Z" fill="#0D1455"/>
<path d="M178.771 200.535C178.428 194.612 177.194 189.803 178.549 183.887C179.058 181.664 185.027 178.419 192.279 175.235C204.517 174.118 220.037 172.821 221.107 172.984C223.016 173.495 224.886 174.146 226.7 174.933L227.554 176.2C227.554 176.2 227.508 177.863 227.345 180.579C224.49 181.433 218.999 180.552 218.999 180.552C218.226 182.471 213.457 189.292 207.525 192.236C201.594 195.179 184.239 194.169 183.242 195.288C182.246 196.407 182.053 211.381 182.163 213.285C182.274 215.189 180.528 227.175 178.914 237.774C177.326 248.202 179.743 260.875 179.822 261.282C179.258 260.938 178.781 260.469 178.429 259.91C176.238 256.288 175.505 237.547 176.061 231.573C176.616 225.598 179.115 206.458 178.771 200.535Z" fill="#160A5B"/>
<path d="M214.173 86.7412C214.173 86.7412 223.044 88.7646 226.029 89.4652C226.271 89.522 226.497 89.6369 226.685 89.8002C226.873 89.9635 227.019 90.1702 227.11 90.4024C227.971 92.5837 230.132 99.3609 228.504 109.256C227.31 115.969 226.852 122.792 227.137 129.604L231.24 150.961C231.24 150.961 236.399 171.302 235.954 171.858C235.509 172.415 224.075 181.116 220.502 179.891C216.929 178.665 218.103 176.643 218.103 176.643C218.103 176.643 215.208 191.384 202.395 191.243C189.582 191.101 179.114 191.142 176.939 185.962C174.764 180.783 177.534 159.009 179.793 150.389C182.052 141.768 187.423 124.584 187.423 124.584L168.656 103.812L184.695 91.563C184.695 91.563 188.527 84.4431 190.102 83.5383C191.676 82.6334 192.499 83.3994 192.499 83.3994L214.173 86.7412Z" fill="#223A8E"/>
<path opacity="0.5" d="M220.279 175.195C220.268 175.935 220.699 177.037 223.002 177.827C225.49 178.68 231.586 174.974 235.583 172.185C233.588 173.843 223.767 181.012 220.498 179.891C219.924 179.708 219.382 179.437 218.891 179.088C219.455 177.829 219.919 176.527 220.279 175.195Z" fill="url(#paint33_linear_2536_10512)"/>
<path opacity="0.5" d="M177.031 184.234C179.326 189.7 190.373 189.657 203.895 189.806C206.88 189.887 209.816 189.04 212.301 187.383C210.991 188.656 209.439 189.654 207.737 190.316C206.035 190.979 204.218 191.294 202.392 191.242C189.579 191.101 179.111 191.142 176.936 185.962C176.222 184.262 176.043 180.768 176.202 176.544C176.172 179.976 176.408 182.752 177.031 184.234Z" fill="url(#paint34_linear_2536_10512)"/>
<path d="M190.444 83.3608C190.444 83.3608 187.168 87.3253 191.882 92.6762C196.425 98.2477 200.488 104.193 204.03 110.448C206.687 115.055 209.143 117.511 210.536 121.47C210.536 121.47 210.73 116.767 210.917 109.506C211.093 102.654 211.186 95.5327 210.879 93.7395C210.247 90.046 194.065 81.5647 190.444 83.3608Z" fill="#F0F6FF"/>
<path d="M202.701 95.2854C202.701 95.2854 204.379 96.3287 204.958 96.2421C205.537 96.1556 207.395 94.35 207.395 94.35C207.395 94.35 212.046 94.266 212.554 92.2733C212.89 90.5694 213.329 88.8873 213.867 87.2361C214.338 86.2008 216.344 81.2297 216.36 79.2124C216.375 77.1953 216.299 73.5917 217.17 71.6842C218.041 69.7766 219.216 50.6868 200.783 51.225C182.349 51.7632 188.075 70.9038 188.075 70.9038C188.075 70.9038 186.729 71.4771 187.544 73.9413C188.359 76.4055 188.542 76.6603 188.957 77.8829C189.209 79.0528 189.839 80.1071 190.75 80.8831L191.055 83.1533C190.83 84.3298 190.84 85.5391 191.083 86.7121C191.326 87.885 191.798 88.9985 192.471 89.9888C194.763 93.358 202.701 95.2854 202.701 95.2854Z" fill="#FCD1C5"/>
<path d="M226.535 89.6855C226.535 89.6855 228.5 89.9779 234.878 106.021C238.437 114.973 243.929 124.244 245.093 130.897C246.257 137.55 245.608 144.663 244.293 145.163C243.026 145.645 220.113 154.219 212.942 156.926C212.849 156.961 212.749 156.975 212.65 156.967C212.552 156.959 212.456 156.929 212.369 156.88C212.283 156.831 212.209 156.763 212.152 156.682C212.095 156.6 212.057 156.508 212.04 156.41L210.062 145.344L224.282 139.85C225.76 138.043 227.537 136.503 229.536 135.299C229.536 135.299 226.686 130.045 226.867 128.611C227.049 127.177 226.613 112.337 228.279 106.298C229.945 100.258 226.535 89.6855 226.535 89.6855Z" fill="#0D1455"/>
<path d="M218.203 132.085C218.991 131.543 219.806 131.041 220.645 130.581C221.129 130.394 223.748 129.499 224.248 129.276C225.133 129.169 226.028 129.182 226.909 129.314C227.044 129.327 227.175 129.374 227.288 129.449C227.402 129.524 227.495 129.627 227.56 129.747C228.165 130.869 229.85 134.135 229.66 135.382C229.66 135.382 224.926 138.373 224.398 139.708L223.642 139.87C223.642 139.87 220.471 133.068 218.203 132.085Z" fill="#FCD1C5"/>
<path d="M179.788 150.389C180.332 148.314 181.056 145.743 181.842 143.036L210.64 155.38C207.651 158.669 203.978 161.262 199.878 162.976C195.778 164.69 191.352 165.483 186.912 165.3C183.594 165.113 180.377 164.096 177.555 162.343C178.088 158.321 178.833 154.331 179.788 150.389Z" fill="#0D1455"/>
<path d="M168.652 103.812C168.652 103.812 176.247 104.857 182.382 114.582C186.472 121.282 190.019 128.297 192.99 135.562L193.201 136.828C193.33 137.6 193.633 138.332 194.089 138.968C194.544 139.604 195.14 140.128 195.829 140.498C196.518 140.869 197.283 141.076 198.065 141.105C198.847 141.134 199.625 140.983 200.34 140.664C206.819 137.771 216.414 133.397 218.203 132.084C220.076 133.279 221.687 134.84 222.942 136.673C224.197 138.505 225.07 140.572 225.507 142.75C226.756 148.726 226.439 148.745 226.439 148.745C226.439 148.745 200.866 160.68 190.991 160.563C181.115 160.445 168.585 127.975 167.206 121.263C165.826 114.552 164.305 105.708 168.652 103.812Z" fill="#24126A"/>
<path d="M168.652 103.812C168.652 103.812 176.247 104.857 182.382 114.582C186.472 121.282 190.019 128.297 192.99 135.562L193.201 136.828C193.33 137.6 193.633 138.332 194.089 138.968C194.544 139.604 195.14 140.128 195.829 140.498C196.518 140.869 197.283 141.076 198.065 141.105C198.847 141.134 199.625 140.983 200.34 140.664C206.819 137.771 216.414 133.397 218.203 132.084C220.076 133.279 221.687 134.84 222.942 136.673C224.197 138.505 225.07 140.572 225.507 142.75C226.756 148.726 226.439 148.745 226.439 148.745C226.439 148.745 200.866 160.68 190.991 160.563C181.115 160.445 168.585 127.975 167.206 121.263C165.826 114.552 164.305 105.708 168.652 103.812Z" fill="#466CA5"/>
<path d="M196.673 142.177C196.673 142.177 193.447 145.194 192.043 143.542C190.638 141.89 191.052 141.707 191.052 141.707C191.052 141.707 188.15 141.68 187.797 139.862C187.444 138.043 186.014 139.004 185.932 136.978C185.85 134.952 188.281 135.367 188.281 135.367L196.673 142.177Z" fill="#453C9E"/>
<path d="M200.567 140.564C200.567 140.564 199.68 139.738 198.536 138.77C197.392 137.802 195.542 133.797 195.23 133.444C194.917 133.09 191.058 130.131 189.198 130.079C187.338 130.028 188.719 132.11 189.147 132.403C189.575 132.697 191.392 133.6 191.392 133.6C191.392 133.6 193.26 135.169 193.473 135.399C193.685 135.629 188.278 135.027 187.42 135.554C187.245 135.688 187.103 135.858 187.003 136.054C186.904 136.249 186.849 136.465 186.844 136.684C186.839 136.903 186.883 137.121 186.974 137.321C187.064 137.521 187.198 137.698 187.366 137.839C187.683 138.055 188.053 138.18 188.435 138.202C188.267 138.653 188.279 139.152 188.467 139.595C188.656 140.038 189.007 140.392 189.449 140.584C191.071 141.338 191.445 140.919 191.445 140.919C191.445 140.919 191.585 143.73 194.263 143.173L200.567 140.564Z" fill="#FCD1C5"/>
<path d="M217.584 61.923C217.584 61.923 219.991 69.5832 213.657 67.4035C207.323 65.224 201.593 61.5768 199.604 62.9655C198.09 64.0229 198.16 67.2645 198.279 68.7514C198.32 69.2571 198.186 69.7617 197.899 70.1798L196.022 72.9088C195.81 73.2168 195.684 73.5759 195.658 73.9489L195.524 75.8472C195.508 76.078 195.408 76.2951 195.243 76.4577C195.078 76.6204 194.86 76.7175 194.629 76.7309L194.197 76.756C193.963 76.7695 193.733 76.6968 193.55 76.5518C193.367 76.4068 193.244 76.1996 193.203 75.9695L192.715 73.1808C192.715 73.1808 191.224 69.4293 188.073 70.9031C188.073 70.9031 185.966 68.0716 186.666 62.0178C187.366 55.9638 190.079 49.6693 201.959 48.6622C213.838 47.6551 217.584 61.923 217.584 61.923Z" fill="#AA8383"/>
<path d="M199.43 102.027L201.207 100.648C202.141 101.433 202.916 102.388 203.492 103.463C204.133 104.912 203.49 109.516 203.49 109.516L204.032 110.448L204.699 109.23L205.262 103.785C205.262 103.785 204.657 99.7612 204.598 99.6585C204.539 99.5559 201.17 100.017 201.17 100.017C200.466 100.569 199.875 101.252 199.43 102.027Z" fill="#C4CCD6"/>
<path d="M207.977 96.6094C208.949 96.6622 209.894 96.9494 210.731 97.4465C210.731 97.4465 208.738 97.5444 208.422 97.5804C208.106 97.6164 207.977 96.6094 207.977 96.6094Z" fill="#C4CCD6"/>
<path d="M204.359 97.0374L201.172 100.017C202.794 100.792 204.07 102.142 204.752 103.806C204.752 103.806 208.221 104.454 208.537 103.197C208.853 101.941 208.528 98.7765 208.942 97.373C209.356 95.9693 204.359 97.0374 204.359 97.0374Z" fill="#0D1455"/>
<path d="M208.406 103.126C208.683 104.396 209.098 105.632 209.646 106.812C210.293 107.889 210.956 109.096 210.956 109.096L210.877 124.391C210.877 124.391 205.252 112.796 204.031 110.448C204.031 110.448 204.218 104.863 204.749 103.806C205.281 102.75 208.406 103.126 208.406 103.126Z" fill="#0D1455"/>
<path d="M193.302 80.5225C196.998 91.1854 207.395 94.3497 207.395 94.3497C207.395 94.3497 205.537 96.1553 204.958 96.2418C204.38 96.3284 202.701 95.2851 202.701 95.2851C202.701 95.2851 194.763 93.3577 192.472 89.9886C191.798 88.9982 191.326 87.8846 191.083 86.7117C190.84 85.5388 190.831 84.3294 191.055 83.1528L190.75 80.8828C191.168 81.0593 191.626 81.1189 192.076 81.0555C192.525 80.992 192.949 80.8078 193.302 80.5225Z" fill="#E2B1A6"/>
<path d="M184.844 93.0039C184.844 93.0039 186.303 98.0362 186.491 98.2259C187.717 98.2553 188.943 98.1842 190.157 98.0134L188.468 101.213C188.468 101.213 205.969 119.981 209.596 130.077C202.784 120.089 195.138 110.696 186.74 101.998L188.802 98.8762L185.225 99.5744L184.844 93.0039Z" fill="#0D1455"/>
<path d="M213.592 88.5605L214.52 89.6208L213.43 90.6393L216.666 93.5643C216.666 93.5643 217.655 114.094 213.703 127.694C213.703 127.694 219.068 115.219 217.851 93.0049L214.349 90.6301L215.495 89.5025L213.592 88.5605Z" fill="#0D1455"/>
<path d="M202.568 201.861C202.526 201.891 202.486 201.922 202.447 201.957L206.981 197.131C204.888 200.082 207.299 213.596 207.549 216.69C207.799 219.783 205.128 226.173 204.128 233.659C203.13 241.134 205.176 251.807 205.182 251.839C204.466 251.419 203.849 250.85 203.374 250.169C202.898 249.489 202.575 248.715 202.426 247.898C200.879 240.905 201.474 227.818 203.173 222.36C204.873 216.903 202.568 201.861 202.568 201.861Z" fill="#160A5B"/>
<path opacity="0.5" d="M190.996 160.563C181.121 160.446 168.591 127.976 167.211 121.264C166.981 120.144 166.749 118.964 166.539 117.768C166.575 117.865 169.133 124.876 171.601 131.091C174.087 137.35 187.284 156.322 194.028 157.558C200.11 158.673 221.988 148.46 226.225 146.444C226.608 148.724 226.444 148.745 226.444 148.745C226.444 148.745 200.872 160.681 190.996 160.563Z" fill="url(#paint35_linear_2536_10512)"/>
<path d="M194.197 76.7566C193.964 76.7701 193.734 76.6975 193.551 76.5524C193.368 76.4074 193.244 76.2002 193.204 75.9701L192.716 73.1814C192.716 73.1814 191.225 69.4299 188.074 70.9037C188.074 70.9037 186.086 68.2142 186.623 62.4932C190.126 67.7521 197.899 70.1804 197.899 70.1804L196.022 72.9095C195.81 73.2175 195.685 73.5765 195.658 73.9494L195.524 75.8478C195.508 76.0787 195.408 76.2957 195.244 76.4583C195.079 76.621 194.861 76.7181 194.63 76.7316L194.197 76.7566Z" fill="#936D6D"/>
<path opacity="0.50196" d="M78.5658 232.008L78.5657 221.578C80.6555 222.698 82.7911 223.789 84.9726 224.852V235.282C82.7917 234.22 80.6561 233.128 78.5658 232.008ZM58.0245 218.975V199.754C59.7604 201.062 61.5489 202.346 63.3899 203.604V222.825C61.5495 221.567 59.7611 220.283 58.0245 218.975ZM67.8154 225.74L67.8153 203.069C69.735 204.287 71.704 205.479 73.7222 206.644V229.314C71.7046 228.15 69.7356 226.958 67.8154 225.74ZM41.5478 204.091V178.938C42.8804 180.404 44.2718 181.85 45.7221 183.274V208.427C44.2725 207.003 42.8811 205.558 41.5478 204.091ZM49.2484 211.747V184.497C50.789 185.888 52.3854 187.257 54.0376 188.603V215.852C52.3862 214.507 50.7897 213.139 49.2484 211.747ZM29.6184 187.64V158.097C30.5044 159.697 31.4557 161.28 32.4723 162.846V192.389C31.4563 190.824 30.505 189.241 29.6184 187.64ZM34.9816 196.041V157.608C36.0973 159.145 37.2751 160.663 38.515 162.163V200.595C37.2756 199.096 36.0978 197.578 34.9816 196.041ZM25.5161 178.923V135.517C26.1608 137.173 26.8741 138.813 27.656 140.439V183.845C26.8747 182.22 26.1614 180.579 25.5161 178.923ZM98.1513 188.555C56.8527 171.917 28.3193 145.634 22.3438 115.521V177.252C28.3193 207.364 56.8527 233.648 98.1513 250.286V188.555Z" fill="#5EB4F2"/>
<path opacity="0.50196" d="M219.249 257.127V243.201C226.354 242.813 233.334 242.194 240.188 241.342V255.267C233.342 256.114 226.362 256.734 219.249 257.127ZM185.853 257.19V231.813C190.11 232.028 194.409 232.158 198.75 232.203C201.716 232.232 204.666 232.221 207.599 232.169V257.546C204.666 257.598 201.717 257.609 198.75 257.58C194.411 257.536 190.112 257.407 185.853 257.19ZM153.665 253.861V215.06C160.396 216.127 167.279 216.971 174.314 217.593V256.393C167.287 255.776 160.404 254.931 153.665 253.861ZM251.188 253.695V212.718C257.87 211.633 264.389 210.338 270.744 208.832V249.809C264.397 251.311 257.879 252.606 251.188 253.695ZM287.213 195.071C260.903 203.167 230.724 207.63 198.75 207.31C177.509 207.153 156.344 204.746 135.609 200.129V261.86C156.344 266.476 177.509 268.883 198.75 269.04C230.724 269.36 260.903 264.898 287.213 256.802V195.071Z" fill="#42A2E8"/>
<path opacity="0.50196" d="M331.554 212.727V200.773C360.362 183.764 379.114 161.085 382.18 135.854V147.808C379.114 173.039 360.362 195.718 331.554 212.727ZM382.596 167.206V105.476C381.677 135.669 358.34 162.622 321.844 181.205V242.936C358.34 224.353 381.677 197.4 382.596 167.206Z" fill="#42A2E8"/>
<path opacity="0.75294" d="M382.181 135.855C379.115 161.086 360.363 183.765 331.555 200.774V212.728C360.363 195.719 379.115 173.04 382.181 147.81V135.855Z" fill="#42A2E8"/>
<path opacity="0.9" d="M174.313 217.594C167.286 216.977 160.403 216.132 153.664 215.062V253.862C160.395 254.928 167.278 255.772 174.313 256.394V217.594Z" fill="#62D0FF"/>
<path opacity="0.9" d="M240.189 241.343C233.343 242.19 226.363 242.81 219.25 243.202V257.128C226.355 256.74 233.335 256.12 240.189 255.268V241.343Z" fill="#62D0FF"/>
<path opacity="0.9" d="M270.744 208.832C264.397 210.333 257.878 211.629 251.188 212.718V253.696C257.87 252.611 264.388 251.316 270.744 249.81V208.832Z" fill="#62D0FF"/>
<path opacity="0.75294" d="M207.598 232.17C204.665 232.221 201.716 232.232 198.749 232.203C194.41 232.159 190.111 232.03 185.852 231.813V257.191C190.109 257.406 194.408 257.536 198.749 257.58C201.715 257.61 204.665 257.599 207.598 257.547V232.17Z" fill="#62D0FF"/>
<path d="M27.6556 140.438C26.8743 138.813 26.161 137.173 25.5156 135.517V178.923C26.1604 180.578 26.8737 182.219 27.6556 183.845V140.438Z" fill="#42A2E8"/>
<path d="M32.4711 162.845C31.455 161.28 30.5037 159.697 29.6172 158.097V187.64C30.5031 189.24 31.4544 190.823 32.4711 192.389V162.845Z" fill="#42A2E8"/>
<path opacity="0.75294" d="M38.51 162.162C37.2706 160.663 36.0928 159.145 34.9766 157.607V196.04C36.0922 197.577 37.2701 199.095 38.51 200.595V162.162Z" fill="#42A2E8"/>
<path d="M45.7211 183.273C44.2715 181.849 42.8801 180.404 41.5469 178.938V204.091C42.8795 205.557 44.2709 207.002 45.7211 208.426V183.273Z" fill="#42A2E8"/>
<path opacity="0.75294" d="M54.0393 188.602C52.3878 187.256 50.7914 185.888 49.25 184.496V211.746C50.7907 213.137 52.3871 214.506 54.0393 215.851V188.602Z" fill="#68BFFE"/>
<path opacity="0.75294" d="M63.3888 203.604C61.5484 202.346 59.76 201.062 58.0234 199.754V218.975C59.7593 220.283 61.5478 221.566 63.3888 222.825V203.604Z" fill="#68BFFE"/>
<path opacity="0.75294" d="M73.7194 206.643C71.7018 205.478 69.7329 204.287 67.8126 203.068L67.8125 225.739C69.7322 226.957 71.7012 228.148 73.7194 229.313V206.643Z" fill="#68BFFE"/>
<path opacity="0.75294" d="M84.9694 224.851C82.7885 223.789 80.6529 222.697 78.5626 221.577L78.5625 232.008C80.6523 233.127 82.7879 234.219 84.9694 235.282V224.851Z" fill="#68BFFE"/>
<path d="M185.877 66.912L185.324 67.173C184.857 68.8096 184.892 70.5485 185.424 72.165L187.532 71.4822L187.386 68.0823L185.877 66.912Z" fill="#AAB1B8"/>
<path d="M208.852 47.4795L209.715 47.7783C209.715 47.7783 211.48 48.5166 211.397 51.8776L210.152 51.1873C210.152 51.1873 208.752 47.445 206.086 46.6572L208.852 47.4795Z" fill="#92999D"/>
<path d="M209.465 47.8809L208.602 47.5819L207.13 47.1454C206.806 46.9343 206.455 46.7699 206.086 46.6572L208.852 47.4795L209.715 47.7783C209.715 47.7783 211.48 48.5166 211.397 51.8776L211.149 51.7393C211.143 48.5844 209.465 47.8809 209.465 47.8809Z" fill="#ACB3B7"/>
<path d="M187.233 64.9529L187.403 67.8863C186.74 67.993 186.06 67.9095 185.443 67.6457C184.722 67.2112 186.869 65.0515 187.233 64.9529Z" fill="#EEF7FF"/>
<path d="M198.999 48.2786C206.319 47.0944 214.437 52.4567 216.499 57.6519C217.353 59.8854 218 62.1925 218.432 64.5443C218.63 65.3901 219.273 69.1597 218.866 69.8399C218.46 70.5213 217.835 71.589 218.139 72.2749C218.637 73.8703 218.682 75.5726 218.27 77.1922C217.738 79.2374 215.577 81.9794 215.318 83.0276C215.057 84.0743 214.223 85.7651 213.128 89.5976C213.128 90.1451 212.581 92.0807 212.581 91.7876C212.581 90.6926 212.581 90.6926 212.581 90.1451C212.98 88.0478 213.904 86.3569 213.796 84.2247C213.79 84.168 213.787 84.1111 213.787 84.0541C211.119 85.1529 207.185 86.4358 203.705 86.2292C197.76 85.8742 194.54 82.982 193.419 80.8376C193.419 80.8376 192.135 80.885 190.681 80.8377C189.586 80.2901 188.778 77.6463 188.491 77.0051C186.885 73.4245 186.061 68.2438 186.627 61.2937C187.193 54.3435 191.683 49.4636 198.999 48.2786Z" fill="#1B1918" fill-opacity="0.26"/>
<path d="M218.276 77.1925C217.986 78.3076 217.495 79.6973 217.064 80.9005C217.213 80.4829 215.242 75.1642 215.121 73.547C215.042 72.4538 217.423 70.573 218.977 69.4674C218.966 69.5971 218.93 69.7235 218.873 69.8402C218.466 70.5217 217.841 71.5893 218.146 72.2752C218.644 73.8706 218.689 75.5729 218.276 77.1925Z" fill="#D88F69"/>
<path d="M199.006 48.2785C206.326 47.0943 214.444 52.4567 216.506 57.6518C216.892 58.6262 217.199 59.5514 217.45 60.3979C217.274 61.7644 216.62 63.6813 214.354 63.9204C210.789 64.2977 201.974 62.7959 200.064 65.2256C198.152 67.6558 198.921 68.1157 198.021 69.4156C197.12 70.7147 195.585 74.0582 194.79 73.9177C193.997 73.7796 191.928 72.4179 189.302 72.5834C188.966 72.6064 188.627 72.6265 188.288 72.648C186.889 69.0361 186.323 65.1547 186.634 61.2936C187.2 54.3434 191.69 49.4635 199.006 48.2785Z" fill="#563317"/>
<g style="mix-blend-mode:multiply" opacity="0.3">
<path d="M189.297 72.5835C188.961 72.6064 188.622 72.6266 188.283 72.6481C187.729 71.1758 187.298 69.6598 186.995 68.1159C190.872 68.3597 194.763 68.2755 198.627 67.8643C198.536 68.419 198.327 68.9479 198.016 69.4156C197.115 70.7147 195.58 74.0582 194.784 73.9178C193.991 73.7796 191.922 72.4179 189.297 72.5835Z" fill="#563317"/>
</g>
<path d="M215.44 55.2891C215.44 55.2891 213.097 54.8639 207.331 57.4997C201.564 60.1359 194.545 67.2141 194.545 67.2141L198.944 70.9236L214.563 69.0413L217.467 58.749L215.44 55.2891Z" fill="url(#paint36_linear_2536_10512)"/>
<path d="M212.259 62.2244C208.565 63.8585 205.015 65.2752 196.714 66.6351C188.939 67.907 186.719 67.9244 186.719 67.9244L187.402 70.0617L194.949 69.1249L213.863 68.6821L220.729 63.9303L218.527 60.1807L217.469 58.7491C217.469 58.7491 217.195 60.0444 212.259 62.2244Z" fill="url(#paint37_linear_2536_10512)"/>
<path d="M187.053 68.0092L189.063 67.0484C189.499 66.8891 189.97 66.8479 190.427 66.929C190.884 67.01 191.311 67.2105 191.666 67.51C192.696 68.2972 193.527 69.3163 194.09 70.4846C194.653 71.6529 194.932 72.9375 194.905 74.2341C194.921 74.7023 194.81 75.166 194.584 75.5767C194.358 75.9873 194.027 76.3298 193.624 76.5684L191.613 77.5286C191.177 77.6872 190.707 77.7278 190.251 77.6463C189.794 77.5648 189.367 77.3641 189.013 77.0645C187.983 76.2778 187.152 75.259 186.589 74.0908C186.026 72.9227 185.747 71.6382 185.774 70.3417C185.759 69.8741 185.87 69.411 186.095 69.0007C186.32 68.5905 186.65 68.2481 187.053 68.0092Z" fill="url(#paint38_linear_2536_10512)"/>
<path d="M185.771 70.3423C185.744 71.6388 186.024 72.9233 186.587 74.0914C187.15 75.2596 187.98 76.2784 189.011 77.0651C189.344 77.405 189.775 77.6321 190.244 77.7142C190.712 77.7964 191.195 77.7295 191.624 77.5231C192.052 77.3166 192.405 76.981 192.633 76.5633C192.861 76.1457 192.952 75.6671 192.894 75.195C192.92 73.8984 192.641 72.614 192.078 71.4459C191.514 70.2778 190.684 69.2589 189.653 68.4721C189.32 68.1322 188.889 67.9052 188.42 67.8231C187.952 67.741 187.469 67.8079 187.041 68.0144C186.612 68.2209 186.259 68.5565 186.032 68.9741C185.804 69.3917 185.713 69.8703 185.771 70.3423Z" fill="url(#paint39_linear_2536_10512)"/>
<path d="M186.267 71.714C186.25 72.5371 186.427 73.3527 186.785 74.0944C187.142 74.836 187.67 75.483 188.324 75.9828C188.535 76.1986 188.809 76.3426 189.107 76.3947C189.405 76.4468 189.711 76.4043 189.983 76.2732C190.256 76.142 190.48 75.9289 190.625 75.6637C190.77 75.3985 190.828 75.0945 190.791 74.7946C190.808 73.9712 190.63 73.1555 190.272 72.4138C189.914 71.6722 189.386 71.0254 188.731 70.5263C188.52 70.3105 188.246 70.1665 187.949 70.1144C187.651 70.0623 187.345 70.1048 187.073 70.2359C186.801 70.3671 186.577 70.5802 186.432 70.8453C186.287 71.1104 186.23 71.4142 186.267 71.714Z" fill="url(#paint40_linear_2536_10512)"/>
<g style="mix-blend-mode:multiply" opacity="0.2">
<path d="M198.05 50.4761C201.764 49.028 205.886 49.0302 209.598 50.4823L210.939 51.2719C209.204 50.3415 206.238 49.81 201.417 51.6337C190.17 55.8891 189.619 67.2903 189.619 67.2903L188.124 67.5553C188.124 67.5553 186.804 54.7317 198.05 50.4761Z" fill="black"/>
</g>
<path d="M219.229 72.7741C216.613 74.6808 213.037 76.616 207.432 78.4707C203.88 79.6452 200.123 82.1813 197.744 80.9032C196.479 80.1489 195.409 79.1069 194.623 77.8618C193.836 76.6167 193.354 75.2036 193.216 73.7372C192.969 71.0089 193.541 68.3601 196.337 68.3799C199.038 68.3991 204.463 69.4805 207.976 68.2235C211.375 67.0114 214.66 65.5014 217.793 63.7111C218.098 63.5504 218.364 63.3244 218.571 63.0491C218.778 62.7738 218.922 62.4562 218.992 62.1188C219.062 61.7815 219.057 61.4328 218.977 61.0978C218.896 60.7627 218.743 60.4496 218.527 60.1808C218.527 60.1808 219.784 60.1897 222.081 61.5743C222.752 61.8988 223.319 62.4036 223.72 63.0322L223.649 65.4299L219.229 72.7741Z" fill="url(#paint41_linear_2536_10512)"/>
<path d="M195.983 70.6624C197.236 70.6197 198.476 70.93 199.562 71.5579C200.746 72.075 202.02 72.3517 203.312 72.3719C205.429 72.5654 207.564 72.3158 209.58 71.6388C215.185 69.6332 218.518 67.9703 221.127 66.0175L221.202 65.9612C221.861 65.4698 223.79 64.2723 223.714 63.0326C224.016 63.178 224.288 63.3774 224.518 63.6208C224.699 63.8091 224.855 64.0201 224.981 64.2486L224.106 73.8726C223.887 75.4802 222.951 78.2197 220.674 79.7008C217.294 81.9314 213.609 83.6602 209.733 84.8331C207.879 85.4434 205.924 85.6842 203.977 85.542C202.473 85.4703 201 85.0882 199.651 84.4196C196.881 82.9311 194.176 79.0367 193.852 75.8606C193.714 75.2773 193.663 74.6768 193.701 74.0785C193.902 71.379 195.033 70.8029 195.983 70.6624Z" fill="url(#paint42_linear_2536_10512)"/>
<path d="M199.115 73.0213C201.499 74.3004 206.823 74.5252 210.337 73.2664C216.102 71.2023 219.78 69.4105 222.435 67.4235C223.184 66.8631 224.83 65.6787 224.988 64.2482L224.278 73.5007C224.266 73.5983 224.247 73.695 224.221 73.7901L224.221 73.7915C223.739 76.0049 222.454 77.9614 220.615 79.2831C217.901 81.0477 215.064 82.3761 209.458 84.2309C205.908 85.4054 202.426 85.1244 200.046 83.8462C197.533 82.4988 194.961 78.6044 194.692 75.7256C194.566 75.2075 194.518 74.6734 194.55 74.1411C194.762 71.2981 196.604 71.674 199.115 73.0213Z" fill="url(#paint43_linear_2536_10512)"/>
<g style="mix-blend-mode:multiply" opacity="0.3">
<path d="M199.54 82.279C201.92 83.5578 206.321 83.5697 209.87 82.3938C215.474 80.5402 219.052 78.6045 221.666 76.6976C222.375 76.1802 223.872 75.1021 224.214 73.7913L224.214 73.7927C223.732 76.0061 222.447 77.9626 220.607 79.2843C217.894 81.0489 215.056 82.3773 209.451 84.2321C205.9 85.4066 202.419 85.1256 200.038 83.8475C197.526 82.5 194.953 78.6056 194.685 75.7268C195.418 78.4454 197.153 80.7859 199.54 82.279Z" fill="#414E52"/>
</g>
<g style="mix-blend-mode:overlay" opacity="0.3">
<path d="M206.137 75.2742C207.275 75.3593 208.267 74.5052 208.352 73.3666C208.437 72.228 207.583 71.236 206.444 71.151C205.306 71.066 204.314 71.9201 204.229 73.0587C204.144 74.1973 204.998 75.1892 206.137 75.2742Z" fill="#5099DA"/>
</g>
<g style="mix-blend-mode:overlay" opacity="0.3">
<path d="M204.693 73.0927C204.669 73.4098 204.74 73.7269 204.896 74.0038C205.053 74.2807 205.288 74.505 205.571 74.6483C205.855 74.7916 206.175 74.8475 206.491 74.809C206.807 74.7704 207.104 74.6391 207.345 74.4317C207.586 74.2242 207.76 73.95 207.845 73.6436C207.93 73.3372 207.922 73.0124 207.823 72.7104C207.724 72.4083 207.537 72.1425 207.286 71.9467C207.036 71.7508 206.733 71.6336 206.416 71.6099C205.991 71.5782 205.57 71.7166 205.247 71.9946C204.924 72.2727 204.725 72.6677 204.693 73.0927Z" fill="#5099DA"/>
</g>
<g style="mix-blend-mode:overlay" opacity="0.3">
<path d="M204.896 73.1082C204.875 73.3837 204.937 73.6592 205.073 73.8999C205.209 74.1405 205.413 74.3354 205.66 74.4599C205.906 74.5844 206.184 74.633 206.459 74.5995C206.733 74.5659 206.991 74.4518 207.2 74.2714C207.41 74.0911 207.561 73.8528 207.635 73.5865C207.709 73.3202 207.702 73.038 207.616 72.7755C207.529 72.5131 207.367 72.2822 207.149 72.1121C206.931 71.9419 206.668 71.8402 206.392 71.8198C206.023 71.7925 205.658 71.9128 205.378 72.1544C205.097 72.3959 204.924 72.739 204.896 73.1082Z" fill="#5099DA"/>
</g>
<g style="mix-blend-mode:overlay">
<path d="M205.107 73.1241C205.089 73.3586 205.142 73.593 205.257 73.7978C205.373 74.0025 205.546 74.1684 205.756 74.2744C205.966 74.3804 206.203 74.4218 206.436 74.3933C206.67 74.3648 206.889 74.2677 207.068 74.1143C207.246 73.961 207.374 73.7582 207.437 73.5316C207.5 73.3051 207.495 73.065 207.421 72.8416C207.348 72.6183 207.21 72.4218 207.024 72.2769C206.839 72.1321 206.615 72.0455 206.381 72.028C206.066 72.0047 205.756 72.1071 205.517 72.3126C205.278 72.5181 205.131 72.81 205.107 73.1241Z" fill="#5099DA"/>
</g>
<g style="mix-blend-mode:overlay">
<path d="M205.428 73.1479C205.415 73.3189 205.453 73.4899 205.537 73.6392C205.621 73.7886 205.748 73.9095 205.901 73.9869C206.054 74.0642 206.227 74.0944 206.397 74.0736C206.567 74.0529 206.727 73.9821 206.857 73.8703C206.987 73.7584 207.081 73.6106 207.127 73.4453C207.173 73.2801 207.169 73.105 207.115 72.9421C207.062 72.7793 206.961 72.6359 206.826 72.5303C206.691 72.4247 206.528 72.3615 206.357 72.3487C206.128 72.3319 205.901 72.4066 205.727 72.5564C205.553 72.7062 205.445 72.9189 205.428 73.1479Z" fill="#5099DA"/>
</g>
<g style="mix-blend-mode:overlay">
<path d="M205.673 73.1667C205.663 73.2887 205.691 73.4107 205.751 73.5173C205.811 73.6238 205.901 73.7102 206.01 73.7654C206.119 73.8207 206.242 73.8423 206.364 73.8275C206.485 73.8128 206.599 73.7623 206.692 73.6825C206.785 73.6028 206.852 73.4973 206.884 73.3794C206.917 73.2616 206.914 73.1367 206.876 73.0205C206.838 72.9044 206.766 72.8022 206.669 72.7269C206.573 72.6517 206.456 72.6067 206.334 72.5977C206.171 72.5856 206.01 72.6386 205.886 72.7453C205.762 72.852 205.685 73.0036 205.673 73.1667Z" fill="#5099DA"/>
</g>
<g style="mix-blend-mode:overlay" opacity="0.3">
<path d="M203.955 85.0557C203.925 85.4631 204.017 85.8704 204.218 86.2259C204.419 86.5815 204.721 86.8694 205.086 87.0532C205.451 87.2371 205.862 87.3086 206.268 87.2588C206.673 87.209 207.055 87.0401 207.364 86.7734C207.674 86.5067 207.897 86.1543 208.007 85.7606C208.116 85.3669 208.106 84.9496 207.978 84.5616C207.85 84.1736 207.61 83.8322 207.288 83.5805C206.966 83.3289 206.577 83.1784 206.17 83.148C205.899 83.1276 205.627 83.1609 205.369 83.2458C205.111 83.3307 204.873 83.4656 204.667 83.6428C204.461 83.82 204.293 84.036 204.171 84.2784C204.048 84.5208 203.975 84.785 203.955 85.0557Z" fill="#5099DA"/>
</g>
<g style="mix-blend-mode:overlay" opacity="0.3">
<path d="M204.411 85.0901C204.388 85.4073 204.459 85.7243 204.616 86.001C204.772 86.2778 205.007 86.5019 205.291 86.645C205.575 86.7881 205.895 86.8437 206.211 86.8049C206.527 86.7661 206.824 86.6345 207.065 86.4269C207.305 86.2193 207.479 85.9448 207.564 85.6384C207.649 85.3319 207.641 85.0072 207.541 84.7052C207.442 84.4032 207.255 84.1376 207.004 83.9419C206.753 83.7463 206.45 83.6293 206.133 83.6059C205.708 83.5745 205.288 83.7132 204.965 83.9915C204.642 84.2699 204.443 84.665 204.411 85.0901Z" fill="#5099DA"/>
</g>
<g style="mix-blend-mode:overlay" opacity="0.3">
<path d="M204.623 85.1054C204.602 85.381 204.664 85.6564 204.8 85.8968C204.936 86.1373 205.14 86.332 205.387 86.4563C205.634 86.5807 205.912 86.6291 206.186 86.5954C206.46 86.5617 206.718 86.4475 206.927 86.2671C207.137 86.0867 207.288 85.8484 207.362 85.5821C207.435 85.3159 207.429 85.0337 207.342 84.7713C207.256 84.509 207.093 84.2782 206.875 84.1081C206.658 83.938 206.394 83.8363 206.119 83.8159C205.75 83.7888 205.385 83.9093 205.104 84.1511C204.823 84.3929 204.65 84.7361 204.623 85.1054Z" fill="#5099DA"/>
</g>
<g style="mix-blend-mode:overlay">
<path d="M204.833 85.1214C204.816 85.356 204.868 85.5906 204.984 85.7954C205.1 86.0002 205.274 86.1661 205.484 86.272C205.694 86.378 205.93 86.4193 206.164 86.3907C206.398 86.362 206.617 86.2648 206.796 86.1113C206.974 85.9577 207.103 85.7547 207.165 85.528C207.228 85.3013 207.223 85.0611 207.149 84.8376C207.075 84.6142 206.937 84.4176 206.751 84.2728C206.566 84.128 206.342 84.0414 206.107 84.0241C205.793 84.0012 205.482 84.1039 205.244 84.3095C205.005 84.5152 204.857 84.8072 204.833 85.1214Z" fill="#5099DA"/>
</g>
<g style="mix-blend-mode:overlay">
<path d="M205.154 85.1457C205.142 85.3165 205.18 85.4873 205.264 85.6364C205.349 85.7854 205.475 85.9062 205.628 85.9832C205.781 86.0603 205.954 86.0902 206.124 86.0693C206.294 86.0484 206.454 85.9775 206.584 85.8656C206.713 85.7537 206.807 85.6059 206.853 85.4408C206.899 85.2757 206.894 85.1007 206.841 84.938C206.787 84.7753 206.686 84.6322 206.551 84.5268C206.416 84.4214 206.253 84.3583 206.082 84.3457C205.969 84.3372 205.855 84.3512 205.746 84.3868C205.638 84.4224 205.538 84.479 205.452 84.5533C205.366 84.6276 205.295 84.7182 205.244 84.8198C205.193 84.9215 205.163 85.0322 205.154 85.1457Z" fill="#5099DA"/>
</g>
<g style="mix-blend-mode:overlay">
<path d="M205.399 85.1637C205.39 85.2854 205.418 85.407 205.478 85.5132C205.538 85.6193 205.629 85.7052 205.738 85.7601C205.847 85.8149 205.97 85.8362 206.091 85.8212C206.212 85.8062 206.326 85.7557 206.418 85.6759C206.511 85.5962 206.577 85.4909 206.61 85.3733C206.643 85.2556 206.639 85.131 206.601 85.0151C206.563 84.8992 206.491 84.7972 206.395 84.722C206.299 84.6469 206.183 84.6019 206.061 84.5928C205.98 84.5868 205.899 84.5968 205.822 84.6222C205.744 84.6476 205.673 84.688 205.612 84.741C205.55 84.794 205.5 84.8587 205.463 84.9312C205.427 85.0037 205.405 85.0827 205.399 85.1637Z" fill="#5099DA"/>
</g>
<g style="mix-blend-mode:overlay" opacity="0.3">
<path d="M219.793 78.8602C219.772 79.1405 219.835 79.4207 219.973 79.6653C220.111 79.9099 220.319 80.108 220.57 80.2345C220.821 80.361 221.104 80.4102 221.383 80.376C221.662 80.3418 221.924 80.2256 222.137 80.0422C222.35 79.8588 222.504 79.6163 222.579 79.3455C222.654 79.0747 222.648 78.7877 222.56 78.5207C222.472 78.2538 222.307 78.0189 222.085 77.8458C221.864 77.6727 221.596 77.5691 221.316 77.5482C221.13 77.5343 220.942 77.5572 220.765 77.6156C220.588 77.674 220.424 77.7668 220.282 77.8887C220.141 78.0105 220.025 78.159 219.941 78.3257C219.857 78.4924 219.806 78.674 219.793 78.8602Z" fill="#5099DA"/>
</g>
<g style="mix-blend-mode:overlay" opacity="0.3">
<path d="M220.113 78.8834C220.097 79.1012 220.146 79.319 220.253 79.5091C220.361 79.6992 220.522 79.8532 220.717 79.9515C220.913 80.0498 221.132 80.0881 221.349 80.0614C221.566 80.0348 221.77 79.9445 221.936 79.8019C222.101 79.6594 222.221 79.4709 222.279 79.2604C222.337 79.0499 222.332 78.8268 222.264 78.6193C222.195 78.4119 222.067 78.2293 221.895 78.0948C221.723 77.9602 221.515 77.8798 221.297 77.8635C221.152 77.8526 221.007 77.8703 220.869 77.9156C220.731 77.961 220.603 78.0331 220.493 78.1278C220.383 78.2226 220.293 78.3381 220.228 78.4677C220.163 78.5974 220.124 78.7386 220.113 78.8834Z" fill="#5099DA"/>
</g>
<g style="mix-blend-mode:overlay" opacity="0.3">
<path d="M220.257 78.8939C220.242 79.0833 220.285 79.2726 220.378 79.4379C220.472 79.6033 220.612 79.7372 220.782 79.8227C220.951 79.9083 221.142 79.9416 221.331 79.9186C221.519 79.8955 221.697 79.817 221.841 79.6931C221.985 79.5692 222.088 79.4054 222.139 79.2224C222.19 79.0395 222.185 78.8455 222.126 78.6651C222.067 78.4848 221.955 78.3261 221.805 78.2091C221.656 78.0921 221.475 78.0221 221.286 78.008C221.032 77.9893 220.781 78.0721 220.588 78.2382C220.395 78.4043 220.276 78.6401 220.257 78.8939Z" fill="#5099DA"/>
</g>
<g style="mix-blend-mode:overlay">
<path d="M220.392 78.9045C220.38 79.0656 220.416 79.2266 220.496 79.3672C220.575 79.5078 220.695 79.6217 220.839 79.6945C220.983 79.7673 221.145 79.7958 221.306 79.7762C221.466 79.7567 221.617 79.6901 221.739 79.5848C221.862 79.4795 221.95 79.3403 221.994 79.1847C222.037 79.0291 222.034 78.8642 221.983 78.7107C221.933 78.5572 221.838 78.4221 221.711 78.3225C221.584 78.2228 221.43 78.1631 221.269 78.1508C221.053 78.1349 220.839 78.2053 220.675 78.3466C220.511 78.4879 220.409 78.6885 220.392 78.9045Z" fill="#5099DA"/>
</g>
<g style="mix-blend-mode:overlay">
<path d="M220.62 78.9214C220.611 79.0387 220.638 79.1559 220.696 79.2581C220.754 79.3603 220.841 79.443 220.946 79.4957C221.052 79.5484 221.17 79.5688 221.287 79.5543C221.403 79.5398 221.513 79.491 221.602 79.4141C221.691 79.3372 221.755 79.2357 221.787 79.1224C221.818 79.009 221.815 78.8889 221.778 78.7772C221.741 78.6656 221.672 78.5673 221.579 78.4949C221.487 78.4225 221.375 78.3792 221.257 78.3705C221.179 78.3646 221.101 78.3743 221.027 78.3988C220.952 78.4234 220.883 78.4623 220.824 78.5135C220.765 78.5647 220.716 78.6271 220.681 78.6971C220.646 78.7671 220.625 78.8433 220.62 78.9214Z" fill="#5099DA"/>
</g>
<g style="mix-blend-mode:overlay">
<path d="M220.789 78.9338C220.782 79.0178 220.801 79.1016 220.843 79.1748C220.884 79.248 220.947 79.3072 221.022 79.345C221.097 79.3828 221.182 79.3975 221.265 79.3872C221.349 79.3769 221.427 79.342 221.491 79.2871C221.555 79.2321 221.601 79.1595 221.623 79.0784C221.646 78.9973 221.643 78.9114 221.617 78.8315C221.591 78.7516 221.541 78.6813 221.475 78.6295C221.409 78.5777 221.329 78.5467 221.245 78.5405C221.132 78.5322 221.021 78.569 220.935 78.6428C220.85 78.7165 220.797 78.8212 220.789 78.9338Z" fill="#5099DA"/>
</g>
<g style="mix-blend-mode:overlay" opacity="0.3">
<path d="M220.323 66.1522C220.292 66.5598 220.383 66.9673 220.584 67.3231C220.785 67.679 221.087 67.9673 221.452 68.1515C221.817 68.3358 222.228 68.4077 222.634 68.3582C223.039 68.3088 223.421 68.1402 223.731 67.8737C224.041 67.6072 224.265 67.2548 224.375 66.8611C224.484 66.4673 224.475 66.05 224.347 65.6617C224.22 65.2734 223.98 64.9316 223.658 64.6796C223.336 64.4276 222.947 64.2766 222.539 64.2458C221.993 64.2048 221.452 64.3826 221.036 64.7401C220.621 65.0976 220.364 65.6055 220.323 66.1522Z" fill="#5099DA"/>
</g>
<g style="mix-blend-mode:overlay" opacity="0.3">
<path d="M220.779 66.1866C220.755 66.5035 220.826 66.8203 220.982 67.0969C221.139 67.3736 221.373 67.5976 221.657 67.7409C221.941 67.8841 222.261 67.94 222.576 67.9015C222.891 67.863 223.188 67.7319 223.429 67.5247C223.67 67.3175 223.844 67.0435 223.93 66.7374C224.015 66.4313 224.007 66.1068 223.908 65.8049C223.809 65.503 223.623 65.2372 223.373 65.0413C223.122 64.8453 222.82 64.7278 222.503 64.7038C222.078 64.6719 221.657 64.8102 221.334 65.0882C221.011 65.3663 220.811 65.7614 220.779 66.1866Z" fill="#5099DA"/>
</g>
<g style="mix-blend-mode:overlay" opacity="0.3">
<path d="M220.99 66.2022C220.969 66.4776 221.031 66.7528 221.166 66.9933C221.302 67.2337 221.506 67.4284 221.753 67.5529C221.999 67.6774 222.277 67.7261 222.551 67.6927C222.825 67.6593 223.083 67.5454 223.292 67.3654C223.502 67.1853 223.653 66.9473 223.727 66.6813C223.801 66.4153 223.795 66.1334 223.708 65.871C223.622 65.6087 223.46 65.3779 223.243 65.2076C223.026 65.0374 222.763 64.9354 222.487 64.9146C222.304 64.9008 222.121 64.9232 221.946 64.9804C221.772 65.0377 221.611 65.1287 221.472 65.2482C221.333 65.3678 221.219 65.5136 221.136 65.6773C221.053 65.841 221.004 66.0194 220.99 66.2022Z" fill="#5099DA"/>
</g>
<g style="mix-blend-mode:overlay">
<path d="M221.201 66.2183C221.183 66.4525 221.235 66.6867 221.351 66.8913C221.466 67.0959 221.64 67.2617 221.849 67.3676C222.059 67.4736 222.295 67.515 222.529 67.4867C222.762 67.4584 222.981 67.3615 223.16 67.2084C223.338 67.0554 223.467 66.8529 223.53 66.6266C223.593 66.4003 223.587 66.1604 223.514 65.9372C223.441 65.714 223.303 65.5175 223.118 65.3725C222.934 65.2275 222.71 65.1406 222.476 65.1228C222.161 65.0993 221.851 65.2014 221.612 65.4068C221.373 65.6122 221.225 65.904 221.201 66.2183Z" fill="#5099DA"/>
</g>
<g style="mix-blend-mode:overlay">
<path d="M221.521 66.2418C221.508 66.4129 221.546 66.5841 221.631 66.7336C221.715 66.8831 221.842 67.0043 221.995 67.0818C222.148 67.1593 222.321 67.1896 222.491 67.169C222.661 67.1483 222.822 67.0776 222.952 66.9658C223.082 66.8539 223.176 66.706 223.222 66.5407C223.268 66.3754 223.264 66.2001 223.211 66.0371C223.157 65.874 223.057 65.7305 222.921 65.6247C222.786 65.5188 222.623 65.4555 222.452 65.4426C222.222 65.4254 221.996 65.4999 221.821 65.6498C221.647 65.7996 221.539 66.0125 221.521 66.2418Z" fill="#5099DA"/>
</g>
<g style="mix-blend-mode:overlay">
<path d="M221.766 66.2608C221.758 66.3825 221.785 66.5041 221.845 66.6102C221.905 66.7164 221.995 66.8023 222.104 66.8572C222.213 66.9121 222.336 66.9335 222.457 66.9187C222.578 66.9039 222.692 66.8535 222.785 66.7739C222.877 66.6944 222.944 66.5892 222.977 66.4717C223.009 66.3542 223.007 66.2296 222.969 66.1137C222.931 65.9977 222.859 65.8957 222.763 65.8204C222.667 65.7451 222.551 65.6999 222.429 65.6906C222.348 65.6844 222.267 65.6943 222.19 65.7197C222.113 65.745 222.041 65.7853 221.98 65.8383C221.918 65.8912 221.868 65.9558 221.831 66.0283C221.794 66.1008 221.772 66.1798 221.766 66.2608Z" fill="#5099DA"/>
</g>
<path d="M196.892 47.0143C200.606 45.5662 204.728 45.5681 208.44 47.0198L209.78 47.8101C208.047 46.8797 205.082 46.347 200.26 48.172C189.012 52.428 189.426 67.4074 189.426 67.4074L188.128 67.5561C188.128 67.5561 185.647 51.2705 196.892 47.0143Z" fill="url(#paint44_linear_2536_10512)"/>
<path d="M200.255 48.172C204.767 46.4647 207.654 46.8212 209.428 47.638C209.507 47.6823 209.588 47.7223 209.672 47.7576C209.687 47.7638 209.702 47.771 209.716 47.7793L209.757 48.057C208.043 47.1321 205.111 46.6044 200.342 48.4195C190.078 52.3289 189.627 65.3062 189.618 67.2911L189.421 67.4074C189.421 67.4074 189.008 52.4281 200.255 48.172Z" fill="#ACB3B7"/>
<defs>
<linearGradient id="paint0_linear_2536_10512" x1="107.164" y1="239.024" x2="158.063" y2="239.024" gradientUnits="userSpaceOnUse">
<stop stop-color="#5783D7"/>
<stop offset="0.07258" stop-color="#5489D8"/>
<stop offset="0.27907" stop-color="#4E9CDB"/>
<stop offset="0.4801" stop-color="#5DADF6"/>
<stop offset="0.67151" stop-color="#65CAF5"/>
<stop offset="0.84927" stop-color="#58C8F7"/>
<stop offset="1" stop-color="#54D3FB"/>
</linearGradient>
<linearGradient id="paint1_linear_2536_10512" x1="242.695" y1="238.943" x2="293.314" y2="238.943" gradientUnits="userSpaceOnUse">
<stop stop-color="#62B4FF"/>
<stop offset="0.15073" stop-color="#65B3FB"/>
<stop offset="0.32849" stop-color="#5FC1F9"/>
<stop offset="0.5199" stop-color="#49A8DD"/>
<stop offset="0.72093" stop-color="#4E9CDB"/>
<stop offset="0.88" stop-color="#5489D8"/>
<stop offset="1" stop-color="#5783D7"/>
</linearGradient>
<linearGradient id="paint2_linear_2536_10512" x1="104.581" y1="322.456" x2="295.275" y2="322.456" gradientUnits="userSpaceOnUse">
<stop stop-color="#5792D7"/>
<stop offset="0.07258" stop-color="#5491D8"/>
<stop offset="0.27907" stop-color="#4E9CDB"/>
<stop offset="0.4801" stop-color="#6FB8FC"/>
<stop offset="0.67151" stop-color="#5BB4F5"/>
<stop offset="0.84927" stop-color="#4DB6F1"/>
<stop offset="1" stop-color="#54B5FB"/>
</linearGradient>
<linearGradient id="paint3_linear_2536_10512" x1="75.2745" y1="195.746" x2="289.324" y2="195.746" gradientUnits="userSpaceOnUse">
<stop stop-color="#577BD7"/>
<stop offset="0.16446" stop-color="#5E88DA"/>
<stop offset="0.40507" stop-color="#7291E2"/>
<stop offset="0.69235" stop-color="#92BCEE"/>
<stop offset="1" stop-color="#BCCFFF"/>
</linearGradient>
<linearGradient id="paint4_linear_2536_10512" x1="135.852" y1="166.822" x2="264.33" y2="166.822" gradientUnits="userSpaceOnUse">
<stop stop-color="#52C8FA"/>
<stop offset="0.15073" stop-color="#4CCDF6"/>
<stop offset="0.32849" stop-color="#5BB7FA"/>
<stop offset="0.5199" stop-color="#71B7F8"/>
<stop offset="0.72093" stop-color="#4E9CDB"/>
<stop offset="0.92742" stop-color="#5489D8"/>
<stop offset="1" stop-color="#5783D7"/>
</linearGradient>
<linearGradient id="paint5_linear_2536_10512" x1="200.086" y1="143.601" x2="264.326" y2="143.601" gradientUnits="userSpaceOnUse">
<stop stop-color="#5CCEFF"/>
<stop offset="0.15073" stop-color="#53C7F9"/>
<stop offset="0.32849" stop-color="#54BDF8"/>
<stop offset="0.5199" stop-color="#58ACFA"/>
<stop offset="0.72093" stop-color="#4E9CDB"/>
<stop offset="0.92742" stop-color="#5491D8"/>
<stop offset="1" stop-color="#5783D7"/>
</linearGradient>
<linearGradient id="paint6_linear_2536_10512" x1="135.852" y1="143.6" x2="200.092" y2="143.6" gradientUnits="userSpaceOnUse">
<stop stop-color="#42E8E0"/>
<stop offset="0.15073" stop-color="#43E3E0"/>
<stop offset="0.32849" stop-color="#45D5DF"/>
<stop offset="0.5199" stop-color="#49BDDD"/>
<stop offset="0.72093" stop-color="#4E9CDB"/>
<stop offset="0.92742" stop-color="#5472D8"/>
<stop offset="1" stop-color="#5761D7"/>
</linearGradient>
<linearGradient id="paint7_linear_2536_10512" x1="135.852" y1="157.469" x2="264.33" y2="157.469" gradientUnits="userSpaceOnUse">
<stop stop-color="#42A2E8"/>
<stop offset="0.15073" stop-color="#46B8F8"/>
<stop offset="0.32849" stop-color="#65B5FF"/>
<stop offset="0.5199" stop-color="#79BFFF"/>
<stop offset="0.72093" stop-color="#64AFF4"/>
<stop offset="0.92742" stop-color="#4886E2"/>
<stop offset="1" stop-color="#3777D8"/>
</linearGradient>
<linearGradient id="paint8_linear_2536_10512" x1="200.094" y1="180.69" x2="264.332" y2="180.69" gradientUnits="userSpaceOnUse">
<stop stop-color="#42E8E0"/>
<stop offset="0.15073" stop-color="#43E3E0"/>
<stop offset="0.32849" stop-color="#45D5DF"/>
<stop offset="0.5199" stop-color="#49BDDD"/>
<stop offset="0.72093" stop-color="#4E9CDB"/>
<stop offset="0.92742" stop-color="#5472D8"/>
<stop offset="1" stop-color="#5761D7"/>
</linearGradient>
<linearGradient id="paint9_linear_2536_10512" x1="135.852" y1="180.688" x2="200.092" y2="180.688" gradientUnits="userSpaceOnUse">
<stop stop-color="#62C6FF"/>
<stop offset="0.15073" stop-color="#67D0FE"/>
<stop offset="0.32849" stop-color="#73CCFF"/>
<stop offset="0.5199" stop-color="#78C6FF"/>
<stop offset="0.72093" stop-color="#4E9CDB"/>
<stop offset="0.92742" stop-color="#5472D8"/>
<stop offset="1" stop-color="#5761D7"/>
</linearGradient>
<linearGradient id="paint10_linear_2536_10512" x1="0.124962" y1="274.08" x2="141.984" y2="274.08" gradientUnits="userSpaceOnUse">
<stop stop-color="#5761D7"/>
<stop offset="0.07258" stop-color="#5472D8"/>
<stop offset="0.27907" stop-color="#4E9CDB"/>
<stop offset="0.4801" stop-color="#49BDDD"/>
<stop offset="0.67151" stop-color="#66DAFF"/>
<stop offset="0.84927" stop-color="#55E0FE"/>
<stop offset="1" stop-color="#56D6FF"/>
</linearGradient>
<linearGradient id="paint11_linear_2536_10512" x1="0.124962" y1="263.167" x2="141.985" y2="263.167" gradientUnits="userSpaceOnUse">
<stop stop-color="#5761D7"/>
<stop offset="0.07258" stop-color="#5472D8"/>
<stop offset="0.27907" stop-color="#4E9CDB"/>
<stop offset="0.4801" stop-color="#49BDDD"/>
<stop offset="0.67151" stop-color="#45D5DF"/>
<stop offset="0.84927" stop-color="#43E3E0"/>
<stop offset="1" stop-color="#42E8E0"/>
</linearGradient>
<linearGradient id="paint12_linear_2536_10512" x1="0.124962" y1="252.254" x2="141.985" y2="252.254" gradientUnits="userSpaceOnUse">
<stop stop-color="#5761D7"/>
<stop offset="0.07258" stop-color="#5472D8"/>
<stop offset="0.27907" stop-color="#4E9CDB"/>
<stop offset="0.4801" stop-color="#72A5F3"/>
<stop offset="0.67151" stop-color="#5FBCFF"/>
<stop offset="0.84927" stop-color="#4CBFFF"/>
<stop offset="1" stop-color="#57C2FF"/>
</linearGradient>
<linearGradient id="paint13_linear_2536_10512" x1="0.124962" y1="241.342" x2="141.985" y2="241.342" gradientUnits="userSpaceOnUse">
<stop stop-color="#5761D7"/>
<stop offset="0.07258" stop-color="#5472D8"/>
<stop offset="0.27907" stop-color="#4E9CDB"/>
<stop offset="0.4801" stop-color="#49BDDD"/>
<stop offset="0.67151" stop-color="#66DAFF"/>
<stop offset="0.84927" stop-color="#55E0FE"/>
<stop offset="1" stop-color="#56D6FF"/>
</linearGradient>
<linearGradient id="paint14_linear_2536_10512" x1="141.985" y1="252.312" x2="0.125" y2="252.312" gradientUnits="userSpaceOnUse">
<stop stop-color="#5783D7"/>
<stop offset="0.07258" stop-color="#5489D8"/>
<stop offset="0.27907" stop-color="#4E9CDB"/>
<stop offset="0.4801" stop-color="#499FDD"/>
<stop offset="0.67151" stop-color="#61B3FF"/>
<stop offset="0.84927" stop-color="#56C2FF"/>
<stop offset="1" stop-color="#5FBCFF"/>
</linearGradient>
<linearGradient id="paint15_linear_2536_10512" x1="0.124962" y1="241.342" x2="141.985" y2="241.342" gradientUnits="userSpaceOnUse">
<stop stop-color="#5761D7"/>
<stop offset="0.07258" stop-color="#5472D8"/>
<stop offset="0.27907" stop-color="#4E9CDB"/>
<stop offset="0.4801" stop-color="#49BDDD"/>
<stop offset="0.67151" stop-color="#66DAFF"/>
<stop offset="0.84927" stop-color="#55E0FE"/>
<stop offset="1" stop-color="#56D6FF"/>
</linearGradient>
<linearGradient id="paint16_linear_2536_10512" x1="141.984" y1="261.01" x2="0.126404" y2="261.01" gradientUnits="userSpaceOnUse">
<stop stop-color="#71D4FF"/>
<stop offset="0.15073" stop-color="#6AE4FF"/>
<stop offset="0.32849" stop-color="#7BD7FF"/>
<stop offset="0.5199" stop-color="#49BDDD"/>
<stop offset="0.72093" stop-color="#4E9CDB"/>
<stop offset="0.92742" stop-color="#5472D8"/>
<stop offset="1" stop-color="#5761D7"/>
</linearGradient>
<linearGradient id="paint17_linear_2536_10512" x1="258.195" y1="274.08" x2="400.055" y2="274.08" gradientUnits="userSpaceOnUse">
<stop stop-color="#5761D7"/>
<stop offset="0.07258" stop-color="#5472D8"/>
<stop offset="0.27907" stop-color="#4E9CDB"/>
<stop offset="0.4801" stop-color="#49BDDD"/>
<stop offset="0.67151" stop-color="#45D5DF"/>
<stop offset="0.84927" stop-color="#43E3E0"/>
<stop offset="1" stop-color="#42E8E0"/>
</linearGradient>
<linearGradient id="paint18_linear_2536_10512" x1="258.195" y1="263.167" x2="400.055" y2="263.167" gradientUnits="userSpaceOnUse">
<stop stop-color="#5761D7"/>
<stop offset="0.07258" stop-color="#5472D8"/>
<stop offset="0.27907" stop-color="#4E9CDB"/>
<stop offset="0.4801" stop-color="#89BFFF"/>
<stop offset="0.67151" stop-color="#54A8F6"/>
<stop offset="0.84927" stop-color="#4BBBFB"/>
<stop offset="1" stop-color="#42C0E8"/>
</linearGradient>
<linearGradient id="paint19_linear_2536_10512" x1="258.195" y1="252.255" x2="400.055" y2="252.255" gradientUnits="userSpaceOnUse">
<stop stop-color="#5761D7"/>
<stop offset="0.07258" stop-color="#5472D8"/>
<stop offset="0.27907" stop-color="#4E9CDB"/>
<stop offset="0.4801" stop-color="#49BDDD"/>
<stop offset="0.67151" stop-color="#45D5DF"/>
<stop offset="0.84927" stop-color="#43E3E0"/>
<stop offset="1" stop-color="#42E8E0"/>
</linearGradient>
<linearGradient id="paint20_linear_2536_10512" x1="258.195" y1="241.342" x2="400.055" y2="241.342" gradientUnits="userSpaceOnUse">
<stop stop-color="#5761D7"/>
<stop offset="0.07258" stop-color="#5472D8"/>
<stop offset="0.27907" stop-color="#4E9CDB"/>
<stop offset="0.4801" stop-color="#49BDDD"/>
<stop offset="0.67151" stop-color="#45D5DF"/>
<stop offset="0.84927" stop-color="#43E3E0"/>
<stop offset="1" stop-color="#42E8E0"/>
</linearGradient>
<linearGradient id="paint21_linear_2536_10512" x1="400.055" y1="252.312" x2="258.195" y2="252.312" gradientUnits="userSpaceOnUse">
<stop stop-color="#5783D7"/>
<stop offset="0.07258" stop-color="#5489D8"/>
<stop offset="0.27907" stop-color="#4E9CDB"/>
<stop offset="0.4801" stop-color="#499FDD"/>
<stop offset="0.67151" stop-color="#61B3FF"/>
<stop offset="0.84927" stop-color="#56C2FF"/>
<stop offset="1" stop-color="#5FBCFF"/>
</linearGradient>
<linearGradient id="paint22_linear_2536_10512" x1="258.195" y1="241.342" x2="400.055" y2="241.342" gradientUnits="userSpaceOnUse">
<stop stop-color="#5761D7"/>
<stop offset="0.07258" stop-color="#5472D8"/>
<stop offset="0.27907" stop-color="#4E9CDB"/>
<stop offset="0.4801" stop-color="#49BDDD"/>
<stop offset="0.67151" stop-color="#45D5DF"/>
<stop offset="0.84927" stop-color="#43E3E0"/>
<stop offset="1" stop-color="#42E8E0"/>
</linearGradient>
<linearGradient id="paint23_linear_2536_10512" x1="400.054" y1="261.01" x2="258.197" y2="261.01" gradientUnits="userSpaceOnUse">
<stop stop-color="#71D4FF"/>
<stop offset="0.15073" stop-color="#6AE4FF"/>
<stop offset="0.32849" stop-color="#7BD7FF"/>
<stop offset="0.5199" stop-color="#49BDDD"/>
<stop offset="0.72093" stop-color="#4E9CDB"/>
<stop offset="0.92742" stop-color="#5472D8"/>
<stop offset="1" stop-color="#5761D7"/>
</linearGradient>
<linearGradient id="paint24_linear_2536_10512" x1="266.504" y1="331.467" x2="133.133" y2="331.467" gradientUnits="userSpaceOnUse">
<stop stop-color="#5783D7"/>
<stop offset="0.07258" stop-color="#5489D8"/>
<stop offset="0.27907" stop-color="#4E9CDB"/>
<stop offset="0.4801" stop-color="#499FDD"/>
<stop offset="0.67151" stop-color="#61B3FF"/>
<stop offset="0.84927" stop-color="#56C2FF"/>
<stop offset="1" stop-color="#5FBCFF"/>
</linearGradient>
<linearGradient id="paint25_linear_2536_10512" x1="266.504" y1="321.209" x2="133.133" y2="321.209" gradientUnits="userSpaceOnUse">
<stop stop-color="#5783D7"/>
<stop offset="0.07258" stop-color="#5489D8"/>
<stop offset="0.27907" stop-color="#4E9CDB"/>
<stop offset="0.4801" stop-color="#499FDD"/>
<stop offset="0.67151" stop-color="#61B3FF"/>
<stop offset="0.84927" stop-color="#56C2FF"/>
<stop offset="1" stop-color="#5FBCFF"/>
</linearGradient>
<linearGradient id="paint26_linear_2536_10512" x1="280.681" y1="303.794" x2="118.961" y2="303.794" gradientUnits="userSpaceOnUse">
<stop stop-color="#5761D7"/>
<stop offset="0.07258" stop-color="#5472D8"/>
<stop offset="0.27907" stop-color="#4E9CDB"/>
<stop offset="0.4801" stop-color="#49BDDD"/>
<stop offset="0.67151" stop-color="#51CCF3"/>
<stop offset="0.84927" stop-color="#49D3FE"/>
<stop offset="1" stop-color="#4EC9FE"/>
</linearGradient>
<linearGradient id="paint27_linear_2536_10512" x1="280.681" y1="291.354" x2="118.961" y2="291.354" gradientUnits="userSpaceOnUse">
<stop stop-color="#5761D7"/>
<stop offset="0.07258" stop-color="#5472D8"/>
<stop offset="0.27907" stop-color="#4E9CDB"/>
<stop offset="0.4801" stop-color="#49BDDD"/>
<stop offset="0.67151" stop-color="#45D5DF"/>
<stop offset="0.84927" stop-color="#43E3E0"/>
<stop offset="1" stop-color="#42E8E0"/>
</linearGradient>
<linearGradient id="paint28_linear_2536_10512" x1="280.681" y1="278.913" x2="118.961" y2="278.913" gradientUnits="userSpaceOnUse">
<stop stop-color="#5761D7"/>
<stop offset="0.07258" stop-color="#5472D8"/>
<stop offset="0.27907" stop-color="#4E9CDB"/>
<stop offset="0.4801" stop-color="#49BDDD"/>
<stop offset="0.67151" stop-color="#45D5DF"/>
<stop offset="0.84927" stop-color="#43E3E0"/>
<stop offset="1" stop-color="#42E8E0"/>
</linearGradient>
<linearGradient id="paint29_linear_2536_10512" x1="280.681" y1="266.472" x2="118.961" y2="266.472" gradientUnits="userSpaceOnUse">
<stop stop-color="#5761D7"/>
<stop offset="0.07258" stop-color="#5472D8"/>
<stop offset="0.27907" stop-color="#4E9CDB"/>
<stop offset="0.4801" stop-color="#49BDDD"/>
<stop offset="0.67151" stop-color="#51CCF3"/>
<stop offset="0.84927" stop-color="#49D3FE"/>
<stop offset="1" stop-color="#4EC9FE"/>
</linearGradient>
<linearGradient id="paint30_linear_2536_10512" x1="280.682" y1="285.133" x2="118.961" y2="285.133" gradientUnits="userSpaceOnUse">
<stop stop-color="#5792D7"/>
<stop offset="0.07258" stop-color="#54A1D8"/>
<stop offset="0.27907" stop-color="#4E9CDB"/>
<stop offset="0.4801" stop-color="#60BBEE"/>
<stop offset="0.67151" stop-color="#68C7EF"/>
<stop offset="0.84927" stop-color="#66C6FB"/>
<stop offset="1" stop-color="#4FBCFA"/>
</linearGradient>
<linearGradient id="paint31_linear_2536_10512" x1="280.681" y1="266.472" x2="118.961" y2="266.472" gradientUnits="userSpaceOnUse">
<stop stop-color="#5761D7"/>
<stop offset="0.07258" stop-color="#5472D8"/>
<stop offset="0.27907" stop-color="#4E9CDB"/>
<stop offset="0.4801" stop-color="#49BDDD"/>
<stop offset="0.67151" stop-color="#51CCF3"/>
<stop offset="0.84927" stop-color="#49D3FE"/>
<stop offset="1" stop-color="#4EC9FE"/>
</linearGradient>
<linearGradient id="paint32_linear_2536_10512" x1="280.673" y1="288.894" x2="118.955" y2="288.894" gradientUnits="userSpaceOnUse">
<stop stop-color="#5761D7"/>
<stop offset="0.07258" stop-color="#5472D8"/>
<stop offset="0.27907" stop-color="#4E9CDB"/>
<stop offset="0.4801" stop-color="#49BDDD"/>
<stop offset="0.67151" stop-color="#7BD7FF"/>
<stop offset="0.84927" stop-color="#6AE4FF"/>
<stop offset="1" stop-color="#71D4FF"/>
</linearGradient>
<linearGradient id="paint33_linear_2536_10512" x1="235.39" y1="175.601" x2="219.318" y2="177.021" gradientUnits="userSpaceOnUse">
<stop stop-color="#5761D7"/>
<stop offset="0.07258" stop-color="#5472D8"/>
<stop offset="0.27907" stop-color="#4E9CDB"/>
<stop offset="0.4801" stop-color="#49BDDD"/>
<stop offset="0.67151" stop-color="#87E2FF"/>
<stop offset="0.84927" stop-color="#63D9FF"/>
<stop offset="1" stop-color="#54C1FF"/>
</linearGradient>
<linearGradient id="paint34_linear_2536_10512" x1="211.882" y1="182.965" x2="177.162" y2="186.5" gradientUnits="userSpaceOnUse">
<stop stop-color="#5761D7"/>
<stop offset="0.07258" stop-color="#5472D8"/>
<stop offset="0.27907" stop-color="#4E9CDB"/>
<stop offset="0.4801" stop-color="#49BDDD"/>
<stop offset="0.67151" stop-color="#87E2FF"/>
<stop offset="0.84927" stop-color="#63D9FF"/>
<stop offset="1" stop-color="#54C1FF"/>
</linearGradient>
<linearGradient id="paint35_linear_2536_10512" x1="225.785" y1="136.455" x2="167.818" y2="139.817" gradientUnits="userSpaceOnUse">
<stop stop-color="#5761D7"/>
<stop offset="0.07258" stop-color="#5472D8"/>
<stop offset="0.27907" stop-color="#4E9CDB"/>
<stop offset="0.4801" stop-color="#49BDDD"/>
<stop offset="0.67151" stop-color="#87E2FF"/>
<stop offset="0.84927" stop-color="#63D9FF"/>
<stop offset="1" stop-color="#54C1FF"/>
</linearGradient>
<linearGradient id="paint36_linear_2536_10512" x1="217.086" y1="63.8427" x2="194.921" y2="62.1876" gradientUnits="userSpaceOnUse">
<stop stop-color="#2E383B"/>
<stop offset="1" stop-color="#414E52"/>
</linearGradient>
<linearGradient id="paint37_linear_2536_10512" x1="207.646" y1="64.2178" x2="186.389" y2="65.5489" gradientUnits="userSpaceOnUse">
<stop stop-color="#CDD6DE"/>
<stop offset="0.36812" stop-color="#E1EAF2"/>
<stop offset="0.52796" stop-color="#DFE8F0"/>
<stop offset="0.58553" stop-color="#D9E1E9"/>
<stop offset="0.62658" stop-color="#CED6DE"/>
<stop offset="0.65954" stop-color="#BEC5CD"/>
<stop offset="0.6867" stop-color="#AAB1B8"/>
</linearGradient>
<linearGradient id="paint38_linear_2536_10512" x1="192.739" y1="76.9853" x2="188.189" y2="68.0772" gradientUnits="userSpaceOnUse">
<stop stop-color="#0E1112"/>
<stop offset="1" stop-color="#657A80"/>
</linearGradient>
<linearGradient id="paint39_linear_2536_10512" x1="189.531" y1="77.2973" x2="189.06" y2="66.552" gradientUnits="userSpaceOnUse">
<stop stop-color="#010405"/>
<stop offset="1" stop-color="#586D73"/>
</linearGradient>
<linearGradient id="paint40_linear_2536_10512" x1="188.811" y1="76.0151" x2="188.165" y2="69.6961" gradientUnits="userSpaceOnUse">
<stop stop-color="#141E21"/>
<stop offset="1" stop-color="#273438"/>
</linearGradient>
<linearGradient id="paint41_linear_2536_10512" x1="196.352" y1="77.1802" x2="201.477" y2="74.1247" gradientUnits="userSpaceOnUse">
<stop stop-color="#2E383B"/>
<stop offset="1" stop-color="#55666B"/>
</linearGradient>
<linearGradient id="paint42_linear_2536_10512" x1="223.95" y1="62.9501" x2="197.882" y2="83.0434" gradientUnits="userSpaceOnUse">
<stop stop-color="#CDD6DE"/>
<stop offset="0.62911" stop-color="#C5CED6"/>
<stop offset="0.74629" stop-color="#E1EAF2"/>
<stop offset="1" stop-color="#E1EAF2"/>
</linearGradient>
<linearGradient id="paint43_linear_2536_10512" x1="206.648" y1="74.0074" x2="200.227" y2="73.5279" gradientUnits="userSpaceOnUse">
<stop stop-color="#2E383B"/>
<stop offset="1" stop-color="#414E52"/>
</linearGradient>
<linearGradient id="paint44_linear_2536_10512" x1="191.412" y1="68.8243" x2="202.652" y2="44.6697" gradientUnits="userSpaceOnUse">
<stop stop-color="#B6BDC4"/>
<stop offset="0.46483" stop-color="#EEF7FF"/>
</linearGradient>
</defs>
</svg>
