<svg width="32" height="32" viewBox="0 0 32 32" fill="none" xmlns="http://www.w3.org/2000/svg">
<path d="M27.23 16.0214C27.23 15.3592 27.7668 14.8223 28.429 14.8223V14.8223C29.0912 14.8223 29.628 15.3592 29.628 16.0214V16.0214C29.628 16.6836 29.0912 17.2206 28.429 17.2206V17.2206C27.7668 17.2206 27.23 16.6836 27.23 16.0214V16.0214Z" fill="#FF771B"/>
<path d="M23.9585 12.5453C23.9585 11.8833 24.4955 11.3467 25.1575 11.3467V11.3467C25.8194 11.3467 26.3565 11.8833 26.3565 12.5453V12.5453C26.3565 13.2072 25.8194 13.7438 25.1575 13.7438V13.7438C24.4955 13.7438 23.9585 13.2072 23.9585 12.5453V12.5453Z" fill="#FF8532"/>
<path d="M23.9585 16.0214C23.9585 15.3592 24.4953 14.8223 25.1575 14.8223V14.8223C25.8197 14.8223 26.3565 15.3592 26.3565 16.0214V16.0214C26.3565 16.6836 25.8197 17.2206 25.1575 17.2206V17.2206C24.4953 17.2206 23.9585 16.6836 23.9585 16.0214V16.0214Z" fill="#FF8532"/>
<path d="M23.9585 19.4745C23.9585 18.8125 24.4955 18.2759 25.1575 18.2759V18.2759C25.8194 18.2759 26.3565 18.8125 26.3565 19.4745V19.4745C26.3565 20.1364 25.8194 20.673 25.1575 20.673V20.673C24.4955 20.673 23.9585 20.1364 23.9585 19.4745V19.4745Z" fill="#FF8532"/>
<path d="M20.8641 8.94676C20.8641 8.3508 21.3473 7.86768 21.9432 7.86768V7.86768C22.5392 7.86768 23.0224 8.3508 23.0224 8.94676V8.94676C23.0224 9.54273 22.5392 10.0259 21.9432 10.0259V10.0259C21.3473 10.0259 20.8641 9.54273 20.8641 8.94676V8.94676Z" fill="#FE9145"/>
<path d="M17.912 23.0221C17.912 22.4678 18.3613 22.0181 18.9155 22.0181V22.0181C19.4698 22.0181 19.9191 22.4678 19.9191 23.0221V23.0221C19.9191 23.5763 19.4698 24.0261 18.9155 24.0261V24.0261C18.3613 24.0261 17.912 23.5763 17.912 23.0221V23.0221Z" fill="#FFA05F"/>
<path d="M20.8641 12.5195C20.8641 11.9236 21.3473 11.4404 21.9432 11.4404V11.4404C22.5392 11.4404 23.0224 11.9236 23.0224 12.5195V12.5195C23.0224 13.1155 22.5392 13.5986 21.9432 13.5986V13.5986C21.3473 13.5986 20.8641 13.1155 20.8641 12.5195V12.5195Z" fill="#FE9145"/>
<path d="M20.8641 16.022C20.8641 15.426 21.3473 14.9429 21.9432 14.9429V14.9429C22.5392 14.9429 23.0224 15.426 23.0224 16.022V16.022C23.0224 16.618 22.5392 17.1011 21.9432 17.1011V17.1011C21.3473 17.1011 20.8641 16.618 20.8641 16.022V16.022Z" fill="#FE9145"/>
<path d="M20.8641 19.5699C20.8641 18.9739 21.3472 18.4907 21.9432 18.4907V18.4907C22.5392 18.4907 23.0224 18.9739 23.0224 19.5699V19.5699C23.0224 20.1658 22.5392 20.649 21.9432 20.649V20.649C21.3472 20.649 20.8641 20.1658 20.8641 19.5699V19.5699Z" fill="#FE9145"/>
<path d="M20.8641 23.024C20.8641 22.428 21.3473 21.9448 21.9432 21.9448V21.9448C22.5392 21.9448 23.0224 22.428 23.0224 23.024V23.024C23.0224 23.6199 22.5392 24.1031 21.9432 24.1031V24.1031C21.3473 24.1031 20.8641 23.6199 20.8641 23.024V23.024Z" fill="#FE9145"/>
<path d="M17.912 26.5176C17.912 25.9634 18.3613 25.5142 18.9155 25.5142V25.5142C19.4697 25.5142 19.9191 25.9634 19.9191 26.5176V26.5176C19.9191 27.0718 19.4697 27.521 18.9155 27.521V27.521C18.3613 27.521 17.912 27.0718 17.912 26.5176V26.5176Z" fill="#FFA05F"/>
<path d="M17.9038 19.5679C17.9038 19.0137 18.3531 18.5645 18.9073 18.5645V18.5645C19.4615 18.5645 19.9109 19.0137 19.9109 19.5679V19.5679C19.9109 20.1221 19.4615 20.5714 18.9073 20.5714V20.5714C18.3531 20.5714 17.9038 20.1221 17.9038 19.5679V19.5679Z" fill="#FFA05F"/>
<path d="M17.9038 16.0205C17.9038 15.4663 18.3531 15.0171 18.9073 15.0171V15.0171C19.4615 15.0171 19.9109 15.4663 19.9109 16.0205V16.0205C19.9109 16.5747 19.4615 17.024 18.9073 17.024V17.024C18.3531 17.024 17.9038 16.5747 17.9038 16.0205V16.0205Z" fill="#FFA05F"/>
<path d="M17.912 12.5215C17.912 11.9673 18.3613 11.5181 18.9155 11.5181V11.5181C19.4697 11.5181 19.9191 11.9673 19.9191 12.5215V12.5215C19.9191 13.0757 19.4697 13.525 18.9155 13.525V13.525C18.3613 13.525 17.912 13.0757 17.912 12.5215V12.5215Z" fill="#FFA05F"/>
<path d="M17.9038 8.94484C17.9038 8.39066 18.3531 7.94141 18.9073 7.94141V7.94141C19.4615 7.94141 19.9109 8.39066 19.9109 8.94484V8.94484C19.9109 9.49902 19.4615 9.94828 18.9073 9.94828V9.94828C18.3531 9.94828 17.9038 9.49902 17.9038 8.94484V8.94484Z" fill="#FFA05F"/>
<path d="M14.8842 8.94685C14.8842 8.41347 15.3166 7.98096 15.85 7.98096V7.98096C16.3834 7.98096 16.8158 8.41347 16.8158 8.94685V8.94685C16.8158 9.48023 16.3834 9.91274 15.85 9.91274V9.91274C15.3166 9.91274 14.8842 9.48023 14.8842 8.94685V8.94685Z" fill="#FFAD76"/>
<path d="M14.8834 12.5201C14.8834 11.9868 15.3158 11.5542 15.8492 11.5542V11.5542C16.3826 11.5542 16.815 11.9868 16.815 12.5201V12.5201C16.815 13.0535 16.3826 13.4861 15.8492 13.4861V13.4861C15.3158 13.4861 14.8834 13.0535 14.8834 12.5201V12.5201Z" fill="#FFAD76"/>
<path d="M14.8842 16.0196C14.8842 15.4862 15.3166 15.0537 15.85 15.0537V15.0537C16.3834 15.0537 16.8158 15.4862 16.8158 16.0196V16.0196C16.8158 16.553 16.3834 16.9855 15.85 16.9855V16.9855C15.3166 16.9855 14.8842 16.553 14.8842 16.0196V16.0196Z" fill="#FFAD76"/>
<path d="M14.8834 19.5689C14.8834 19.0355 15.3158 18.603 15.8492 18.603V18.603C16.3826 18.603 16.815 19.0355 16.815 19.5689V19.5689C16.815 20.1023 16.3826 20.5348 15.8492 20.5348V20.5348C15.3158 20.5348 14.8834 20.1023 14.8834 19.5689V19.5689Z" fill="#FFAD76"/>
<path d="M14.8842 23.024C14.8842 22.4906 15.3166 22.0581 15.85 22.0581V22.0581C16.3834 22.0581 16.8158 22.4906 16.8158 23.024V23.024C16.8158 23.5574 16.3834 23.9899 15.85 23.9899V23.9899C15.3166 23.9899 14.8842 23.5574 14.8842 23.024V23.024Z" fill="#FFAD76"/>
<path d="M14.8834 26.5177C14.8834 25.9843 15.3158 25.5518 15.8492 25.5518V25.5518C16.3826 25.5518 16.815 25.9843 16.815 26.5177V26.5177C16.815 27.0511 16.3826 27.4836 15.8492 27.4836V27.4836C15.3158 27.4836 14.8834 27.0511 14.8834 26.5177V26.5177Z" fill="#FFAD76"/>
<path d="M14.8842 30.0333C14.8842 29.4999 15.3166 29.0674 15.85 29.0674V29.0674C16.3834 29.0674 16.8158 29.4999 16.8158 30.0333V30.0333C16.8158 30.5667 16.3834 30.9993 15.85 30.9993V30.9993C15.3166 30.9993 14.8842 30.5667 14.8842 30.0333V30.0333Z" fill="#FFAD76"/>
<path d="M11.8679 30.098C11.8679 29.5997 12.2724 29.1958 12.7707 29.1958V29.1958C13.269 29.1958 13.6735 29.5997 13.6735 30.098V30.098C13.6735 30.5963 13.269 31.0003 12.7707 31.0003V31.0003C12.2724 31.0003 11.8679 30.5963 11.8679 30.098V30.098Z" fill="#FFB482"/>
<path d="M11.8679 26.5174C11.8679 26.0192 12.2724 25.6152 12.7707 25.6152V25.6152C13.2689 25.6152 13.6735 26.0192 13.6735 26.5174V26.5174C13.6735 27.0157 13.2689 27.4196 12.7707 27.4196V27.4196C12.2724 27.4196 11.8679 27.0157 11.8679 26.5174V26.5174Z" fill="#FFB482"/>
<path d="M11.8679 23.0238C11.8679 22.5253 12.2721 22.1211 12.7707 22.1211V22.1211C13.2692 22.1211 13.6735 22.5253 13.6735 23.0238V23.0238C13.6735 23.5224 13.2692 23.9266 12.7707 23.9266V23.9266C12.2721 23.9266 11.8679 23.5224 11.8679 23.0238V23.0238Z" fill="#FFB482"/>
<path d="M11.8679 19.5693C11.8679 19.0707 12.2721 18.6665 12.7707 18.6665V18.6665C13.2692 18.6665 13.6735 19.0707 13.6735 19.5693V19.5693C13.6735 20.0678 13.2692 20.472 12.7707 20.472V20.472C12.2721 20.472 11.8679 20.0678 11.8679 19.5693V19.5693Z" fill="#FFB482"/>
<path d="M11.8679 12.5208C11.8679 12.0226 12.2724 11.6187 12.7707 11.6187V11.6187C13.2689 11.6187 13.6735 12.0226 13.6735 12.5208V12.5208C13.6735 13.0191 13.2689 13.423 12.7707 13.423V13.423C12.2724 13.423 11.8679 13.0191 11.8679 12.5208V12.5208Z" fill="#FFB482"/>
<path d="M11.8679 8.94719C11.8679 8.44861 12.2721 8.04443 12.7707 8.04443V8.04443C13.2692 8.04443 13.6735 8.44861 13.6735 8.94719V8.94719C13.6735 9.44577 13.2692 9.84994 12.7707 9.84994V9.84994C12.2721 9.84994 11.8679 9.44577 11.8679 8.94719V8.94719Z" fill="#FFB482"/>
<path d="M11.8679 5.44271C11.8679 4.94445 12.2724 4.54053 12.7707 4.54053V4.54053C13.2689 4.54053 13.6735 4.94445 13.6735 5.44271V5.44271C13.6735 5.94098 13.2689 6.3449 12.7707 6.3449V6.3449C12.2724 6.3449 11.8679 5.94098 11.8679 5.44271V5.44271Z" fill="#FFB482"/>
<path d="M14.8842 5.44392C14.8842 4.91054 15.3166 4.47803 15.85 4.47803V4.47803C16.3834 4.47803 16.8158 4.91054 16.8158 5.44392V5.44392C16.8158 5.9773 16.3834 6.40981 15.85 6.40981V6.40981C15.3166 6.40981 14.8842 5.9773 14.8842 5.44392V5.44392Z" fill="#FFAD76"/>
<path d="M14.8834 1.96589C14.8834 1.43251 15.3158 1 15.8492 1V1C16.3826 1 16.815 1.43251 16.815 1.96589V1.96589C16.815 2.49927 16.3826 2.93179 15.8492 2.93179V2.93179C15.3158 2.93179 14.8834 2.49927 14.8834 1.96589V1.96589Z" fill="#FFAD76"/>
<path d="M11.8679 1.96623C11.8679 1.46765 12.2721 1.06348 12.7707 1.06348V1.06348C13.2692 1.06348 13.6735 1.46765 13.6735 1.96623V1.96623C13.6735 2.46481 13.2692 2.86899 12.7707 2.86899V2.86899C12.2721 2.86899 11.8679 2.46481 11.8679 1.96623V1.96623Z" fill="#FFB482"/>
<path d="M17.9038 5.44289C17.9038 4.88871 18.3531 4.43945 18.9073 4.43945V4.43945C19.4615 4.43945 19.9109 4.88871 19.9109 5.44289V5.44289C19.9109 5.99707 19.4615 6.44633 18.9073 6.44633V6.44633C18.3531 6.44633 17.9038 5.99707 17.9038 5.44289V5.44289Z" fill="#FFA05F"/>
<path d="M8.90512 30.0969C8.90512 29.6335 9.28076 29.2578 9.74413 29.2578V29.2578C10.2075 29.2578 10.5831 29.6335 10.5831 30.0969V30.0969C10.5831 30.5602 10.2075 30.9359 9.74413 30.9359V30.9359C9.28076 30.9359 8.90512 30.5602 8.90512 30.0969V30.0969Z" fill="#EFAF84"/>
<path d="M8.90512 26.5182C8.90512 26.0551 9.28103 25.6797 9.74413 25.6797V25.6797C10.2072 25.6797 10.5831 26.0551 10.5831 26.5182V26.5182C10.5831 26.9813 10.2072 27.3567 9.74413 27.3567V27.3567C9.28103 27.3567 8.90512 26.9813 8.90512 26.5182V26.5182Z" fill="#EFAF84"/>
<path d="M8.90512 23.0236C8.90512 22.5602 9.28076 22.1846 9.74413 22.1846V22.1846C10.2075 22.1846 10.5831 22.5602 10.5831 23.0236V23.0236C10.5831 23.487 10.2075 23.8627 9.74413 23.8627V23.8627C9.28076 23.8627 8.90512 23.487 8.90512 23.0236V23.0236Z" fill="#EFAF84"/>
<path d="M8.90512 8.94651C8.90512 8.48314 9.28076 8.10742 9.74413 8.10742V8.10742C10.2075 8.10742 10.5831 8.48314 10.5831 8.94651V8.94651C10.5831 9.40988 10.2075 9.7856 9.74413 9.7856V9.7856C9.28076 9.7856 8.90512 9.40988 8.90512 8.94651V8.94651Z" fill="#EFAF84"/>
<path d="M8.90512 5.4435C8.90512 4.9804 9.28103 4.60498 9.74413 4.60498V4.60498C10.2072 4.60498 10.5831 4.9804 10.5831 5.4435V5.4435C10.5831 5.9066 10.2072 6.28202 9.74413 6.28202V6.28202C9.28103 6.28202 8.90512 5.9066 8.90512 5.4435V5.4435Z" fill="#EFAF84"/>
<path d="M8.90512 1.96787C8.90512 1.50479 9.28105 1.12939 9.74413 1.12939V1.12939C10.2072 1.12939 10.5831 1.50479 10.5831 1.96787V1.96787C10.5831 2.43095 10.2072 2.80635 9.74413 2.80635V2.80635C9.28105 2.80635 8.90512 2.43095 8.90512 1.96787V1.96787Z" fill="#EFAF84"/>
<path d="M5.95535 5.44412C5.95535 5.03011 6.29097 4.69434 6.70497 4.69434V4.69434C7.11898 4.69434 7.4546 5.03011 7.4546 5.44412V5.44412C7.4546 5.85812 7.11898 6.1939 6.70497 6.1939V6.1939C6.29097 6.1939 5.95535 5.85812 5.95535 5.44412V5.44412Z" fill="#FFC298"/>
<path d="M5.95535 1.968C5.95535 1.554 6.29097 1.21826 6.70497 1.21826V1.21826C7.11898 1.21826 7.4546 1.554 7.4546 1.968V1.968C7.4546 2.38201 7.11898 2.71775 6.70497 2.71775V2.71775C6.29097 2.71775 5.95535 2.38201 5.95535 1.968V1.968Z" fill="#FFC298"/>
<path d="M5.95535 26.5188C5.95535 26.1048 6.29097 25.769 6.70497 25.769V25.769C7.11898 25.769 7.4546 26.1048 7.4546 26.5188V26.5188C7.4546 26.9328 7.11898 27.2685 6.70497 27.2685V27.2685C6.29097 27.2685 5.95535 26.9328 5.95535 26.5188V26.5188Z" fill="#FFC298"/>
<path d="M5.95457 30.0955C5.95457 29.6815 6.29019 29.3457 6.7042 29.3457V29.3457C7.1182 29.3457 7.45382 29.6815 7.45382 30.0955V30.0955C7.45382 30.5095 7.1182 30.8453 6.7042 30.8453V30.8453C6.29019 30.8453 5.95457 30.5095 5.95457 30.0955V30.0955Z" fill="#FFC298"/>
<path d="M2.99997 30.0971C2.99997 29.7091 3.31448 29.3945 3.70246 29.3945V29.3945C4.09043 29.3945 4.40494 29.7091 4.40494 30.0971V30.0971C4.40494 30.485 4.09043 30.7996 3.70246 30.7996V30.7996C3.31448 30.7996 2.99997 30.485 2.99997 30.0971V30.0971Z" fill="#FFCFB0"/>
<path d="M2.99997 1.97064C2.99997 1.58267 3.31448 1.26807 3.70246 1.26807V1.26807C4.09043 1.26807 4.40494 1.58267 4.40494 1.97064V1.97064C4.40494 2.35861 4.09043 2.67321 3.70246 2.67321V2.67321C3.31448 2.67321 2.99997 2.35861 2.99997 1.97064V1.97064Z" fill="#FFCFB0"/>
</svg>
