<svg width="201" height="181" viewBox="0 0 201 181" fill="none" xmlns="http://www.w3.org/2000/svg">
<path d="M129.238 69.736L83.1433 43.3913L88.4088 40.3882L134.503 66.7328L129.238 69.736Z" fill="#BF9365"/>
<path d="M129.236 71.2984L134.489 68.2953V66.7327L129.236 69.7358V71.2984Z" fill="#8C6D4E"/>
<path d="M83.1431 44.9535L129.238 71.2981V69.7355L83.1431 43.3909V44.9535Z" fill="#A17D59"/>
<path d="M143.557 61.5565L97.4628 35.1997L102.716 32.1965L148.811 58.5412L143.557 61.5565Z" fill="#BF9365"/>
<path d="M143.557 63.1068L148.811 60.1036V58.541L143.557 61.5564V63.1068Z" fill="#8C6D4E"/>
<path d="M97.4615 36.7621L143.556 63.1067V61.5563L97.4615 35.1995V36.7621Z" fill="#A17D59"/>
<path d="M149.75 56.7906L123.752 70.8231L80.8931 46.9203V46.0358L106.185 31.9958L149.75 55.4944V56.7906Z" fill="#C9C9C9"/>
<path d="M149.75 56.7906L123.752 70.8231L123.773 69.5626L149.75 55.4944V56.7906Z" fill="white"/>
<path d="M80.8931 46.9203L123.752 70.8231L123.773 69.5626L80.8931 46.0358V46.9203Z" fill="#848484"/>
<path d="M149.75 55.2088L123.751 69.2414L80.8926 45.3385V44.454L106.185 30.4141L149.75 53.9126V55.2088Z" fill="#C9C9C9"/>
<path d="M149.75 55.2088L123.751 69.2414L123.773 67.9808L149.75 53.9126V55.2088Z" fill="white"/>
<path d="M80.8926 45.3385L123.751 69.2414L123.773 67.9808L80.8926 44.454V45.3385Z" fill="#848484"/>
<path d="M149.75 53.6273L123.751 67.6598L80.8926 43.757V42.8725L106.185 28.8325L149.75 52.3311V53.6273Z" fill="#C9C9C9"/>
<path d="M149.75 53.6273L123.751 67.6598L123.773 66.3993L149.75 52.3311V53.6273Z" fill="white"/>
<path d="M80.8926 43.757L123.751 67.6598L123.773 66.3993L80.8926 42.8725V43.757Z" fill="#848484"/>
<path d="M149.749 52.0455L123.751 66.078L80.8921 42.1752V41.2907L106.184 27.2507L149.749 50.7493V52.0455Z" fill="#C9C9C9"/>
<path d="M149.749 52.0455L123.751 66.078L123.772 64.8175L149.749 50.7493V52.0455Z" fill="white"/>
<path d="M80.8921 42.1752L123.751 66.078L123.772 64.8175L80.8921 41.2907V42.1752Z" fill="#848484"/>
<path d="M149.749 50.464L123.751 64.4965L80.8921 40.5936V39.7092L106.184 25.6692L149.749 49.1677V50.464Z" fill="#C9C9C9"/>
<path d="M149.749 50.464L123.751 64.4965L123.772 63.2359L149.749 49.1677V50.464Z" fill="white"/>
<path d="M80.8921 40.5936L123.751 64.4965L123.772 63.2359L80.8921 39.7092V40.5936Z" fill="#848484"/>
<path d="M84.9761 37.3946L142.15 53.1277L139.291 54.745L83.5708 38.0962L84.9761 37.3946Z" fill="white" fill-opacity="0.88"/>
<path d="M147.459 50.2974L92.3271 33.3513L86.0032 36.8595L143.375 52.541L147.459 50.2974Z" fill="white" fill-opacity="0.88"/>
<path d="M129.238 60.0319L83.1433 33.6872L88.4088 30.6841L134.503 57.0287L129.238 60.0319Z" fill="#BF9365"/>
<path d="M129.236 61.5941L134.489 58.5909V57.0283L129.236 60.0315V61.5941Z" fill="#8C6D4E"/>
<path d="M83.1431 35.2494L129.238 61.594V60.0314L83.1431 33.6868V35.2494Z" fill="#A17D59"/>
<path d="M143.557 51.8526L97.4628 25.4958L102.716 22.4927L148.811 48.8373L143.557 51.8526Z" fill="#BF9365"/>
<path d="M143.557 53.4029L148.811 50.3998V48.8372L143.557 51.8525V53.4029Z" fill="#8C6D4E"/>
<path d="M97.4615 27.058L143.556 53.4026V51.8522L97.4615 25.4954V27.058Z" fill="#A17D59"/>
<path d="M149.75 47.0868L123.752 61.1193L80.8931 37.2164V36.332L106.185 22.292L149.75 45.7905V47.0868Z" fill="#C9C9C9"/>
<path d="M149.75 47.0868L123.752 61.1193L123.773 59.8587L149.75 45.7905V47.0868Z" fill="white"/>
<path d="M80.8931 37.2164L123.752 61.1193L123.773 59.8587L80.8931 36.332V37.2164Z" fill="#848484"/>
<path d="M149.75 45.505L123.751 59.5375L80.8926 35.6347V34.7502L106.185 20.7102L149.75 44.2088V45.505Z" fill="#C9C9C9"/>
<path d="M149.75 45.505L123.751 59.5375L123.773 58.277L149.75 44.2088V45.505Z" fill="white"/>
<path d="M80.8926 35.6347L123.751 59.5375L123.773 58.277L80.8926 34.7502V35.6347Z" fill="#848484"/>
<path d="M149.75 43.9234L123.751 57.956L80.8926 34.0531V33.1686L106.185 19.1287L149.75 42.6272V43.9234Z" fill="#C9C9C9"/>
<path d="M149.75 43.9234L123.751 57.956L123.773 56.6954L149.75 42.6272V43.9234Z" fill="white"/>
<path d="M80.8926 34.0531L123.751 57.956L123.773 56.6954L80.8926 33.1686V34.0531Z" fill="#848484"/>
<path d="M149.749 42.3416L123.751 56.3742L80.8921 32.4713V31.5868L106.184 17.5469L149.749 41.0454V42.3416Z" fill="#C9C9C9"/>
<path d="M149.749 42.3416L123.751 56.3742L123.772 55.1136L149.749 41.0454V42.3416Z" fill="white"/>
<path d="M80.8921 32.4713L123.751 56.3742L123.772 55.1136L80.8921 31.5868V32.4713Z" fill="#848484"/>
<path d="M149.749 40.7601L123.751 54.7926L80.8921 30.8898V30.0053L106.184 15.9653L149.749 39.4639V40.7601Z" fill="#C9C9C9"/>
<path d="M149.749 40.7601L123.751 54.7926L123.772 53.5321L149.749 39.4639V40.7601Z" fill="white"/>
<path d="M80.8921 30.8898L123.751 54.7926L123.772 53.5321L80.8921 30.0053V30.8898Z" fill="#848484"/>
<path d="M84.9761 27.691L142.15 43.4241L139.291 45.0414L83.5708 28.3926L84.9761 27.691Z" fill="white" fill-opacity="0.88"/>
<path d="M147.459 40.5938L92.3271 23.6477L86.0032 27.1558L143.375 42.8373L147.459 40.5938Z" fill="white" fill-opacity="0.88"/>
<path d="M129.238 50.3285L83.1433 23.9838L88.4088 20.9807L134.503 47.3254L129.238 50.3285Z" fill="#BF9365"/>
<path d="M129.236 51.8907L134.489 48.8876V47.325L129.236 50.3281V51.8907Z" fill="#8C6D4E"/>
<path d="M83.1431 25.546L129.238 51.8907V50.3281L83.1431 23.9834V25.546Z" fill="#A17D59"/>
<path d="M143.557 42.1488L97.4623 15.7919L102.715 12.7888L148.81 39.1334L143.557 42.1488Z" fill="#BF9365"/>
<path d="M143.557 43.6993L148.81 40.6962V39.1335L143.557 42.1489V43.6993Z" fill="#8C6D4E"/>
<path d="M97.462 17.3546L143.557 43.6993V42.1488L97.462 15.792V17.3546Z" fill="#A17D59"/>
<path d="M149.75 37.3824L123.751 51.4149L80.8926 27.5121V26.6276L106.185 12.5876L149.75 36.0862V37.3824Z" fill="#C9C9C9"/>
<path d="M149.75 37.3824L123.751 51.4149L123.773 50.1544L149.75 36.0862V37.3824Z" fill="white"/>
<path d="M80.8926 27.5121L123.751 51.4149L123.773 50.1544L80.8926 26.6276V27.5121Z" fill="#848484"/>
<path d="M149.749 35.8009L123.751 49.8334L80.8921 25.9306V25.0461L106.184 11.0061L149.749 34.5047V35.8009Z" fill="#C9C9C9"/>
<path d="M149.749 35.8009L123.751 49.8334L123.772 48.5729L149.749 34.5047V35.8009Z" fill="white"/>
<path d="M80.8921 25.9306L123.751 49.8334L123.772 48.5729L80.8921 25.0461V25.9306Z" fill="#848484"/>
<path d="M149.749 34.2193L123.751 48.2519L80.8921 24.349V23.4645L106.184 9.42456L149.749 32.9231V34.2193Z" fill="#C9C9C9"/>
<path d="M149.749 34.2193L123.751 48.2519L123.772 46.9913L149.749 32.9231V34.2193Z" fill="white"/>
<path d="M80.8921 24.349L123.751 48.2519L123.772 46.9913L80.8921 23.4645V24.349Z" fill="#848484"/>
<path d="M149.748 32.6378L123.75 46.6703L80.8911 22.7675V21.883L106.183 7.84302L149.748 31.3416V32.6378Z" fill="#C9C9C9"/>
<path d="M149.748 32.6378L123.75 46.6703L123.771 45.4098L149.748 31.3416V32.6378Z" fill="white"/>
<path d="M80.8911 22.7675L123.75 46.6703L123.771 45.4098L80.8911 21.883V22.7675Z" fill="#848484"/>
<path d="M149.748 31.056L123.75 45.0885L80.8911 21.1857V20.3012L106.183 6.26123L149.748 29.7598V31.056Z" fill="#C9C9C9"/>
<path d="M149.748 31.056L123.75 45.0885L123.771 43.828L149.748 29.7598V31.056Z" fill="white"/>
<path d="M80.8911 21.1857L123.75 45.0885L123.771 43.828L80.8911 20.3012V21.1857Z" fill="#848484"/>
<path d="M84.9751 17.9866L142.149 33.7197L139.29 35.337L83.5698 18.6883L84.9751 17.9866Z" fill="white" fill-opacity="0.88"/>
<path d="M147.458 30.8894L92.3261 13.9434L86.0022 17.4515L143.374 33.133L147.458 30.8894Z" fill="white" fill-opacity="0.88"/>
<path d="M87.9917 51.2646V24.2626L112.948 9.94336" stroke="#474747" stroke-width="0.78266" stroke-linecap="round"/>
<path d="M97.811 56.9924V29.5812L123.177 15.262" stroke="#474747" stroke-width="0.78266" stroke-linecap="round"/>
<path d="M109.675 63.5386V36.1274L135.449 22.2173" stroke="#474747" stroke-width="0.78266" stroke-linecap="round"/>
<path d="M88.922 94.9008L42.8274 68.5561L48.0929 65.553L94.1875 91.8976L88.922 94.9008Z" fill="#BF9365"/>
<path d="M88.9207 96.463L94.1738 93.4598V91.8972L88.9207 94.9003V96.463Z" fill="#8C6D4E"/>
<path d="M42.8277 70.1183L88.9224 96.4629V94.9003L42.8277 68.5557V70.1183Z" fill="#A17D59"/>
<path d="M103.241 86.7213L57.1464 60.3645L62.3995 57.3613L108.494 83.7059L103.241 86.7213Z" fill="#BF9365"/>
<path d="M103.241 88.2718L108.494 85.2687V83.7061L103.241 86.7214V88.2718Z" fill="#8C6D4E"/>
<path d="M57.1456 61.9266L103.24 88.2713V86.7209L57.1456 60.364V61.9266Z" fill="#A17D59"/>
<path d="M109.435 81.9554L83.4363 95.9879L40.5776 72.0851V71.2006L65.8697 57.1606L109.435 80.6592V81.9554Z" fill="#C9C9C9"/>
<path d="M109.435 81.9554L83.4363 95.9879L83.458 94.7274L109.435 80.6592V81.9554Z" fill="white"/>
<path d="M40.5776 72.0851L83.4363 95.9879L83.458 94.7274L40.5776 71.2006V72.0851Z" fill="#848484"/>
<path d="M109.435 80.3736L83.4363 94.4062L40.5776 70.5033V69.6188L65.8697 55.5789L109.435 79.0774V80.3736Z" fill="#C9C9C9"/>
<path d="M109.435 80.3736L83.4363 94.4062L83.458 93.1456L109.435 79.0774V80.3736Z" fill="white"/>
<path d="M40.5776 70.5033L83.4363 94.4062L83.458 93.1456L40.5776 69.6188V70.5033Z" fill="#848484"/>
<path d="M109.435 78.7921L83.4363 92.8246L40.5776 68.9218V68.0373L65.8697 53.9973L109.435 77.4959V78.7921Z" fill="#C9C9C9"/>
<path d="M109.435 78.7921L83.4363 92.8246L83.458 91.5641L109.435 77.4959V78.7921Z" fill="white"/>
<path d="M40.5776 68.9218L83.4363 92.8246L83.458 91.5641L40.5776 68.0373V68.9218Z" fill="#848484"/>
<path d="M109.434 77.2103L83.4358 91.2428L40.5771 67.34V66.4555L65.8692 52.4155L109.434 75.9141V77.2103Z" fill="#C9C9C9"/>
<path d="M109.434 77.2103L83.4358 91.2428L83.4575 89.9823L109.434 75.9141V77.2103Z" fill="white"/>
<path d="M40.5771 67.34L83.4358 91.2428L83.4575 89.9823L40.5771 66.4555V67.34Z" fill="#848484"/>
<path d="M109.434 75.6287L83.4358 89.6613L40.5771 65.7584V64.874L65.8692 50.834L109.434 74.3325V75.6287Z" fill="#C9C9C9"/>
<path d="M109.434 75.6287L83.4358 89.6613L83.4575 88.4007L109.434 74.3325V75.6287Z" fill="white"/>
<path d="M40.5771 65.7584L83.4358 89.6613L83.4575 88.4007L40.5771 64.874V65.7584Z" fill="#848484"/>
<path d="M44.6607 62.5596L101.834 78.2927L98.9757 79.91L43.2554 63.2613L44.6607 62.5596Z" fill="white" fill-opacity="0.88"/>
<path d="M107.143 75.4624L52.0117 58.5164L45.6877 62.0245L103.06 77.706L107.143 75.4624Z" fill="white" fill-opacity="0.88"/>
<path d="M88.922 85.1974L42.8274 58.8527L48.0929 55.8496L94.1875 82.1943L88.922 85.1974Z" fill="#BF9365"/>
<path d="M88.9207 86.7596L94.1738 83.7565V82.1938L88.9207 85.197V86.7596Z" fill="#8C6D4E"/>
<path d="M42.8277 60.4147L88.9224 86.7593V85.1967L42.8277 58.8521V60.4147Z" fill="#A17D59"/>
<path d="M103.241 77.0177L57.1464 50.6608L62.3995 47.6577L108.494 74.0023L103.241 77.0177Z" fill="#BF9365"/>
<path d="M103.241 78.5682L108.494 75.5651V74.0024L103.241 77.0178V78.5682Z" fill="#8C6D4E"/>
<path d="M57.1456 52.2233L103.24 78.5679V77.0175L57.1456 50.6606V52.2233Z" fill="#A17D59"/>
<path d="M109.435 72.2518L83.4363 86.2843L40.5776 62.3815V61.497L65.8697 47.457L109.435 70.9556V72.2518Z" fill="#C9C9C9"/>
<path d="M109.435 72.2518L83.4363 86.2843L83.458 85.0238L109.435 70.9556V72.2518Z" fill="white"/>
<path d="M40.5776 62.3815L83.4363 86.2843L83.458 85.0238L40.5776 61.497V62.3815Z" fill="#848484"/>
<path d="M109.435 70.67L83.4363 84.7025L40.5776 60.7997V59.9152L65.8697 45.8752L109.435 69.3738V70.67Z" fill="#C9C9C9"/>
<path d="M109.435 70.67L83.4363 84.7025L83.458 83.442L109.435 69.3738V70.67Z" fill="white"/>
<path d="M40.5776 60.7997L83.4363 84.7025L83.458 83.442L40.5776 59.9152V60.7997Z" fill="#848484"/>
<path d="M109.435 69.0885L83.4363 83.121L40.5776 59.2181V58.3337L65.8697 44.2937L109.435 67.7922V69.0885Z" fill="#C9C9C9"/>
<path d="M109.435 69.0885L83.4363 83.121L83.458 81.8605L109.435 67.7922V69.0885Z" fill="white"/>
<path d="M40.5776 59.2181L83.4363 83.121L83.458 81.8605L40.5776 58.3337V59.2181Z" fill="#848484"/>
<path d="M109.434 67.5069L83.4358 81.5395L40.5771 57.6366V56.7521L65.8692 42.7122L109.434 66.2107V67.5069Z" fill="#C9C9C9"/>
<path d="M109.434 67.5069L83.4358 81.5395L83.4575 80.2789L109.434 66.2107V67.5069Z" fill="white"/>
<path d="M40.5771 57.6366L83.4358 81.5395L83.4575 80.2789L40.5771 56.7521V57.6366Z" fill="#848484"/>
<path d="M109.434 65.9251L83.4358 79.9577L40.5771 56.0548V55.1703L65.8692 41.1304L109.434 64.6289V65.9251Z" fill="#C9C9C9"/>
<path d="M109.434 65.9251L83.4358 79.9577L83.4575 78.6971L109.434 64.6289V65.9251Z" fill="white"/>
<path d="M40.5771 56.0548L83.4358 79.9577L83.4575 78.6971L40.5771 55.1703V56.0548Z" fill="#848484"/>
<path d="M44.6607 52.8558L101.834 68.5889L98.9757 70.2062L43.2554 53.5574L44.6607 52.8558Z" fill="white" fill-opacity="0.88"/>
<path d="M107.143 65.7586L52.0117 48.8125L45.6877 52.3206L103.06 68.0021L107.143 65.7586Z" fill="white" fill-opacity="0.88"/>
<path d="M88.922 75.4935L42.8274 49.1489L48.0929 46.1458L94.1875 72.4904L88.922 75.4935Z" fill="#BF9365"/>
<path d="M88.9207 77.056L94.1738 74.0528V72.4902L88.9207 75.4934V77.056Z" fill="#8C6D4E"/>
<path d="M42.8277 50.7113L88.9224 77.0559V75.4933L42.8277 49.1487V50.7113Z" fill="#A17D59"/>
<path d="M103.241 67.3138L57.1464 40.957L62.3995 37.9539L108.494 64.2985L103.241 67.3138Z" fill="#BF9365"/>
<path d="M103.241 68.8646L108.494 65.8614V64.2988L103.241 67.3142V68.8646Z" fill="#8C6D4E"/>
<path d="M57.1456 42.5196L103.24 68.8643V67.3139L57.1456 40.957V42.5196Z" fill="#A17D59"/>
<path d="M109.435 62.5477L83.4363 76.5802L40.5776 52.6774V51.7929L65.8697 37.7529L109.435 61.2515V62.5477Z" fill="#C9C9C9"/>
<path d="M109.435 62.5477L83.4363 76.5802L83.458 75.3197L109.435 61.2515V62.5477Z" fill="white"/>
<path d="M40.5776 52.6774L83.4363 76.5802L83.458 75.3197L40.5776 51.7929V52.6774Z" fill="#848484"/>
<path d="M109.435 60.9661L83.4363 74.9987L40.5776 51.0958V50.2114L65.8697 36.1714L109.435 59.6699V60.9661Z" fill="#C9C9C9"/>
<path d="M109.435 60.9661L83.4363 74.9987L83.458 73.7381L109.435 59.6699V60.9661Z" fill="white"/>
<path d="M40.5776 51.0958L83.4363 74.9987L83.458 73.7381L40.5776 50.2114V51.0958Z" fill="#848484"/>
<path d="M109.435 59.3846L83.4363 73.4171L40.5776 49.5143V48.6298L65.8697 34.5898L109.435 58.0884V59.3846Z" fill="#C9C9C9"/>
<path d="M109.435 59.3846L83.4363 73.4171L83.458 72.1566L109.435 58.0884V59.3846Z" fill="white"/>
<path d="M40.5776 49.5143L83.4363 73.4171L83.458 72.1566L40.5776 48.6298V49.5143Z" fill="#848484"/>
<path d="M109.434 57.8031L83.4358 71.8356L40.5771 47.9327V47.0483L65.8692 33.0083L109.434 56.5068V57.8031Z" fill="#C9C9C9"/>
<path d="M109.434 57.8031L83.4358 71.8356L83.4575 70.5751L109.434 56.5068V57.8031Z" fill="white"/>
<path d="M40.5771 47.9327L83.4358 71.8356L83.4575 70.5751L40.5771 47.0483V47.9327Z" fill="#848484"/>
<path d="M109.434 56.2213L83.4358 70.2538L40.5771 46.351V45.4665L65.8692 31.4265L109.434 54.9251V56.2213Z" fill="#C9C9C9"/>
<path d="M109.434 56.2213L83.4358 70.2538L83.4575 68.9933L109.434 54.9251V56.2213Z" fill="white"/>
<path d="M40.5771 46.351L83.4358 70.2538L83.4575 68.9933L40.5771 45.4665V46.351Z" fill="#848484"/>
<path d="M44.6607 43.1517L101.834 58.8848L98.9757 60.5021L43.2554 43.8533L44.6607 43.1517Z" fill="white" fill-opacity="0.88"/>
<path d="M107.143 56.0545L52.0117 39.1084L45.6877 42.6165L103.06 58.298L107.143 56.0545Z" fill="white" fill-opacity="0.88"/>
<path d="M47.6035 76.728V49.726L72.5599 35.4067" stroke="#474747" stroke-width="0.78266" stroke-linecap="round"/>
<path d="M57.4224 82.4557V55.0446L82.7879 40.7253" stroke="#474747" stroke-width="0.78266" stroke-linecap="round"/>
<path d="M69.2866 89.0015V61.5903L95.0613 47.6802" stroke="#474747" stroke-width="0.78266" stroke-linecap="round"/>
<path d="M49.131 125.546L3.03636 99.2009L8.30187 96.1978L54.3965 122.542L49.131 125.546Z" fill="#BF9365"/>
<path d="M49.1297 127.108L54.3828 124.105V122.542L49.1297 125.545V127.108Z" fill="#8C6D4E"/>
<path d="M3.03572 100.763L49.1304 127.108V125.545L3.03572 99.2004V100.763Z" fill="#A17D59"/>
<path d="M63.45 117.366L17.3553 91.0095L22.6085 88.0063L68.7031 114.351L63.45 117.366Z" fill="#BF9365"/>
<path d="M63.45 118.917L68.7031 115.914V114.351L63.45 117.366V118.917Z" fill="#8C6D4E"/>
<path d="M17.3541 92.5719L63.4487 118.917V117.366L17.3541 91.0093V92.5719Z" fill="#A17D59"/>
<path d="M69.6442 112.6L43.6457 126.633L0.787109 102.73V101.846L26.0792 87.8057L69.6442 111.304V112.6Z" fill="#C9C9C9"/>
<path d="M69.6442 112.6L43.6457 126.633L43.6675 125.372L69.6442 111.304V112.6Z" fill="white"/>
<path d="M0.787109 102.73L43.6457 126.633L43.6675 125.372L0.787109 101.846V102.73Z" fill="#848484"/>
<path d="M69.6437 111.019L43.6452 125.051L0.786621 101.148V100.264L26.0787 86.2239L69.6437 109.722V111.019Z" fill="#C9C9C9"/>
<path d="M69.6437 111.019L43.6452 125.051L43.667 123.791L69.6437 109.722V111.019Z" fill="white"/>
<path d="M0.786621 101.148L43.6452 125.051L43.667 123.791L0.786621 100.264V101.148Z" fill="#848484"/>
<path d="M69.6437 109.437L43.6452 123.47L0.786621 99.5668V98.6823L26.0787 84.6423L69.6437 108.141V109.437Z" fill="#C9C9C9"/>
<path d="M69.6437 109.437L43.6452 123.47L43.667 122.209L69.6437 108.141V109.437Z" fill="white"/>
<path d="M0.786621 99.5668L43.6452 123.47L43.667 122.209L0.786621 98.6823V99.5668Z" fill="#848484"/>
<path d="M69.6432 107.856L43.6447 121.888L0.786133 97.9852V97.1008L26.0782 83.0608L69.6432 106.559V107.856Z" fill="#C9C9C9"/>
<path d="M69.6432 107.856L43.6447 121.888L43.6665 120.628L69.6432 106.559V107.856Z" fill="white"/>
<path d="M0.786133 97.9852L43.6447 121.888L43.6665 120.628L0.786133 97.1008V97.9852Z" fill="#848484"/>
<path d="M69.6432 106.274L43.6447 120.306L0.786133 96.4035V95.519L26.0782 81.479L69.6432 104.978V106.274Z" fill="#C9C9C9"/>
<path d="M69.6432 106.274L43.6447 120.306L43.6665 119.046L69.6432 104.978V106.274Z" fill="white"/>
<path d="M0.786133 96.4035L43.6447 120.306L43.6665 119.046L0.786133 95.519V96.4035Z" fill="#848484"/>
<path d="M4.87017 93.2046L62.0439 108.938L59.1852 110.555L3.46484 93.9063L4.87017 93.2046Z" fill="white" fill-opacity="0.88"/>
<path d="M67.3529 106.107L12.2212 89.1614L5.89721 92.6695L63.269 108.351L67.3529 106.107Z" fill="white" fill-opacity="0.88"/>
<path d="M49.131 115.842L3.03636 89.4973L8.30187 86.4941L54.3965 112.839L49.131 115.842Z" fill="#BF9365"/>
<path d="M49.1297 117.404L54.3828 114.401V112.838L49.1297 115.841V117.404Z" fill="#8C6D4E"/>
<path d="M3.03572 91.0595L49.1304 117.404V115.841L3.03572 89.4968V91.0595Z" fill="#A17D59"/>
<path d="M63.45 107.662L17.3553 81.3056L22.6085 78.3025L68.7031 104.647L63.45 107.662Z" fill="#BF9365"/>
<path d="M63.45 109.213L68.7031 106.21V104.647L63.45 107.663V109.213Z" fill="#8C6D4E"/>
<path d="M17.3541 82.8678L63.4487 109.212V107.662L17.3541 81.3052V82.8678Z" fill="#A17D59"/>
<path d="M69.6442 102.896L43.6457 116.929L0.787109 93.0258V92.1413L26.0792 78.1013L69.6442 101.6V102.896Z" fill="#C9C9C9"/>
<path d="M69.6442 102.896L43.6457 116.929L43.6675 115.668L69.6442 101.6V102.896Z" fill="white"/>
<path d="M0.787109 93.0258L43.6457 116.929L43.6675 115.668L0.787109 92.1413V93.0258Z" fill="#848484"/>
<path d="M69.6437 101.315L43.6452 115.347L0.786621 91.4442V90.5597L26.0787 76.5198L69.6437 100.018V101.315Z" fill="#C9C9C9"/>
<path d="M69.6437 101.315L43.6452 115.347L43.667 114.087L69.6437 100.018V101.315Z" fill="white"/>
<path d="M0.786621 91.4442L43.6452 115.347L43.667 114.087L0.786621 90.5597V91.4442Z" fill="#848484"/>
<path d="M69.6437 99.7327L43.6452 113.765L0.786621 89.8624V88.978L26.0787 74.938L69.6437 98.4365V99.7327Z" fill="#C9C9C9"/>
<path d="M69.6437 99.7327L43.6452 113.765L43.667 112.505L69.6437 98.4365V99.7327Z" fill="white"/>
<path d="M0.786621 89.8624L43.6452 113.765L43.667 112.505L0.786621 88.978V89.8624Z" fill="#848484"/>
<path d="M69.6432 98.1512L43.6447 112.184L0.786133 88.2809V87.3964L26.0782 73.3564L69.6432 96.855V98.1512Z" fill="#C9C9C9"/>
<path d="M69.6432 98.1512L43.6447 112.184L43.6665 110.923L69.6432 96.855V98.1512Z" fill="white"/>
<path d="M0.786133 88.2809L43.6447 112.184L43.6665 110.923L0.786133 87.3964V88.2809Z" fill="#848484"/>
<path d="M69.6432 96.5697L43.6447 110.602L0.786133 86.6994V85.8149L26.0782 71.7749L69.6432 95.2734V96.5697Z" fill="#C9C9C9"/>
<path d="M69.6432 96.5697L43.6447 110.602L43.6665 109.342L69.6432 95.2734V96.5697Z" fill="white"/>
<path d="M0.786133 86.6994L43.6447 110.602L43.6665 109.342L0.786133 85.8149V86.6994Z" fill="#848484"/>
<path d="M4.87017 83.5005L62.0439 99.2336L59.1852 100.851L3.46484 84.2022L4.87017 83.5005Z" fill="white" fill-opacity="0.88"/>
<path d="M67.3529 96.4034L12.2212 79.4573L5.89721 82.9654L63.269 98.6469L67.3529 96.4034Z" fill="white" fill-opacity="0.88"/>
<path d="M49.131 106.138L3.03636 79.7937L8.30187 76.7905L54.3965 103.135L49.131 106.138Z" fill="#BF9365"/>
<path d="M49.1297 107.701L54.3828 104.697V103.135L49.1297 106.138V107.701Z" fill="#8C6D4E"/>
<path d="M3.03572 81.3559L49.1304 107.7V106.138L3.03572 79.7932V81.3559Z" fill="#A17D59"/>
<path d="M63.45 97.9586L17.3553 71.6018L22.6085 68.5986L68.7031 94.9433L63.45 97.9586Z" fill="#BF9365"/>
<path d="M63.45 99.5091L68.7031 96.506V94.9434L63.45 97.9587V99.5091Z" fill="#8C6D4E"/>
<path d="M17.3541 73.1644L63.4487 99.5091V97.9586L17.3541 71.6018V73.1644Z" fill="#A17D59"/>
<path d="M69.6442 93.1925L43.6457 107.225L0.787109 83.3222V82.4377L26.0792 68.3977L69.6442 91.8963V93.1925Z" fill="#C9C9C9"/>
<path d="M69.6442 93.1925L43.6457 107.225L43.6675 105.964L69.6442 91.8963V93.1925Z" fill="white"/>
<path d="M0.787109 83.3222L43.6457 107.225L43.6675 105.964L0.787109 82.4377V83.3222Z" fill="#848484"/>
<path d="M69.6437 91.6109L43.6452 105.643L0.786621 81.7406V80.8561L26.0787 66.8162L69.6437 90.3147V91.6109Z" fill="#C9C9C9"/>
<path d="M69.6437 91.6109L43.6452 105.643L43.667 104.383L69.6437 90.3147V91.6109Z" fill="white"/>
<path d="M0.786621 81.7406L43.6452 105.643L43.667 104.383L0.786621 80.8561V81.7406Z" fill="#848484"/>
<path d="M69.6437 90.0294L43.6452 104.062L0.786621 80.1591V79.2746L26.0787 65.2346L69.6437 88.7332V90.0294Z" fill="#C9C9C9"/>
<path d="M69.6437 90.0294L43.6452 104.062L43.667 102.801L69.6437 88.7332V90.0294Z" fill="white"/>
<path d="M0.786621 80.1591L43.6452 104.062L43.667 102.801L0.786621 79.2746V80.1591Z" fill="#848484"/>
<path d="M69.6432 88.4476L43.6447 102.48L0.786133 78.5773V77.6928L26.0782 63.6528L69.6432 87.1514V88.4476Z" fill="#C9C9C9"/>
<path d="M69.6432 88.4476L43.6447 102.48L43.6665 101.22L69.6432 87.1514V88.4476Z" fill="white"/>
<path d="M0.786133 78.5773L43.6447 102.48L43.6665 101.22L0.786133 77.6928V78.5773Z" fill="#848484"/>
<path d="M69.6432 86.8661L43.6447 100.899L0.786133 76.9957V76.1113L26.0782 62.0713L69.6432 85.5698V86.8661Z" fill="#C9C9C9"/>
<path d="M69.6432 86.8661L43.6447 100.899L43.6665 99.638L69.6432 85.5698V86.8661Z" fill="white"/>
<path d="M0.786133 76.9957L43.6447 100.899L43.6665 99.638L0.786133 76.1113V76.9957Z" fill="#848484"/>
<path d="M4.87017 73.7969L62.0439 89.53L59.1852 91.1473L3.46484 74.4986L4.87017 73.7969Z" fill="white" fill-opacity="0.88"/>
<path d="M67.3529 86.6997L12.2212 69.7537L5.89721 73.2618L63.269 88.9433L67.3529 86.6997Z" fill="white" fill-opacity="0.88"/>
<path d="M7.7417 107.736V80.7341L32.6981 66.4148" stroke="#474747" stroke-width="0.78266" stroke-linecap="round"/>
<path d="M17.5601 113.464V86.0529L42.9256 71.7336" stroke="#474747" stroke-width="0.78266" stroke-linecap="round"/>
<path d="M29.4253 120.01V92.5989L55.2 78.6887" stroke="#474747" stroke-width="0.78266" stroke-linecap="round"/>
<path d="M180.275 104.56L134.18 78.215L139.445 75.2119L185.54 101.557L180.275 104.56Z" fill="#BF9365"/>
<path d="M180.273 106.122L185.526 103.119V101.556L180.273 104.559V106.122Z" fill="#8C6D4E"/>
<path d="M134.18 79.7775L180.275 106.122V104.559L134.18 78.2148V79.7775Z" fill="#A17D59"/>
<path d="M194.594 96.3802L148.499 70.0234L153.753 67.0203L199.847 93.3649L194.594 96.3802Z" fill="#BF9365"/>
<path d="M194.594 97.9308L199.847 94.9276V93.365L194.594 96.3803V97.9308Z" fill="#8C6D4E"/>
<path d="M148.499 71.5858L194.593 97.9305V96.38L148.499 70.0232V71.5858Z" fill="#A17D59"/>
<path d="M200.787 91.6143L174.788 105.647L131.93 81.744V80.8595L157.222 66.8196L200.787 90.3181V91.6143Z" fill="#C9C9C9"/>
<path d="M200.787 91.6143L174.788 105.647L174.81 104.386L200.787 90.3181V91.6143Z" fill="white"/>
<path d="M131.93 81.744L174.788 105.647L174.81 104.386L131.93 80.8595V81.744Z" fill="#848484"/>
<path d="M200.786 90.0326L174.788 104.065L131.929 80.1622V79.2778L157.221 65.2378L200.786 88.7363V90.0326Z" fill="#C9C9C9"/>
<path d="M200.786 90.0326L174.788 104.065L174.81 102.805L200.786 88.7363V90.0326Z" fill="white"/>
<path d="M131.929 80.1622L174.788 104.065L174.81 102.805L131.929 79.2778V80.1622Z" fill="#848484"/>
<path d="M200.786 88.4508L174.788 102.483L131.929 78.5805V77.696L157.221 63.656L200.786 87.1546V88.4508Z" fill="#C9C9C9"/>
<path d="M200.786 88.4508L174.788 102.483L174.81 101.223L200.786 87.1546V88.4508Z" fill="white"/>
<path d="M131.929 78.5805L174.788 102.483L174.81 101.223L131.929 77.696V78.5805Z" fill="#848484"/>
<path d="M200.786 86.8692L174.787 100.902L131.929 76.9989V76.1144L157.221 62.0745L200.786 85.573V86.8692Z" fill="#C9C9C9"/>
<path d="M200.786 86.8692L174.787 100.902L174.809 99.6412L200.786 85.573V86.8692Z" fill="white"/>
<path d="M131.929 76.9989L174.787 100.902L174.809 99.6412L131.929 76.1144V76.9989Z" fill="#848484"/>
<path d="M200.786 85.2877L174.787 99.3202L131.929 75.4174V74.5329L157.221 60.4929L200.786 83.9915V85.2877Z" fill="#C9C9C9"/>
<path d="M200.786 85.2877L174.787 99.3202L174.809 98.0597L200.786 83.9915V85.2877Z" fill="white"/>
<path d="M131.929 75.4174L174.787 99.3202L174.809 98.0597L131.929 74.5329V75.4174Z" fill="#848484"/>
<path d="M136.013 72.2183L193.186 87.9514L190.328 89.5687L134.607 72.9199L136.013 72.2183Z" fill="white" fill-opacity="0.88"/>
<path d="M198.495 85.1211L143.364 68.175L137.04 71.6832L194.412 87.3647L198.495 85.1211Z" fill="white" fill-opacity="0.88"/>
<path d="M180.275 94.8558L134.18 68.5112L139.445 65.5081L185.54 91.8527L180.275 94.8558Z" fill="#BF9365"/>
<path d="M180.273 96.4183L185.526 93.4151V91.8525L180.273 94.8557V96.4183Z" fill="#8C6D4E"/>
<path d="M134.18 70.0736L180.275 96.4183V94.8556L134.18 68.511V70.0736Z" fill="#A17D59"/>
<path d="M194.594 86.6764L148.499 60.3195L153.753 57.3164L199.847 83.661L194.594 86.6764Z" fill="#BF9365"/>
<path d="M194.594 88.2269L199.847 85.2237V83.6611L194.594 86.6765V88.2269Z" fill="#8C6D4E"/>
<path d="M148.499 61.8819L194.593 88.2266V86.6762L148.499 60.3193V61.8819Z" fill="#A17D59"/>
<path d="M200.787 81.9105L174.788 95.943L131.93 72.0402V71.1557L157.222 57.1157L200.787 80.6143V81.9105Z" fill="#C9C9C9"/>
<path d="M200.787 81.9105L174.788 95.943L174.81 94.6825L200.787 80.6143V81.9105Z" fill="white"/>
<path d="M131.93 72.0402L174.788 95.943L174.81 94.6825L131.93 71.1557V72.0402Z" fill="#848484"/>
<path d="M200.786 80.3287L174.788 94.3612L131.929 70.4584V69.5739L157.221 55.5339L200.786 79.0325V80.3287Z" fill="#C9C9C9"/>
<path d="M200.786 80.3287L174.788 94.3612L174.81 93.1007L200.786 79.0325V80.3287Z" fill="white"/>
<path d="M131.929 70.4584L174.788 94.3612L174.81 93.1007L131.929 69.5739V70.4584Z" fill="#848484"/>
<path d="M200.786 78.7469L174.788 92.7794L131.929 68.8766V67.9921L157.221 53.9521L200.786 77.4507V78.7469Z" fill="#C9C9C9"/>
<path d="M200.786 78.7469L174.788 92.7794L174.81 91.5189L200.786 77.4507V78.7469Z" fill="white"/>
<path d="M131.929 68.8766L174.788 92.7794L174.81 91.5189L131.929 67.9921V68.8766Z" fill="#848484"/>
<path d="M200.786 77.1654L174.787 91.1979L131.929 67.2951V66.4106L157.221 52.3706L200.786 75.8692V77.1654Z" fill="#C9C9C9"/>
<path d="M200.786 77.1654L174.787 91.1979L174.809 89.9374L200.786 75.8692V77.1654Z" fill="white"/>
<path d="M131.929 67.2951L174.787 91.1979L174.809 89.9374L131.929 66.4106V67.2951Z" fill="#848484"/>
<path d="M200.786 75.5838L174.787 89.6164L131.929 65.7135V64.829L157.221 50.7891L200.786 74.2876V75.5838Z" fill="#C9C9C9"/>
<path d="M200.786 75.5838L174.787 89.6164L174.809 88.3558L200.786 74.2876V75.5838Z" fill="white"/>
<path d="M131.929 65.7135L174.787 89.6164L174.809 88.3558L131.929 64.829V65.7135Z" fill="#848484"/>
<path d="M136.013 62.5147L193.186 78.2478L190.328 79.8651L134.607 63.2163L136.013 62.5147Z" fill="white" fill-opacity="0.88"/>
<path d="M198.495 75.4175L143.364 58.4714L137.04 61.9796L194.412 77.6611L198.495 75.4175Z" fill="white" fill-opacity="0.88"/>
<path d="M180.274 85.1525L134.179 58.8078L139.444 55.8047L185.539 82.1493L180.274 85.1525Z" fill="#BF9365"/>
<path d="M180.272 86.7147L185.525 83.7115V82.1489L180.272 85.1521V86.7147Z" fill="#8C6D4E"/>
<path d="M134.179 60.3703L180.273 86.7149V85.1523L134.179 58.8076V60.3703Z" fill="#A17D59"/>
<path d="M194.593 76.9728L148.498 50.6159L153.752 47.6128L199.846 73.9574L194.593 76.9728Z" fill="#BF9365"/>
<path d="M194.593 78.5233L199.846 75.5201V73.9575L194.593 76.9729V78.5233Z" fill="#8C6D4E"/>
<path d="M148.498 52.1786L194.592 78.5232V76.9728L148.498 50.616V52.1786Z" fill="#A17D59"/>
<path d="M200.786 72.2064L174.787 86.2389L131.929 62.3361V61.4516L157.221 47.4116L200.786 70.9102V72.2064Z" fill="#C9C9C9"/>
<path d="M200.786 72.2064L174.787 86.2389L174.809 84.9784L200.786 70.9102V72.2064Z" fill="white"/>
<path d="M131.929 62.3361L174.787 86.2389L174.809 84.9784L131.929 61.4516V62.3361Z" fill="#848484"/>
<path d="M200.785 70.6248L174.787 84.6574L131.928 60.7545V59.87L157.22 45.8301L200.785 69.3286V70.6248Z" fill="#C9C9C9"/>
<path d="M200.785 70.6248L174.787 84.6574L174.809 83.3968L200.785 69.3286V70.6248Z" fill="white"/>
<path d="M131.928 60.7545L174.787 84.6574L174.809 83.3968L131.928 59.87V60.7545Z" fill="#848484"/>
<path d="M200.785 69.0433L174.787 83.0758L131.928 59.173V58.2885L157.22 44.2485L200.785 67.7471V69.0433Z" fill="#C9C9C9"/>
<path d="M200.785 69.0433L174.787 83.0758L174.809 81.8153L200.785 67.7471V69.0433Z" fill="white"/>
<path d="M131.928 59.173L174.787 83.0758L174.809 81.8153L131.928 58.2885V59.173Z" fill="#848484"/>
<path d="M200.784 67.4618L174.786 81.4943L131.927 57.5914V56.707L157.219 42.667L200.784 66.1655V67.4618Z" fill="#C9C9C9"/>
<path d="M200.784 67.4618L174.786 81.4943L174.808 80.2337L200.784 66.1655V67.4618Z" fill="white"/>
<path d="M131.927 57.5914L174.786 81.4943L174.808 80.2337L131.927 56.707V57.5914Z" fill="#848484"/>
<path d="M200.784 65.88L174.786 79.9125L131.927 56.0097V55.1252L157.219 41.0852L200.784 64.5838V65.88Z" fill="#C9C9C9"/>
<path d="M200.784 65.88L174.786 79.9125L174.808 78.652L200.784 64.5838V65.88Z" fill="white"/>
<path d="M131.927 56.0097L174.786 79.9125L174.808 78.652L131.927 55.1252V56.0097Z" fill="#848484"/>
<path d="M136.012 52.8106L193.185 68.5437L190.327 70.161L134.606 53.5122L136.012 52.8106Z" fill="white" fill-opacity="0.88"/>
<path d="M198.494 65.7134L143.363 48.7673L137.039 52.2755L194.411 67.957L198.494 65.7134Z" fill="white" fill-opacity="0.88"/>
<path d="M139.12 86.5017V59.4997L164.077 45.1804" stroke="#474747" stroke-width="0.78266" stroke-linecap="round"/>
<path d="M148.939 92.2292V64.818L174.305 50.4988" stroke="#474747" stroke-width="0.78266" stroke-linecap="round"/>
<path d="M160.804 98.7754V71.3642L186.578 57.4541" stroke="#474747" stroke-width="0.78266" stroke-linecap="round"/>
<path d="M139.959 129.724L93.864 103.38L99.1295 100.377L145.224 126.721L139.959 129.724Z" fill="#BF9365"/>
<path d="M139.958 131.287L145.211 128.284V126.721L139.958 129.724V131.287Z" fill="#8C6D4E"/>
<path d="M93.8643 104.942L139.959 131.287V129.724L93.8643 103.379V104.942Z" fill="#A17D59"/>
<path d="M154.278 121.545L108.183 95.1882L113.436 92.1851L159.531 118.53L154.278 121.545Z" fill="#BF9365"/>
<path d="M154.278 123.096L159.531 120.092V118.53L154.278 121.545V123.096Z" fill="#8C6D4E"/>
<path d="M108.182 96.7506L154.277 123.095V121.545L108.182 95.188V96.7506Z" fill="#A17D59"/>
<path d="M160.472 116.779L134.473 130.812L91.6147 106.909V106.024L116.907 91.9844L160.472 115.483V116.779Z" fill="#C9C9C9"/>
<path d="M160.472 116.779L134.473 130.812L134.495 129.551L160.472 115.483V116.779Z" fill="white"/>
<path d="M91.6147 106.909L134.473 130.812L134.495 129.551L91.6147 106.024V106.909Z" fill="#848484"/>
<path d="M160.472 115.197L134.473 129.23L91.6147 105.327V104.443L116.907 90.4026L160.472 113.901V115.197Z" fill="#C9C9C9"/>
<path d="M160.472 115.197L134.473 129.23L134.495 127.969L160.472 113.901V115.197Z" fill="white"/>
<path d="M91.6147 105.327L134.473 129.23L134.495 127.969L91.6147 104.443V105.327Z" fill="#848484"/>
<path d="M160.472 113.616L134.473 127.648L91.6147 103.745V102.861L116.907 88.8208L160.472 112.319V113.616Z" fill="#C9C9C9"/>
<path d="M160.472 113.616L134.473 127.648L134.495 126.388L160.472 112.319V113.616Z" fill="white"/>
<path d="M91.6147 103.745L134.473 127.648L134.495 126.388L91.6147 102.861V103.745Z" fill="#848484"/>
<path d="M160.471 112.034L134.472 126.067L91.6138 102.164V101.279L116.906 87.2393L160.471 110.738V112.034Z" fill="#C9C9C9"/>
<path d="M160.471 112.034L134.472 126.067L134.494 124.806L160.471 110.738V112.034Z" fill="white"/>
<path d="M91.6138 102.164L134.472 126.067L134.494 124.806L91.6138 101.279V102.164Z" fill="#848484"/>
<path d="M160.471 110.452L134.472 124.485L91.6138 100.582V99.6977L116.906 85.6577L160.471 109.156V110.452Z" fill="#C9C9C9"/>
<path d="M160.471 110.452L134.472 124.485L134.494 123.224L160.471 109.156V110.452Z" fill="white"/>
<path d="M91.6138 100.582L134.472 124.485L134.494 123.224L91.6138 99.6977V100.582Z" fill="#848484"/>
<path d="M95.6973 97.3834L152.871 113.116L150.012 114.734L94.292 98.085L95.6973 97.3834Z" fill="white" fill-opacity="0.88"/>
<path d="M158.18 110.286L103.048 93.3401L96.7244 96.8482L154.096 112.53L158.18 110.286Z" fill="white" fill-opacity="0.88"/>
<path d="M139.959 120.021L93.864 93.6767L99.1295 90.6736L145.224 117.018L139.959 120.021Z" fill="#BF9365"/>
<path d="M139.958 121.584L145.211 118.581V117.018L139.958 120.021V121.584Z" fill="#8C6D4E"/>
<path d="M93.8643 95.2389L139.959 121.584V120.021L93.8643 93.6763V95.2389Z" fill="#A17D59"/>
<path d="M154.278 111.842L108.183 85.4848L113.436 82.4817L159.531 108.826L154.278 111.842Z" fill="#BF9365"/>
<path d="M154.278 113.392L159.531 110.389V108.827L154.278 111.842V113.392Z" fill="#8C6D4E"/>
<path d="M108.182 87.0472L154.277 113.392V111.841L108.182 85.4846V87.0472Z" fill="#A17D59"/>
<path d="M160.472 107.075L134.473 121.108L91.6147 97.205V96.3205L116.907 82.2805L160.472 105.779V107.075Z" fill="#C9C9C9"/>
<path d="M160.472 107.075L134.473 121.108L134.495 119.847L160.472 105.779V107.075Z" fill="white"/>
<path d="M91.6147 97.205L134.473 121.108L134.495 119.847L91.6147 96.3205V97.205Z" fill="#848484"/>
<path d="M160.472 105.494L134.473 119.526L91.6147 95.6234V94.7389L116.907 80.699L160.472 104.198V105.494Z" fill="#C9C9C9"/>
<path d="M160.472 105.494L134.473 119.526L134.495 118.266L160.472 104.198V105.494Z" fill="white"/>
<path d="M91.6147 95.6234L134.473 119.526L134.495 118.266L91.6147 94.7389V95.6234Z" fill="#848484"/>
<path d="M160.472 103.912L134.473 117.944L91.6147 94.0416V93.1572L116.907 79.1172L160.472 102.616V103.912Z" fill="#C9C9C9"/>
<path d="M160.472 103.912L134.473 117.944L134.495 116.684L160.472 102.616V103.912Z" fill="white"/>
<path d="M91.6147 94.0416L134.473 117.944L134.495 116.684L91.6147 93.1572V94.0416Z" fill="#848484"/>
<path d="M160.471 102.331L134.472 116.363L91.6138 92.4603V91.5759L116.906 77.5359L160.471 101.034V102.331Z" fill="#C9C9C9"/>
<path d="M160.471 102.331L134.472 116.363L134.494 115.103L160.471 101.034V102.331Z" fill="white"/>
<path d="M91.6138 92.4603L134.472 116.363L134.494 115.103L91.6138 91.5759V92.4603Z" fill="#848484"/>
<path d="M160.471 100.749L134.472 114.781L91.6138 90.8785V89.9941L116.906 75.9541L160.471 99.4526V100.749Z" fill="#C9C9C9"/>
<path d="M160.471 100.749L134.472 114.781L134.494 113.521L160.471 99.4526V100.749Z" fill="white"/>
<path d="M91.6138 90.8785L134.472 114.781L134.494 113.521L91.6138 89.9941V90.8785Z" fill="#848484"/>
<path d="M95.6973 87.6795L152.871 103.413L150.012 105.03L94.292 88.3811L95.6973 87.6795Z" fill="white" fill-opacity="0.88"/>
<path d="M158.18 100.582L103.048 83.6362L96.7244 87.1444L154.096 102.826L158.18 100.582Z" fill="white" fill-opacity="0.88"/>
<path d="M139.959 110.317L93.864 83.9726L99.1295 80.9695L145.224 107.314L139.959 110.317Z" fill="#BF9365"/>
<path d="M139.958 111.88L145.211 108.877V107.314L139.958 110.317V111.88Z" fill="#8C6D4E"/>
<path d="M93.8643 85.5353L139.959 111.88V110.317L93.8643 83.9727V85.5353Z" fill="#A17D59"/>
<path d="M154.278 102.138L108.183 75.7807L113.436 72.7776L159.531 99.1222L154.278 102.138Z" fill="#BF9365"/>
<path d="M154.278 103.688L159.531 100.685V99.1226L154.278 102.138V103.688Z" fill="#8C6D4E"/>
<path d="M108.182 77.3434L154.277 103.688V102.138L108.182 75.7808V77.3434Z" fill="#A17D59"/>
<path d="M160.472 97.3714L134.473 111.404L91.6147 87.5011V86.6166L116.907 72.5767L160.472 96.0752V97.3714Z" fill="#C9C9C9"/>
<path d="M160.472 97.3714L134.473 111.404L134.495 110.143L160.472 96.0752V97.3714Z" fill="white"/>
<path d="M91.6147 87.5011L134.473 111.404L134.495 110.143L91.6147 86.6166V87.5011Z" fill="#848484"/>
<path d="M160.472 95.7899L134.473 109.822L91.6147 85.9196V85.0351L116.907 70.9951L160.472 94.4937V95.7899Z" fill="#C9C9C9"/>
<path d="M160.472 95.7899L134.473 109.822L134.495 108.562L160.472 94.4937V95.7899Z" fill="white"/>
<path d="M91.6147 85.9196L134.473 109.822L134.495 108.562L91.6147 85.0351V85.9196Z" fill="#848484"/>
<path d="M160.472 94.2081L134.473 108.241L91.6147 84.3378V83.4533L116.907 69.4133L160.472 92.9119V94.2081Z" fill="#C9C9C9"/>
<path d="M160.472 94.2081L134.473 108.241L134.495 106.98L160.472 92.9119V94.2081Z" fill="white"/>
<path d="M91.6147 84.3378L134.473 108.241L134.495 106.98L91.6147 83.4533V84.3378Z" fill="#848484"/>
<path d="M160.471 92.6265L134.472 106.659L91.6138 82.7562V81.8718L116.906 67.8318L160.471 91.3303V92.6265Z" fill="#C9C9C9"/>
<path d="M160.471 92.6265L134.472 106.659L134.494 105.399L160.471 91.3303V92.6265Z" fill="white"/>
<path d="M91.6138 82.7562L134.472 106.659L134.494 105.399L91.6138 81.8718V82.7562Z" fill="#848484"/>
<path d="M160.471 91.045L134.472 105.078L91.6138 81.1747V80.2902L116.906 66.2502L160.471 89.7488V91.045Z" fill="#C9C9C9"/>
<path d="M160.471 91.045L134.472 105.078L134.494 103.817L160.471 89.7488V91.045Z" fill="white"/>
<path d="M91.6138 81.1747L134.472 105.078L134.494 103.817L91.6138 80.2902V81.1747Z" fill="#848484"/>
<path d="M95.6973 77.9754L152.871 93.7085L150.012 95.3258L94.292 78.677L95.6973 77.9754Z" fill="white" fill-opacity="0.88"/>
<path d="M158.18 90.8782L103.048 73.9321L96.7244 77.4403L154.096 93.1218L158.18 90.8782Z" fill="white" fill-opacity="0.88"/>
<path d="M98.7324 111.965V84.9626L123.689 70.6433" stroke="#474747" stroke-width="0.78266" stroke-linecap="round"/>
<path d="M108.551 117.692V90.2812L133.917 75.9619" stroke="#474747" stroke-width="0.78266" stroke-linecap="round"/>
<path d="M120.415 124.238V96.8271L146.19 82.917" stroke="#474747" stroke-width="0.78266" stroke-linecap="round"/>
<path d="M100.168 160.37L54.073 134.025L59.3385 131.022L105.433 157.367L100.168 160.37Z" fill="#BF9365"/>
<path d="M100.166 161.932L105.419 158.929V157.366L100.166 160.369V161.932Z" fill="#8C6D4E"/>
<path d="M54.0723 135.587L100.167 161.932V160.369L54.0723 134.025V135.587Z" fill="#A17D59"/>
<path d="M114.487 152.19L68.392 125.834L73.6451 122.83L119.74 149.175L114.487 152.19Z" fill="#BF9365"/>
<path d="M114.487 153.741L119.74 150.738V149.175L114.487 152.19V153.741Z" fill="#8C6D4E"/>
<path d="M68.3907 127.396L114.485 153.741V152.19L68.3907 125.833V127.396Z" fill="#A17D59"/>
<path d="M120.68 147.424L94.6819 161.457L51.8232 137.554V136.669L77.1153 122.63L120.68 146.128V147.424Z" fill="#C9C9C9"/>
<path d="M120.68 147.424L94.6819 161.457L94.7036 160.196L120.68 146.128V147.424Z" fill="white"/>
<path d="M51.8232 137.554L94.6819 161.457L94.7036 160.196L51.8232 136.669V137.554Z" fill="#848484"/>
<path d="M120.68 145.843L94.6814 159.875L51.8228 135.972V135.088L77.1148 121.048L120.68 144.546V145.843Z" fill="#C9C9C9"/>
<path d="M120.68 145.843L94.6814 159.875L94.7031 158.615L120.68 144.546V145.843Z" fill="white"/>
<path d="M51.8228 135.972L94.6814 159.875L94.7031 158.615L51.8228 135.088V135.972Z" fill="#848484"/>
<path d="M120.68 144.261L94.6814 158.293L51.8228 134.391V133.506L77.1148 119.466L120.68 142.965V144.261Z" fill="#C9C9C9"/>
<path d="M120.68 144.261L94.6814 158.293L94.7031 157.033L120.68 142.965V144.261Z" fill="white"/>
<path d="M51.8228 134.391L94.6814 158.293L94.7031 157.033L51.8228 133.506V134.391Z" fill="#848484"/>
<path d="M120.679 142.679L94.6809 156.712L51.8223 132.809V131.925L77.1143 117.885L120.679 141.383V142.679Z" fill="#C9C9C9"/>
<path d="M120.679 142.679L94.6809 156.712L94.7027 155.451L120.679 141.383V142.679Z" fill="white"/>
<path d="M51.8223 132.809L94.6809 156.712L94.7027 155.451L51.8223 131.925V132.809Z" fill="#848484"/>
<path d="M120.679 141.098L94.6809 155.13L51.8223 131.227V130.343L77.1143 116.303L120.679 139.801V141.098Z" fill="#C9C9C9"/>
<path d="M120.679 141.098L94.6809 155.13L94.7027 153.87L120.679 139.801V141.098Z" fill="white"/>
<path d="M51.8223 131.227L94.6809 155.13L94.7027 153.87L51.8223 130.343V131.227Z" fill="#848484"/>
<path d="M55.9068 128.029L113.08 143.762L110.222 145.379L54.5015 128.73L55.9068 128.029Z" fill="white" fill-opacity="0.88"/>
<path d="M118.389 140.931L63.2578 123.985L56.9338 127.493L114.306 143.175L118.389 140.931Z" fill="white" fill-opacity="0.88"/>
<path d="M100.168 150.666L54.073 124.321L59.3385 121.318L105.433 147.663L100.168 150.666Z" fill="#BF9365"/>
<path d="M100.166 152.228L105.419 149.225V147.662L100.166 150.665V152.228Z" fill="#8C6D4E"/>
<path d="M54.0723 125.884L100.167 152.228V150.666L54.0723 124.321V125.884Z" fill="#A17D59"/>
<path d="M114.487 142.486L68.392 116.13L73.6451 113.126L119.74 139.471L114.487 142.486Z" fill="#BF9365"/>
<path d="M114.487 144.037L119.74 141.034V139.471L114.487 142.487V144.037Z" fill="#8C6D4E"/>
<path d="M68.3907 117.692L114.485 144.037V142.486L68.3907 116.129V117.692Z" fill="#A17D59"/>
<path d="M120.68 137.72L94.6819 151.753L51.8232 127.85V126.965L77.1153 112.925L120.68 136.424V137.72Z" fill="#C9C9C9"/>
<path d="M120.68 137.72L94.6819 151.753L94.7036 150.492L120.68 136.424V137.72Z" fill="white"/>
<path d="M51.8232 127.85L94.6819 151.753L94.7036 150.492L51.8232 126.965V127.85Z" fill="#848484"/>
<path d="M120.68 136.139L94.6814 150.171L51.8228 126.268V125.384L77.1148 111.344L120.68 134.842V136.139Z" fill="#C9C9C9"/>
<path d="M120.68 136.139L94.6814 150.171L94.7031 148.91L120.68 134.842V136.139Z" fill="white"/>
<path d="M51.8228 126.268L94.6814 150.171L94.7031 148.91L51.8228 125.384V126.268Z" fill="#848484"/>
<path d="M120.68 134.557L94.6814 148.589L51.8228 124.686V123.802L77.1148 109.762L120.68 133.261V134.557Z" fill="#C9C9C9"/>
<path d="M120.68 134.557L94.6814 148.589L94.7031 147.329L120.68 133.261V134.557Z" fill="white"/>
<path d="M51.8228 124.686L94.6814 148.589L94.7031 147.329L51.8228 123.802V124.686Z" fill="#848484"/>
<path d="M120.679 132.975L94.6809 147.008L51.8223 123.105V122.22L77.1143 108.18L120.679 131.679V132.975Z" fill="#C9C9C9"/>
<path d="M120.679 132.975L94.6809 147.008L94.7027 145.747L120.679 131.679V132.975Z" fill="white"/>
<path d="M51.8223 123.105L94.6809 147.008L94.7027 145.747L51.8223 122.22V123.105Z" fill="#848484"/>
<path d="M120.679 131.394L94.6809 145.426L51.8223 121.523V120.639L77.1143 106.599L120.679 130.097V131.394Z" fill="#C9C9C9"/>
<path d="M120.679 131.394L94.6809 145.426L94.7027 144.166L120.679 130.097V131.394Z" fill="white"/>
<path d="M51.8223 121.523L94.6809 145.426L94.7027 144.166L51.8223 120.639V121.523Z" fill="#848484"/>
<path d="M55.9068 118.325L113.08 134.058L110.222 135.675L54.5015 119.026L55.9068 118.325Z" fill="white" fill-opacity="0.88"/>
<path d="M118.389 131.227L63.2578 114.281L56.9338 117.789L114.306 133.471L118.389 131.227Z" fill="white" fill-opacity="0.88"/>
<path d="M100.168 140.962L54.073 114.617L59.3385 111.614L105.433 137.959L100.168 140.962Z" fill="#BF9365"/>
<path d="M100.166 142.524L105.419 139.521V137.959L100.166 140.962V142.524Z" fill="#8C6D4E"/>
<path d="M54.0723 116.18L100.167 142.524V140.962L54.0723 114.617V116.18Z" fill="#A17D59"/>
<path d="M114.487 132.783L68.392 106.426L73.6451 103.423L119.74 129.767L114.487 132.783Z" fill="#BF9365"/>
<path d="M114.487 134.333L119.74 131.33V129.767L114.487 132.783V134.333Z" fill="#8C6D4E"/>
<path d="M68.3907 107.988L114.485 134.333V132.782L68.3907 106.426V107.988Z" fill="#A17D59"/>
<path d="M120.68 128.016L94.6819 142.049L51.8232 118.146V117.261L77.1153 103.221L120.68 126.72V128.016Z" fill="#C9C9C9"/>
<path d="M120.68 128.016L94.6819 142.049L94.7036 140.788L120.68 126.72V128.016Z" fill="white"/>
<path d="M51.8232 118.146L94.6819 142.049L94.7036 140.788L51.8232 117.261V118.146Z" fill="#848484"/>
<path d="M120.68 126.435L94.6819 140.467L51.8232 116.564V115.68L77.1153 101.64L120.68 125.138V126.435Z" fill="#C9C9C9"/>
<path d="M120.68 126.435L94.6819 140.467L94.7036 139.207L120.68 125.138V126.435Z" fill="white"/>
<path d="M51.8232 116.564L94.6819 140.467L94.7036 139.207L51.8232 115.68V116.564Z" fill="#848484"/>
<path d="M120.68 124.853L94.6819 138.886L51.8232 114.983V114.098L77.1153 100.058L120.68 123.557V124.853Z" fill="#C9C9C9"/>
<path d="M120.68 124.853L94.6819 138.886L94.7036 137.625L120.68 123.557V124.853Z" fill="white"/>
<path d="M51.8232 114.983L94.6819 138.886L94.7036 137.625L51.8232 114.098V114.983Z" fill="#848484"/>
<path d="M120.68 123.271L94.6814 137.304L51.8228 113.401V112.517L77.1148 98.4766L120.68 121.975V123.271Z" fill="#C9C9C9"/>
<path d="M120.68 123.271L94.6814 137.304L94.7031 136.043L120.68 121.975V123.271Z" fill="white"/>
<path d="M51.8228 113.401L94.6814 137.304L94.7031 136.043L51.8228 112.517V113.401Z" fill="#848484"/>
<path d="M120.68 121.69L94.6814 135.722L51.8228 111.819V110.935L77.1148 96.895L120.68 120.394V121.69Z" fill="#C9C9C9"/>
<path d="M120.68 121.69L94.6814 135.722L94.7031 134.462L120.68 120.394V121.69Z" fill="white"/>
<path d="M51.8228 111.819L94.6814 135.722L94.7031 134.462L51.8228 110.935V111.819Z" fill="#848484"/>
<path d="M55.9073 108.62L113.081 124.354L110.222 125.971L54.502 109.322L55.9073 108.62Z" fill="white" fill-opacity="0.88"/>
<path d="M118.39 121.523L63.2583 104.577L56.9343 108.085L114.306 123.767L118.39 121.523Z" fill="white" fill-opacity="0.88"/>
<path d="M58.8711 142.973V115.971L83.8275 101.652" stroke="#474747" stroke-width="0.78266" stroke-linecap="round"/>
<path d="M68.689 148.701V121.289L94.0545 106.97" stroke="#474747" stroke-width="0.78266" stroke-linecap="round"/>
<path d="M80.5537 155.247V127.835L106.328 113.925" stroke="#474747" stroke-width="0.78266" stroke-linecap="round"/>
</svg>
