<svg width="83" height="75" viewBox="0 0 83 75" fill="none" xmlns="http://www.w3.org/2000/svg">
<g clip-path="url(#clip0_437_49562)">
<path d="M1.61435 38.3893C1.97235 38.3893 2.33402 38.2696 2.63373 38.0261L9.8814 32.1021V66.9794C9.8814 67.8706 10.6026 68.5918 11.4938 68.5918C12.3846 68.5918 13.1061 67.8706 13.1061 66.9794V29.4648L39.7145 7.71691L69.161 29.6716V66.977C69.161 67.8672 69.8822 68.5896 70.7737 68.5896C71.6648 68.5896 72.386 67.8675 72.386 66.977V32.0776L80.4224 38.0699C80.712 38.2853 81.0491 38.3893 81.3859 38.3893C81.8783 38.3893 82.3636 38.1656 82.6805 37.7395C83.2127 37.0257 83.0649 36.0158 82.351 35.4836L72.1342 27.8663C71.9262 27.5365 71.6032 27.2941 71.22 27.1837L40.6329 4.37898C40.6022 4.3569 40.5694 4.34309 40.5387 4.32346C40.4884 4.28971 40.4381 4.2572 40.3844 4.23112C40.3384 4.20904 40.2915 4.19124 40.2442 4.17437C40.1949 4.15443 40.1458 4.13572 40.0942 4.12191C40.0424 4.10719 39.9899 4.09891 39.9372 4.09032C39.8875 4.08203 39.8381 4.07222 39.7887 4.06823C39.7362 4.06393 39.6844 4.06608 39.6316 4.06731C39.5804 4.06823 39.5295 4.06823 39.4779 4.0759C39.4267 4.08111 39.3773 4.09369 39.3264 4.1032C39.2758 4.11363 39.2255 4.12529 39.1761 4.14093C39.1233 4.1578 39.0739 4.18081 39.0233 4.20167C38.9782 4.22253 38.934 4.23971 38.8899 4.26364C38.8368 4.29186 38.7865 4.32867 38.7371 4.36457C38.7083 4.38665 38.6757 4.40138 38.6478 4.42316L26.7382 14.1575V10.6471C26.7382 9.75599 26.017 9.03478 25.1256 9.03478H16.5346C15.6431 9.03478 14.9219 9.75599 14.9219 10.6471V23.8148L0.592202 35.5271C-0.0980225 36.0898 -0.199256 37.1061 0.364275 37.796C0.683619 38.1865 1.14714 38.3893 1.61435 38.3893ZM18.1481 12.2595H23.5141V16.7935L18.1481 21.1788V12.2595Z" fill="#FF771B"/>
<path d="M19 58.1139C19 59.4834 19.5302 60.7702 20.4929 61.7379C21.4545 62.706 22.7346 63.239 24.0949 63.239C25.4558 63.239 26.7351 62.706 27.697 61.7379L29.3897 60.0359C29.4563 60.3397 29.6036 60.6315 29.8386 60.8679L32.4791 63.522C32.7981 63.8418 33.222 64.0191 33.6712 64.0191C33.8048 64.0191 33.9338 63.9989 34.0605 63.969C34.0302 64.0966 34.0103 64.2259 34.0103 64.3605C34.0103 64.8134 34.186 65.239 34.5043 65.5582L36.4342 67.4997C36.7522 67.8216 37.1764 68 37.6285 68C38.0789 68 38.5031 67.8227 38.8216 67.5021L49.0174 57.2489C49.3361 56.9283 49.5113 56.5011 49.5105 56.0475C49.5105 55.5941 49.3343 55.1682 49.0174 54.8506L47.0847 52.9064C46.7679 52.5869 46.3316 52.4263 45.8945 52.4253L47.8806 50.428C47.92 50.3883 47.9586 50.3465 47.9924 50.3033C48.4038 49.9511 48.6251 49.4195 48.5795 48.8754L48.0313 42.3405C48.7646 42.4973 49.5124 42.5796 50.268 42.5796C53.1338 42.5796 55.8268 41.4567 57.8523 39.4202C60.7374 36.5205 61.7318 32.2962 60.4492 28.395C60.347 28.0827 60.091 27.8471 59.7742 27.7713C59.4581 27.6966 59.1222 27.7899 58.8928 28.0226L53.3715 33.5749L48.4907 28.6673L54.0117 23.1131C54.243 22.8805 54.3369 22.5442 54.2615 22.2255C54.1853 21.906 53.9513 21.6493 53.6417 21.5457C52.5518 21.1835 51.4158 21 50.2645 21C47.3987 21 44.7057 22.1221 42.681 24.1575C39.8957 26.9576 38.8699 31.108 39.9888 34.8797L34.5756 40.324L32.7012 38.4425C32.0634 37.7997 30.9529 37.8016 30.3165 38.4425L28.5572 40.2112C28.3643 40.4053 28.2357 40.636 28.1558 40.8816C27.9138 40.9601 27.6876 41.0848 27.5019 41.2713L25.7466 43.037C25.5556 43.2292 25.4231 43.461 25.3412 43.7104C25.1008 43.7889 24.8738 43.9144 24.6906 44.099L22.9323 45.8666C22.7386 46.0617 22.6096 46.2933 22.5299 46.5391C22.2892 46.6166 22.063 46.7421 21.8773 46.9277L20.1188 48.6965C19.462 49.3566 19.462 50.4317 20.1188 51.0948L21.993 52.9788L20.4894 54.4898C19.5302 55.4586 19 56.7451 19 58.1139ZM47.5484 56.0526L37.6287 66.0278L35.9714 64.3605L45.8902 54.3826L47.5484 56.0526ZM46.5505 49.0926L33.6706 62.0464L31.306 59.6675L44.0791 46.8201C44.2747 46.6233 44.3748 46.3491 44.3518 46.0712L44.224 44.5613C44.1846 44.1022 43.8229 43.7392 43.3665 43.7006L38.9381 43.3255L39.1149 41.2235L45.8715 41.7981C45.9367 41.8904 46.0228 41.9762 46.1084 42.0399C46.1111 42.0418 46.1145 42.0447 46.1194 42.0472L46.6952 48.9221C46.6388 48.9672 46.5972 49.0152 46.5505 49.0926ZM41.7263 35.8094C41.9842 35.5498 42.0695 35.1647 41.9456 34.8195C40.784 31.5854 41.5938 27.9262 44.0097 25.4982C45.6791 23.8191 47.8999 22.8937 50.2634 22.8937C50.6747 22.8937 51.0826 22.9223 51.4866 22.9779L46.4945 28.0002C46.1274 28.3696 46.1274 28.9679 46.4945 29.3374L52.705 35.5824C53.0723 35.9527 53.6664 35.9527 54.0345 35.5824L59.0285 30.5604C59.416 33.3015 58.5171 36.0774 56.5209 38.0844C54.8496 39.7643 52.6288 40.6905 50.2653 40.6905C49.2334 40.6905 48.2197 40.5124 47.2519 40.1605C47.0998 40.1052 46.9361 40.0919 46.7818 40.117C46.7166 40.0809 46.645 40.0579 46.5752 40.0312C46.5401 40.0183 46.51 39.9999 46.4741 39.9899C46.3611 39.9557 46.2447 39.9325 46.1242 39.9225L39.0749 39.3239C39.0486 39.322 38.9593 39.3182 38.933 39.3182C38.0639 39.3182 37.3261 40.0007 37.2536 40.8716L37.0875 42.8581L35.9016 41.6658L41.7263 35.8094ZM31.5091 39.9184L33.9094 42.3335L36.2365 44.6735L34.7527 46.1651L30.0262 41.4108L31.5091 39.9184ZM28.6967 42.7469L33.423 47.5015L31.9406 48.9928L27.2138 44.2385L28.6967 42.7469ZM25.8845 45.576L30.61 50.3295L29.8574 51.0878L29.1289 51.821L26.7654 49.4437L24.4013 47.0665L25.8845 45.576ZM21.5892 49.8955L23.0721 48.405L25.4432 50.7896L27.7984 53.1582L26.316 54.6498L23.9897 52.3103C23.9897 52.3103 23.9889 52.3103 23.9889 52.3095L21.5892 49.8955ZM21.8215 55.8281L23.3251 54.3171L25.1239 56.1255C25.4416 56.4466 25.8658 56.6231 26.3171 56.6231C26.7676 56.6231 27.1901 56.4469 27.5094 56.1273L29.2674 54.3586C29.3567 54.2682 29.4313 54.1713 29.496 54.0677C29.5167 54.0345 29.5317 53.9994 29.5497 53.9651C29.5883 53.8931 29.6248 53.821 29.6519 53.7455C29.6564 53.7317 29.6661 53.7196 29.6707 53.7058C29.6868 53.7001 29.7004 53.6902 29.7165 53.6848C29.7919 53.6561 29.8636 53.62 29.9339 53.5811C29.9688 53.562 30.0047 53.5471 30.0377 53.5258C30.1391 53.4602 30.2352 53.3863 30.3224 53.2986L32.079 51.5298C32.1662 51.4432 32.2397 51.3461 32.3044 51.2443C32.325 51.2111 32.3411 51.1752 32.3599 51.141C32.3994 51.0689 32.4353 50.9968 32.4632 50.9213C32.4691 50.9054 32.4793 50.8927 32.4844 50.877C32.5 50.8714 32.5134 50.8611 32.5295 50.8568C32.6046 50.8282 32.6757 50.792 32.7466 50.7523C32.7814 50.7337 32.8174 50.7181 32.8499 50.6968C32.9505 50.6314 33.0463 50.5564 33.1332 50.4695L34.892 48.7011C34.9786 48.6134 35.0532 48.5162 35.1179 48.4155C35.1385 48.3823 35.1536 48.347 35.1726 48.313C35.2121 48.2407 35.2488 48.1689 35.2767 48.0914C35.2824 48.0755 35.292 48.0628 35.2966 48.048C35.3127 48.0423 35.3258 48.0321 35.3406 48.0267C35.4168 47.9983 35.4884 47.9622 35.5601 47.9225C35.5936 47.9039 35.6293 47.8882 35.6615 47.868C35.7621 47.8024 35.8579 47.7285 35.9453 47.6407L37.7047 45.872C37.8034 45.7724 37.8823 45.6607 37.952 45.5441C37.9727 45.509 37.9896 45.4729 38.0084 45.437C38.0524 45.3485 38.0883 45.2589 38.1162 45.1636C38.1235 45.1404 38.138 45.1194 38.1433 45.0953C38.1568 45.0999 38.1726 45.0999 38.186 45.1045C38.3145 45.1488 38.4473 45.183 38.5855 45.1941L41.26 45.4213L26.3678 60.3991C25.1531 61.62 23.0364 61.62 21.8229 60.3991C21.2154 59.7879 20.8808 58.9769 20.8808 58.1133C20.8803 57.2505 21.2152 56.4377 21.8215 55.8281Z" fill="#FF771B"/>
</g>
<defs>
<clipPath id="clip0_437_49562">
<rect width="83" height="75" fill="white"/>
</clipPath>
</defs>
</svg>
