<svg width="541" height="306" viewBox="0 0 541 306" fill="none" xmlns="http://www.w3.org/2000/svg">
<path opacity="0.2" d="M490.604 304.022C490.604 304.022 591.702 148.839 484.369 106.396C457.333 95.7054 447.902 -53.9665 327.811 20.8694C280.053 50.6305 211.285 14.6156 145.43 34.3004C84.95 52.3785 83.5597 104.527 91.2067 123.3C99.5622 143.814 66.2418 168.339 32.117 185.183C-21.4113 211.605 17.9505 304.462 68.5191 304.906C119.088 305.35 490.604 304.022 490.604 304.022Z" fill="#1043B7"/>
<path d="M376.311 149.465C379.933 130.768 383.253 112.869 383.253 112.869C383.253 112.869 372.942 114.442 368.502 118.167C364.063 121.893 363.614 145.615 362.134 152.321C361.759 154.315 361.5 156.329 361.356 158.353C360.515 167.998 361.562 182.442 362.355 186.49C362.303 186.88 361.974 188.791 360.227 192.458C360.227 192.458 359.322 195.273 365.242 199.495C369.014 202.186 372.376 169.788 376.311 149.465Z" fill="#EFBA9C"/>
<path d="M383.253 112.869C383.253 112.869 381.324 123.202 378.798 136.373C377.997 140.553 377.135 145.016 376.255 149.527C372.678 156.543 369.609 161.314 368.661 160.416C366.727 158.588 363.33 158.363 361.181 158.431C361.325 156.403 361.587 154.386 361.965 152.389C362.082 151.858 362.193 151.221 362.301 150.496C363.552 142.044 364.262 121.613 368.384 118.176C372.859 114.445 383.253 112.869 383.253 112.869Z" fill="#428EE8"/>
<path d="M378.738 136.25C377.94 140.451 377.081 144.937 376.204 149.471C372.639 156.523 369.58 161.318 368.635 160.416C366.708 158.579 363.323 158.352 361.181 158.42C361.325 156.382 361.585 154.354 361.962 152.347C362.079 151.814 362.19 151.173 362.297 150.445L372.985 124.407L378.738 136.25Z" fill="#016EB9"/>
<path d="M398.272 112.477C398.352 108.84 398.292 104.498 397.8 100.83L383.252 103.202C383.252 103.202 383.252 107.631 383.316 112.546L383.302 112.549C383.302 112.549 382.905 117.108 388.533 117.775C394.161 118.443 398.424 115.996 398.272 112.477Z" fill="#EFBA9C"/>
<path opacity="0.4" d="M383.252 104.341C383.252 104.341 386.699 111.364 390.651 111.364C394.602 111.364 398.302 104.759 398.302 104.759L383.252 104.341Z" fill="#E53F19"/>
<path d="M392.784 303.993C392.784 303.993 393.307 299.78 394.52 297.341C395.733 294.902 403.45 296.454 403.45 296.454C403.45 296.454 404.994 297.784 405.325 303.993H392.784Z" fill="#131F2D"/>
<path d="M366.609 303.993C368.455 302.874 367.404 294.525 367.404 294.525C367.404 294.525 358.805 287.69 357.622 292.923C356.44 298.156 349.453 300.506 345.476 301.147C342.73 301.589 341.88 303.1 341.617 303.993H366.609Z" fill="#131F2D"/>
<path d="M399.341 96.8905C399.341 96.8905 408.841 81.5387 390.599 80.5226C390.599 80.5226 383.756 81.3482 382.207 79.7607C382.207 79.7607 376.9 88.0276 381.857 96.8905C386.813 105.753 399.341 96.8905 399.341 96.8905Z" fill="#131F2D"/>
<path d="M383.613 104.519C385.001 105.624 389.073 106.721 390.25 106.849C390.25 106.849 396.287 105.488 397.384 104.819C399.084 103.777 398.975 101.668 399.062 98.7368C399.166 95.2668 399.512 92.5418 399.129 90.5413C398.673 88.1484 397.173 86.7871 392.972 86.4172C385.26 85.7403 382.048 87.693 381.913 90.3073C381.878 91.0094 381.846 91.6787 381.824 92.3127C381.515 100.465 382.152 103.357 383.613 104.519Z" fill="#EFBA9C"/>
<path d="M383.893 242.267C383.597 243.779 383.39 245.307 383.273 246.843C382.489 262.203 370.396 297.323 368.233 298.142C364.886 299.41 359.615 296.715 356.857 295.833C356.298 295.667 355.82 295.3 355.514 294.803C355.207 294.305 355.095 293.711 355.198 293.135C361.187 265.492 363.388 225.687 364.189 202.12C364.593 190.25 366.623 182.05 366.623 182.05C366.623 182.05 396.118 174.149 396.293 184.144C396.449 192.989 386.523 227.676 383.893 242.267Z" fill="#364154"/>
<path d="M383.894 242.292L364.19 202.129C364.595 190.254 366.624 182.051 366.624 182.051C366.624 182.051 396.119 174.147 396.294 184.146C396.449 192.994 386.524 227.695 383.894 242.292Z" fill="#131F2D"/>
<path d="M377.233 184.199L393.072 297.63C393.072 297.63 400.028 299.287 405.438 297.961C405.438 297.961 410.075 237.633 409.688 223.049C409.302 208.464 413.016 184.022 408.841 181.327C404.665 178.632 377.233 184.199 377.233 184.199Z" fill="#364154"/>
<path d="M410.784 181.511C410.796 181.824 410.746 182.136 410.637 182.429C410.527 182.721 410.361 182.989 410.147 183.216C409.933 183.443 409.677 183.625 409.392 183.751C409.107 183.877 408.801 183.944 408.49 183.948L383.912 184.326L365.86 184.603C365.014 184.618 367.687 177.811 367.741 133.429C367.754 123.526 382.989 112.869 383.27 112.869L383.273 112.872C383.273 114.298 385.506 116.931 388.946 117.157C393.029 117.427 398.038 115.382 398.038 113.015C398.499 113.511 398.913 114.049 399.276 114.622C401.314 117.611 405.42 124.898 408.041 137.585C410.11 147.603 409.314 160.998 410.804 178.28C410.913 179.528 410.753 180.637 410.784 181.511Z" fill="#131F2D"/>
<path d="M409.855 184.034C409.855 184.034 406.59 185.506 400.482 186.78C394.504 187.993 388.42 188.608 382.322 188.615C370.381 188.692 365.86 184.551 365.86 184.551C365.015 184.566 367.686 177.764 367.74 133.414C367.753 123.518 382.98 112.869 383.261 112.869L383.264 112.872C383.264 112.872 382.873 126.051 386.835 129.926C386.835 129.926 392.392 125.607 399.6 113.316C401.638 116.302 405.4 124.89 408.019 137.567C408.564 140.346 408.936 143.157 409.135 145.983C409.83 154.73 409.675 165.411 410.781 178.232C410.89 179.48 410.73 180.588 410.761 181.461C410.813 182.778 411.164 184.014 409.855 184.034Z" fill="#428EE8"/>
<path d="M409.856 183.861C409.856 183.861 406.592 185.334 400.487 186.61C398.566 183.658 396.146 178.33 395.811 169.933C395.243 155.734 408.626 137.449 408.626 137.449L409.137 145.765C409.831 154.522 409.676 165.215 410.781 178.052C410.89 179.301 410.73 180.41 410.762 181.285C410.813 182.604 411.164 183.841 409.856 183.861Z" fill="#016EB9"/>
<path d="M398.38 135.901L375.457 149.136L393.612 180.58L416.535 167.345L398.38 135.901Z" fill="#364154"/>
<path d="M412.629 117.496C409.837 115.366 403.279 113.855 400.053 113.213C398.915 112.987 398.191 112.869 398.191 112.869C398.527 114.435 399.284 116.89 400.274 119.839C404.419 132.196 412.635 153.208 410.98 153.656C409.343 154.07 407.685 154.392 406.013 154.621C398.807 155.685 389.109 156.157 388.095 156.204C388.015 156.129 384.561 152.88 383.216 152.88C381.855 152.88 377.933 154.322 377.533 155.431C377.133 156.54 376.973 158.537 378.093 158.98C380.373 159.701 382.7 160.257 385.057 160.644C385.249 160.66 385.442 160.658 385.634 160.639C392.741 162.775 400.027 164.25 407.4 165.046C415.381 165.873 420.048 165.414 420.048 165.414C425.829 152.859 416.405 120.376 412.629 117.496Z" fill="#EFBA9C"/>
<path d="M420.052 165.414C420.052 165.414 415.392 165.872 407.426 165.048C407.865 162.868 408.273 158.612 406.041 154.662C407.71 154.435 409.365 154.114 410.999 153.701C412.652 153.255 404.45 132.323 400.312 120.013C399.981 116.034 399.807 113.37 399.807 113.37L400.091 113.414C403.312 114.053 409.858 115.558 412.645 117.68C416.414 120.549 425.822 152.907 420.052 165.414Z" fill="#428EE8"/>
<path d="M386.764 129.925C386.764 129.925 398.119 124.957 398.287 124.566C398.456 124.176 397.725 121.161 396.938 120.268C396.938 120.268 402.391 120.771 402.728 120.101C403.066 119.431 403.318 113.92 403.318 113.92C403.318 113.92 401.049 111.587 398.238 111.364C398.238 111.364 395.771 117.453 394.859 119.264C392.441 124.064 386.764 129.925 386.764 129.925Z" fill="#016EB9"/>
<path d="M384.098 120.088C384.098 120.088 384.82 125.901 386.764 129.925C386.764 129.925 380.905 125.817 380.406 124.476C379.906 123.134 381.822 120.535 381.822 120.535C381.822 120.535 378.323 120.452 378.24 119.278C378.157 118.104 379.323 113.494 379.323 113.494C379.323 113.494 382.332 111.282 383.165 111.366L384.098 120.088Z" fill="#016EB9"/>
<path d="M403.316 88.5238L378.244 88.7902C378.244 88.7902 377.876 81.2799 382.221 76.491C382.419 76.2694 382.629 76.0545 382.851 75.8465C383.847 74.9069 385.008 74.1574 386.276 73.6356C391.287 71.5587 395.444 73.4753 398.042 75.4386C398.298 75.6305 398.538 75.8242 398.762 76.0161C399.573 76.6894 400.311 77.4454 400.963 78.2717C400.963 78.2717 403.397 81.5705 403.316 88.5238Z" fill="#FF771B"/>
<path d="M396.272 88.4726C396.204 87.474 395.761 78.9707 398.808 76.0879C398.676 75.9667 398.537 75.8531 398.392 75.7476C395.143 79.0623 394.885 87.4311 394.899 88.487L386.881 88.571C386.643 82.5487 383.252 76.5518 382.846 75.8827C382.682 76.0287 382.528 76.1841 382.383 76.348C382.971 77.3627 385.185 83.1688 385.397 88.5866L378.236 88.6617C378.236 88.6617 384.916 90.3548 389.948 90.2935C394.979 90.2321 403.318 88.3987 403.318 88.3987L396.272 88.4726Z" fill="#C86521"/>
<path d="M429.857 158.376H433.922C435.811 157.509 445.989 153.054 455.772 153C462.83 152.961 470.873 158.29 471.357 158.347C472.584 158.493 467.268 158.542 467.268 158.542C467.268 158.542 459.302 154.98 455.723 154.896C452.312 154.816 444.738 157.322 441.712 158.376H464.492C465.41 158.379 466.289 158.749 466.938 159.404C467.587 160.06 467.953 160.949 467.956 161.876V188.126C467.953 189.054 467.587 189.942 466.938 190.598C466.29 191.254 465.41 191.624 464.492 191.626H429.857C428.939 191.624 428.06 191.254 427.411 190.598C426.762 189.942 426.396 189.054 426.394 188.126V161.876C426.396 160.949 426.762 160.06 427.411 159.404C428.06 158.748 428.939 158.379 429.857 158.376Z" fill="#428EE8"/>
<path d="M440.899 158.518H475.596C476.516 158.518 477.399 158.885 478.049 159.539C478.7 160.192 479.066 161.079 479.066 162.003V188.141C479.066 189.065 478.7 189.952 478.05 190.605C477.399 191.259 476.516 191.626 475.596 191.626H440.899C439.979 191.626 439.097 191.259 438.446 190.605C437.795 189.952 437.43 189.065 437.43 188.141V162.003C437.43 161.079 437.795 160.192 438.446 159.539C439.097 158.885 439.979 158.518 440.899 158.518Z" fill="#016EB9"/>
<path d="M256.839 29.0951H72.2358V159.02H256.839V29.0951Z" fill="#B8C1C9"/>
<path d="M250.318 36.118H78.7573V152.498H250.318V36.118Z" fill="#001B42"/>
<path d="M214.81 298.381H210.755L185.415 289.673C180.153 287.864 175.588 284.469 172.358 279.96C169.127 275.451 167.391 270.052 167.391 264.516V157.39C167.399 156.659 167.125 155.953 166.625 155.418C166.126 154.882 165.439 154.556 164.706 154.508C164.324 154.49 163.943 154.549 163.585 154.681C163.226 154.814 162.899 155.017 162.623 155.279C162.346 155.541 162.126 155.857 161.975 156.206C161.825 156.555 161.747 156.931 161.747 157.311V264.514C161.747 270.05 160.011 275.449 156.78 279.958C153.55 284.467 148.985 287.863 143.723 289.671L118.379 298.381H113.764C113.029 298.374 112.319 298.646 111.78 299.143C111.241 299.639 110.914 300.322 110.866 301.051C110.847 301.431 110.906 301.81 111.04 302.166C111.173 302.522 111.378 302.847 111.641 303.122C111.905 303.397 112.222 303.616 112.573 303.766C112.924 303.916 113.302 303.993 113.684 303.993H118.834C118.84 303.993 118.846 303.993 118.853 303.993C118.859 303.993 118.865 303.993 118.87 303.993H130.167C130.889 304 131.588 303.735 132.122 303.253C132.657 302.77 132.989 302.105 133.053 301.39C133.103 300.702 132.896 300.02 132.471 299.476L151.091 293.076C159.822 290.076 169.312 290.076 178.042 293.076L196.228 299.326C195.744 299.864 195.489 300.567 195.516 301.288C195.555 302.024 195.879 302.715 196.419 303.219C196.959 303.723 197.674 304 198.415 303.993H210.263C210.269 303.993 210.275 303.993 210.281 303.993C210.287 303.993 210.293 303.993 210.3 303.993H214.89C215.272 303.993 215.65 303.916 216.001 303.766C216.352 303.616 216.669 303.397 216.933 303.122C217.196 302.847 217.401 302.522 217.534 302.166C217.667 301.81 217.727 301.431 217.708 301.051C217.66 300.322 217.333 299.639 216.794 299.143C216.255 298.646 215.545 298.374 214.81 298.381Z" fill="#B8C1C9"/>
<path d="M258.846 29.0951H256.839V159.02H258.846V29.0951Z" fill="#35488B"/>
<path d="M167.548 159.02H161.528V164.538H167.548V159.02Z" fill="#35488B"/>
<path d="M233.764 138.954H226.239V123.403H233.764V138.954ZM226.454 138.735H233.549V123.622H226.454V138.735Z" fill="white"/>
<path d="M228.747 138.954H124.189C124.16 138.954 124.132 138.943 124.111 138.922C124.091 138.902 124.079 138.874 124.079 138.845C124.079 138.816 124.091 138.788 124.111 138.767C124.132 138.747 124.16 138.735 124.189 138.735H228.528V108.876H219.854V74.3094H211.399V93.0346H204.378V99.9256H191.928V95.9237H186.604V80.0385H172.354V53.1145L161.305 49.4634V67.3264H158.516V53.9303L147.468 58.1002V73.9038H137.038V62.3988H126.335V73.9038H124.298V80.5949H115.596V103.421C115.596 103.45 115.585 103.478 115.564 103.499C115.544 103.519 115.516 103.531 115.487 103.531C115.457 103.531 115.43 103.519 115.409 103.499C115.389 103.478 115.377 103.45 115.377 103.421V80.3763H124.079V73.6851H126.116V62.1802H137.257V73.6851H147.249V57.949L158.736 53.6139V67.1078H161.086V49.1607L172.573 52.9565V79.8199H186.823V95.7051H192.147V99.707H204.158V92.816H211.18V74.0908H220.073V108.657H228.747V138.954Z" fill="white"/>
<path d="M171.059 57.1869H163.033V54.177H171.059V57.1869ZM163.258 56.9671H170.834V54.3968H163.258V56.9671Z" fill="white"/>
<path d="M171.059 62.7049H163.033V59.6951H171.059V62.7049ZM163.258 62.4852H170.834V59.9148H163.258V62.4852Z" fill="white"/>
<path d="M171.059 67.2197H163.033V64.2098H171.059V67.2197ZM163.258 66.9999H170.834V64.4296H163.258V66.9999Z" fill="white"/>
<path d="M219.718 91.2984H212.695V86.7836H219.718V91.2984ZM212.907 91.0792H219.505V87.0028H212.907V91.0792Z" fill="white"/>
<path d="M219.718 104.341H211.19V99.8262H219.718V104.341ZM211.399 104.122H219.51V100.045H211.399V104.122Z" fill="white"/>
<path d="M219.718 110.862H211.19V106.348H219.718V110.862ZM211.399 110.643H219.51V106.567H211.399V110.643Z" fill="white"/>
<path d="M220.22 117.885H211.19V113.37H220.22V117.885ZM211.411 117.666H219.999V113.59H211.411V117.666Z" fill="white"/>
<path d="M220.22 124.407H211.19V119.892H220.22V124.407ZM211.411 124.187H219.999V120.111H211.411V124.187Z" fill="white"/>
<path d="M220.22 130.928H211.19V126.413H220.22V130.928ZM211.411 130.709H219.999V126.632H211.411V130.709Z" fill="white"/>
<path d="M157.013 67.2197H148.987V64.2098H157.013V67.2197ZM149.201 66.9999H156.799V64.4296H149.201V66.9999Z" fill="white"/>
<path d="M157.013 62.7049H148.987V59.6951H157.013V62.7049ZM149.201 62.4851H156.799V59.9149H149.201V62.4851Z" fill="white"/>
<path d="M171.059 71.7344H148.987V68.7246H171.059V71.7344ZM149.206 71.5146H170.839V68.9443H149.206V71.5146Z" fill="white"/>
<path d="M171.059 76.2492H148.987V73.2393H171.059V76.2492ZM149.206 76.0294H170.839V73.4591H149.206V76.0294Z" fill="white"/>
<path d="M171.059 80.2623H148.987V77.2524H171.059V80.2623ZM149.206 80.0344H170.839V77.4803H149.206V80.0344Z" fill="white"/>
<path d="M219.718 97.8197H211.19V93.3049H219.718V97.8197ZM211.399 97.6005H219.51V93.5241H211.399V97.6005Z" fill="white"/>
<path d="M184.603 85.2787H182.597V82.7705H184.603V85.2787ZM182.803 85.0898H184.397V82.9594H182.803V85.0898Z" fill="white"/>
<path d="M181.092 85.2787H179.085V82.7705H181.092V85.2787ZM179.292 85.0898H180.885V82.9594H179.292V85.0898Z" fill="white"/>
<path d="M177.58 85.2787H175.574V82.7705H177.58V85.2787ZM175.78 85.0898H177.374V82.9594H175.78V85.0898Z" fill="white"/>
<path d="M174.069 85.2787H172.062V82.7705H174.069V85.2787ZM172.269 85.0898H173.862V82.9594H172.269V85.0898Z" fill="white"/>
<path d="M171.059 85.2787H168.551V82.7705H171.059V85.2787ZM168.809 85.0898H170.801V82.9594H168.809V85.0898Z" fill="white"/>
<path d="M167.548 85.2787H165.541V82.7705H167.548V85.2787ZM165.748 85.0898H167.341V82.9594H165.748V85.0898Z" fill="white"/>
<path d="M164.036 85.2787H161.528V82.7705H164.036V85.2787ZM161.786 85.0898H163.778V82.9594H161.786V85.0898Z" fill="white"/>
<path d="M160.524 85.2787H158.016V82.7705H160.524V85.2787ZM158.274 85.0898H160.266V82.9594H158.274V85.0898Z" fill="white"/>
<path d="M157.013 85.2787H155.006V82.7705H157.013V85.2787ZM155.213 85.0898H156.806V82.9594H155.213V85.0898Z" fill="white"/>
<path d="M153.502 85.2787H151.495V82.7705H153.502V85.2787ZM151.702 85.0898H153.295V82.9594H151.702V85.0898Z" fill="white"/>
<path d="M149.99 85.2787H147.984V82.7705H149.99V85.2787ZM148.19 85.0898H149.784V82.9594H148.19V85.0898Z" fill="white"/>
<path d="M146.479 85.2787H144.472V82.7705H146.479V85.2787ZM144.679 85.0898H146.272V82.9594H144.679V85.0898Z" fill="white"/>
<path d="M142.967 85.2787H140.961V82.7705H142.967V85.2787ZM141.168 85.0898H142.761V82.9594H141.168V85.0898Z" fill="white"/>
<path d="M139.958 85.2787H137.951V82.7705H139.958V85.2787ZM138.158 85.0898H139.751V82.9594H138.158V85.0898Z" fill="white"/>
<path d="M136.446 85.2787H134.439V82.7705H136.446V85.2787ZM134.646 85.0898H136.239V82.9594H134.646V85.0898Z" fill="white"/>
<path d="M132.934 85.2787H130.928V82.7705H132.934V85.2787ZM131.134 85.0898H132.728V82.9594H131.134V85.0898Z" fill="white"/>
<path d="M129.423 85.2787H127.417V82.7705H129.423V85.2787ZM127.623 85.0898H129.216V82.9594H127.623V85.0898Z" fill="white"/>
<path d="M125.911 85.2787H123.905V82.7705H125.911V85.2787ZM124.111 85.0898H125.705V82.9594H124.111V85.0898Z" fill="white"/>
<path d="M122.902 85.2787H120.394V82.7705H122.902V85.2787ZM120.652 85.0898H122.643V82.9594H120.652V85.0898Z" fill="white"/>
<path d="M119.39 85.2787H117.383V82.7705H119.39V85.2787ZM117.59 85.0898H119.183V82.9594H117.59V85.0898Z" fill="white"/>
<path d="M184.603 90.2951H182.597V87.2852H184.603V90.2951ZM182.803 90.0684H184.397V87.5119H182.803V90.0684Z" fill="white"/>
<path d="M181.092 90.2951H179.085V87.2852H181.092V90.2951ZM179.292 90.0684H180.885V87.5119H179.292V90.0684Z" fill="white"/>
<path d="M177.58 90.2951H175.574V87.2852H177.58V90.2951ZM175.78 90.0684H177.374V87.5119H175.78V90.0684Z" fill="white"/>
<path d="M174.069 90.2951H172.062V87.2852H174.069V90.2951ZM172.269 90.0684H173.862V87.5119H172.269V90.0684Z" fill="white"/>
<path d="M171.059 90.2951H168.551V87.2852H171.059V90.2951ZM168.809 90.0684H170.801V87.5119H168.809V90.0684Z" fill="white"/>
<path d="M167.548 90.2951H165.541V87.2852H167.548V90.2951ZM165.748 90.0684H167.341V87.5119H165.748V90.0684Z" fill="white"/>
<path d="M164.036 90.2951H161.528V87.2852H164.036V90.2951ZM161.786 90.0684H163.778V87.5119H161.786V90.0684Z" fill="white"/>
<path d="M160.524 90.2951H158.016V87.2852H160.524V90.2951ZM158.274 90.0684H160.266V87.5119H158.274V90.0684Z" fill="white"/>
<path d="M157.013 90.2951H155.006V87.2852H157.013V90.2951ZM155.213 90.0684H156.806V87.5119H155.213V90.0684Z" fill="white"/>
<path d="M153.502 90.2951H151.495V87.2852H153.502V90.2951ZM151.702 90.0684H153.295V87.5119H151.702V90.0684Z" fill="white"/>
<path d="M149.99 90.2951H147.984V87.2852H149.99V90.2951ZM148.19 90.0684H149.784V87.5119H148.19V90.0684Z" fill="white"/>
<path d="M146.479 90.2951H144.472V87.2852H146.479V90.2951ZM144.679 90.0684H146.272V87.5119H144.679V90.0684Z" fill="white"/>
<path d="M142.967 90.2951H140.961V87.2852H142.967V90.2951ZM141.168 90.0684H142.761V87.5119H141.168V90.0684Z" fill="white"/>
<path d="M139.958 90.2951H137.951V87.2852H139.958V90.2951ZM138.158 90.0684H139.751V87.5119H138.158V90.0684Z" fill="white"/>
<path d="M136.446 90.2951H134.439V87.2852H136.446V90.2951ZM134.646 90.0684H136.239V87.5119H134.646V90.0684Z" fill="white"/>
<path d="M132.934 90.2951H130.928V87.2852H132.934V90.2951ZM131.134 90.0684H132.728V87.5119H131.134V90.0684Z" fill="white"/>
<path d="M129.423 90.2951H127.417V87.2852H129.423V90.2951ZM127.623 90.0684H129.216V87.5119H127.623V90.0684Z" fill="white"/>
<path d="M125.911 90.2951H123.905V87.2852H125.911V90.2951ZM124.111 90.0684H125.705V87.5119H124.111V90.0684Z" fill="white"/>
<path d="M122.902 90.2951H120.394V87.2852H122.902V90.2951ZM120.652 90.0684H122.643V87.5119H120.652V90.0684Z" fill="white"/>
<path d="M119.39 90.2951H117.383V87.2852H119.39V90.2951ZM117.59 90.0684H119.183V87.5119H117.59V90.0684Z" fill="white"/>
<path d="M184.603 94.8098H182.597V91.8H184.603V94.8098ZM182.803 94.5832H184.397V92.0266H182.803V94.5832Z" fill="white"/>
<path d="M181.092 94.8098H179.085V91.8H181.092V94.8098ZM179.292 94.5832H180.885V92.0266H179.292V94.5832Z" fill="white"/>
<path d="M177.58 94.8098H175.574V91.8H177.58V94.8098ZM175.78 94.5832H177.374V92.0266H175.78V94.5832Z" fill="white"/>
<path d="M174.069 94.8098H172.062V91.8H174.069V94.8098ZM172.269 94.5832H173.862V92.0266H172.269V94.5832Z" fill="white"/>
<path d="M171.059 94.8098H168.551V91.8H171.059V94.8098ZM168.809 94.5832H170.801V92.0266H168.809V94.5832Z" fill="white"/>
<path d="M167.548 94.8098H165.541V91.8H167.548V94.8098ZM165.748 94.5832H167.341V92.0266H165.748V94.5832Z" fill="white"/>
<path d="M164.036 94.8098H161.528V91.8H164.036V94.8098ZM161.786 94.5832H163.778V92.0266H161.786V94.5832Z" fill="white"/>
<path d="M160.524 94.8098H158.016V91.8H160.524V94.8098ZM158.274 94.5832H160.266V92.0266H158.274V94.5832Z" fill="white"/>
<path d="M157.013 94.8098H155.006V91.8H157.013V94.8098ZM155.213 94.5832H156.806V92.0266H155.213V94.5832Z" fill="white"/>
<path d="M153.502 94.8098H151.495V91.8H153.502V94.8098ZM151.702 94.5832H153.295V92.0266H151.702V94.5832Z" fill="white"/>
<path d="M149.99 94.8098H147.984V91.8H149.99V94.8098ZM148.19 94.5832H149.784V92.0266H148.19V94.5832Z" fill="white"/>
<path d="M146.479 94.8098H144.472V91.8H146.479V94.8098ZM144.679 94.5832H146.272V92.0266H144.679V94.5832Z" fill="white"/>
<path d="M142.967 94.8098H140.961V91.8H142.967V94.8098ZM141.168 94.5832H142.761V92.0266H141.168V94.5832Z" fill="white"/>
<path d="M139.958 94.8098H137.951V91.8H139.958V94.8098ZM138.158 94.5832H139.751V92.0266H138.158V94.5832Z" fill="white"/>
<path d="M136.446 94.8098H134.439V91.8H136.446V94.8098ZM134.646 94.5832H136.239V92.0266H134.646V94.5832Z" fill="white"/>
<path d="M132.934 94.8098H130.928V91.8H132.934V94.8098ZM131.134 94.5832H132.728V92.0266H131.134V94.5832Z" fill="white"/>
<path d="M129.423 94.8098H127.417V91.8H129.423V94.8098ZM127.623 94.5832H129.216V92.0266H127.623V94.5832Z" fill="white"/>
<path d="M125.911 94.8098H123.905V91.8H125.911V94.8098ZM124.111 94.5832H125.705V92.0266H124.111V94.5832Z" fill="white"/>
<path d="M122.902 94.8098H120.394V91.8H122.902V94.8098ZM120.652 94.5832H122.643V92.0266H120.652V94.5832Z" fill="white"/>
<path d="M119.39 94.8098H117.383V91.8H119.39V94.8098ZM117.59 94.5832H119.183V92.0266H117.59V94.5832Z" fill="white"/>
<path d="M184.603 99.8262H182.597V96.8164H184.603V99.8262ZM182.803 99.5996H184.397V97.043H182.803V99.5996Z" fill="white"/>
<path d="M181.092 99.8262H179.085V96.8164H181.092V99.8262ZM179.292 99.5996H180.885V97.043H179.292V99.5996Z" fill="white"/>
<path d="M177.58 99.8262H175.574V96.8164H177.58V99.8262ZM175.78 99.5996H177.374V97.043H175.78V99.5996Z" fill="white"/>
<path d="M174.069 99.8262H172.062V96.8164H174.069V99.8262ZM172.269 99.5996H173.862V97.043H172.269V99.5996Z" fill="white"/>
<path d="M171.059 99.8262H168.551V96.8164H171.059V99.8262ZM168.809 99.5996H170.801V97.043H168.809V99.5996Z" fill="white"/>
<path d="M167.548 99.8262H165.541V96.8164H167.548V99.8262ZM165.748 99.5996H167.341V97.043H165.748V99.5996Z" fill="white"/>
<path d="M164.036 99.8262H161.528V96.8164H164.036V99.8262ZM161.786 99.5996H163.778V97.043H161.786V99.5996Z" fill="white"/>
<path d="M160.524 99.8262H158.016V96.8164H160.524V99.8262ZM158.274 99.5996H160.266V97.043H158.274V99.5996Z" fill="white"/>
<path d="M157.013 99.8262H155.006V96.8164H157.013V99.8262ZM155.213 99.5996H156.806V97.043H155.213V99.5996Z" fill="white"/>
<path d="M153.502 99.8262H151.495V96.8164H153.502V99.8262ZM151.702 99.5996H153.295V97.043H151.702V99.5996Z" fill="white"/>
<path d="M149.99 99.8262H147.984V96.8164H149.99V99.8262ZM148.19 99.5996H149.784V97.043H148.19V99.5996Z" fill="white"/>
<path d="M146.479 99.8262H144.472V96.8164H146.479V99.8262ZM144.679 99.5996H146.272V97.043H144.679V99.5996Z" fill="white"/>
<path d="M142.967 99.8262H140.961V96.8164H142.967V99.8262ZM141.168 99.5996H142.761V97.043H141.168V99.5996Z" fill="white"/>
<path d="M139.958 99.8262H137.951V96.8164H139.958V99.8262ZM138.158 99.5996H139.751V97.043H138.158V99.5996Z" fill="white"/>
<path d="M136.446 99.8262H134.439V96.8164H136.446V99.8262ZM134.646 99.5996H136.239V97.043H134.646V99.5996Z" fill="white"/>
<path d="M132.934 99.8262H130.928V96.8164H132.934V99.8262ZM131.134 99.5996H132.728V97.043H131.134V99.5996Z" fill="white"/>
<path d="M129.423 99.8262H127.417V96.8164H129.423V99.8262ZM127.623 99.5996H129.216V97.043H127.623V99.5996Z" fill="white"/>
<path d="M125.911 99.8262H123.905V96.8164H125.911V99.8262ZM124.111 99.5996H125.705V97.043H124.111V99.5996Z" fill="white"/>
<path d="M122.902 99.8262H120.394V96.8164H122.902V99.8262ZM120.652 99.5996H122.643V97.043H120.652V99.5996Z" fill="white"/>
<path d="M119.39 99.8262H117.383V96.8164H119.39V99.8262ZM117.59 99.5996H119.183V97.043H117.59V99.5996Z" fill="white"/>
<path d="M184.603 104.341H182.597V101.833H184.603V104.341ZM182.803 104.152H184.397V102.022H182.803V104.152Z" fill="white"/>
<path d="M181.092 104.341H179.085V101.833H181.092V104.341ZM179.292 104.152H180.885V102.022H179.292V104.152Z" fill="white"/>
<path d="M177.58 104.341H175.574V101.833H177.58V104.341ZM175.78 104.152H177.374V102.022H175.78V104.152Z" fill="white"/>
<path d="M174.069 104.341H172.062V101.833H174.069V104.341ZM172.269 104.152H173.862V102.022H172.269V104.152Z" fill="white"/>
<path d="M171.059 104.341H168.551V101.833H171.059V104.341ZM168.809 104.152H170.801V102.022H168.809V104.152Z" fill="white"/>
<path d="M167.548 104.341H165.541V101.833H167.548V104.341ZM165.748 104.152H167.341V102.022H165.748V104.152Z" fill="white"/>
<path d="M164.036 104.341H161.528V101.833H164.036V104.341ZM161.786 104.152H163.778V102.022H161.786V104.152Z" fill="white"/>
<path d="M160.524 104.341H158.016V101.833H160.524V104.341ZM158.274 104.152H160.266V102.022H158.274V104.152Z" fill="white"/>
<path d="M157.013 104.341H155.006V101.833H157.013V104.341ZM155.213 104.152H156.806V102.022H155.213V104.152Z" fill="white"/>
<path d="M153.502 104.341H151.495V101.833H153.502V104.341ZM151.702 104.152H153.295V102.022H151.702V104.152Z" fill="white"/>
<path d="M149.99 104.341H147.984V101.833H149.99V104.341ZM148.19 104.152H149.784V102.022H148.19V104.152Z" fill="white"/>
<path d="M146.479 104.341H144.472V101.833H146.479V104.341ZM144.679 104.152H146.272V102.022H144.679V104.152Z" fill="white"/>
<path d="M142.967 104.341H140.961V101.833H142.967V104.341ZM141.168 104.152H142.761V102.022H141.168V104.152Z" fill="white"/>
<path d="M139.958 104.341H137.951V101.833H139.958V104.341ZM138.158 104.152H139.751V102.022H138.158V104.152Z" fill="white"/>
<path d="M136.446 104.341H134.439V101.833H136.446V104.341ZM134.646 104.152H136.239V102.022H134.646V104.152Z" fill="white"/>
<path d="M132.934 104.341H130.928V101.833H132.934V104.341ZM131.134 104.152H132.728V102.022H131.134V104.152Z" fill="white"/>
<path d="M129.423 104.341H127.417V101.833H129.423V104.341ZM127.623 104.152H129.216V102.022H127.623V104.152Z" fill="white"/>
<path d="M122.902 104.341H120.574C120.526 104.341 120.48 104.327 120.446 104.302C120.413 104.278 120.394 104.244 120.394 104.209V101.833H122.902V104.341ZM120.652 104.152H122.643V102.022H120.652V104.152Z" fill="white"/>
<path d="M125.911 104.341H123.905V101.833H125.911V104.341ZM124.111 104.152H125.705V102.022H124.111V104.152Z" fill="white"/>
<path d="M119.39 104.341L117.383 103.998V101.833H119.39V104.341ZM117.59 103.825L119.183 104.097V102.038H117.59V103.825Z" fill="white"/>
<path d="M184.603 109.357H182.597V106.348H184.603V109.357ZM182.803 109.131H184.397V106.574H182.803V109.131Z" fill="white"/>
<path d="M181.092 109.357H179.085V106.348H181.092V109.357ZM179.292 109.131H180.885V106.574H179.292V109.131Z" fill="white"/>
<path d="M177.58 109.357H175.574V106.348H177.58V109.357ZM175.78 109.131H177.374V106.574H175.78V109.131Z" fill="white"/>
<path d="M174.069 109.357H172.062V106.348H174.069V109.357ZM172.269 109.131H173.862V106.574H172.269V109.131Z" fill="white"/>
<path d="M171.059 109.357H168.551V106.348H171.059V109.357ZM168.809 109.131H170.801V106.574H168.809V109.131Z" fill="white"/>
<path d="M167.548 109.357H165.541V106.348H167.548V109.357ZM165.748 109.131H167.341V106.574H165.748V109.131Z" fill="white"/>
<path d="M164.036 109.357H161.528V106.348H164.036V109.357ZM161.786 109.131H163.778V106.574H161.786V109.131Z" fill="white"/>
<path d="M160.524 109.357H158.016V106.348H160.524V109.357ZM158.274 109.131H160.266V106.574H158.274V109.131Z" fill="white"/>
<path d="M157.013 109.357H155.006V106.348H157.013V109.357ZM155.213 109.131H156.806V106.574H155.213V109.131Z" fill="white"/>
<path d="M153.502 109.357H151.495V106.348H153.502V109.357ZM151.702 109.131H153.295V106.574H151.702V109.131Z" fill="white"/>
<path d="M149.99 109.357H147.984V106.348H149.99V109.357ZM148.19 109.131H149.784V106.574H148.19V109.131Z" fill="white"/>
<path d="M146.479 109.357H144.472V106.348H146.479V109.357ZM144.679 109.131H146.272V106.574H144.679V109.131Z" fill="white"/>
<path d="M142.967 109.357H140.961V106.348H142.967V109.357ZM141.168 109.131H142.761V106.574H141.168V109.131Z" fill="white"/>
<path d="M139.958 109.357H137.951V106.348H139.958V109.357ZM138.158 109.131H139.751V106.574H138.158V109.131Z" fill="white"/>
<path d="M136.446 109.357H134.439V106.348H136.446V109.357ZM134.646 109.131H136.239V106.574H134.646V109.131Z" fill="white"/>
<path d="M132.934 109.357H130.928V106.348H132.934V109.357ZM131.134 109.131H132.728V106.574H131.134V109.131Z" fill="white"/>
<path d="M129.423 109.357H127.417V106.348H129.423V109.357ZM127.623 109.131H129.216V106.574H127.623V109.131Z" fill="white"/>
<path d="M101.331 118.889H96.8164V100.83H101.331V118.889ZM97.0379 118.665H101.11V101.053H97.0379V118.665Z" fill="white"/>
<path d="M204.167 99.8262H197.646V92.8023H200.709V87.2852H201.146V92.8023H204.167V99.8262ZM197.859 99.6102H203.954V93.0183H200.933L200.922 87.5012V93.0183H197.859V99.6102Z" fill="white"/>
<path d="M207.679 93.3049V74.1241H209.278V72.2361H209.723V74.1241H217.465V72.2361H217.91V74.1241H219.718V78.6836L212.757 78.6959V80.5882L219.718 80.5757V85.1357H211.129V93.2985L207.679 93.3049ZM207.896 74.3455V93.0831L210.912 93.0775V84.9143H219.501V80.7975L212.54 80.8101V78.475L219.501 78.4627V74.3455H217.693L217.682 72.4575V74.3455H209.506L209.495 72.4575V74.3455H207.896Z" fill="white"/>
<path d="M125.802 129.423C125.787 129.423 125.773 129.42 125.76 129.415C125.747 129.409 125.734 129.401 125.724 129.391C125.714 129.381 125.706 129.369 125.7 129.355C125.695 129.342 125.692 129.328 125.692 129.314V105.209L101.422 101.047C101.408 101.045 101.394 101.039 101.382 101.032C101.37 101.024 101.36 101.014 101.351 101.002C101.343 100.991 101.337 100.977 101.334 100.963C101.331 100.949 101.33 100.935 101.333 100.921C101.335 100.906 101.34 100.893 101.348 100.881C101.356 100.868 101.366 100.858 101.377 100.85C101.389 100.841 101.402 100.835 101.416 100.832C101.431 100.829 101.445 100.829 101.459 100.831L125.911 105.024V129.314C125.911 129.328 125.909 129.342 125.903 129.355C125.898 129.369 125.889 129.381 125.879 129.391C125.869 129.401 125.857 129.409 125.844 129.415C125.83 129.42 125.816 129.423 125.802 129.423Z" fill="white"/>
<path d="M125.912 138.954H95.3115V118.387H125.912V138.954ZM95.5306 138.736H125.692V118.605H95.5306V138.736Z" fill="white"/>
<path d="M125.912 113.37H95.3115V106.348H125.912V113.37ZM95.5306 113.146H125.692V106.572H95.5306V113.146Z" fill="white"/>
<path d="M123.905 126.413H121.898V123.905H123.905V126.413ZM122.146 126.186H123.658V124.132H122.146V126.186Z" fill="white"/>
<path d="M120.895 126.413H118.889V123.905H120.895V126.413ZM119.136 126.186H120.648V124.132H119.136V126.186Z" fill="white"/>
<path d="M117.885 126.413H116.38V123.905H117.885V126.413ZM116.566 126.186H117.7V124.132H116.566V126.186Z" fill="white"/>
<path d="M115.377 126.413H113.37V123.905H115.377V126.413ZM113.617 126.186H115.13V124.132H113.617V126.186Z" fill="white"/>
<path d="M112.367 126.413H110.862V123.905H112.367V126.413ZM111.048 126.186H112.182V124.132H111.048V126.186Z" fill="white"/>
<path d="M109.859 126.413H107.853V123.905H109.859V126.413ZM108.1 126.186H109.612V124.132H108.1V126.186Z" fill="white"/>
<path d="M106.849 126.413H104.843V123.905H106.849V126.413ZM105.09 126.186H106.602V124.132H105.09V126.186Z" fill="white"/>
<path d="M103.839 126.413H102.334V123.905H103.839V126.413ZM102.52 126.186H103.654V124.132H102.52V126.186Z" fill="white"/>
<path d="M101.331 126.413H99.3247V123.905H101.331V126.413ZM99.5718 126.186H101.084V124.132H99.5718V126.186Z" fill="white"/>
<path d="M98.3213 126.413H96.8164V123.905H98.3213V126.413ZM97.0017 126.186H98.136V124.132H97.0017V126.186Z" fill="white"/>
<path d="M123.905 130.426H121.898V127.918H123.905V130.426ZM122.146 130.199H123.658V128.145H122.146V130.199Z" fill="white"/>
<path d="M120.895 130.426H118.889V127.918H120.895V130.426ZM119.136 130.199H120.648V128.145H119.136V130.199Z" fill="white"/>
<path d="M117.885 130.426H116.38V127.918H117.885V130.426ZM116.566 130.199H117.7V128.145H116.566V130.199Z" fill="white"/>
<path d="M115.377 130.426H113.37V127.918H115.377V130.426ZM113.617 130.199H115.13V128.145H113.617V130.199Z" fill="white"/>
<path d="M112.367 130.426H110.862V127.918H112.367V130.426ZM111.048 130.199H112.182V128.145H111.048V130.199Z" fill="white"/>
<path d="M109.859 130.426H107.853V127.918H109.859V130.426ZM108.1 130.199H109.612V128.145H108.1V130.199Z" fill="white"/>
<path d="M106.849 130.426H104.843V127.918H106.849V130.426ZM105.09 130.199H106.602V128.145H105.09V130.199Z" fill="white"/>
<path d="M103.839 130.426H102.334V127.918H103.839V130.426ZM102.52 130.199H103.654V128.145H102.52V130.199Z" fill="white"/>
<path d="M101.331 130.426H99.3247V127.918H101.331V130.426ZM99.5718 130.199H101.084V128.145H99.5718V130.199Z" fill="white"/>
<path d="M98.3213 130.426H96.8164V127.918H98.3213V130.426ZM97.0017 130.199H98.136V128.145H97.0017V130.199Z" fill="white"/>
<path d="M123.905 116.882H121.898V114.374H123.905V116.882ZM122.146 116.655H123.658V114.601H122.146V116.655Z" fill="white"/>
<path d="M120.895 116.882H118.889V114.374H120.895V116.882ZM119.136 116.655H120.648V114.601H119.136V116.655Z" fill="white"/>
<path d="M117.885 116.882H116.38V114.374H117.885V116.882ZM116.566 116.655H117.7V114.601H116.566V116.655Z" fill="white"/>
<path d="M115.377 116.882H113.37V114.374H115.377V116.882ZM113.617 116.655H115.13V114.601H113.617V116.655Z" fill="white"/>
<path d="M112.367 116.882H110.862V114.374H112.367V116.882ZM111.048 116.655H112.182V114.601H111.048V116.655Z" fill="white"/>
<path d="M109.859 116.882H107.853V114.374H109.859V116.882ZM108.1 116.655H109.612V114.601H108.1V116.655Z" fill="white"/>
<path d="M106.849 116.882H104.843V114.374H106.849V116.882ZM105.09 116.655H106.602V114.601H105.09V116.655Z" fill="white"/>
<path d="M103.839 116.882H102.334V114.374H103.839V116.882ZM102.52 116.655H103.654V114.601H102.52V116.655Z" fill="white"/>
<path d="M123.905 122.4H121.898V119.892H123.905V122.4ZM122.146 122.173H123.658V120.119H122.146V122.173Z" fill="white"/>
<path d="M120.895 122.4H118.889V119.892H120.895V122.4ZM119.136 122.173H120.648V120.119H119.136V122.173Z" fill="white"/>
<path d="M117.885 122.4H116.38V119.892H117.885V122.4ZM116.566 122.173H117.7V120.119H116.566V122.173Z" fill="white"/>
<path d="M115.377 122.4H113.37V119.892H115.377V122.4ZM113.617 122.173H115.13V120.119H113.617V122.173Z" fill="white"/>
<path d="M112.367 122.4H110.862V119.892H112.367V122.4ZM111.048 122.173H112.182V120.119H111.048V122.173Z" fill="white"/>
<path d="M109.859 122.4H107.853V119.892H109.859V122.4ZM108.1 122.173H109.612V120.119H108.1V122.173Z" fill="white"/>
<path d="M106.849 122.4H104.843V119.892H106.849V122.4ZM105.09 122.173H106.602V120.119H105.09V122.173Z" fill="white"/>
<path d="M103.839 122.4H102.334V119.892H103.839V122.4ZM102.52 122.173H103.654V120.119H102.52V122.173Z" fill="white"/>
<path d="M101.331 122.4H99.3247V119.892H101.331V122.4ZM99.5718 122.173H101.084V120.119H99.5718V122.173Z" fill="white"/>
<path d="M98.3213 122.4H96.8164V119.892H98.3213V122.4ZM97.0017 122.173H98.136V120.119H97.0017V122.173Z" fill="white"/>
<path d="M123.905 133.938H121.898V131.43H123.905V133.938ZM122.146 133.71H123.658V131.657H122.146V133.71Z" fill="white"/>
<path d="M120.895 133.938H118.889V131.43H120.895V133.938ZM119.136 133.71H120.648V131.657H119.136V133.71Z" fill="white"/>
<path d="M117.885 133.938H116.38V131.43H117.885V133.938ZM116.566 133.71H117.7V131.657H116.566V133.71Z" fill="white"/>
<path d="M115.377 133.938H113.37V131.43H115.377V133.938ZM113.617 133.71H115.13V131.657H113.617V133.71Z" fill="white"/>
<path d="M112.367 133.938H110.862V131.43H112.367V133.938ZM111.048 133.71H112.182V131.657H111.048V133.71Z" fill="white"/>
<path d="M109.859 133.938H107.853V131.43H109.859V133.938ZM108.1 133.71H109.612V131.657H108.1V133.71Z" fill="white"/>
<path d="M106.849 133.938H104.843V131.43H106.849V133.938ZM105.09 133.71H106.602V131.657H105.09V133.71Z" fill="white"/>
<path d="M103.839 133.938H102.334V131.43H103.839V133.938ZM102.52 133.71H103.654V131.657H102.52V133.71Z" fill="white"/>
<path d="M101.331 133.938H99.3247V131.43H101.331V133.938ZM99.5718 133.71H101.084V131.657H99.5718V133.71Z" fill="white"/>
<path d="M98.3213 133.938H96.8164V131.43H98.3213V133.938ZM97.0017 133.71H98.136V131.657H97.0017V133.71Z" fill="white"/>
<path d="M103.338 101.833L102.836 101.71V96.3147H103.338V101.833ZM103.001 101.512L103.174 101.555V96.5491H103.001V101.512Z" fill="white"/>
<path d="M123.403 110.862H121.898V108.354H123.403V110.862ZM122.114 110.641H123.188V108.575H122.114V110.641Z" fill="white"/>
<path d="M110.361 110.862H108.856V108.354H110.361V110.862ZM109.071 110.641H110.145V108.575H109.071V110.641Z" fill="white"/>
<path d="M100.328 110.862H98.8228V108.354H100.328V110.862ZM99.0383 110.641H100.112V108.575H99.0383V110.641Z" fill="white"/>
<path d="M206.676 138.954H162.531V113.37H206.676V138.954ZM162.751 138.737H206.455V113.588H162.751V138.737Z" fill="white"/>
<path d="M167.046 119.39H164.538V115.879H167.046V119.39ZM164.753 119.187H166.83V116.082H164.753V119.187Z" fill="white"/>
<path d="M171.059 119.39H168.551V115.879H171.059V119.39ZM168.766 119.187H170.844V116.082H168.766V119.187Z" fill="white"/>
<path d="M175.072 119.39H172.564V115.879H175.072V119.39ZM172.779 119.187H174.857V116.082H172.779V119.187Z" fill="white"/>
<path d="M179.085 119.39H176.577V115.879H179.085V119.39ZM176.793 119.187H178.87V116.082H176.793V119.187Z" fill="white"/>
<path d="M183.6 119.39H181.092V115.879H183.6V119.39ZM181.307 119.187H183.385V116.082H181.307V119.187Z" fill="white"/>
<path d="M187.613 119.39H185.105V115.879H187.613V119.39ZM185.321 119.187H187.398V116.082H185.321V119.187Z" fill="white"/>
<path d="M191.626 119.39H189.118V115.879H191.626V119.39ZM189.334 119.187H191.411V116.082H189.334V119.187Z" fill="white"/>
<path d="M195.639 119.39H193.131V115.879H195.639V119.39ZM193.346 119.187H195.424V116.082H193.346V119.187Z" fill="white"/>
<path d="M200.154 119.39H197.646V115.879H200.154V119.39ZM197.861 119.187H199.939V116.082H197.861V119.187Z" fill="white"/>
<path d="M204.167 119.39H201.659V115.879H204.167V119.39ZM201.875 119.187H203.952V116.082H201.875V119.187Z" fill="white"/>
<path d="M167.046 124.908H164.538V120.895H167.046V124.908ZM164.753 124.675H166.83V121.128H164.753V124.675Z" fill="white"/>
<path d="M171.059 124.908H168.551V120.895H171.059V124.908ZM168.766 124.675H170.844V121.128H168.766V124.675Z" fill="white"/>
<path d="M175.072 124.908H172.564V120.895H175.072V124.908ZM172.779 124.675H174.857V121.128H172.779V124.675Z" fill="white"/>
<path d="M179.085 124.908H176.577V120.895H179.085V124.908ZM176.793 124.675H178.87V121.128H176.793V124.675Z" fill="white"/>
<path d="M183.6 124.908H181.092V120.895H183.6V124.908ZM181.307 124.675H183.385V121.128H181.307V124.675Z" fill="white"/>
<path d="M187.613 124.908H185.105V120.895H187.613V124.908ZM185.321 124.675H187.398V121.128H185.321V124.675Z" fill="white"/>
<path d="M191.626 124.908H189.118V120.895H191.626V124.908ZM189.334 124.675H191.411V121.128H189.334V124.675Z" fill="white"/>
<path d="M195.639 124.908H193.131V120.895H195.639V124.908ZM193.346 124.675H195.424V121.128H193.346V124.675Z" fill="white"/>
<path d="M200.154 124.908H197.646V120.895H200.154V124.908ZM197.861 124.675H199.939V121.128H197.861V124.675Z" fill="white"/>
<path d="M204.167 124.908H201.659V120.895H204.167V124.908ZM201.875 124.675H203.952V121.128H201.875V124.675Z" fill="white"/>
<path d="M167.046 130.426H164.538V126.915H167.046V130.426ZM164.753 130.223H166.83V127.118H164.753V130.223Z" fill="white"/>
<path d="M171.059 130.426H168.551V126.915H171.059V130.426ZM168.766 130.223H170.844V127.118H168.766V130.223Z" fill="white"/>
<path d="M175.072 130.426H172.564V126.915H175.072V130.426ZM172.779 130.223H174.857V127.118H172.779V130.223Z" fill="white"/>
<path d="M179.085 130.426H176.577V126.915H179.085V130.426ZM176.793 130.223H178.87V127.118H176.793V130.223Z" fill="white"/>
<path d="M183.6 130.426H181.092V126.915H183.6V130.426ZM181.307 130.223H183.385V127.118H181.307V130.223Z" fill="white"/>
<path d="M187.613 130.426H185.105V126.915H187.613V130.426ZM185.321 130.223H187.398V127.118H185.321V130.223Z" fill="white"/>
<path d="M191.626 130.426H189.118V126.915H191.626V130.426ZM189.334 130.223H191.411V127.118H189.334V130.223Z" fill="white"/>
<path d="M195.639 130.426H193.131V126.915H195.639V130.426ZM193.346 130.223H195.424V127.118H193.346V130.223Z" fill="white"/>
<path d="M200.154 130.426H197.646V126.915H200.154V130.426ZM197.861 130.223H199.939V127.118H197.861V130.223Z" fill="white"/>
<path d="M204.167 130.426H201.659V126.915H204.167V130.426ZM201.875 130.223H203.952V127.118H201.875V130.223Z" fill="white"/>
<path d="M167.046 135.944H164.538V131.931H167.046V135.944ZM164.753 135.712H166.83V132.164H164.753V135.712Z" fill="white"/>
<path d="M171.059 135.944H168.551V131.931H171.059V135.944ZM168.766 135.712H170.844V132.164H168.766V135.712Z" fill="white"/>
<path d="M175.072 135.944H172.564V131.931H175.072V135.944ZM172.779 135.712H174.857V132.164H172.779V135.712Z" fill="white"/>
<path d="M179.085 135.944H176.577V131.931H179.085V135.944ZM176.793 135.712H178.87V132.164H176.793V135.712Z" fill="white"/>
<path d="M183.6 135.944H181.092V131.931H183.6V135.944ZM181.307 135.712H183.385V132.164H181.307V135.712Z" fill="white"/>
<path d="M187.613 135.944H185.105V131.931H187.613V135.944ZM185.321 135.712H187.398V132.164H185.321V135.712Z" fill="white"/>
<path d="M191.626 135.944H189.118V131.931H191.626V135.944ZM189.334 135.712H191.411V132.164H189.334V135.712Z" fill="white"/>
<path d="M195.639 135.944H193.131V131.931H195.639V135.944ZM193.346 135.712H195.424V132.164H193.346V135.712Z" fill="white"/>
<path d="M200.154 135.944H197.646V131.931H200.154V135.944ZM197.861 135.712H199.939V132.164H197.861V135.712Z" fill="white"/>
<path d="M204.167 135.944H201.659V131.931H204.167V135.944ZM201.875 135.712H203.952V132.164H201.875V135.712Z" fill="white"/>
<path d="M200.656 113.37H191.125V109.908L200.656 106.348V113.37ZM191.348 113.152H200.432V106.664L191.348 110.058V113.152Z" fill="white"/>
<path d="M146.479 138.954H125.41V116.38L146.479 123.556V138.954ZM125.629 138.739H146.26V123.71L125.629 116.683V138.739Z" fill="white"/>
<path d="M145.977 124.908H125.912V123.905H145.977V124.908ZM126.132 124.669H145.757V124.144H126.132V124.669Z" fill="white"/>
<path d="M145.977 127.416H125.912V126.413H145.977V127.416ZM126.132 127.178H145.757V126.652H126.132V127.178Z" fill="white"/>
<path d="M145.977 129.423H125.912V128.42H145.977V129.423ZM126.132 129.184H145.757V128.658H126.132V129.184Z" fill="white"/>
<path d="M145.977 131.931H125.912V130.928H145.977V131.931ZM126.132 131.692H145.757V131.167H126.132V131.692Z" fill="white"/>
<path d="M145.977 133.938H125.912V132.934H145.977V133.938ZM126.132 133.699H145.757V133.173H126.132V133.699Z" fill="white"/>
<path d="M145.977 136.446H125.912V135.443H145.977V136.446ZM126.132 136.207H145.757V135.681H126.132V136.207Z" fill="white"/>
<path d="M202.161 113.37H200.656V106.348H202.161V113.37ZM200.823 113.151H201.994V106.567H200.823V113.151Z" fill="white"/>
<path d="M198.649 112.367H195.138V109.859H198.649V112.367ZM195.341 112.152H198.445V110.075H195.341V112.152Z" fill="white"/>
<path d="M128.921 73.741H127.417V63.2066H128.921V73.741ZM127.647 73.5208H128.691V63.4268H127.647V73.5208Z" fill="white"/>
<path d="M131.429 73.741H129.924V63.2066H131.429V73.741ZM130.155 73.5208H131.198V63.4268H130.155V73.5208Z" fill="white"/>
<path d="M133.436 73.741H132.433V63.2066H133.436V73.741ZM132.586 73.5208H133.282V63.4268H132.586V73.5208Z" fill="white"/>
<path d="M135.944 73.741H134.439V63.2066H135.944V73.741ZM134.67 73.5208H135.714V63.4268H134.67V73.5208Z" fill="white"/>
<path d="M489.764 151.022L482.259 152.349C481.516 152.481 480.986 153.04 481.084 153.588L507.97 303.71C508.068 304.258 508.759 304.598 509.502 304.467L517.007 303.139C517.753 303.007 518.28 302.452 518.182 301.904L491.296 151.781C491.198 151.233 490.51 150.89 489.764 151.022Z" fill="#FF771B"/>
<path d="M489.748 151.023L482.256 152.402C481.515 152.538 480.986 153.118 481.084 153.687L481.915 158.518L492.108 156.642L491.277 151.811C491.179 151.242 490.492 150.886 489.748 151.023Z" fill="#364154"/>
<path d="M507.882 303.72C507.981 304.261 508.678 304.597 509.427 304.467L516.997 303.156C517.749 303.026 518.28 302.477 518.181 301.936L517.457 297.974L507.157 299.758L507.882 303.72Z" fill="#364154"/>
<path d="M487.766 161.544C487.343 161.619 487.043 161.937 487.098 162.25L510.629 294.516C510.685 294.829 511.077 295.023 511.499 294.948C511.922 294.872 512.223 294.555 512.167 294.242L488.636 161.976C488.581 161.663 488.189 161.469 487.766 161.544Z" fill="#131F2D"/>
<path d="M117.483 299.479L122.4 299.413C122.4 299.413 115.006 291.344 112.736 287.238L106.494 275.902L98.3213 277.889L108.694 292.342L117.483 299.479Z" fill="#EFBA9C"/>
<path d="M71.3658 75.9652C69.4908 74.8918 67.2437 74.7747 65.6721 74.8683C66.0178 74.5778 66.4309 74.3804 66.8728 74.2944C65.8982 74.1484 63.723 75.1219 63.723 75.1219C50.1664 69.8612 53.4589 89.7303 53.7439 94.4008C54.0265 99.0706 43.7649 100.83 36.7116 104.509C23.2543 111.53 22.0723 120.932 22.0723 120.932C22.1771 120.994 22.2866 121.065 22.4029 121.146C23.0706 120.007 24.4451 117.867 25.6042 117.545C24.9056 119.036 24.2833 120.562 23.7398 122.118C27.7099 125.16 35.1367 131.899 40.313 136.677C40.29 135.743 40.3268 134.417 40.6656 133.717L41.3051 137.595C44.0748 140.16 45.9849 141.964 45.9849 141.964C45.6428 138.19 62.9338 118.273 71.9551 112.308C74.1512 109.052 74.9317 103.3 74.9901 102.848C74.611 107.408 73.8364 109.966 73.1439 111.407C80.7829 104.326 76.3357 78.8093 71.3658 75.9652Z" fill="#131F2D"/>
<path d="M71.7342 112.753C71.7803 112.773 67.2863 115.071 63.906 114.161C60.7263 113.307 58.6488 109.248 58.6926 109.239C60.0392 108.975 60.4274 107.153 60.399 99.3246L61.0077 99.4426L71.243 101.438C71.243 101.438 71.0102 104.61 71.0033 107.597C70.9964 110.106 71.1509 112.485 71.7342 112.753Z" fill="#EFBA9C"/>
<path d="M60.1968 79.259C60.1968 79.259 65.0898 73.8064 71.2328 78.9801C71.2328 78.9801 67.6577 78.3329 60.1968 79.259Z" fill="#E37970"/>
<path opacity="0.2" d="M71.233 101.289C71.233 101.289 71.0047 104.41 70.998 107.351C65.3837 107.194 62.4161 102.131 61.2002 99.3246L71.233 101.289Z" fill="#EF6343"/>
<path d="M59.9086 98.3213C59.9086 98.3213 56.9738 93.6832 56.2695 89.7173C55.7665 86.8858 57.2084 76.3906 67.7528 77.9021C69.8763 78.1969 71.9066 78.9646 73.6939 80.1487C75.9832 81.6952 79.2873 85.0341 75.5931 94.1925L74.6334 97.2863L59.9086 98.3213Z" fill="#131F2D"/>
<path d="M110.862 283.087L105.569 283.25L99.839 283.426C99.839 283.426 86.6041 268.627 79.1802 244.902C79.007 244.351 78.8241 243.793 78.6313 243.228C74.5683 231.33 66.1456 216.395 61.7069 202.876C61.0005 200.723 60.3661 198.696 59.7969 196.778C59.6147 196.164 59.437 195.56 59.2682 194.966C55.9972 183.551 55.0501 176.057 54.1772 168.049L82.5199 168.277C82.5199 168.277 91.4027 222.986 110.862 283.087Z" fill="#364154"/>
<path d="M81.9971 149.8C82.3797 165.199 84.2753 171.812 84.2753 171.812C84.2753 171.812 70.302 178.853 53.6943 173.67C53.4987 173.609 54.771 110.04 59.4809 108.288C60.5642 109.626 63.7927 110.927 66.6655 110.863C69.9736 110.791 71.0464 109.386 70.8747 107.852C74.4 109.798 81.4495 127.753 81.9971 149.8Z" fill="#E7F1FD"/>
<path d="M72.9045 104.34C72.9045 104.34 59.8505 104.561 59.8414 96.2281C59.8325 87.8951 58.1416 82.3115 66.4759 81.8182C74.8102 81.325 76.433 84.5029 77.0961 87.2836C77.7592 90.0642 76.2999 104.068 72.9045 104.34Z" fill="#EFBA9C"/>
<path d="M76.7917 82.4901C74.7392 79.9873 73.1871 80.5314 72.3158 81.2832C69.4416 76.9624 60.3571 83.2109 60.3571 83.2109C57.7023 85.7293 55.893 89.0169 55.1807 92.6171C55.1807 92.6171 57.6049 94.1235 63.1937 92.6777C67.592 91.5398 70.7839 85.2423 71.9443 82.6106C72.7351 83.3178 74.4042 84.9523 74.9043 86.553C75.5673 88.6754 75.8656 93.0447 77.1315 92.896C77.1315 92.896 79.8751 86.2498 76.7917 82.4901Z" fill="#131F2D"/>
<path d="M126.413 117.717C126.413 117.717 128.282 111.01 135.686 111.957C136.536 112.222 139.019 113.209 137.432 115.856C136.262 117.807 135.756 116.8 133.915 119.423C132.075 122.045 130.078 122.637 127.795 122.324L126.413 117.717Z" fill="#EFBA9C"/>
<path d="M63.1043 299.163C62.6499 296.653 61.7853 292.311 61.7853 292.311L61.9858 276.905H52.6719L56.1569 291.65C56.3475 293.731 56.1036 295.828 55.4409 297.808C55.4409 297.808 54.5463 301.902 58.5601 301.978C62.5741 302.054 63.5586 301.674 63.1043 299.163Z" fill="#EFBA9C"/>
<path d="M55.1575 298.071C55.1575 298.071 54.3662 302.085 54.8182 303.993H63.2063C63.2063 303.993 63.242 299.635 62.5075 297.974C62.5075 297.974 59.6777 301.958 55.1575 298.071Z" fill="#131F2D"/>
<path d="M122.267 299.47C122.238 299.459 122.211 299.444 122.186 299.428C120.249 299.488 118.299 298.77 116.532 296.758C111.156 290.629 108.135 289.945 107.08 289.948C106.173 291.839 105.171 293.966 106.46 296.362L108.385 303.993H110.461L110.482 296.789C111.849 297.153 113.183 297.816 113.777 299.018C115.229 301.957 116.237 303.993 117.586 303.993H126.915C126.915 303.993 126.735 301.505 122.267 299.47Z" fill="#131F2D"/>
<path d="M126.527 117.649C126.527 117.649 117.773 122.539 114.645 123.949C112.863 124.753 108.76 126.672 105.869 128.029C104.974 128.448 103.967 128.563 103.001 128.355C102.035 128.147 101.164 127.628 100.522 126.877C95.7757 121.338 83.4779 109.326 70.7882 107.852L70.8044 107.884L70.7314 107.852C70.7314 107.852 78.4481 126.896 78.675 130.751C78.902 134.605 79.5828 193.776 79.5828 193.776C79.5828 193.776 79.1289 196.496 84.3485 195.363C89.5683 194.23 90.9299 193.096 90.9299 193.096C90.9299 193.096 85.9372 156.596 87.2988 143.9C87.5672 141.398 87.3228 138.584 86.7596 135.679C94.4904 140.376 103.639 142.464 103.639 142.464C103.639 142.464 110.478 139.483 119.827 132.64C122.762 130.492 127.918 122.298 127.918 122.298L126.527 117.649Z" fill="#428EE8"/>
<path d="M105.846 283.251L100.072 283.426C100.072 283.426 86.7369 268.668 79.2566 245.01C79.0821 244.46 78.8977 243.904 78.7035 243.34C74.6097 231.475 66.1229 216.582 61.6506 203.101C60.9388 200.954 60.2996 198.933 59.726 197.02C59.5425 196.407 59.3634 195.806 59.1934 195.213L63.9491 191.626C63.9491 191.626 78.2275 214.608 82.6476 236.236C86.4876 255.023 101.865 277.629 105.846 283.251Z" fill="#131F2D"/>
<path d="M64.5272 238.038C64.6093 248.597 64.0709 272.874 62.6835 282.925H57.5358C54.6904 282.925 53.2711 282.884 53.2711 282.884C49.7914 265.409 47.3157 250.95 45.5131 238.49C44.0346 228.266 42.7202 219.5 41.7094 211.954C40.6917 204.36 39.9844 198.001 39.7311 192.629C39.6923 191.783 39.6626 190.959 39.6467 190.161C39.6307 189.358 39.6261 188.577 39.633 187.819L67.7217 185.105C67.368 203.606 64.4815 231.901 64.5272 238.038Z" fill="#364154"/>
<path d="M57.6889 282.925C54.8028 282.925 53.3633 282.884 53.3633 282.884C49.8339 265.409 47.3228 250.95 45.4945 238.491C43.9948 228.266 42.6617 219.501 41.6365 211.954C40.6043 204.361 39.8868 198.002 39.6299 192.629L50.0839 198.64C50.0839 198.64 43.4116 200.94 45.9573 218.358C48.5032 235.776 54.1456 280.459 57.6889 282.925Z" fill="#131F2D"/>
<path d="M58.731 192.863C58.731 192.863 56.7746 199.979 50.0052 199.071C43.2359 198.162 33.6099 194.074 33.6099 194.074C33.6099 194.074 36.5027 184.873 40.0994 172.786C44.4544 158.152 49.845 139.287 52.3858 127.388C52.9961 124.712 53.4572 122.003 53.7667 119.275L59.4661 108.354C59.4661 108.354 67.7568 127.225 68.208 131.994C68.6593 136.764 58.731 192.863 58.731 192.863Z" fill="#428EE8"/>
<path d="M58.6854 141.935C58.3794 149.615 56.5522 164.523 40.261 172.503C40.2177 172.523 40.1742 172.546 40.1309 172.564C44.5389 158.011 49.9951 139.25 52.5668 127.416C55.5587 131.839 58.8522 137.707 58.6854 141.935Z" fill="#016EB9"/>
<path d="M87.7869 137.699C87.7787 138.637 85.128 145.173 80.4579 149.076C79.5536 149.832 78.8294 150.199 78.252 150.301C71.9092 152.556 65.354 154.133 58.6919 155.007V146.351C65.3092 145.918 73.4618 145.466 76.8181 145.283C77.4969 144.232 77.9776 143.061 78.2355 141.831C78.6369 139.45 79.8867 137.685 83.1417 137.248C86.3964 136.811 87.7952 136.764 87.7869 137.699Z" fill="#EFBA9C"/>
<path d="M59.4918 108.354C59.4918 108.354 45.7959 109.278 42.5168 116.663C39.2377 124.048 38.1943 148.615 42.3677 155.849C42.3677 155.849 48.1135 157.504 58.2759 155.582C58.4005 155.559 58.5257 155.535 58.6516 155.51C58.6516 155.51 61.8934 147.484 58.9869 145.902C58.9869 145.902 50.4164 146.354 51.3107 143.49C52.205 140.627 59.4918 108.354 59.4918 108.354Z" fill="#428EE8"/>
<path d="M351.662 180.748L343.573 180.638C343.485 180.608 343.393 180.592 343.299 180.59C343.211 180.59 343.123 180.603 343.038 180.63C341.978 180.956 341.14 183.293 341.116 186.132C341.113 186.282 341.115 186.426 341.118 186.572C341.127 187.682 341.299 188.784 341.627 189.843C341.945 190.79 342.388 191.447 342.89 191.642C342.901 191.648 342.912 191.651 342.92 191.655C343.012 191.689 343.109 191.707 343.207 191.708C343.301 191.709 343.395 191.693 343.484 191.661L414.21 192.63L414.283 187.14L414.354 181.607L351.662 180.748Z" fill="#F4F4F4"/>
<path d="M382.564 191.162C367.637 192.424 358.639 185.677 351.672 180.748L343.576 180.638C343.487 180.608 343.395 180.592 343.302 180.59C343.213 180.59 343.125 180.603 343.04 180.63C341.979 180.956 341.14 183.293 341.116 186.132C341.113 186.282 341.115 186.426 341.118 186.572C341.127 187.682 341.299 188.784 341.627 189.843C342.155 190.852 342.642 191.518 342.892 191.642C342.903 191.648 342.913 191.651 342.921 191.655C343.014 191.689 343.111 191.707 343.209 191.708C343.303 191.709 343.397 191.693 343.487 191.661L414.281 192.63L414.354 187.14C413.317 187.425 406.29 189.159 382.564 191.162Z" fill="#D5D6DA"/>
<path d="M414.654 181.593C413.408 181.583 412.375 184.046 412.348 187.093C412.321 190.141 413.31 192.619 414.556 192.629C415.802 192.64 416.835 190.177 416.862 187.13C416.889 184.082 415.9 181.604 414.654 181.593Z" fill="#D5D6DA"/>
<path d="M62.6603 72.2241C59.9577 72.9024 57.9301 73.9862 56.4162 75.2909C56.2662 75.4197 56.1199 75.5522 55.9796 75.6868L55.9776 75.6888C50.376 81.0251 52.6112 89.5185 52.6112 89.5185C52.6112 89.5185 53.357 91.6643 53.87 92.497C54.3829 93.3297 61.821 92.3689 62.2057 90.7675C62.5904 89.1662 64.0652 87.5008 64.0652 87.5008C64.0652 87.5008 71.9056 86.9625 72.433 86.9243C74.2042 86.7961 79.2594 85.0392 79.2594 85.0392C79.2017 84.5434 76.3566 68.7882 62.6603 72.2241Z" fill="#FF771B"/>
<path d="M84.3245 83.2199C82.5819 82.8623 80.807 82.6704 79.0254 82.6469C79.0254 82.6469 73.8031 84.6082 69.2965 85.9856C67.1783 83.417 64.1005 77.0732 56.2441 75.2629C56.2206 75.2573 56.1989 75.2515 56.1754 75.2459C56.0083 75.4483 55.914 75.5164 55.7981 75.6526L55.7961 75.6545C55.7553 75.7009 55.7172 75.7495 55.6821 75.8C62.0777 76.8726 65.4691 84.0159 67.5554 86.6041C65.7651 87.0278 66.3933 87.1329 64.058 87.2807C64.058 87.2807 78.0565 87.532 84.4543 84.2895C84.5622 84.2357 84.6504 84.1516 84.7074 84.0484C84.7643 83.9451 84.7873 83.8276 84.7732 83.7115C84.7591 83.5954 84.7086 83.4862 84.6285 83.3984C84.5483 83.3106 84.4423 83.2483 84.3245 83.2199Z" fill="#C86521"/>
<path d="M294.218 82.5298C299.633 72.7343 314.212 73.9083 314.212 73.9083C299.354 70.3677 291.959 82.0346 291.959 82.0346L291.319 81.8184L287.941 82.7282L318.04 88.7902L294.218 82.5298Z" fill="#016EB9"/>
<path d="M264.364 195.639H258.846V304.495H264.364V195.639Z" fill="#B8C1C9"/>
<path d="M472.544 195.639H467.026V304.495H472.544V195.639Z" fill="#B8C1C9"/>
<path d="M487.593 197.144V191.626L241.79 191.626V197.144L487.593 197.144Z" fill="#B8C1C9"/>
<path d="M264.364 197.144H258.846V201.157H264.364V197.144Z" fill="#35488B"/>
<path d="M472.544 197.144H467.026V201.157H472.544V197.144Z" fill="#35488B"/>
<path d="M481.827 181.513C481.192 180.705 480.473 179.966 479.682 179.307C479.464 179.119 479.229 178.929 478.979 178.741C476.444 176.818 472.381 174.932 467.459 176.926C466.213 177.427 465.072 178.15 464.091 179.059C463.873 179.261 463.666 179.469 463.47 179.683C459.187 184.319 459.507 191.626 459.507 191.626L484.078 191.497C484.195 184.734 481.827 181.513 481.827 181.513Z" fill="#FF771B"/>
<path d="M477.177 191.343C477.114 190.308 476.689 181.82 479.685 178.935C479.553 178.81 479.414 178.693 479.269 178.584C476.074 181.903 475.825 190.258 475.831 191.35L467.974 191.392C467.773 185.367 464.483 179.352 464.088 178.68C463.927 178.825 463.775 178.98 463.632 179.143C464.203 180.161 466.341 185.98 466.519 191.399L459.502 191.437C459.502 191.437 466.039 193.165 470.97 193.131C475.901 193.096 484.082 191.306 484.082 191.306L477.177 191.343Z" fill="#C86521"/>
<path d="M399.802 180.606L399.805 186.098L399.807 191.549L329.013 191.576C328.924 191.609 328.831 191.626 328.736 191.626C328.638 191.626 328.541 191.61 328.449 191.579C327.456 191.243 326.668 189.154 326.577 186.557C326.57 186.413 326.568 186.269 326.568 186.121C326.552 183.304 327.361 180.971 328.415 180.634C328.5 180.606 328.589 180.591 328.678 180.59C328.771 180.591 328.863 180.606 328.952 180.634L399.802 180.606Z" fill="#F4F4F4"/>
<path d="M399.805 186.036L399.807 191.548L329.004 191.576C328.915 191.609 328.821 191.626 328.727 191.626C328.629 191.626 328.532 191.61 328.439 191.578C327.447 191.239 326.658 189.126 326.567 186.499C329.821 187.713 348.115 191.965 367.462 186.528C390.411 180.08 398.772 186.337 399.805 186.036Z" fill="#D5D6DA"/>
<path d="M400.026 180.59C398.779 180.597 397.783 183.072 397.8 186.12C397.817 189.167 398.842 191.632 400.088 191.626C401.335 191.62 402.332 189.144 402.314 186.097C402.297 183.049 401.273 180.584 400.026 180.59Z" fill="#D5D6DA"/>
<path d="M315.029 108.856C315.029 108.856 332.688 126.832 333.535 133.611C334.382 140.389 325.134 150.993 325.134 150.993L315.029 108.856Z" fill="#016EB9"/>
<path d="M307.505 294.97C307.505 294.97 306.923 304.343 305.105 304.477C304.864 304.495 295.888 304.495 295.888 304.495L284.43 304.429C284.43 304.429 284.505 301.674 287.854 301.092C291.203 300.509 296.809 298.16 298.838 293.743C300.972 289.096 307.505 294.97 307.505 294.97Z" fill="#131F2D"/>
<path d="M333.59 294.97C333.59 294.97 332.996 304.343 331.142 304.477C330.895 304.495 321.738 304.495 321.738 304.495L310.013 304.454C310.013 304.454 310.125 301.674 313.542 301.092C316.959 300.509 322.678 298.16 324.748 293.743C326.926 289.096 333.59 294.97 333.59 294.97Z" fill="#131F2D"/>
<path d="M294.964 192.646C294.964 192.646 297.98 212.082 309.233 246.583C320.486 281.084 322.02 296.024 322.02 296.024C324.095 296.305 326.185 296.454 328.279 296.469C330.313 296.469 334.092 295.683 334.092 295.683C334.092 295.683 334.195 257.978 329.009 240.628C323.823 223.279 327.889 178.082 327.889 178.082L294.964 192.646Z" fill="#131F2D"/>
<path d="M288.953 179.085C288.953 179.085 288.524 208.401 293.574 244.395C298.623 280.389 296.912 295.668 296.912 295.668C296.912 295.668 301.069 296.416 302.529 296.465C304.092 296.517 309.006 296.072 309.006 296.072C309.006 296.072 316.234 260.064 314.161 242.048C312.089 224.032 324.059 180.228 324.059 180.228L288.953 179.085Z" fill="#364154"/>
<path d="M312.521 110.558L306.777 114.875L298.475 113.102C298.59 112.334 299.138 109.149 299.637 106.266C299.667 106.095 299.697 105.925 299.726 105.759C300.153 103.305 300.522 101.197 300.522 101.197L308.276 97.2752L311.167 95.8131C311.159 95.8647 310.943 98.5366 310.913 98.9264C310.37 105.853 312.521 110.558 312.521 110.558Z" fill="#EFBA9C"/>
<path d="M298.796 108.399C298.982 108.32 310.329 104.972 311.562 105.379C312.795 105.786 313.525 108.171 313.525 108.171L294.964 112.367C294.964 112.367 296.425 109.397 298.796 108.399Z" fill="#016EB9"/>
<path d="M328.615 182.539C326.752 191.11 295.74 192.126 287.746 184.346C286.837 183.46 286.792 179.334 287.135 173.771C287.806 162.903 289.96 146.554 290.044 138.202C290.126 134.201 290.569 130.216 291.367 126.296C292.315 121.452 293.63 116.688 295.3 112.046C295.3 112.046 310.447 107.109 313.282 107.949C326.936 111.994 330.479 173.968 328.615 182.539Z" fill="#428EE8"/>
<path d="M286.938 174.069C287.606 163.186 289.752 146.816 289.835 138.453C289.918 134.447 290.359 130.457 291.154 126.532L300.232 124.908C300.232 124.908 309.107 161.644 286.938 174.069Z" fill="#016EB9"/>
<path d="M291.939 158.933C292.102 159.366 292.126 159.842 292.008 160.29C291.89 160.738 291.635 161.134 291.282 161.419C290.029 162.417 289.217 164.034 289.504 165.216C289.791 166.398 292.539 168.327 293.492 168.016C294.445 167.705 296.384 166.148 296.175 165.524C295.966 164.901 297.48 160.053 295.157 158.187C292.834 156.321 291.939 158.933 291.939 158.933Z" fill="#EFBA9C"/>
<path d="M302.423 109.859C302.423 109.859 293.402 111.532 286.215 122.031C279.027 132.53 274.299 140.335 275.623 144.119C276.947 147.903 289.015 161.026 291.096 161.026C293.177 161.026 296.534 159.527 296.723 156.152C296.723 156.152 288.226 143.529 289.9 141.639C290.616 140.831 300.932 132.53 302.404 136.279C304.841 142.483 302.423 109.859 302.423 109.859Z" fill="#428EE8"/>
<path opacity="0.4" d="M310.29 99.1002C308.569 102.421 302.154 105.292 299.479 106.348C299.509 106.177 299.539 106.006 299.568 105.839C300 103.375 300.373 101.258 300.373 101.258L308.213 97.3192C309.946 97.2922 311.001 97.7337 310.29 99.1002Z" fill="#E53F19"/>
<path d="M297.737 102.219C297.737 102.219 311.708 103.807 312.574 95.1899C313.44 86.5727 315.826 80.974 306.944 79.5958C298.061 78.2175 295.994 81.3352 294.998 84.142C294.001 86.9486 294.126 101.584 297.737 102.219Z" fill="#EFBA9C"/>
<path d="M295.353 83.3718C295.353 83.3718 297.973 92.5631 299.845 91.7899C301.717 91.0165 303.428 90.3822 303.683 93.2536C303.938 96.1249 301.858 99.8882 307.964 99.2538C314.07 98.6194 319.762 81.6277 317.553 79.03C311.179 71.5351 286.504 74.431 295.353 83.3718Z" fill="#131F2D"/>
<path d="M318.336 88.7902L287.941 82.7584L291.353 81.8531C291.353 81.8531 294.471 69.1704 309.867 72.2029C322.671 74.7249 318.336 88.7902 318.336 88.7902Z" fill="#FF771B"/>
<path d="M539.295 306H0.970205C0.713131 305.999 0.466793 305.893 0.285013 305.705C0.103233 305.517 0.000774783 305.263 0 304.997C0.000761339 304.731 0.103231 304.476 0.285013 304.288C0.466795 304.1 0.713124 303.994 0.970205 303.993H539.295C539.552 303.994 539.799 304.1 539.981 304.288C540.162 304.476 540.265 304.731 540.266 304.997C540.265 305.263 540.162 305.517 539.981 305.705C539.799 305.893 539.552 305.999 539.295 306Z" fill="#131F2D"/>
</svg>
