<svg width="71" height="71" viewBox="0 0 71 71" fill="none" xmlns="http://www.w3.org/2000/svg">
<path d="M0.00262202 57.3894C0.0515312 58.5442 0.846633 59.5317 1.96395 59.8285L28.7188 66.9179C29.3547 67.0859 30.007 67.1691 30.6567 67.1691C31.4915 67.1691 32.3234 67.0325 33.1208 66.7577L69.2169 54.3388C70.3345 53.9543 71.0613 52.8745 70.9959 51.6949C70.9308 50.5146 70.0891 49.5222 68.9363 49.2626L64.3289 48.2295L34.6799 58.4311C33.3823 58.8778 32.029 59.1043 30.6565 59.1043C29.5906 59.1043 28.527 58.9654 27.4912 58.6917L6.41454 53.1067L1.74641 54.7886C0.65961 55.1803 -0.0487691 56.2345 0.00262202 57.3894Z" fill="#FF771B"/>
<path d="M0.00262202 44.5355C0.0515312 45.6904 0.848969 46.6783 1.96614 46.975L28.7187 54.064C29.3545 54.2325 30.0068 54.3166 30.6565 54.3166C31.4913 54.3166 32.3232 54.1786 33.1207 53.904L69.2168 41.4849C70.3344 41.1005 71.0612 40.0204 70.9958 38.8412C70.9306 37.6605 70.089 36.6682 68.9362 36.4086L64.3288 35.3755L34.6798 45.5772C33.3822 46.0238 32.0289 46.2492 30.6564 46.2492C29.5905 46.2492 28.5269 46.1116 27.491 45.838L6.41454 40.253L1.74641 41.935C0.65961 42.3264 -0.0487691 43.3808 0.00262202 44.5355Z" fill="#FF771B"/>
<path d="M34.6799 32.7219C33.3823 33.1685 32.029 33.3941 30.6565 33.3941C29.5906 33.3941 28.527 33.2562 27.4912 32.9826L6.41454 27.399L1.74641 29.081C0.65961 29.4726 -0.0487691 30.527 0.00262202 31.6818C0.0515312 32.8363 0.848969 33.8242 1.96614 34.121L28.7187 41.2102C29.3545 41.3784 30.0068 41.4616 30.6565 41.4616C31.4913 41.4616 32.3232 41.3248 33.1207 41.0503L69.2168 28.631C70.3344 28.2465 71.0612 27.1664 70.9958 25.9872C70.9306 24.8066 70.089 23.8143 68.9362 23.5549L64.3288 22.5215L34.6799 32.7219Z" fill="#FF771B"/>
<path d="M1.96395 21.2662L28.7188 28.3554C29.3547 28.5235 30.007 28.6066 30.6567 28.6066C31.4915 28.6066 32.3234 28.4698 33.1208 28.1952L69.2169 15.7762C70.3345 15.3915 71.0613 14.3117 70.9959 13.1324C70.9308 11.9517 70.0891 10.9595 68.9363 10.6999L39.1285 4.01394C38.5813 3.89116 38.0252 3.83057 37.4711 3.83057C36.5991 3.83057 35.732 3.97992 34.9042 4.27819L1.74641 16.226C0.65961 16.6176 -0.0487691 17.672 0.00262202 18.8268C0.0515312 19.9817 0.846633 20.9692 1.96395 21.2662Z" fill="#FF771B"/>
</svg>
