<svg width="60" height="60" viewBox="0 0 60 60" fill="none" xmlns="http://www.w3.org/2000/svg">
<g clip-path="url(#clip0_437_49329)">
<path d="M48.1727 38.2879L41.3633 31.5219C40.8007 30.9592 39.8918 30.9592 39.3292 31.5219L32.7651 38.086L25.4653 45.3714C22.5223 48.3144 17.7326 48.3144 14.7896 45.3714C11.8466 42.4283 11.8466 37.6387 14.7896 34.6957L22.5078 26.9775L28.6535 20.8318C29.2162 20.2692 29.2162 19.3603 28.6535 18.7977L21.8731 12.0172C21.3104 11.4546 20.4016 11.4546 19.8389 12.0172L13.6932 18.1629L5.97501 25.8811C-1.81532 33.7291 -1.75761 46.4101 6.10485 54.2004C13.9096 61.933 26.504 61.933 34.3088 54.2004L41.6086 46.9006L48.1727 40.3221C48.7354 39.7594 48.7354 38.8506 48.1727 38.2879ZM20.8488 15.0756L25.5951 19.8219L21.4836 23.9191L16.7372 19.1728L20.8488 15.0756ZM32.2458 52.1663C25.5518 58.8602 14.7031 58.8602 8.00916 52.1663C1.31524 45.4723 1.31524 34.6236 8.00916 27.9297L14.7031 21.2358L19.435 25.9677L12.7411 32.6616C8.67278 36.7299 8.67278 43.3372 12.7411 47.4199C16.8094 51.5026 23.4167 51.4882 27.4994 47.4199L33.775 41.1444L38.5213 45.8907L32.2458 52.1663ZM40.5556 43.8566L35.8093 39.1102L40.3392 34.5803L45.0855 39.3266L40.5556 43.8566Z" fill="#FF771B"/>
<path d="M35.7084 4.08281C35.1601 3.50575 34.2368 3.49132 33.6742 4.03953C33.6598 4.05396 33.6454 4.06838 33.6309 4.08281L29.3751 8.33864C28.8125 8.90128 28.8125 9.81015 29.3751 10.3728C29.6348 10.6325 29.9954 10.7912 30.385 10.7912C30.7745 10.7912 31.1351 10.6325 31.4092 10.3728L35.6651 6.11695C36.2421 5.56874 36.2567 4.64544 35.7084 4.08281Z" fill="#FF771B"/>
<path d="M38.0884 15.0325H32.0725C31.2791 15.0325 30.6299 15.6817 30.6299 16.4751C30.6299 17.2686 31.2791 17.9178 32.0725 17.9178H38.0884C38.8819 17.9178 39.5311 17.2686 39.5311 16.4751C39.5311 15.6817 38.8819 15.0325 38.0884 15.0325Z" fill="#FF771B"/>
<path d="M24.6292 0C23.8357 0 23.1865 0.649194 23.1865 1.44265V7.45852C23.1865 8.26641 23.8357 8.90118 24.6292 8.90118C25.4226 8.90118 26.0718 8.25198 26.0718 7.45852V1.44265C26.0718 0.649194 25.4226 0 24.6292 0Z" fill="#FF771B"/>
<path d="M55.8625 24.2799C55.2999 23.7173 54.391 23.7173 53.8284 24.2799L49.5725 28.5357C49.0099 29.0984 49.0099 30.0217 49.587 30.5699C50.1496 31.1325 51.0585 31.1325 51.6211 30.5699L55.8625 26.314C56.4253 25.7514 56.4253 24.8425 55.8625 24.2799Z" fill="#FF771B"/>
<path d="M58.3872 34.6526H52.3714C51.5779 34.6526 50.9287 35.3018 50.9287 36.0952C50.9287 36.8887 51.5779 37.5379 52.3714 37.5379H58.3872C59.1807 37.5379 59.8299 36.8887 59.8299 36.0952C59.8299 35.3018 59.1807 34.6526 58.3872 34.6526Z" fill="#FF771B"/>
<path d="M44.8264 20.2981C44.033 20.2981 43.3838 20.9473 43.3838 21.7408V27.7566C43.3838 28.5645 44.033 29.1993 44.8264 29.1993C45.6199 29.1993 46.2691 28.5501 46.2691 27.7566V21.7408C46.2691 20.9473 45.6199 20.2981 44.8264 20.2981Z" fill="#FF771B"/>
</g>
<defs>
<clipPath id="clip0_437_49329">
<rect width="60" height="60" fill="white"/>
</clipPath>
</defs>
</svg>
