<svg width="83" height="60" viewBox="0 0 83 60" fill="none" xmlns="http://www.w3.org/2000/svg">
<path d="M79.7586 55.4293H70.7315V38.175C70.7315 36.918 69.7031 35.8896 68.4461 35.8896C67.1892 35.8896 66.1608 36.918 66.1608 38.175V55.4293H57.0194V32.4616C57.0194 31.2047 55.991 30.1762 54.7341 30.1762C53.4771 30.1762 52.4487 31.2047 52.4487 32.4616V55.4293H43.3073V40.4603C43.3073 39.2034 42.2789 38.175 41.022 38.175C39.765 38.175 38.7366 39.2034 38.7366 40.4603V55.4293H29.5952V29.0336C29.5952 27.7766 28.5668 26.7482 27.3099 26.7482C26.0529 26.7482 25.0245 27.7766 25.0245 29.0336V55.4293H15.8832V41.603C15.8832 40.346 14.8548 39.3176 13.5978 39.3176C12.3409 39.3176 11.3125 40.346 11.3125 41.603V55.4293H2.28535C1.02841 55.4293 0 56.4577 0 57.7147C0 58.9716 1.02841 60 2.28535 60H79.7586C81.0155 60 82.0439 58.9716 82.0439 57.7147C82.0439 56.4577 81.0155 55.4293 79.7586 55.4293Z" fill="white"/>
<path d="M11.0839 27.6623C11.6552 27.6623 12.2265 27.4338 12.6836 26.9767L27.4241 12.8076L42.7359 24.9199C43.5358 25.6055 44.7927 25.6055 45.5926 24.9199L67.0748 7.66556L66.275 17.9496C66.1607 19.2066 67.0748 20.3492 68.3318 20.3492C68.4461 20.3492 68.446 20.3492 68.5603 20.3492C69.703 20.3492 70.7314 19.4351 70.8457 18.2924L71.9883 3.55193C72.1026 2.29499 71.1885 1.15232 69.9315 1.15232L55.191 0.00964322C53.9341 -0.104624 52.7914 0.809516 52.7914 2.06646C52.6772 3.3234 53.5913 4.46607 54.8482 4.46607L62.9612 5.03741L43.9928 20.1207L28.681 8.00836C27.7669 7.32275 26.5099 7.32275 25.7101 8.12262L9.48411 23.7772C8.56997 24.6914 8.56997 26.0626 9.36984 26.9767C9.82691 27.4338 10.5125 27.6623 11.0839 27.6623Z" fill="white"/>
</svg>
