<svg width="78" height="78" viewBox="0 0 78 78" fill="none" xmlns="http://www.w3.org/2000/svg">
<g clip-path="url(#clip0_2544_25654)">
<path d="M68.2461 24.375L58.4962 39H63.3712C63.3712 52.4395 52.4358 63.3749 38.9963 63.3749C30.7263 63.3749 23.429 59.2138 19.02 52.8968L13.3359 61.4231C19.596 68.5776 28.7652 73.1249 38.9963 73.1249C57.8131 73.1249 73.1212 57.8167 73.1212 39H77.9962L68.2461 24.375Z" fill="#FF771B"/>
<path d="M14.625 38.9997C14.625 25.5602 25.5604 14.6248 38.9999 14.6248C47.2699 14.6248 54.5672 18.7859 58.9762 25.1029L64.6603 16.5768C58.4002 9.42231 49.231 4.875 38.9999 4.875C20.1831 4.875 4.87505 20.1832 4.87505 38.9999H0L9.74994 53.6249L19.4999 38.9999L14.625 38.9997Z" fill="#FF771B"/>
</g>
<defs>
<clipPath id="clip0_2544_25654">
<rect width="78" height="78" fill="white"/>
</clipPath>
</defs>
</svg>
