<svg width="147" height="155" viewBox="0 0 147 155" fill="none" xmlns="http://www.w3.org/2000/svg">
<path fill-rule="evenodd" clip-rule="evenodd" d="M15.9005 124.3C6.80055 119.3 1.10055 108.4 0.900548 92.6C0.600548 61.4 22.2005 23.2 49.1005 7.29997C62.9005 -0.900031 75.5005 -1.50003 84.4006 3.99997L131.6 30.6L103.701 47.1L97.9006 43.8C95.0005 70.1 78.5005 99.4 57.4005 115.5L91.0005 134.5L63.0005 151L15.9005 124.3Z" fill="#909090"/>
<path fill-rule="evenodd" clip-rule="evenodd" d="M15.9005 124.3C6.80055 119.3 1.10055 108.4 0.900548 92.6C0.600548 61.4 22.2005 23.2 49.1005 7.29997C62.9005 -0.900031 75.5005 -1.50003 84.4006 3.99997L131.6 30.6L103.701 47.1L97.9006 43.8C95.0005 70.1 78.5005 99.4 57.4005 115.5L91.0005 134.5L63.0005 151L15.9005 124.3Z" fill="url(#paint0_linear_68_17)" fill-opacity="0.25"/>
<path fill-rule="evenodd" clip-rule="evenodd" d="M97.6005 34.6999C124.5 18.7999 146.501 31.2999 146.801 62.4999C147.101 93.6999 125.5 131.9 98.6005 147.8C71.7005 163.7 49.7005 151.2 49.4005 120C49.1005 88.7999 70.7005 50.4999 97.6005 34.6999Z" fill="white"/>
<path d="M97.6003 38.2C122.8 23.3 143.5 35 143.7 64.3C144 93.6 123.8 129.4 98.6003 144.2C73.4003 159.1 52.7004 147.4 52.5004 118.1C52.2004 88.9 72.4003 53.1 97.6003 38.2Z" stroke="#BCBCBC" stroke-width="0.5" stroke-linecap="round" stroke-linejoin="round"/>
<path d="M97.6006 42.1001C120.901 28.3001 140.101 39.1001 140.301 66.2001C140.601 93.3001 121.801 126.5 98.5006 140.2C75.2006 154 56.0006 143.2 55.7006 116.1C55.6006 89.1001 74.3006 55.9001 97.6006 42.1001Z" stroke="#BCBCBC" stroke-width="0.5" stroke-linecap="round" stroke-linejoin="round"/>
<path d="M97.7 45.8C119.3 33 137.1 43.1 137.3 68.2C137.5 93.3 120.2 124 98.5999 136.8C76.9999 149.6 59.1999 139.5 58.9999 114.4C58.6999 89.2 76 58.5 97.7 45.8Z" stroke="#BCBCBC" stroke-width="0.5" stroke-linecap="round" stroke-linejoin="round"/>
<path d="M97.7007 49.1C117.701 37.3 134.201 46.6 134.401 69.8C134.601 93.1 118.501 121.5 98.5007 133.3C78.5007 145.1 62.0007 135.8 61.8007 112.6C61.6007 89.4 77.7007 60.9 97.7007 49.1Z" stroke="#BCBCBC" stroke-width="0.5" stroke-linecap="round" stroke-linejoin="round"/>
<path d="M97.7001 52.2C116.3 41.3001 131.5 49.8 131.7 71.4C131.9 92.9 117 119.3 98.5 130.3C79.9 141.2 64.7 132.7 64.5 111.1C64.3 89.5 79.2001 63.1 97.7001 52.2Z" stroke="#BCBCBC" stroke-width="0.5" stroke-linecap="round" stroke-linejoin="round"/>
<path d="M97.8002 55.1C115 45 129.1 52.9 129.3 72.9C129.5 92.9 115.7 117.3 98.5002 127.4C81.3002 137.5 67.2002 129.6 67.0002 109.6C66.8002 89.6 80.6002 65.2 97.8002 55.1Z" stroke="#BCBCBC" stroke-width="0.5" stroke-linecap="round" stroke-linejoin="round"/>
<path d="M97.8002 57.7C113.7 48.3 126.8 55.7 127 74.2C127.2 92.7 114.4 115.3 98.5002 124.7C82.6002 134.1 69.5002 126.7 69.3002 108.2C69.1002 89.8 81.9002 67.1 97.8002 57.7Z" stroke="#BCBCBC" stroke-width="0.5" stroke-linecap="round" stroke-linejoin="round"/>
<path d="M97.7999 60.2C112.5 51.5 124.7 58.3 124.8 75.5C125 92.6 113.1 113.6 98.3999 122.3C83.6999 131 71.4999 124.2 71.3999 107C71.1999 89.9 83.0999 68.9 97.7999 60.2Z" stroke="#BCBCBC" stroke-width="0.5" stroke-linecap="round" stroke-linejoin="round"/>
<path d="M97.8005 62.4999C111.5 54.3999 122.701 60.7999 122.801 76.5999C123.001 92.4999 112 111.9 98.3005 119.9C84.6005 128 73.4005 121.6 73.3005 105.8C73.2005 89.9999 84.2005 70.5999 97.8005 62.4999Z" stroke="#BCBCBC" stroke-width="0.5" stroke-linecap="round" stroke-linejoin="round"/>
<path d="M97.8004 64.6C110.5 57.1 120.8 63 121 77.7C121.1 92.4 111 110.4 98.3004 117.9C85.6004 125.4 75.3003 119.5 75.1003 104.8C75.0003 90.0999 85.2003 72.1 97.8004 64.6Z" stroke="#BCBCBC" stroke-width="0.5" stroke-linecap="round" stroke-linejoin="round"/>
<path d="M97.9006 66.6C109.601 59.7 119.201 65.1 119.401 78.7C119.501 92.3 110.101 109 98.4006 115.9C86.7006 122.8 77.1006 117.4 76.9006 103.8C76.7006 90.1 86.1006 73.5 97.9006 66.6Z" stroke="#BCBCBC" stroke-width="0.5" stroke-linecap="round" stroke-linejoin="round"/>
<path d="M97.9003 68.4C108.8 62 117.7 67.0001 117.8 79.6001C117.9 92.2001 109.2 107.7 98.3002 114.1C87.4002 120.5 78.5003 115.5 78.4003 102.9C78.3003 90.2 87.0003 74.8 97.9003 68.4Z" stroke="#BCBCBC" stroke-width="0.5" stroke-linecap="round" stroke-linejoin="round"/>
<path d="M97.9003 70.1C108 64.2 116.2 68.8 116.3 80.5C116.4 92.2 108.3 106.5 98.3003 112.4C88.2003 118.3 80.0003 113.7 79.9003 102C79.8003 90.3 87.8003 76 97.9003 70.1Z" stroke="#BCBCBC" stroke-width="0.5" stroke-linecap="round" stroke-linejoin="round"/>
<path d="M97.9002 71.6C107.2 66.1 114.9 70.4 115 81.2C115.1 92 107.6 105.3 98.3002 110.8C89.0002 116.3 81.3002 112 81.2002 101.2C81.1002 90.4 88.6002 77.1 97.9002 71.6Z" stroke="#BCBCBC" stroke-width="0.5" stroke-linecap="round" stroke-linejoin="round"/>
<path fill-rule="evenodd" clip-rule="evenodd" d="M97.9004 73.1C106.5 68 113.6 72 113.7 82C113.8 92 106.9 104.3 98.2004 109.4C89.6004 114.5 82.5004 110.5 82.4004 100.5C82.4004 90.4 89.3004 78.2 97.9004 73.1Z" fill="#909090"/>
<path fill-rule="evenodd" clip-rule="evenodd" d="M97.9004 73.1C106.5 68 113.6 72 113.7 82C113.8 92 106.9 104.3 98.2004 109.4C89.6004 114.5 82.5004 110.5 82.4004 100.5C82.4004 90.4 89.3004 78.2 97.9004 73.1Z" fill="url(#paint1_linear_68_17)"/>
<path fill-rule="evenodd" clip-rule="evenodd" d="M0.600702 87.9999C13.6007 95.7999 29.7007 103.2 45.2007 110.6C48.3007 112.1 51.9007 112.4 55.3007 111.5C63.6007 109.2 72.6007 106.2 83.3007 101.8C83.5007 101.7 83.7007 101.4 83.5007 101.2C83.4007 101 83.1007 100.8 82.9007 101C72.3008 105.4 63.3007 108.3 55.0007 110.6C51.9007 111.5 48.5007 111.2 45.6007 109.8C30.1007 102.4 14.1007 95.0999 1.1007 87.1999C0.900702 87.0999 0.600726 87.0999 0.500726 87.3999C0.300726 87.5999 0.300702 87.8999 0.600702 87.9999Z" fill="#C9C9C9"/>
<path fill-rule="evenodd" clip-rule="evenodd" d="M51.3998 6.40001C51.3998 6.40001 84.4997 25.1 96.0997 31.7C98.3997 33 99.7997 35.5 99.5997 38.1C98.9997 48.6 97.4997 73.3 97.4997 73.3C97.4997 73.6 97.6998 73.8 97.8998 73.8C98.1998 73.8 98.3998 73.6 98.3998 73.4C98.3998 73.4 99.8997 48.7 100.5 38.2C100.7 35.2 99.0997 32.4 96.4997 30.9C84.7997 24.3 51.7997 5.60002 51.7997 5.60002C51.5997 5.50002 51.2998 5.60002 51.1998 5.80002C50.9998 6.00002 51.0998 6.30001 51.3998 6.40001Z" fill="#C9C9C9"/>
<path fill-rule="evenodd" clip-rule="evenodd" d="M82.5 100.5L96.3 108.3C97.7 109.1 98.5 110.4 98.7 112C99.4 120 101.6 146.8 101.6 146.8C101.6 147.1 101.4 147.3 101.2 147.3C100.9 147.3 100.7 147.1 100.7 146.9C100.7 146.9 98.5 120.1 97.8 112.1C97.7 110.9 97 109.7 95.9 109.1L82.6 101.6C82.5 101.3 82.5 100.9 82.5 100.5ZM88.6 82.2L108.5 93.4999C109.6 94.0999 110.9 94.3999 112.1 94.3999C119 94.0999 140.7 93.2999 140.7 93.2999C141 93.2999 141.2 93.4999 141.2 93.7999C141.2 94.0999 141 94.2999 140.7 94.2999C140.7 94.2999 118.9 95.1999 112.1 95.3999C110.7 95.4999 109.2 95.0999 108 94.3999L88 83.0999C88.2 82.6999 88.4 82.5 88.6 82.2Z" fill="#C9C9C9"/>
<defs>
<linearGradient id="paint0_linear_68_17" x1="66.2075" y1="148.054" x2="66.2075" y2="75.665" gradientUnits="userSpaceOnUse">
<stop/>
<stop offset="1" stop-opacity="0"/>
</linearGradient>
<linearGradient id="paint1_linear_68_17" x1="86.7045" y1="85.0401" x2="109.461" y2="97.3911" gradientUnits="userSpaceOnUse">
<stop stop-opacity="0.25"/>
<stop offset="1" stop-opacity="0"/>
</linearGradient>
</defs>
</svg>
