<svg width="59" height="59" viewBox="0 0 59 59" fill="none" xmlns="http://www.w3.org/2000/svg">
<g clip-path="url(#clip0_735_9924)">
<path d="M55.1935 11.4194V10.285L51.6726 1.48356C51.3138 0.582387 50.4545 0 49.4839 0C48.5132 0 47.6539 0.582387 47.2952 1.48356L43.7742 10.285V11.4194H17.0729C16.598 7.14376 12.9657 3.80645 8.56452 3.80645C3.84166 3.80645 0 7.64906 0 12.371V50.4355C0 55.1574 3.84166 59 8.56452 59H59V11.4194H55.1935ZM49.0633 2.18871V2.18776C49.2012 1.84232 49.7675 1.84042 49.9054 2.18871L52.8374 9.51613H46.1323L49.0633 2.18871ZM53.2903 11.4194V31.4032H50.4355V11.4194H53.2903ZM45.6774 11.4194H48.5323V31.4032H45.6774V11.4194ZM45.6774 33.3064H53.2903V37.1129C53.2903 37.6372 52.864 38.0645 52.3387 38.0645H46.629C46.1037 38.0645 45.6774 37.6372 45.6774 37.1129V33.3064ZM17.129 41.7977C17.9665 41.6768 18.7763 41.4028 19.509 40.9793L18.5555 39.3321C18.113 39.588 17.6286 39.7603 17.129 39.8621V30.5477C19.2978 30.9902 20.9355 32.9115 20.9355 35.2097C20.9355 36.3307 20.5377 37.4193 19.8154 38.2758L21.2705 39.5024C22.282 38.3034 22.8387 36.7789 22.8387 35.2097C22.8387 31.861 20.3512 29.0889 17.129 28.6245V26.7013C21.4046 27.1771 24.7419 30.8094 24.7419 35.2097C24.7419 39.6099 21.4046 43.2432 17.129 43.718V41.7977ZM17.129 50.4355V45.6289C22.4562 45.1464 26.6452 40.6605 26.6452 35.2097C26.6452 29.7588 22.4562 25.2729 17.129 24.7905V17.129H19.0323V21.22L19.746 21.4046C21.0392 21.7386 22.2735 22.2497 23.4154 22.9234L24.0511 23.2993L26.943 20.4064L30.9807 24.4441L28.0888 27.336L28.4637 27.9708C29.1374 29.1127 29.6485 30.3469 29.9825 31.6411L30.1671 32.3548H34.2581V38.0645H30.1671L29.9825 38.7782C29.6485 40.0724 29.1374 41.3067 28.4637 42.4486L28.0888 43.0833L30.9807 45.9753L26.943 50.013L24.0511 47.1201L23.4154 47.4959C22.2735 48.1697 21.0392 48.6817 19.746 49.0147L19.0323 49.1993V53.2903H16.6294C16.9473 52.3958 17.129 51.4375 17.129 50.4355ZM1.90323 12.371C1.90323 8.69774 4.89224 5.70968 8.56452 5.70968C12.2368 5.70968 15.2258 8.69774 15.2258 12.371V45.0646C13.6547 43.1195 11.2538 41.871 8.56452 41.871C5.87526 41.871 3.47434 43.1195 1.90323 45.0646V12.371ZM8.56452 57.0968C4.89224 57.0968 1.90323 54.1087 1.90323 50.4355C1.90323 46.7623 4.89224 43.7742 8.56452 43.7742C12.2368 43.7742 15.2258 46.7623 15.2258 50.4355C15.2258 54.1087 12.2368 57.0968 8.56452 57.0968ZM57.0968 57.0968H13.9354C14.6082 56.5534 15.1982 55.913 15.6807 55.1935H20.9355V50.6563C21.9061 50.3584 22.8435 49.9701 23.7361 49.4972L26.943 52.7051L33.6719 45.9762L30.4649 42.7683C30.9369 41.8757 31.3252 40.9384 31.623 39.9677H36.1613V30.4516H31.623C31.3261 29.481 30.9369 28.5436 30.4649 27.651L33.6719 24.4431L26.943 17.7143L23.7361 20.9222C22.8435 20.4492 21.9052 20.061 20.9355 19.7631V15.2258H17.129V13.3226H43.7742V37.1129C43.7742 38.6869 45.0551 39.9677 46.629 39.9677H52.3387C53.9127 39.9677 55.1935 38.6869 55.1935 37.1129V13.3226H57.0968V57.0968Z" fill="#FF771B"/>
<path d="M36.1611 55.1936H55.1934V41.871H36.1611V55.1936ZM38.0644 43.7742H53.2902V53.2903H38.0644V43.7742Z" fill="#FF771B"/>
<path d="M51.3873 45.6774H43.7744V47.5806H51.3873V45.6774Z" fill="#FF771B"/>
<path d="M41.871 45.6774H39.9678V47.5806H41.871V45.6774Z" fill="#FF771B"/>
<path d="M47.5807 49.4839H39.9678V51.3871H47.5807V49.4839Z" fill="#FF771B"/>
<path d="M51.3871 49.4839H49.4839V51.3871H51.3871V49.4839Z" fill="#FF771B"/>
<path d="M8.5647 45.6774C5.94111 45.6774 3.80664 47.8118 3.80664 50.4354C3.80664 53.059 5.94111 55.1935 8.5647 55.1935V53.2903C6.99074 53.2903 5.70987 52.0094 5.70987 50.4354C5.70987 48.8615 6.99074 47.5806 8.5647 47.5806C10.1387 47.5806 11.4195 48.8615 11.4195 50.4354H13.3228C13.3228 47.8118 11.1883 45.6774 8.5647 45.6774Z" fill="#FF771B"/>
</g>
<defs>
<clipPath id="clip0_735_9924">
<rect width="59" height="59" fill="white"/>
</clipPath>
</defs>
</svg>
