<svg width="79" height="79" viewBox="0 0 79 79" fill="none" xmlns="http://www.w3.org/2000/svg">
<path d="M64.1134 62.0766C63.2246 61.1015 62.0026 60.546 60.6818 60.4843C59.7931 60.4596 58.929 60.6694 58.1637 61.0768L52.1893 54.5963C55.6703 51.6709 58.1143 47.5604 58.929 42.9068L65.4588 44.9929C65.1503 47.8443 66.8784 50.634 69.7174 51.5351C70.3346 51.7326 70.9765 51.8313 71.5937 51.8313C74.2106 51.8313 76.6423 50.1526 77.4693 47.5357C77.9754 45.968 77.8273 44.2893 77.0743 42.8327C76.3214 41.3638 75.0376 40.2776 73.4699 39.7838C70.6309 38.8704 67.619 40.1294 66.2118 42.6352L59.2006 40.401C59.2129 40.0924 59.2499 39.7962 59.2499 39.4876C59.2499 34.1921 57.1515 29.4027 53.7446 25.8477L62.7309 17.6885C63.4592 18.1699 64.2985 18.4538 65.1873 18.5032H65.4342C66.6685 18.5032 67.8288 18.0465 68.7546 17.2194C70.7667 15.3926 70.9148 12.2573 69.0879 10.2452C67.261 8.2332 64.1257 8.08507 62.1137 9.91195C60.4103 11.4549 60.0646 13.9113 61.0768 15.8616L51.9424 24.169C48.5479 21.404 44.2153 19.7499 39.5123 19.7499C37.9199 19.7499 36.377 19.9598 34.8834 20.3177L31.6123 12.6523C34.1798 11.0846 35.2907 7.8382 34.081 4.98679C32.7479 1.85148 29.1188 0.394915 25.9835 1.72804C22.8482 3.06117 21.3917 6.70257 22.7248 9.82554C23.7246 12.1709 26.0082 13.578 28.4029 13.578C28.6992 13.578 28.9831 13.5287 29.2793 13.4916L32.5134 21.0584C26.0823 23.5024 21.2682 29.2052 20.0709 36.1301L11.0353 36.451C10.7884 35.6116 10.344 34.8463 9.68979 34.2291C8.72697 33.328 7.45557 32.859 6.14713 32.9084C4.82635 32.9577 3.60432 33.5132 2.70322 34.476C1.80213 35.4388 1.33307 36.6979 1.38244 38.0187C1.48119 40.6849 3.66604 42.7834 6.31994 42.7834H6.49276C7.81354 42.734 9.03557 42.1785 9.93666 41.2157C10.5415 40.5615 10.9365 39.7715 11.1217 38.9198L19.8117 38.6112C19.7993 38.9074 19.7623 39.2037 19.7623 39.4999C19.7623 45.9927 22.9223 51.7449 27.7734 55.3493L20.8362 65.8662C19.7253 65.4094 18.5032 65.2984 17.2935 65.5452C15.6765 65.8785 14.294 66.8166 13.3806 68.1868C12.4671 69.557 12.1585 71.211 12.4795 72.828C12.8004 74.4451 13.7509 75.8276 15.121 76.741C16.1456 77.4199 17.3182 77.7655 18.5032 77.7655C18.9229 77.7655 19.3426 77.7285 19.7499 77.6421C21.367 77.3088 22.7495 76.3707 23.6629 75.0005C24.5763 73.6304 24.8849 71.9763 24.564 70.3593C24.3171 69.1496 23.737 68.0757 22.8853 67.2363L29.8348 56.7071C32.6985 58.3241 35.9943 59.2623 39.5123 59.2623C43.4499 59.2623 47.116 58.0896 50.202 56.0899L56.3615 62.7679C55.1765 64.6071 55.3123 67.0882 56.8676 68.7793C57.7564 69.7544 58.9784 70.3099 60.2992 70.3716H60.509C61.7557 70.3716 62.9284 69.9149 63.8542 69.0632C65.8539 67.224 65.9896 64.0887 64.1381 62.089L64.1134 62.0766ZM68.0634 44.5485C68.6806 42.6105 70.7667 41.5243 72.717 42.1538C73.6551 42.4501 74.4328 43.1043 74.8771 43.9807C75.3338 44.8571 75.4079 45.8569 75.1117 46.8074C74.4945 48.7577 72.396 49.8316 70.4581 49.2021C68.5201 48.5849 67.4339 46.4865 68.0634 44.5485ZM63.7554 11.7512C64.2245 11.3191 64.817 11.1093 65.4095 11.1093C66.076 11.1093 66.7549 11.3809 67.2364 11.9116C68.1498 12.9238 68.0757 14.4791 67.0635 15.4049C66.5698 15.8493 65.9526 16.0838 65.286 16.0468C64.6318 16.0098 64.0146 15.7259 63.5826 15.2444C62.6692 14.2323 62.7432 12.6769 63.7554 11.7512ZM29.8348 10.813C27.9585 11.6154 25.7737 10.739 24.9713 8.86273C24.169 6.98648 25.0454 4.80163 26.9217 3.99929C27.3907 3.80179 27.8845 3.70304 28.3659 3.70304C29.8101 3.70304 31.1803 4.54242 31.7728 5.9496C32.5751 7.82585 31.6987 10.0107 29.8224 10.813H29.8348ZM8.10979 39.5246C7.66541 40.006 7.04822 40.2899 6.394 40.3023C5.0115 40.3023 3.88822 39.2777 3.83885 37.9199C3.81416 37.2657 4.04869 36.6362 4.50541 36.1548C4.96213 35.6734 5.56697 35.3894 6.22119 35.3771C6.9001 35.3771 7.50494 35.5869 7.98635 36.0437C8.46775 36.5004 8.75166 37.1052 8.76401 37.7594C8.78869 38.4137 8.55416 39.0432 8.09744 39.5246H8.10979ZM21.6138 73.6304C21.0707 74.4574 20.2313 75.0252 19.2685 75.2227C18.3057 75.4202 17.3182 75.2227 16.4912 74.6796C15.6642 74.1365 15.0963 73.2971 14.8988 72.3343C14.7013 71.3715 14.8988 70.384 15.442 69.5569C15.9851 68.7299 16.8245 68.1621 17.7873 67.9646C18.0342 67.9152 18.2934 67.8905 18.5403 67.8905C19.2562 67.8905 19.9598 68.1004 20.577 68.5077C21.404 69.0509 21.9718 69.8902 22.1693 70.853C22.3668 71.8159 22.1693 72.8034 21.6262 73.6304H21.6138ZM39.5123 56.7812C29.9829 56.7812 22.231 49.0293 22.231 39.4999C22.231 29.9705 29.9829 22.2187 39.5123 22.2187C49.0417 22.2187 56.7935 29.9705 56.7935 39.4999C56.7935 49.0293 49.0417 56.7812 39.5123 56.7812ZM62.1631 67.2363C61.6817 67.6807 61.0398 67.9029 60.3856 67.8905C59.7313 67.8659 59.1142 67.5819 58.6698 67.1005C57.744 66.1007 57.8181 64.533 58.8179 63.6073C59.2993 63.1629 59.9289 62.9407 60.5954 62.953C61.2496 62.9777 61.8668 63.2616 62.3112 63.743C63.237 64.7429 63.1629 66.3105 62.1631 67.2363Z" fill="#FF771B"/>
<path d="M50.6468 41.0306L50.1037 40.722C50.1531 40.3147 50.1778 39.895 50.1778 39.4877C50.1778 39.0803 50.1531 38.6606 50.1037 38.2533L50.6592 37.9447C51.2146 37.6361 51.6096 37.13 51.7824 36.5252C51.9429 35.9203 51.8565 35.3031 51.5356 34.7723L49.7457 31.8098C49.1039 30.7359 47.672 30.3656 46.5734 30.9828L45.9685 31.3284C45.2526 30.81 44.4749 30.378 43.6603 30.0447V29.4522C43.6603 28.1808 42.611 27.1562 41.3149 27.1562H37.7353C36.4392 27.1562 35.3899 28.1931 35.3899 29.4522V30.0447C34.5753 30.378 33.7976 30.81 33.131 31.3531L32.4768 30.9952C31.3659 30.3903 29.9464 30.7606 29.3045 31.8345L27.5146 34.797C27.1937 35.3278 27.1073 35.945 27.2678 36.5498C27.4282 37.1547 27.8232 37.6608 28.391 37.9694L28.9342 38.278C28.8848 38.6853 28.8601 39.105 28.8601 39.5123C28.8601 39.9197 28.8848 40.3394 28.9342 40.7467L28.3787 41.0553C27.8232 41.3639 27.4282 41.87 27.2554 42.4748C27.0949 43.0797 27.1814 43.6969 27.5023 44.2277L29.2921 47.1902C29.934 48.2641 31.3659 48.6344 32.4645 48.0172L33.0693 47.6716C33.7853 48.19 34.5629 48.622 35.3776 48.9553V49.5478C35.3776 50.8192 36.4268 51.8438 37.7229 51.8438H41.3026C42.5987 51.8438 43.6479 50.8069 43.6479 49.5478V48.9553C44.4626 48.622 45.2403 48.19 45.9068 47.6469L46.561 48.0048C47.6596 48.6097 49.0915 48.2394 49.7334 47.1655L51.5232 44.203C51.8442 43.6722 51.9306 43.055 51.7701 42.4502C51.6096 41.8453 51.2146 41.3392 50.6468 41.0306ZM47.709 39.5C47.709 39.8456 47.6843 40.1912 47.6349 40.5492C47.4992 41.4627 47.9806 42.3884 48.8076 42.8452L49.3014 43.1167L47.672 45.8077L47.0918 45.4867C46.2771 45.0423 45.2649 45.1164 44.4996 45.6719C43.9318 46.0792 43.327 46.4248 42.6851 46.6841C41.7717 47.0544 41.1792 47.8938 41.1792 48.8319V49.375H37.834V48.8319C37.834 47.8938 37.2415 47.0544 36.3281 46.6841C35.6862 46.4248 35.069 46.0916 34.5135 45.6719C33.7482 45.1041 32.7237 45.0423 31.9214 45.4867L31.3412 45.8077L29.7118 43.1167L30.2056 42.8452C31.0449 42.3884 31.514 41.4627 31.3782 40.5492C31.3289 40.2036 31.3042 39.8456 31.3042 39.5C31.3042 39.1544 31.3289 38.8087 31.3782 38.4508C31.514 37.5373 31.0326 36.6116 30.2056 36.1548L29.7118 35.8833L31.3412 33.1923L31.9214 33.5133C32.736 33.9577 33.7606 33.8836 34.5135 33.3281C35.0814 32.9208 35.6862 32.5752 36.3281 32.3159C37.2415 31.9456 37.834 31.1063 37.834 30.1681V29.625H41.1792V30.1681C41.1792 31.1063 41.7717 31.9456 42.6851 32.3159C43.327 32.5752 43.9442 32.9084 44.4996 33.3281C45.2649 33.8959 46.2895 33.97 47.0918 33.5133L47.672 33.1923L49.3014 35.8833L48.8076 36.1548C47.9682 36.6116 47.4992 37.5373 47.6349 38.4508C47.6843 38.7964 47.709 39.1544 47.709 39.5Z" fill="#FF771B"/>
<path d="M39.5 33.9453C36.4388 33.9453 33.9453 36.4388 33.9453 39.5C33.9453 42.5612 36.4388 45.0547 39.5 45.0547C42.5612 45.0547 45.0547 42.5612 45.0547 39.5C45.0547 36.4388 42.5612 33.9453 39.5 33.9453ZM39.5 42.5859C37.7966 42.5859 36.4141 41.2034 36.4141 39.5C36.4141 37.7966 37.7966 36.4141 39.5 36.4141C41.2034 36.4141 42.5859 37.7966 42.5859 39.5C42.5859 41.2034 41.2034 42.5859 39.5 42.5859Z" fill="#FF771B"/>
</svg>
