<svg width="83" height="83" viewBox="0 0 83 83" fill="none" xmlns="http://www.w3.org/2000/svg">
<g clip-path="url(#clip0_2544_25648)">
<path d="M78.5402 49.8094C79.4125 49.0153 79.9397 47.8796 79.9397 46.6401V36.3603C79.9397 33.9922 78.0151 32.0655 75.6496 32.0655H73.0327C72.3107 29.5345 71.2996 27.0954 70.0175 24.7928L71.8681 22.942C72.6788 22.1313 73.1248 21.051 73.1238 19.9005C73.1227 18.7523 72.6762 17.6757 71.8681 16.8708L64.6001 9.60267C63.7925 8.79196 62.7138 8.34535 61.563 8.34535C60.412 8.34535 59.3333 8.79196 58.5273 9.60105L56.6767 11.4517C54.3742 10.1697 51.9353 9.15849 49.4043 8.43629V5.81936C49.4043 3.45386 47.4778 1.5293 45.1097 1.5293H34.8302C32.4621 1.5293 30.5356 3.45386 30.5356 5.81936V8.43629C28.0046 9.15833 25.5656 10.1696 23.263 11.4517L21.4125 9.60105C20.6017 8.79018 19.5209 8.35183 18.371 8.34535C17.2228 8.34648 16.1463 8.79293 15.3414 9.60105L8.07321 16.8692C7.26347 17.6759 6.81702 18.7523 6.81589 19.9007C6.81475 21.0512 7.26072 22.1313 8.07159 22.9422L9.92223 24.793C8.64027 27.0954 7.62903 29.5343 6.90699 32.0657H4.29006C1.92456 32.0655 0 33.9922 0 36.3601V46.64C0 49.008 1.92456 50.9347 4.29006 50.9347H6.90699C7.62903 53.4661 8.64027 55.905 9.92223 58.2074L8.07321 60.0565C7.2625 60.8641 6.81589 61.9428 6.81589 63.0937C6.81589 64.2447 7.26234 65.3232 8.07159 66.1294L15.3396 73.3976C16.1461 74.2073 17.2227 74.6539 18.3709 74.6549C19.5144 74.6523 20.6015 74.2101 21.4124 73.3992L23.263 71.5485C25.5655 72.8305 28.0044 73.8417 30.5354 74.5639V77.1809C30.5354 79.5464 32.4619 81.4709 34.83 81.4709H45.1095C47.4776 81.4709 49.4041 79.5464 49.4041 77.1809V74.5633C51.0375 74.0963 52.6389 73.5062 54.1854 72.8041C57.2351 75.9667 61.5131 77.9371 66.2429 77.9371C68.9887 77.9371 71.7149 77.2567 74.1265 75.9696C74.7188 75.6533 74.9427 74.9169 74.6266 74.3245C74.3103 73.732 73.5735 73.5085 72.9815 73.8244C70.9211 74.9243 68.5909 75.5056 66.2429 75.5056C58.344 75.5056 51.9176 69.0791 51.9176 61.1799C51.9176 53.2806 58.344 46.8541 66.2429 46.8541C74.142 46.8541 80.5682 53.2806 80.5682 61.1799C80.5682 64.692 79.2804 68.0736 76.9421 70.7022C76.4958 71.2039 76.5408 71.9723 77.0425 72.4186C77.544 72.8649 78.3124 72.8201 78.7589 72.3182C81.4938 69.2442 83 65.2884 83 61.1797C83 56.7951 81.3064 52.799 78.5402 49.8094ZM64.2375 44.5429C64.3624 43.5352 64.426 42.5164 64.426 41.4978C64.426 28.0136 53.4539 17.0432 39.9674 17.0432C35.9687 17.0432 31.9988 18.0317 28.487 19.9016C27.8943 20.2173 27.6696 20.9536 27.9853 21.5462C28.3011 22.1391 29.0375 22.3636 29.63 22.048C32.7913 20.3645 36.366 19.4746 39.9676 19.4746C52.1133 19.4746 61.9945 29.3541 61.9945 41.4977C61.9945 42.6882 61.8976 43.8783 61.7089 45.0461C54.6651 47.0285 49.4863 53.5105 49.4863 61.1797C49.4863 61.2418 49.4879 61.3036 49.4887 61.3655C48.3584 61.9102 47.1954 62.3522 46.0039 62.6915V50.2613C51.0208 48.0433 54.3352 43.0227 54.3352 37.509C54.3352 32.9043 52.0512 28.5982 48.2269 25.9911C47.6752 25.6139 45.9963 24.4658 44.6114 25.2636C43.2565 26.0438 43.3954 27.9196 43.462 28.8209C43.4687 28.9096 43.4751 28.9825 43.4758 29.0307V36.6728C43.4758 38.6648 41.9416 40.3355 39.9677 40.5129C37.9939 40.3357 36.4597 38.6648 36.4597 36.6728V29.0336C36.4605 28.9825 36.467 28.9092 36.4736 28.8201C36.5411 27.9189 36.6811 26.044 35.3277 25.2637C33.9438 24.4662 32.2648 25.614 31.7144 25.9903C27.8888 28.5983 25.6049 32.9044 25.6049 37.5091C25.6049 43.0228 28.919 48.0435 33.9361 50.2615V62.6855C24.7158 60.0558 17.9453 51.5528 17.9453 41.4978C17.9453 35.0911 20.728 29.0149 25.5794 24.8272C26.0878 24.3883 26.144 23.6206 25.7054 23.1124C25.2665 22.6038 24.4988 22.5474 23.9906 22.9864C18.6033 27.6365 15.5135 34.3837 15.5135 41.4978C15.5135 54.9847 26.4835 65.9571 39.9676 65.9571C43.3769 65.9571 46.6471 65.2764 49.7142 63.9361C50.1373 66.482 51.1353 68.8361 52.5716 70.8589C51.0541 71.51 49.4844 72.0461 47.8866 72.4556C47.3489 72.5935 46.9727 73.078 46.9727 73.6333V77.1809C46.9727 78.2056 46.137 79.0393 45.1097 79.0393H34.8302C33.8029 79.0393 32.9672 78.2056 32.9672 77.1809V73.6333C32.9672 73.0777 32.5906 72.5929 32.0524 72.4552C29.1122 71.7038 26.2961 70.5362 23.6822 68.9848C23.2045 68.7014 22.595 68.7778 22.202 69.1706L19.693 71.6797C19.3426 72.0302 18.8747 72.2232 18.3753 72.2232C18.3746 72.2232 18.374 72.2232 18.3733 72.2232C17.8755 72.2228 17.4099 72.0303 17.0607 71.6797L9.78946 64.4083C9.44012 64.0602 9.24769 63.5935 9.24769 63.0937C9.24769 62.5941 9.44012 62.1272 9.79108 61.7776L12.3002 59.2684C12.6932 58.8755 12.7697 58.2661 12.486 57.7882C10.9348 55.1744 9.76725 52.3582 9.01571 49.4179C8.87808 48.8797 8.39321 48.5031 7.83766 48.5031H4.29006C3.26537 48.5031 2.43164 47.6672 2.43164 46.64V36.3601C2.43164 35.3328 3.26537 34.497 4.29006 34.497H7.8375C8.39305 34.497 8.87792 34.1204 9.01555 33.5822C9.76709 30.6417 10.9346 27.8255 12.4858 25.2119C12.7695 24.734 12.693 24.1246 12.3 23.7316L9.79092 21.2225C9.43995 20.8715 9.24704 20.4029 9.24753 19.9028C9.24802 19.4049 9.44044 18.9394 9.79092 18.5902L17.0622 11.3188C17.4097 10.9699 17.8753 10.7775 18.3732 10.777H18.3751C18.8744 10.777 19.3424 10.9699 19.6929 11.3205L22.2019 13.8297C22.5946 14.2226 23.2042 14.2991 23.6821 14.0154C26.2961 12.4641 29.1123 11.2965 32.0523 10.545C32.5905 10.4074 32.967 9.92251 32.967 9.36696V5.81936C32.967 4.79467 33.8027 3.96094 34.83 3.96094H45.1095C46.1368 3.96094 46.9725 4.79467 46.9725 5.81936V9.36696C46.9725 9.92251 47.3491 10.4074 47.8873 10.545C50.8274 11.2964 53.6436 12.4641 56.2575 14.0154C56.7354 14.299 57.3447 14.2225 57.7377 13.8297L60.2483 11.3189C60.5963 10.9696 61.0632 10.7772 61.5628 10.7772C62.0624 10.7772 62.5292 10.9696 62.879 11.3207L70.1502 18.5921C70.4991 18.9397 70.6915 19.4053 70.692 19.9031C70.6925 20.4032 70.4994 20.872 70.1485 21.2228L67.6395 23.732C67.2465 24.1249 67.17 24.7343 67.4537 25.2122C69.0051 27.8262 70.1726 30.6425 70.924 33.5825C71.0616 34.1207 71.5465 34.4973 72.102 34.4973H75.6495C76.6742 34.4973 77.5079 35.3332 77.5079 36.3604V46.6403C77.5079 47.2346 77.213 47.789 76.7484 48.1353C73.8726 45.8145 70.2175 44.4226 66.2431 44.4226C65.5643 44.4225 64.8953 44.4641 64.2375 44.5429ZM35.5739 48.303C31.0653 46.6336 28.0363 42.2958 28.0363 37.509C28.0363 33.7091 29.9233 30.1541 33.0854 27.9985C33.56 27.6741 33.8711 27.5312 34.0527 27.4683C34.0903 27.7072 34.0892 28.099 34.0488 28.6388C34.0371 28.7943 34.0281 28.9172 34.0281 29.0307V36.6728C34.0281 39.9662 36.6007 42.7215 39.8851 42.9453C39.9402 42.9491 39.9955 42.9491 40.0506 42.9453C43.3349 42.7215 45.9076 39.9662 45.9076 36.6728V29.0307C45.9076 28.9178 45.8985 28.7959 45.8872 28.6414C45.847 28.0993 45.8463 27.7062 45.8847 27.4674C46.0663 27.53 46.3784 27.6728 46.8561 27.9995C50.0167 30.1542 51.9037 33.7093 51.9037 37.5091C51.9037 42.2959 48.8745 46.6338 44.3661 48.3032C43.8892 48.4797 43.5724 48.9348 43.5724 49.4433V63.2336C42.3931 63.4262 41.1907 63.5254 39.9679 63.5254C38.742 63.5254 37.5398 63.4231 36.3679 63.2294V49.4431C36.3675 48.9346 36.0509 48.4797 35.5739 48.303Z" fill="#FF771B"/>
<path d="M74.43 53.7304C72.6663 52.2585 70.0331 52.4924 68.5607 54.2503L64.3283 59.2968L63.6292 58.7039C61.8776 57.2193 59.2433 57.4374 57.7555 59.1917C56.2749 60.9451 56.4934 63.5787 58.2423 65.0619L62.1363 68.3674C62.9055 69.0178 63.8234 69.3558 64.8101 69.3556C64.9335 69.3556 65.0582 69.3505 65.1836 69.3398C66.3181 69.2438 67.3018 68.7315 68.0256 67.8615L74.9459 59.6036C75.6608 58.7506 76.0009 57.6695 75.9036 56.5594C75.8062 55.4496 75.2835 54.4455 74.43 53.7304ZM73.0821 58.0419L66.1589 66.303C65.845 66.6802 65.4699 66.8752 64.9781 66.9169C64.4871 66.9582 64.0831 66.8293 63.7078 66.5121L59.8152 63.2076C59.0864 62.5895 58.9956 61.4917 59.6115 60.7626C59.955 60.3576 60.4453 60.1491 60.9383 60.1491C61.3344 60.1491 61.732 60.2837 62.0567 60.5588L63.688 61.9421C63.9349 62.1513 64.2551 62.253 64.5774 62.2262C64.8998 62.1988 65.1981 62.044 65.4059 61.796L70.4243 55.8122C71.0381 55.0795 72.1362 54.9832 72.8702 55.5958C73.2236 55.892 73.4407 56.3096 73.4812 56.7719C73.5219 57.2354 73.3802 57.6864 73.0821 58.0419Z" fill="#FF771B"/>
</g>
<defs>
<clipPath id="clip0_2544_25648">
<rect width="83" height="83" fill="white"/>
</clipPath>
</defs>
</svg>
