<svg width="90" height="104" viewBox="0 0 90 104" fill="none" xmlns="http://www.w3.org/2000/svg">
<g opacity="0.4">
<mask id="mask0_2513_28206" style="mask-type:luminance" maskUnits="userSpaceOnUse" x="72" y="36" width="9" height="9">
<path d="M72.0898 36.1035H80.2363V44.2227H72.0898V36.1035Z" fill="white"/>
</mask>
<g mask="url(#mask0_2513_28206)">
<mask id="mask1_2513_28206" style="mask-type:luminance" maskUnits="userSpaceOnUse" x="72" y="36" width="9" height="9">
<path d="M76.167 36.1016C73.9178 36.1016 72.0938 37.9165 72.0938 40.1592C72.0938 42.4058 73.9178 44.2207 76.167 44.2207C78.4161 44.2207 80.2402 42.4058 80.2402 40.1592C80.2402 37.9165 78.4161 36.1016 76.167 36.1016Z" fill="white"/>
</mask>
<g mask="url(#mask1_2513_28206)">
<path d="M72.0938 36.1016H80.2402V44.2207H72.0938V36.1016Z" fill="#015096"/>
</g>
</g>
<mask id="mask2_2513_28206" style="mask-type:luminance" maskUnits="userSpaceOnUse" x="61" y="36" width="8" height="8">
<path d="M61.5781 36.416H68.9091V43.726H61.5781V36.416Z" fill="white"/>
</mask>
<g mask="url(#mask2_2513_28206)">
<mask id="mask3_2513_28206" style="mask-type:luminance" maskUnits="userSpaceOnUse" x="61" y="36" width="8" height="8">
<path d="M65.2456 36.4141C63.2206 36.4141 61.582 38.0518 61.582 40.071C61.582 42.0902 63.2206 43.724 65.2456 43.724C67.2706 43.724 68.913 42.0902 68.913 40.071C68.913 38.0518 67.2706 36.4141 65.2456 36.4141Z" fill="white"/>
</mask>
<g mask="url(#mask3_2513_28206)">
<path d="M61.582 36.4141H68.913V43.724H61.582V36.4141Z" fill="#015096"/>
</g>
</g>
<mask id="mask4_2513_28206" style="mask-type:luminance" maskUnits="userSpaceOnUse" x="51" y="36" width="8" height="8">
<path d="M51.5508 36.6758H58.3678V43.4732H51.5508V36.6758Z" fill="white"/>
</mask>
<g mask="url(#mask4_2513_28206)">
<mask id="mask5_2513_28206" style="mask-type:luminance" maskUnits="userSpaceOnUse" x="51" y="36" width="8" height="8">
<path d="M54.9593 36.6758C53.0773 36.6758 51.5508 38.1979 51.5508 40.0745C51.5508 41.9511 53.0773 43.4732 54.9593 43.4732C56.8413 43.4732 58.3678 41.9511 58.3678 40.0745C58.3678 38.1979 56.8413 36.6758 54.9593 36.6758Z" fill="white"/>
</mask>
<g mask="url(#mask5_2513_28206)">
<path d="M51.5508 36.6758H58.3678V43.4732H51.5508V36.6758Z" fill="#015096"/>
</g>
</g>
<mask id="mask6_2513_28206" style="mask-type:luminance" maskUnits="userSpaceOnUse" x="41" y="36" width="7" height="8">
<path d="M41.2656 36.8008H47.8276V43.3439H41.2656V36.8008Z" fill="white"/>
</mask>
<g mask="url(#mask6_2513_28206)">
<mask id="mask7_2513_28206" style="mask-type:luminance" maskUnits="userSpaceOnUse" x="41" y="36" width="7" height="8">
<path d="M44.5466 36.8008C42.7341 36.8008 41.2656 38.2651 41.2656 40.0723C41.2656 41.8796 42.7341 43.3439 44.5466 43.3439C46.3591 43.3439 47.8276 41.8796 47.8276 40.0723C47.8276 38.2651 46.3591 36.8008 44.5466 36.8008Z" fill="white"/>
</mask>
<g mask="url(#mask7_2513_28206)">
<path d="M41.2656 36.8008H47.8276V43.3439H41.2656V36.8008Z" fill="#015096"/>
</g>
</g>
<mask id="mask8_2513_28206" style="mask-type:luminance" maskUnits="userSpaceOnUse" x="31" y="37" width="7" height="7">
<path d="M31.0234 37.0176H37.1564V43.1291H31.0234V37.0176Z" fill="white"/>
</mask>
<g mask="url(#mask8_2513_28206)">
<mask id="mask9_2513_28206" style="mask-type:luminance" maskUnits="userSpaceOnUse" x="31" y="37" width="7" height="7">
<path d="M34.088 37.0176C32.3953 37.0176 31.0234 38.3855 31.0234 40.0733C31.0234 41.7611 32.3953 43.1291 34.088 43.1291C35.7807 43.1291 37.1564 41.7611 37.1564 40.0733C37.1564 38.3855 35.7807 37.0176 34.088 37.0176Z" fill="white"/>
</mask>
<g mask="url(#mask9_2513_28206)">
<path d="M31.0234 37.0176H37.1564V43.1291H31.0234V37.0176Z" fill="#015096"/>
</g>
</g>
<mask id="mask10_2513_28206" style="mask-type:luminance" maskUnits="userSpaceOnUse" x="81" y="47" width="9" height="9">
<path d="M81.8555 47.8691H90.0019V55.9922H81.8555V47.8691Z" fill="white"/>
</mask>
<g mask="url(#mask10_2513_28206)">
<mask id="mask11_2513_28206" style="mask-type:luminance" maskUnits="userSpaceOnUse" x="81" y="47" width="9" height="9">
<path d="M85.9287 47.8691C83.6795 47.8691 81.8555 49.688 81.8555 51.9307C81.8555 54.1733 83.6795 55.9922 85.9287 55.9922C88.1778 55.9922 90.0019 54.1733 90.0019 51.9307C90.0019 49.688 88.1778 47.8691 85.9287 47.8691Z" fill="white"/>
</mask>
<g mask="url(#mask11_2513_28206)">
<path d="M81.8555 47.8691H90.0019V55.9922H81.8555V47.8691Z" fill="#015096"/>
</g>
</g>
<mask id="mask12_2513_28206" style="mask-type:luminance" maskUnits="userSpaceOnUse" x="72" y="47" width="9" height="9">
<path d="M72.0898 47.8691H80.2363V55.9922H72.0898V47.8691Z" fill="white"/>
</mask>
<g mask="url(#mask12_2513_28206)">
<mask id="mask13_2513_28206" style="mask-type:luminance" maskUnits="userSpaceOnUse" x="72" y="47" width="9" height="9">
<path d="M76.167 47.8691C73.9178 47.8691 72.0938 49.688 72.0938 51.9307C72.0938 54.1733 73.9178 55.9922 76.167 55.9922C78.4161 55.9922 80.2402 54.1733 80.2402 51.9307C80.2402 49.688 78.4161 47.8691 76.167 47.8691Z" fill="white"/>
</mask>
<g mask="url(#mask13_2513_28206)">
<path d="M72.0938 47.8691H80.2402V55.9922H72.0938V47.8691Z" fill="#015096"/>
</g>
</g>
<mask id="mask14_2513_28206" style="mask-type:luminance" maskUnits="userSpaceOnUse" x="61" y="48" width="8" height="8">
<path d="M61.5781 48.2773H68.9091V55.5873H61.5781V48.2773Z" fill="white"/>
</mask>
<g mask="url(#mask14_2513_28206)">
<mask id="mask15_2513_28206" style="mask-type:luminance" maskUnits="userSpaceOnUse" x="61" y="48" width="8" height="8">
<path d="M65.2456 48.2773C63.2206 48.2773 61.582 49.9112 61.582 51.9304C61.582 53.9496 63.2206 55.5873 65.2456 55.5873C67.2706 55.5873 68.913 53.9496 68.913 51.9304C68.913 49.9112 67.2706 48.2773 65.2456 48.2773Z" fill="white"/>
</mask>
<g mask="url(#mask15_2513_28206)">
<path d="M61.582 48.2773H68.913V55.5873H61.582V48.2773Z" fill="#015096"/>
</g>
</g>
<mask id="mask16_2513_28206" style="mask-type:luminance" maskUnits="userSpaceOnUse" x="51" y="48" width="8" height="8">
<path d="M51.5273 48.5312H58.3444V55.3287H51.5273V48.5312Z" fill="white"/>
</mask>
<g mask="url(#mask16_2513_28206)">
<mask id="mask17_2513_28206" style="mask-type:luminance" maskUnits="userSpaceOnUse" x="51" y="48" width="8" height="8">
<path d="M54.9359 48.5312C53.0538 48.5312 51.5273 50.0534 51.5273 51.93C51.5273 53.8066 53.0538 55.3287 54.9359 55.3287C56.8179 55.3287 58.3444 53.8066 58.3444 51.93C58.3444 50.0534 56.8179 48.5312 54.9359 48.5312Z" fill="white"/>
</mask>
<g mask="url(#mask17_2513_28206)">
<path d="M51.5273 48.5312H58.3444V55.3287H51.5273V48.5312Z" fill="#015096"/>
</g>
</g>
<mask id="mask18_2513_28206" style="mask-type:luminance" maskUnits="userSpaceOnUse" x="41" y="48" width="7" height="8">
<path d="M41.2656 48.6562H47.8276V55.1994H41.2656V48.6562Z" fill="white"/>
</mask>
<g mask="url(#mask18_2513_28206)">
<mask id="mask19_2513_28206" style="mask-type:luminance" maskUnits="userSpaceOnUse" x="41" y="48" width="7" height="8">
<path d="M44.5466 48.6543C42.7341 48.6543 41.2656 50.1186 41.2656 51.9259C41.2656 53.7331 42.7341 55.1974 44.5466 55.1974C46.3591 55.1974 47.8276 53.7331 47.8276 51.9259C47.8276 50.1186 46.3591 48.6543 44.5466 48.6543Z" fill="white"/>
</mask>
<g mask="url(#mask19_2513_28206)">
<path d="M41.2656 48.6543H47.8276V55.1974H41.2656V48.6543Z" fill="#015096"/>
</g>
</g>
<mask id="mask20_2513_28206" style="mask-type:luminance" maskUnits="userSpaceOnUse" x="81" y="47" width="9" height="9">
<path d="M81.8555 47.8691H90.0019V55.9922H81.8555V47.8691Z" fill="white"/>
</mask>
<g mask="url(#mask20_2513_28206)">
<mask id="mask21_2513_28206" style="mask-type:luminance" maskUnits="userSpaceOnUse" x="81" y="47" width="9" height="9">
<path d="M85.9287 47.8691C83.6795 47.8691 81.8555 49.688 81.8555 51.9307C81.8555 54.1733 83.6795 55.9922 85.9287 55.9922C88.1778 55.9922 90.0019 54.1733 90.0019 51.9307C90.0019 49.688 88.1778 47.8691 85.9287 47.8691Z" fill="white"/>
</mask>
<g mask="url(#mask21_2513_28206)">
<path d="M81.8555 47.8691H90.0019V55.9922H81.8555V47.8691Z" fill="#015096"/>
</g>
</g>
<mask id="mask22_2513_28206" style="mask-type:luminance" maskUnits="userSpaceOnUse" x="71" y="35" width="11" height="10">
<path d="M81.1275 35.5117H71.2344V44.39H81.1275V35.5117Z" fill="white"/>
</mask>
<g mask="url(#mask22_2513_28206)">
<mask id="mask23_2513_28206" style="mask-type:luminance" maskUnits="userSpaceOnUse" x="72" y="36" width="9" height="9">
<path d="M72.0898 36.1016H80.2363V44.2207H72.0898V36.1016Z" fill="white"/>
</mask>
<g mask="url(#mask23_2513_28206)">
<mask id="mask24_2513_28206" style="mask-type:luminance" maskUnits="userSpaceOnUse" x="72" y="36" width="9" height="9">
<path d="M76.163 36.1016C73.9139 36.1016 72.0898 37.9165 72.0898 40.1592C72.0898 42.4058 73.9139 44.2207 76.163 44.2207C78.4122 44.2207 80.2363 42.4058 80.2363 40.1592C80.2363 37.9165 78.4122 36.1016 76.163 36.1016Z" fill="white"/>
</mask>
<g mask="url(#mask24_2513_28206)">
<path d="M72.0898 36.1016H80.2363V44.2207H72.0898V36.1016Z" fill="#015096"/>
</g>
</g>
</g>
<mask id="mask25_2513_28206" style="mask-type:luminance" maskUnits="userSpaceOnUse" x="71" y="47" width="11" height="10">
<path d="M81.1275 47.3516H71.2344V56.2299H81.1275V47.3516Z" fill="white"/>
</mask>
<g mask="url(#mask25_2513_28206)">
<mask id="mask26_2513_28206" style="mask-type:luminance" maskUnits="userSpaceOnUse" x="72" y="47" width="9" height="9">
<path d="M72.0898 47.8711H80.2363V55.9941H72.0898V47.8711Z" fill="white"/>
</mask>
<g mask="url(#mask26_2513_28206)">
<mask id="mask27_2513_28206" style="mask-type:luminance" maskUnits="userSpaceOnUse" x="72" y="47" width="9" height="9">
<path d="M76.163 47.8711C73.9139 47.8711 72.0898 49.6899 72.0898 51.9326C72.0898 54.1753 73.9139 55.9941 76.163 55.9941C78.4122 55.9941 80.2363 54.1753 80.2363 51.9326C80.2363 49.6899 78.4122 47.8711 76.163 47.8711Z" fill="white"/>
</mask>
<g mask="url(#mask27_2513_28206)">
<path d="M72.0898 47.8711H80.2363V55.9941H72.0898V47.8711Z" fill="#015096"/>
</g>
</g>
</g>
<mask id="mask28_2513_28206" style="mask-type:luminance" maskUnits="userSpaceOnUse" x="72" y="59" width="9" height="9">
<path d="M72.0898 59.5723H80.2363V67.6914H72.0898V59.5723Z" fill="white"/>
</mask>
<g mask="url(#mask28_2513_28206)">
<mask id="mask29_2513_28206" style="mask-type:luminance" maskUnits="userSpaceOnUse" x="72" y="59" width="9" height="9">
<path d="M76.167 59.5723C73.9178 59.5723 72.0938 61.3872 72.0938 63.6299C72.0938 65.8765 73.9178 67.6914 76.167 67.6914C78.4161 67.6914 80.2402 65.8765 80.2402 63.6299C80.2402 61.3872 78.4161 59.5723 76.167 59.5723Z" fill="white"/>
</mask>
<g mask="url(#mask29_2513_28206)">
<path d="M72.0938 59.5723H80.2402V67.6914H72.0938V59.5723Z" fill="#015096"/>
</g>
</g>
<mask id="mask30_2513_28206" style="mask-type:luminance" maskUnits="userSpaceOnUse" x="61" y="60" width="8" height="8">
<path d="M61.5781 60.293H68.9091V67.6029H61.5781V60.293Z" fill="white"/>
</mask>
<g mask="url(#mask30_2513_28206)">
<mask id="mask31_2513_28206" style="mask-type:luminance" maskUnits="userSpaceOnUse" x="61" y="60" width="8" height="8">
<path d="M65.2456 60.2949C63.2206 60.2949 61.582 61.9288 61.582 63.948C61.582 65.9672 63.2206 67.6049 65.2456 67.6049C67.2706 67.6049 68.913 65.9672 68.913 63.948C68.913 61.9288 67.2706 60.2949 65.2456 60.2949Z" fill="white"/>
</mask>
<g mask="url(#mask31_2513_28206)">
<path d="M61.582 60.2949H68.913V67.6049H61.582V60.2949Z" fill="#015096"/>
</g>
</g>
<mask id="mask32_2513_28206" style="mask-type:luminance" maskUnits="userSpaceOnUse" x="51" y="60" width="8" height="8">
<path d="M51.5273 60.5469H58.3444V67.3443H51.5273V60.5469Z" fill="white"/>
</mask>
<g mask="url(#mask32_2513_28206)">
<mask id="mask33_2513_28206" style="mask-type:luminance" maskUnits="userSpaceOnUse" x="51" y="60" width="8" height="8">
<path d="M54.9359 60.5469C53.0538 60.5469 51.5273 62.069 51.5273 63.9456C51.5273 65.8222 53.0538 67.3443 54.9359 67.3443C56.8179 67.3443 58.3444 65.8222 58.3444 63.9456C58.3444 62.069 56.8179 60.5469 54.9359 60.5469Z" fill="white"/>
</mask>
<g mask="url(#mask33_2513_28206)">
<path d="M51.5273 60.5469H58.3444V67.3443H51.5273V60.5469Z" fill="#015096"/>
</g>
</g>
<mask id="mask34_2513_28206" style="mask-type:luminance" maskUnits="userSpaceOnUse" x="41" y="60" width="7" height="8">
<path d="M41.2656 60.6738H47.8276V67.2169H41.2656V60.6738Z" fill="white"/>
</mask>
<g mask="url(#mask34_2513_28206)">
<mask id="mask35_2513_28206" style="mask-type:luminance" maskUnits="userSpaceOnUse" x="41" y="60" width="7" height="8">
<path d="M44.5466 60.6738C42.7341 60.6738 41.2656 62.1381 41.2656 63.9454C41.2656 65.7526 42.7341 67.2169 44.5466 67.2169C46.3591 67.2169 47.8276 65.7526 47.8276 63.9454C47.8276 62.1381 46.3591 60.6738 44.5466 60.6738Z" fill="white"/>
</mask>
<g mask="url(#mask35_2513_28206)">
<path d="M41.2656 60.6738H47.8276V67.2169H41.2656V60.6738Z" fill="#015096"/>
</g>
</g>
<mask id="mask36_2513_28206" style="mask-type:luminance" maskUnits="userSpaceOnUse" x="31" y="60" width="7" height="8">
<path d="M31.0234 60.8887H37.1564V67.0041H31.0234V60.8887Z" fill="white"/>
</mask>
<g mask="url(#mask36_2513_28206)">
<mask id="mask37_2513_28206" style="mask-type:luminance" maskUnits="userSpaceOnUse" x="31" y="60" width="7" height="8">
<path d="M34.088 60.8887C32.3953 60.8887 31.0234 62.2566 31.0234 63.9444C31.0234 65.6322 32.3953 67.0041 34.088 67.0041C35.7807 67.0041 37.1564 65.6322 37.1564 63.9444C37.1564 62.2566 35.7807 60.8887 34.088 60.8887Z" fill="white"/>
</mask>
<g mask="url(#mask37_2513_28206)">
<path d="M31.0234 60.8887H37.1564V67.0041H31.0234V60.8887Z" fill="#015096"/>
</g>
</g>
<mask id="mask38_2513_28206" style="mask-type:luminance" maskUnits="userSpaceOnUse" x="71" y="59" width="11" height="10">
<path d="M81.1275 59.1875H71.2344V68.0658H81.1275V59.1875Z" fill="white"/>
</mask>
<g mask="url(#mask38_2513_28206)">
<mask id="mask39_2513_28206" style="mask-type:luminance" maskUnits="userSpaceOnUse" x="72" y="59" width="9" height="9">
<path d="M72.0898 59.5723H80.2363V67.6914H72.0898V59.5723Z" fill="white"/>
</mask>
<g mask="url(#mask39_2513_28206)">
<mask id="mask40_2513_28206" style="mask-type:luminance" maskUnits="userSpaceOnUse" x="72" y="59" width="9" height="9">
<path d="M76.163 59.5723C73.9139 59.5723 72.0898 61.3872 72.0898 63.6299C72.0898 65.8765 73.9139 67.6914 76.163 67.6914C78.4122 67.6914 80.2363 65.8765 80.2363 63.6299C80.2363 61.3872 78.4122 59.5723 76.163 59.5723Z" fill="white"/>
</mask>
<g mask="url(#mask40_2513_28206)">
<path d="M72.0898 59.5723H80.2363V67.6914H72.0898V59.5723Z" fill="#015096"/>
</g>
</g>
</g>
<mask id="mask41_2513_28206" style="mask-type:luminance" maskUnits="userSpaceOnUse" x="61" y="24" width="8" height="8">
<path d="M61.5781 24.3125H68.9091V31.6225H61.5781V24.3125Z" fill="white"/>
</mask>
<g mask="url(#mask41_2513_28206)">
<mask id="mask42_2513_28206" style="mask-type:luminance" maskUnits="userSpaceOnUse" x="61" y="24" width="8" height="8">
<path d="M65.2456 24.3145C63.2206 24.3145 61.582 25.9483 61.582 27.9675C61.582 29.9867 63.2206 31.6244 65.2456 31.6244C67.2706 31.6244 68.913 29.9867 68.913 27.9675C68.913 25.9483 67.2706 24.3145 65.2456 24.3145Z" fill="white"/>
</mask>
<g mask="url(#mask42_2513_28206)">
<path d="M61.582 24.3145H68.913V31.6244H61.582V24.3145Z" fill="#015096"/>
</g>
</g>
<mask id="mask43_2513_28206" style="mask-type:luminance" maskUnits="userSpaceOnUse" x="51" y="24" width="8" height="8">
<path d="M51.5273 24.5664H58.3444V31.3639H51.5273V24.5664Z" fill="white"/>
</mask>
<g mask="url(#mask43_2513_28206)">
<mask id="mask44_2513_28206" style="mask-type:luminance" maskUnits="userSpaceOnUse" x="51" y="24" width="8" height="8">
<path d="M54.9359 24.5664C53.0538 24.5664 51.5273 26.0885 51.5273 27.9651C51.5273 29.8417 53.0538 31.3639 54.9359 31.3639C56.8179 31.3639 58.3444 29.8417 58.3444 27.9651C58.3444 26.0885 56.8179 24.5664 54.9359 24.5664Z" fill="white"/>
</mask>
<g mask="url(#mask44_2513_28206)">
<path d="M51.5273 24.5664H58.3444V31.3639H51.5273V24.5664Z" fill="#015096"/>
</g>
</g>
<mask id="mask45_2513_28206" style="mask-type:luminance" maskUnits="userSpaceOnUse" x="41" y="24" width="7" height="8">
<path d="M41.2656 24.6953H47.8276V31.2384H41.2656V24.6953Z" fill="white"/>
</mask>
<g mask="url(#mask45_2513_28206)">
<mask id="mask46_2513_28206" style="mask-type:luminance" maskUnits="userSpaceOnUse" x="41" y="24" width="7" height="8">
<path d="M44.5466 24.6973C42.7341 24.6973 41.2656 26.1616 41.2656 27.9688C41.2656 29.7761 42.7341 31.2404 44.5466 31.2404C46.3591 31.2404 47.8276 29.7761 47.8276 27.9688C47.8276 26.1616 46.3591 24.6973 44.5466 24.6973Z" fill="white"/>
</mask>
<g mask="url(#mask46_2513_28206)">
<path d="M41.2656 24.6973H47.8276V31.2404H41.2656V24.6973Z" fill="#015096"/>
</g>
</g>
<mask id="mask47_2513_28206" style="mask-type:luminance" maskUnits="userSpaceOnUse" x="31" y="24" width="7" height="8">
<path d="M31.0234 24.9121H37.1564V31.0275H31.0234V24.9121Z" fill="white"/>
</mask>
<g mask="url(#mask47_2513_28206)">
<mask id="mask48_2513_28206" style="mask-type:luminance" maskUnits="userSpaceOnUse" x="31" y="24" width="7" height="8">
<path d="M34.088 24.9141C32.3953 24.9141 31.0234 26.282 31.0234 27.9698C31.0234 29.6576 32.3953 31.0295 34.088 31.0295C35.7807 31.0295 37.1564 29.6576 37.1564 27.9698C37.1564 26.282 35.7807 24.9141 34.088 24.9141Z" fill="white"/>
</mask>
<g mask="url(#mask48_2513_28206)">
<path d="M31.0234 24.9141H37.1564V31.0295H31.0234V24.9141Z" fill="#015096"/>
</g>
</g>
<mask id="mask49_2513_28206" style="mask-type:luminance" maskUnits="userSpaceOnUse" x="20" y="25" width="7" height="6">
<path d="M20.9609 25.125H26.6611V30.8088H20.9609V25.125Z" fill="white"/>
</mask>
<g mask="url(#mask49_2513_28206)">
<mask id="mask50_2513_28206" style="mask-type:luminance" maskUnits="userSpaceOnUse" x="20" y="25" width="7" height="6">
<path d="M23.8169 25.125C22.2401 25.125 20.9648 26.3966 20.9648 27.965C20.9648 29.5372 22.2401 30.8088 23.8169 30.8088C25.3897 30.8088 26.665 29.5372 26.665 27.965C26.665 26.3966 25.3897 25.125 23.8169 25.125Z" fill="white"/>
</mask>
<g mask="url(#mask50_2513_28206)">
<path d="M20.9648 25.125H26.665V30.8088H20.9648V25.125Z" fill="#015096"/>
</g>
</g>
<mask id="mask51_2513_28206" style="mask-type:luminance" maskUnits="userSpaceOnUse" x="61" y="23" width="9" height="10">
<path d="M69.2544 23.6758H61.3398V32.5541H69.2544V23.6758Z" fill="white"/>
</mask>
<g mask="url(#mask51_2513_28206)">
<mask id="mask52_2513_28206" style="mask-type:luminance" maskUnits="userSpaceOnUse" x="61" y="24" width="8" height="8">
<path d="M61.5781 24.3164H68.9091V31.6264H61.5781V24.3164Z" fill="white"/>
</mask>
<g mask="url(#mask52_2513_28206)">
<mask id="mask53_2513_28206" style="mask-type:luminance" maskUnits="userSpaceOnUse" x="61" y="24" width="8" height="8">
<path d="M65.2456 24.3164C63.2206 24.3164 61.582 25.9503 61.582 27.9695C61.582 29.9887 63.2206 31.6264 65.2456 31.6264C67.2706 31.6264 68.913 29.9887 68.913 27.9695C68.913 25.9503 67.2706 24.3164 65.2456 24.3164Z" fill="white"/>
</mask>
<g mask="url(#mask53_2513_28206)">
<path d="M61.582 24.3164H68.913V31.6264H61.582V24.3164Z" fill="#015096"/>
</g>
</g>
</g>
<mask id="mask54_2513_28206" style="mask-type:luminance" maskUnits="userSpaceOnUse" x="51" y="72" width="8" height="8">
<path d="M51.5508 72.2441H58.3678V79.0454H51.5508V72.2441Z" fill="white"/>
</mask>
<g mask="url(#mask54_2513_28206)">
<mask id="mask55_2513_28206" style="mask-type:luminance" maskUnits="userSpaceOnUse" x="51" y="72" width="8" height="8">
<path d="M54.9593 72.2422C53.0773 72.2422 51.5508 73.7643 51.5508 75.6409C51.5508 77.5214 53.0773 79.0435 54.9593 79.0435C56.8413 79.0435 58.3678 77.5214 58.3678 75.6409C58.3678 73.7643 56.8413 72.2422 54.9593 72.2422Z" fill="white"/>
</mask>
<g mask="url(#mask55_2513_28206)">
<path d="M51.5508 72.2422H58.3678V79.0435H51.5508V72.2422Z" fill="#015096"/>
</g>
</g>
<mask id="mask56_2513_28206" style="mask-type:luminance" maskUnits="userSpaceOnUse" x="61" y="71" width="8" height="9">
<path d="M61.5781 71.9902H68.9091V79.3002H61.5781V71.9902Z" fill="white"/>
</mask>
<g mask="url(#mask56_2513_28206)">
<mask id="mask57_2513_28206" style="mask-type:luminance" maskUnits="userSpaceOnUse" x="61" y="71" width="8" height="9">
<path d="M65.2456 71.9922C63.2206 71.9922 61.582 73.6299 61.582 75.6452C61.582 77.6644 63.2206 79.3021 65.2456 79.3021C67.2706 79.3021 68.913 77.6644 68.913 75.6452C68.913 73.6299 67.2706 71.9922 65.2456 71.9922Z" fill="white"/>
</mask>
<g mask="url(#mask57_2513_28206)">
<path d="M61.582 71.9922H68.913V79.3021H61.582V71.9922Z" fill="#015096"/>
</g>
</g>
<mask id="mask58_2513_28206" style="mask-type:luminance" maskUnits="userSpaceOnUse" x="41" y="72" width="7" height="7">
<path d="M41.2656 72.375H47.8276V78.9181H41.2656V72.375Z" fill="white"/>
</mask>
<g mask="url(#mask58_2513_28206)">
<mask id="mask59_2513_28206" style="mask-type:luminance" maskUnits="userSpaceOnUse" x="41" y="72" width="7" height="7">
<path d="M44.5466 72.377C42.7341 72.377 41.2656 73.8451 41.2656 75.6485C41.2656 77.4558 42.7341 78.9201 44.5466 78.9201C46.3591 78.9201 47.8276 77.4558 47.8276 75.6485C47.8276 73.8451 46.3591 72.377 44.5466 72.377Z" fill="white"/>
</mask>
<g mask="url(#mask59_2513_28206)">
<path d="M41.2656 72.377H47.8276V78.9201H41.2656V72.377Z" fill="#015096"/>
</g>
</g>
<mask id="mask60_2513_28206" style="mask-type:luminance" maskUnits="userSpaceOnUse" x="31" y="72" width="7" height="7">
<path d="M31.0234 72.5898H37.1564V78.7052H31.0234V72.5898Z" fill="white"/>
</mask>
<g mask="url(#mask60_2513_28206)">
<mask id="mask61_2513_28206" style="mask-type:luminance" maskUnits="userSpaceOnUse" x="31" y="72" width="7" height="7">
<path d="M34.088 72.5918C32.3953 72.5918 31.0234 73.9598 31.0234 75.6476C31.0234 77.3392 32.3953 78.7072 34.088 78.7072C35.7807 78.7072 37.1564 77.3392 37.1564 75.6476C37.1564 73.9598 35.7807 72.5918 34.088 72.5918Z" fill="white"/>
</mask>
<g mask="url(#mask61_2513_28206)">
<path d="M31.0234 72.5918H37.1564V78.7072H31.0234V72.5918Z" fill="#015096"/>
</g>
</g>
<mask id="mask62_2513_28206" style="mask-type:luminance" maskUnits="userSpaceOnUse" x="20" y="72" width="7" height="7">
<path d="M20.9609 72.8047H26.6611V78.4885H20.9609V72.8047Z" fill="white"/>
</mask>
<g mask="url(#mask62_2513_28206)">
<mask id="mask63_2513_28206" style="mask-type:luminance" maskUnits="userSpaceOnUse" x="20" y="72" width="7" height="7">
<path d="M23.8169 72.8047C22.2401 72.8047 20.9648 74.0763 20.9648 75.6447C20.9648 77.2169 22.2401 78.4885 23.8169 78.4885C25.3897 78.4885 26.665 77.2169 26.665 75.6447C26.665 74.0763 25.3897 72.8047 23.8169 72.8047Z" fill="white"/>
</mask>
<g mask="url(#mask63_2513_28206)">
<path d="M20.9648 72.8047H26.665V78.4885H20.9648V72.8047Z" fill="#015096"/>
</g>
</g>
<mask id="mask64_2513_28206" style="mask-type:luminance" maskUnits="userSpaceOnUse" x="50" y="72" width="10" height="8">
<path d="M59.3648 72.0098H50.4609V79.9016H59.3648V72.0098Z" fill="white"/>
</mask>
<g mask="url(#mask64_2513_28206)">
<mask id="mask65_2513_28206" style="mask-type:luminance" maskUnits="userSpaceOnUse" x="51" y="72" width="8" height="8">
<path d="M51.5508 72.2422H58.3678V79.0435H51.5508V72.2422Z" fill="white"/>
</mask>
<g mask="url(#mask65_2513_28206)">
<mask id="mask66_2513_28206" style="mask-type:luminance" maskUnits="userSpaceOnUse" x="51" y="72" width="8" height="8">
<path d="M54.9593 72.2402C53.0773 72.2402 51.5508 73.7623 51.5508 75.639C51.5508 77.5194 53.0773 79.0415 54.9593 79.0415C56.8413 79.0415 58.3678 77.5194 58.3678 75.639C58.3678 73.7623 56.8413 72.2402 54.9593 72.2402Z" fill="white"/>
</mask>
<g mask="url(#mask66_2513_28206)">
<path d="M51.5508 72.2402H58.3678V79.0415H51.5508V72.2402Z" fill="#015096"/>
</g>
</g>
</g>
<mask id="mask67_2513_28206" style="mask-type:luminance" maskUnits="userSpaceOnUse" x="61" y="35" width="9" height="10">
<path d="M69.2544 35.5117H61.3398V44.39H69.2544V35.5117Z" fill="white"/>
</mask>
<g mask="url(#mask67_2513_28206)">
<mask id="mask68_2513_28206" style="mask-type:luminance" maskUnits="userSpaceOnUse" x="61" y="36" width="8" height="8">
<path d="M61.5781 36.416H68.9091V43.726H61.5781V36.416Z" fill="white"/>
</mask>
<g mask="url(#mask68_2513_28206)">
<mask id="mask69_2513_28206" style="mask-type:luminance" maskUnits="userSpaceOnUse" x="61" y="36" width="8" height="8">
<path d="M65.2456 36.416C63.2206 36.416 61.582 38.0537 61.582 40.0729C61.582 42.0921 63.2206 43.726 65.2456 43.726C67.2706 43.726 68.913 42.0921 68.913 40.0729C68.913 38.0537 67.2706 36.416 65.2456 36.416Z" fill="white"/>
</mask>
<g mask="url(#mask69_2513_28206)">
<path d="M61.582 36.416H68.913V43.726H61.582V36.416Z" fill="#015096"/>
</g>
</g>
</g>
<mask id="mask70_2513_28206" style="mask-type:luminance" maskUnits="userSpaceOnUse" x="61" y="47" width="9" height="10">
<path d="M69.2544 47.3516H61.3398V56.2299H69.2544V47.3516Z" fill="white"/>
</mask>
<g mask="url(#mask70_2513_28206)">
<mask id="mask71_2513_28206" style="mask-type:luminance" maskUnits="userSpaceOnUse" x="61" y="48" width="8" height="8">
<path d="M61.5781 48.2793H68.9091V55.5892H61.5781V48.2793Z" fill="white"/>
</mask>
<g mask="url(#mask71_2513_28206)">
<mask id="mask72_2513_28206" style="mask-type:luminance" maskUnits="userSpaceOnUse" x="61" y="48" width="8" height="8">
<path d="M65.2456 48.2812C63.2206 48.2812 61.582 49.9151 61.582 51.9343C61.582 53.9535 63.2206 55.5912 65.2456 55.5912C67.2706 55.5912 68.913 53.9535 68.913 51.9343C68.913 49.9151 67.2706 48.2812 65.2456 48.2812Z" fill="white"/>
</mask>
<g mask="url(#mask72_2513_28206)">
<path d="M61.582 48.2812H68.913V55.5912H61.582V48.2812Z" fill="#015096"/>
</g>
</g>
</g>
<mask id="mask73_2513_28206" style="mask-type:luminance" maskUnits="userSpaceOnUse" x="61" y="59" width="9" height="10">
<path d="M69.2544 59.1875H61.3398V68.0658H69.2544V59.1875Z" fill="white"/>
</mask>
<g mask="url(#mask73_2513_28206)">
<mask id="mask74_2513_28206" style="mask-type:luminance" maskUnits="userSpaceOnUse" x="61" y="60" width="8" height="8">
<path d="M61.5781 60.293H68.9091V67.6029H61.5781V60.293Z" fill="white"/>
</mask>
<g mask="url(#mask74_2513_28206)">
<mask id="mask75_2513_28206" style="mask-type:luminance" maskUnits="userSpaceOnUse" x="61" y="60" width="8" height="8">
<path d="M65.2456 60.293C63.2206 60.293 61.582 61.9268 61.582 63.946C61.582 65.9652 63.2206 67.6029 65.2456 67.6029C67.2706 67.6029 68.913 65.9652 68.913 63.946C68.913 61.9268 67.2706 60.293 65.2456 60.293Z" fill="white"/>
</mask>
<g mask="url(#mask75_2513_28206)">
<path d="M61.582 60.293H68.913V67.6029H61.582V60.293Z" fill="#015096"/>
</g>
</g>
</g>
<mask id="mask76_2513_28206" style="mask-type:luminance" maskUnits="userSpaceOnUse" x="61" y="71" width="9" height="9">
<path d="M69.2544 71.0273H61.3398V79.9056H69.2544V71.0273Z" fill="white"/>
</mask>
<g mask="url(#mask76_2513_28206)">
<mask id="mask77_2513_28206" style="mask-type:luminance" maskUnits="userSpaceOnUse" x="61" y="71" width="8" height="9">
<path d="M61.5781 71.9922H68.9091V79.3021H61.5781V71.9922Z" fill="white"/>
</mask>
<g mask="url(#mask77_2513_28206)">
<mask id="mask78_2513_28206" style="mask-type:luminance" maskUnits="userSpaceOnUse" x="61" y="71" width="8" height="9">
<path d="M65.2456 71.9941C63.2206 71.9941 61.582 73.6318 61.582 75.6472C61.582 77.6664 63.2206 79.3041 65.2456 79.3041C67.2706 79.3041 68.913 77.6664 68.913 75.6472C68.913 73.6318 67.2706 71.9941 65.2456 71.9941Z" fill="white"/>
</mask>
<g mask="url(#mask78_2513_28206)">
<path d="M61.582 71.9941H68.913V79.3041H61.582V71.9941Z" fill="#015096"/>
</g>
</g>
</g>
<mask id="mask79_2513_28206" style="mask-type:luminance" maskUnits="userSpaceOnUse" x="51" y="84" width="8" height="7">
<path d="M51.5508 84.084H58.3678V90.8814H51.5508V84.084Z" fill="white"/>
</mask>
<g mask="url(#mask79_2513_28206)">
<mask id="mask80_2513_28206" style="mask-type:luminance" maskUnits="userSpaceOnUse" x="51" y="84" width="8" height="7">
<path d="M54.9593 84.084C53.0773 84.084 51.5508 85.6061 51.5508 87.4827C51.5508 89.3593 53.0773 90.8814 54.9593 90.8814C56.8413 90.8814 58.3678 89.3593 58.3678 87.4827C58.3678 85.6061 56.8413 84.084 54.9593 84.084Z" fill="white"/>
</mask>
<g mask="url(#mask80_2513_28206)">
<path d="M51.5508 84.084H58.3678V90.8814H51.5508V84.084Z" fill="#015096"/>
</g>
</g>
<mask id="mask81_2513_28206" style="mask-type:luminance" maskUnits="userSpaceOnUse" x="41" y="84" width="7" height="7">
<path d="M41.2656 84.2109H47.8276V90.7541H41.2656V84.2109Z" fill="white"/>
</mask>
<g mask="url(#mask81_2513_28206)">
<mask id="mask82_2513_28206" style="mask-type:luminance" maskUnits="userSpaceOnUse" x="41" y="84" width="7" height="7">
<path d="M44.5466 84.2109C42.7341 84.2109 41.2656 85.6752 41.2656 87.4825C41.2656 89.2898 42.7341 90.7541 44.5466 90.7541C46.3591 90.7541 47.8276 89.2898 47.8276 87.4825C47.8276 85.6752 46.3591 84.2109 44.5466 84.2109Z" fill="white"/>
</mask>
<g mask="url(#mask82_2513_28206)">
<path d="M41.2656 84.2109H47.8276V90.7541H41.2656V84.2109Z" fill="#015096"/>
</g>
</g>
<mask id="mask83_2513_28206" style="mask-type:luminance" maskUnits="userSpaceOnUse" x="31" y="84" width="7" height="7">
<path d="M31.0234 84.4258H37.1564V90.5373H31.0234V84.4258Z" fill="white"/>
</mask>
<g mask="url(#mask83_2513_28206)">
<mask id="mask84_2513_28206" style="mask-type:luminance" maskUnits="userSpaceOnUse" x="31" y="84" width="7" height="7">
<path d="M34.088 84.4258C32.3953 84.4258 31.0234 85.7937 31.0234 87.4815C31.0234 89.1693 32.3953 90.5373 34.088 90.5373C35.7807 90.5373 37.1564 89.1693 37.1564 87.4815C37.1564 85.7937 35.7807 84.4258 34.088 84.4258Z" fill="white"/>
</mask>
<g mask="url(#mask84_2513_28206)">
<path d="M31.0234 84.4258H37.1564V90.5373H31.0234V84.4258Z" fill="#015096"/>
</g>
</g>
<mask id="mask85_2513_28206" style="mask-type:luminance" maskUnits="userSpaceOnUse" x="20" y="84" width="7" height="7">
<path d="M20.9609 84.6426H26.6611V90.3225H20.9609V84.6426Z" fill="white"/>
</mask>
<g mask="url(#mask85_2513_28206)">
<mask id="mask86_2513_28206" style="mask-type:luminance" maskUnits="userSpaceOnUse" x="20" y="84" width="7" height="7">
<path d="M23.8169 84.6426C22.2401 84.6426 20.9648 85.9142 20.9648 87.4826C20.9648 89.0509 22.2401 90.3225 23.8169 90.3225C25.3897 90.3225 26.665 89.0509 26.665 87.4826C26.665 85.9142 25.3897 84.6426 23.8169 84.6426Z" fill="white"/>
</mask>
<g mask="url(#mask86_2513_28206)">
<path d="M20.9648 84.6426H26.665V90.3225H20.9648V84.6426Z" fill="#015096"/>
</g>
</g>
<mask id="mask87_2513_28206" style="mask-type:luminance" maskUnits="userSpaceOnUse" x="10" y="84" width="7" height="7">
<path d="M10.9336 84.9434H16.027V90.0222H10.9336V84.9434Z" fill="white"/>
</mask>
<g mask="url(#mask87_2513_28206)">
<mask id="mask88_2513_28206" style="mask-type:luminance" maskUnits="userSpaceOnUse" x="10" y="84" width="7" height="7">
<path d="M13.4764 84.9434C12.0697 84.9434 10.9297 86.0801 10.9297 87.4828C10.9297 88.8854 12.0697 90.0222 13.4764 90.0222C14.8831 90.0222 16.0231 88.8854 16.0231 87.4828C16.0231 86.0801 14.8831 84.9434 13.4764 84.9434Z" fill="white"/>
</mask>
<g mask="url(#mask88_2513_28206)">
<path d="M10.9297 84.9434H16.0231V90.0222H10.9297V84.9434Z" fill="#015096"/>
</g>
</g>
<mask id="mask89_2513_28206" style="mask-type:luminance" maskUnits="userSpaceOnUse" x="50" y="83" width="10" height="9">
<path d="M59.3648 83.8496H50.4609V91.7414H59.3648V83.8496Z" fill="white"/>
</mask>
<g mask="url(#mask89_2513_28206)">
<mask id="mask90_2513_28206" style="mask-type:luminance" maskUnits="userSpaceOnUse" x="51" y="84" width="8" height="7">
<path d="M51.5508 84.084H58.3678V90.8814H51.5508V84.084Z" fill="white"/>
</mask>
<g mask="url(#mask90_2513_28206)">
<mask id="mask91_2513_28206" style="mask-type:luminance" maskUnits="userSpaceOnUse" x="51" y="84" width="8" height="7">
<path d="M54.9593 84.084C53.0773 84.084 51.5508 85.6061 51.5508 87.4827C51.5508 89.3593 53.0773 90.8814 54.9593 90.8814C56.8413 90.8814 58.3678 89.3593 58.3678 87.4827C58.3678 85.6061 56.8413 84.084 54.9593 84.084Z" fill="white"/>
</mask>
<g mask="url(#mask91_2513_28206)">
<path d="M51.5508 84.084H58.3678V90.8814H51.5508V84.084Z" fill="#015096"/>
</g>
</g>
</g>
<mask id="mask92_2513_28206" style="mask-type:luminance" maskUnits="userSpaceOnUse" x="50" y="60" width="10" height="9">
<path d="M59.3648 60.1758H50.4609V68.0676H59.3648V60.1758Z" fill="white"/>
</mask>
<g mask="url(#mask92_2513_28206)">
<mask id="mask93_2513_28206" style="mask-type:luminance" maskUnits="userSpaceOnUse" x="51" y="60" width="8" height="8">
<path d="M51.5273 60.5488H58.3444V67.3463H51.5273V60.5488Z" fill="white"/>
</mask>
<g mask="url(#mask93_2513_28206)">
<mask id="mask94_2513_28206" style="mask-type:luminance" maskUnits="userSpaceOnUse" x="51" y="60" width="8" height="8">
<path d="M54.9359 60.5488C53.0538 60.5488 51.5273 62.0709 51.5273 63.9476C51.5273 65.8242 53.0538 67.3463 54.9359 67.3463C56.8179 67.3463 58.3444 65.8242 58.3444 63.9476C58.3444 62.0709 56.8179 60.5488 54.9359 60.5488Z" fill="white"/>
</mask>
<g mask="url(#mask94_2513_28206)">
<path d="M51.5273 60.5488H58.3444V67.3463H51.5273V60.5488Z" fill="#015096"/>
</g>
</g>
</g>
<mask id="mask95_2513_28206" style="mask-type:luminance" maskUnits="userSpaceOnUse" x="50" y="48" width="10" height="9">
<path d="M59.3648 48.3359H50.4609V56.2278H59.3648V48.3359Z" fill="white"/>
</mask>
<g mask="url(#mask95_2513_28206)">
<mask id="mask96_2513_28206" style="mask-type:luminance" maskUnits="userSpaceOnUse" x="51" y="48" width="8" height="8">
<path d="M51.5273 48.5312H58.3444V55.3287H51.5273V48.5312Z" fill="white"/>
</mask>
<g mask="url(#mask96_2513_28206)">
<mask id="mask97_2513_28206" style="mask-type:luminance" maskUnits="userSpaceOnUse" x="51" y="48" width="8" height="8">
<path d="M54.9359 48.5293C53.0538 48.5293 51.5273 50.0514 51.5273 51.928C51.5273 53.8046 53.0538 55.3267 54.9359 55.3267C56.8179 55.3267 58.3444 53.8046 58.3444 51.928C58.3444 50.0514 56.8179 48.5293 54.9359 48.5293Z" fill="white"/>
</mask>
<g mask="url(#mask97_2513_28206)">
<path d="M51.5273 48.5293H58.3444V55.3267H51.5273V48.5293Z" fill="#015096"/>
</g>
</g>
</g>
<mask id="mask98_2513_28206" style="mask-type:luminance" maskUnits="userSpaceOnUse" x="50" y="36" width="10" height="9">
<path d="M59.3648 36.5H50.4609V44.3918H59.3648V36.5Z" fill="white"/>
</mask>
<g mask="url(#mask98_2513_28206)">
<mask id="mask99_2513_28206" style="mask-type:luminance" maskUnits="userSpaceOnUse" x="51" y="36" width="8" height="8">
<path d="M51.5508 36.6758H58.3678V43.4732H51.5508V36.6758Z" fill="white"/>
</mask>
<g mask="url(#mask99_2513_28206)">
<mask id="mask100_2513_28206" style="mask-type:luminance" maskUnits="userSpaceOnUse" x="51" y="36" width="8" height="8">
<path d="M54.9593 36.6758C53.0773 36.6758 51.5508 38.1979 51.5508 40.0745C51.5508 41.9511 53.0773 43.4732 54.9593 43.4732C56.8413 43.4732 58.3678 41.9511 58.3678 40.0745C58.3678 38.1979 56.8413 36.6758 54.9593 36.6758Z" fill="white"/>
</mask>
<g mask="url(#mask100_2513_28206)">
<path d="M51.5508 36.6758H58.3678V43.4732H51.5508V36.6758Z" fill="#015096"/>
</g>
</g>
</g>
<mask id="mask101_2513_28206" style="mask-type:luminance" maskUnits="userSpaceOnUse" x="50" y="23" width="10" height="10">
<path d="M59.3648 23.6758H50.4609V32.5541H59.3648V23.6758Z" fill="white"/>
</mask>
<g mask="url(#mask101_2513_28206)">
<mask id="mask102_2513_28206" style="mask-type:luminance" maskUnits="userSpaceOnUse" x="51" y="24" width="8" height="8">
<path d="M51.5273 24.5664H58.3444V31.3639H51.5273V24.5664Z" fill="white"/>
</mask>
<g mask="url(#mask102_2513_28206)">
<mask id="mask103_2513_28206" style="mask-type:luminance" maskUnits="userSpaceOnUse" x="51" y="24" width="8" height="8">
<path d="M54.9359 24.5645C53.0538 24.5645 51.5273 26.0866 51.5273 27.9632C51.5273 29.8398 53.0538 31.3619 54.9359 31.3619C56.8179 31.3619 58.3444 29.8398 58.3444 27.9632C58.3444 26.0866 56.8179 24.5645 54.9359 24.5645Z" fill="white"/>
</mask>
<g mask="url(#mask103_2513_28206)">
<path d="M51.5273 24.5645H58.3444V31.3619H51.5273V24.5645Z" fill="#015096"/>
</g>
</g>
</g>
<mask id="mask104_2513_28206" style="mask-type:luminance" maskUnits="userSpaceOnUse" x="40" y="23" width="9" height="9">
<path d="M48.477 23.6758H40.5625V31.5676H48.477V23.6758Z" fill="white"/>
</mask>
<g mask="url(#mask104_2513_28206)">
<mask id="mask105_2513_28206" style="mask-type:luminance" maskUnits="userSpaceOnUse" x="41" y="24" width="7" height="8">
<path d="M41.2656 24.6992H47.8276V31.2423H41.2656V24.6992Z" fill="white"/>
</mask>
<g mask="url(#mask105_2513_28206)">
<mask id="mask106_2513_28206" style="mask-type:luminance" maskUnits="userSpaceOnUse" x="41" y="24" width="7" height="8">
<path d="M44.5505 24.6992C42.738 24.6992 41.2695 26.1635 41.2695 27.9708C41.2695 29.778 42.738 31.2423 44.5505 31.2423C46.363 31.2423 47.8315 29.778 47.8315 27.9708C47.8315 26.1635 46.363 24.6992 44.5505 24.6992Z" fill="white"/>
</mask>
<g mask="url(#mask106_2513_28206)">
<path d="M41.2695 24.6992H47.8315V31.2423H41.2695V24.6992Z" fill="#015096"/>
</g>
</g>
</g>
<mask id="mask107_2513_28206" style="mask-type:luminance" maskUnits="userSpaceOnUse" x="40" y="36" width="9" height="8">
<path d="M48.477 36.5H40.5625V43.4053H48.477V36.5Z" fill="white"/>
</mask>
<g mask="url(#mask107_2513_28206)">
<mask id="mask108_2513_28206" style="mask-type:luminance" maskUnits="userSpaceOnUse" x="41" y="36" width="7" height="8">
<path d="M41.2617 36.8027H47.8237V43.3459H41.2617V36.8027Z" fill="white"/>
</mask>
<g mask="url(#mask108_2513_28206)">
<mask id="mask109_2513_28206" style="mask-type:luminance" maskUnits="userSpaceOnUse" x="41" y="36" width="7" height="8">
<path d="M44.5427 36.8027C42.7302 36.8027 41.2617 38.267 41.2617 40.0743C41.2617 41.8815 42.7302 43.3459 44.5427 43.3459C46.3552 43.3459 47.8237 41.8815 47.8237 40.0743C47.8237 38.267 46.3552 36.8027 44.5427 36.8027Z" fill="white"/>
</mask>
<g mask="url(#mask109_2513_28206)">
<path d="M41.2617 36.8027H47.8237V43.3459H41.2617V36.8027Z" fill="#015096"/>
</g>
</g>
</g>
<mask id="mask110_2513_28206" style="mask-type:luminance" maskUnits="userSpaceOnUse" x="40" y="72" width="9" height="8">
<path d="M48.477 72.0098H40.5625V79.9016H48.477V72.0098Z" fill="white"/>
</mask>
<g mask="url(#mask110_2513_28206)">
<mask id="mask111_2513_28206" style="mask-type:luminance" maskUnits="userSpaceOnUse" x="41" y="72" width="7" height="7">
<path d="M41.2656 72.373H47.8276V78.9162H41.2656V72.373Z" fill="white"/>
</mask>
<g mask="url(#mask111_2513_28206)">
<mask id="mask112_2513_28206" style="mask-type:luminance" maskUnits="userSpaceOnUse" x="41" y="72" width="7" height="7">
<path d="M44.5505 72.375C42.738 72.375 41.2695 73.8432 41.2695 75.6466C41.2695 77.4538 42.738 78.9181 44.5505 78.9181C46.363 78.9181 47.8315 77.4538 47.8315 75.6466C47.8315 73.8432 46.363 72.375 44.5505 72.375Z" fill="white"/>
</mask>
<g mask="url(#mask112_2513_28206)">
<path d="M41.2695 72.375H47.8315V78.9181H41.2695V72.375Z" fill="#015096"/>
</g>
</g>
</g>
<mask id="mask113_2513_28206" style="mask-type:luminance" maskUnits="userSpaceOnUse" x="40" y="83" width="9" height="9">
<path d="M48.477 83.8496H40.5625V91.7414H48.477V83.8496Z" fill="white"/>
</mask>
<g mask="url(#mask113_2513_28206)">
<mask id="mask114_2513_28206" style="mask-type:luminance" maskUnits="userSpaceOnUse" x="41" y="84" width="7" height="7">
<path d="M41.2617 84.2109H47.8237V90.7541H41.2617V84.2109Z" fill="white"/>
</mask>
<g mask="url(#mask114_2513_28206)">
<mask id="mask115_2513_28206" style="mask-type:luminance" maskUnits="userSpaceOnUse" x="41" y="84" width="7" height="7">
<path d="M44.5427 84.2109C42.7302 84.2109 41.2617 85.6752 41.2617 87.4825C41.2617 89.2898 42.7302 90.7541 44.5427 90.7541C46.3552 90.7541 47.8237 89.2898 47.8237 87.4825C47.8237 85.6752 46.3552 84.2109 44.5427 84.2109Z" fill="white"/>
</mask>
<g mask="url(#mask115_2513_28206)">
<path d="M41.2617 84.2109H47.8237V90.7541H41.2617V84.2109Z" fill="#015096"/>
</g>
</g>
</g>
<mask id="mask116_2513_28206" style="mask-type:luminance" maskUnits="userSpaceOnUse" x="41" y="96" width="7" height="7">
<path d="M41.2656 96.1191H47.8276V102.662H41.2656V96.1191Z" fill="white"/>
</mask>
<g mask="url(#mask116_2513_28206)">
<mask id="mask117_2513_28206" style="mask-type:luminance" maskUnits="userSpaceOnUse" x="41" y="96" width="7" height="7">
<path d="M44.5466 96.1211C42.7341 96.1211 41.2656 97.5892 41.2656 99.3927C41.2656 101.2 42.7341 102.664 44.5466 102.664C46.3591 102.664 47.8276 101.2 47.8276 99.3927C47.8276 97.5892 46.3591 96.1211 44.5466 96.1211Z" fill="white"/>
</mask>
<g mask="url(#mask117_2513_28206)">
<path d="M41.2656 96.1211H47.8276V102.664H41.2656V96.1211Z" fill="#015096"/>
</g>
</g>
<mask id="mask118_2513_28206" style="mask-type:luminance" maskUnits="userSpaceOnUse" x="31" y="96" width="7" height="7">
<path d="M31.0234 96.5508H37.1564V102.662H31.0234V96.5508Z" fill="white"/>
</mask>
<g mask="url(#mask118_2513_28206)">
<mask id="mask119_2513_28206" style="mask-type:luminance" maskUnits="userSpaceOnUse" x="31" y="96" width="7" height="7">
<path d="M34.088 96.5508C32.3953 96.5508 31.0234 97.9187 31.0234 99.6065C31.0234 101.294 32.3953 102.662 34.088 102.662C35.7807 102.662 37.1564 101.294 37.1564 99.6065C37.1564 97.9187 35.7807 96.5508 34.088 96.5508Z" fill="white"/>
</mask>
<g mask="url(#mask119_2513_28206)">
<path d="M31.0234 96.5508H37.1564V102.662H31.0234V96.5508Z" fill="#015096"/>
</g>
</g>
<mask id="mask120_2513_28206" style="mask-type:luminance" maskUnits="userSpaceOnUse" x="20" y="96" width="7" height="7">
<path d="M20.9609 96.7637H26.6611V102.447H20.9609V96.7637Z" fill="white"/>
</mask>
<g mask="url(#mask120_2513_28206)">
<mask id="mask121_2513_28206" style="mask-type:luminance" maskUnits="userSpaceOnUse" x="20" y="96" width="7" height="7">
<path d="M23.8169 96.7637C22.2401 96.7637 20.9648 98.0353 20.9648 99.6036C20.9648 101.172 22.2401 102.447 23.8169 102.447C25.3897 102.447 26.665 101.172 26.665 99.6036C26.665 98.0353 25.3897 96.7637 23.8169 96.7637Z" fill="white"/>
</mask>
<g mask="url(#mask121_2513_28206)">
<path d="M20.9648 96.7637H26.665V102.447H20.9648V96.7637Z" fill="#015096"/>
</g>
</g>
<mask id="mask122_2513_28206" style="mask-type:luminance" maskUnits="userSpaceOnUse" x="10" y="97" width="7" height="6">
<path d="M10.9336 97.0645H16.027V102.143H10.9336V97.0645Z" fill="white"/>
</mask>
<g mask="url(#mask122_2513_28206)">
<mask id="mask123_2513_28206" style="mask-type:luminance" maskUnits="userSpaceOnUse" x="10" y="97" width="7" height="6">
<path d="M13.4764 97.0664C12.0697 97.0664 10.9297 98.2032 10.9297 99.6058C10.9297 101.008 12.0697 102.145 13.4764 102.145C14.8831 102.145 16.0231 101.008 16.0231 99.6058C16.0231 98.2032 14.8831 97.0664 13.4764 97.0664Z" fill="white"/>
</mask>
<g mask="url(#mask123_2513_28206)">
<path d="M10.9297 97.0664H16.0231V102.145H10.9297V97.0664Z" fill="#015096"/>
</g>
</g>
<mask id="mask124_2513_28206" style="mask-type:luminance" maskUnits="userSpaceOnUse" x="0" y="97" width="6" height="5">
<path d="M0.898438 97.2246H5.67112V101.984H0.898438V97.2246Z" fill="white"/>
</mask>
<g mask="url(#mask124_2513_28206)">
<mask id="mask125_2513_28206" style="mask-type:luminance" maskUnits="userSpaceOnUse" x="0" y="97" width="6" height="5">
<path d="M3.29062 97.2227C1.97282 97.2227 0.902344 98.2862 0.902344 99.6002C0.902344 100.914 1.97282 101.982 3.29062 101.982C4.60842 101.982 5.67503 100.914 5.67503 99.6002C5.67503 98.2862 4.60842 97.2227 3.29062 97.2227Z" fill="white"/>
</mask>
<g mask="url(#mask125_2513_28206)">
<path d="M0.902344 97.2227H5.67503V101.982H0.902344V97.2227Z" fill="#015096"/>
</g>
</g>
<mask id="mask126_2513_28206" style="mask-type:luminance" maskUnits="userSpaceOnUse" x="40" y="95" width="9" height="9">
<path d="M48.477 95.6855H40.5625V103.577H48.477V95.6855Z" fill="white"/>
</mask>
<g mask="url(#mask126_2513_28206)">
<mask id="mask127_2513_28206" style="mask-type:luminance" maskUnits="userSpaceOnUse" x="41" y="96" width="7" height="7">
<path d="M41.2656 96.1172H47.8276V102.66H41.2656V96.1172Z" fill="white"/>
</mask>
<g mask="url(#mask127_2513_28206)">
<mask id="mask128_2513_28206" style="mask-type:luminance" maskUnits="userSpaceOnUse" x="41" y="96" width="7" height="7">
<path d="M44.5505 96.1211C42.738 96.1211 41.2695 97.5892 41.2695 99.3927C41.2695 101.2 42.738 102.664 44.5505 102.664C46.363 102.664 47.8315 101.2 47.8315 99.3927C47.8315 97.5892 46.363 96.1211 44.5505 96.1211Z" fill="white"/>
</mask>
<g mask="url(#mask128_2513_28206)">
<path d="M41.2695 96.1211H47.8315V102.664H41.2695V96.1211Z" fill="#015096"/>
</g>
</g>
</g>
<mask id="mask129_2513_28206" style="mask-type:luminance" maskUnits="userSpaceOnUse" x="30" y="95" width="8" height="9">
<path d="M37.5971 95.6855H30.6719V103.577H37.5971V95.6855Z" fill="white"/>
</mask>
<g mask="url(#mask129_2513_28206)">
<mask id="mask130_2513_28206" style="mask-type:luminance" maskUnits="userSpaceOnUse" x="31" y="96" width="7" height="7">
<path d="M31.0195 96.5508H37.1525V102.662H31.0195V96.5508Z" fill="white"/>
</mask>
<g mask="url(#mask130_2513_28206)">
<mask id="mask131_2513_28206" style="mask-type:luminance" maskUnits="userSpaceOnUse" x="31" y="96" width="7" height="7">
<path d="M34.0841 96.5527C32.3914 96.5527 31.0195 97.9207 31.0195 99.6085C31.0195 101.296 32.3914 102.664 34.0841 102.664C35.7768 102.664 37.1525 101.296 37.1525 99.6085C37.1525 97.9207 35.7768 96.5527 34.0841 96.5527Z" fill="white"/>
</mask>
<g mask="url(#mask131_2513_28206)">
<path d="M31.0195 96.5527H37.1525V102.664H31.0195V96.5527Z" fill="#015096"/>
</g>
</g>
</g>
<mask id="mask132_2513_28206" style="mask-type:luminance" maskUnits="userSpaceOnUse" x="30" y="83" width="8" height="8">
<path d="M37.5971 83.8496H30.6719V90.755H37.5971V83.8496Z" fill="white"/>
</mask>
<g mask="url(#mask132_2513_28206)">
<mask id="mask133_2513_28206" style="mask-type:luminance" maskUnits="userSpaceOnUse" x="31" y="84" width="7" height="7">
<path d="M31.0195 84.4277H37.1525V90.5393H31.0195V84.4277Z" fill="white"/>
</mask>
<g mask="url(#mask133_2513_28206)">
<mask id="mask134_2513_28206" style="mask-type:luminance" maskUnits="userSpaceOnUse" x="31" y="84" width="7" height="7">
<path d="M34.0841 84.4277C32.3914 84.4277 31.0195 85.7957 31.0195 87.4835C31.0195 89.1713 32.3914 90.5393 34.0841 90.5393C35.7768 90.5393 37.1525 89.1713 37.1525 87.4835C37.1525 85.7957 35.7768 84.4277 34.0841 84.4277Z" fill="white"/>
</mask>
<g mask="url(#mask134_2513_28206)">
<path d="M31.0195 84.4277H37.1525V90.5393H31.0195V84.4277Z" fill="#015096"/>
</g>
</g>
</g>
<mask id="mask135_2513_28206" style="mask-type:luminance" maskUnits="userSpaceOnUse" x="30" y="72" width="8" height="7">
<path d="M37.5971 72.0098H30.6719V78.9151H37.5971V72.0098Z" fill="white"/>
</mask>
<g mask="url(#mask135_2513_28206)">
<mask id="mask136_2513_28206" style="mask-type:luminance" maskUnits="userSpaceOnUse" x="31" y="72" width="7" height="7">
<path d="M31.0195 72.5898H37.1525V78.7052H31.0195V72.5898Z" fill="white"/>
</mask>
<g mask="url(#mask136_2513_28206)">
<mask id="mask137_2513_28206" style="mask-type:luminance" maskUnits="userSpaceOnUse" x="31" y="72" width="7" height="7">
<path d="M34.0841 72.5918C32.3914 72.5918 31.0195 73.9598 31.0195 75.6476C31.0195 77.3392 32.3914 78.7072 34.0841 78.7072C35.7768 78.7072 37.1525 77.3392 37.1525 75.6476C37.1525 73.9598 35.7768 72.5918 34.0841 72.5918Z" fill="white"/>
</mask>
<g mask="url(#mask137_2513_28206)">
<path d="M31.0195 72.5918H37.1525V78.7072H31.0195V72.5918Z" fill="#015096"/>
</g>
</g>
</g>
<mask id="mask138_2513_28206" style="mask-type:luminance" maskUnits="userSpaceOnUse" x="30" y="60" width="8" height="9">
<path d="M37.5971 60.1758H30.6719V68.0676H37.5971V60.1758Z" fill="white"/>
</mask>
<g mask="url(#mask138_2513_28206)">
<mask id="mask139_2513_28206" style="mask-type:luminance" maskUnits="userSpaceOnUse" x="31" y="60" width="7" height="8">
<path d="M31.0195 60.8926H37.1525V67.008H31.0195V60.8926Z" fill="white"/>
</mask>
<g mask="url(#mask139_2513_28206)">
<mask id="mask140_2513_28206" style="mask-type:luminance" maskUnits="userSpaceOnUse" x="31" y="60" width="7" height="8">
<path d="M34.0841 60.8926C32.3914 60.8926 31.0195 62.2605 31.0195 63.9483C31.0195 65.6361 32.3914 67.008 34.0841 67.008C35.7768 67.008 37.1525 65.6361 37.1525 63.9483C37.1525 62.2605 35.7768 60.8926 34.0841 60.8926Z" fill="white"/>
</mask>
<g mask="url(#mask140_2513_28206)">
<path d="M31.0195 60.8926H37.1525V67.008H31.0195V60.8926Z" fill="#015096"/>
</g>
</g>
</g>
<mask id="mask141_2513_28206" style="mask-type:luminance" maskUnits="userSpaceOnUse" x="30" y="36" width="8" height="8">
<path d="M37.5971 36.5H30.6719V43.4053H37.5971V36.5Z" fill="white"/>
</mask>
<g mask="url(#mask141_2513_28206)">
<mask id="mask142_2513_28206" style="mask-type:luminance" maskUnits="userSpaceOnUse" x="31" y="37" width="7" height="7">
<path d="M31.0195 37.0195H37.1525V43.1311H31.0195V37.0195Z" fill="white"/>
</mask>
<g mask="url(#mask142_2513_28206)">
<mask id="mask143_2513_28206" style="mask-type:luminance" maskUnits="userSpaceOnUse" x="31" y="37" width="7" height="7">
<path d="M34.0841 37.0195C32.3914 37.0195 31.0195 38.3875 31.0195 40.0753C31.0195 41.7631 32.3914 43.1311 34.0841 43.1311C35.7768 43.1311 37.1525 41.7631 37.1525 40.0753C37.1525 38.3875 35.7768 37.0195 34.0841 37.0195Z" fill="white"/>
</mask>
<g mask="url(#mask143_2513_28206)">
<path d="M31.0195 37.0195H37.1525V43.1311H31.0195V37.0195Z" fill="#015096"/>
</g>
</g>
</g>
<mask id="mask144_2513_28206" style="mask-type:luminance" maskUnits="userSpaceOnUse" x="30" y="24" width="8" height="8">
<path d="M37.5971 24.6602H30.6719V31.5655H37.5971V24.6602Z" fill="white"/>
</mask>
<g mask="url(#mask144_2513_28206)">
<mask id="mask145_2513_28206" style="mask-type:luminance" maskUnits="userSpaceOnUse" x="31" y="24" width="7" height="8">
<path d="M31.0195 24.9121H37.1525V31.0275H31.0195V24.9121Z" fill="white"/>
</mask>
<g mask="url(#mask145_2513_28206)">
<mask id="mask146_2513_28206" style="mask-type:luminance" maskUnits="userSpaceOnUse" x="31" y="24" width="7" height="8">
<path d="M34.0841 24.9141C32.3914 24.9141 31.0195 26.282 31.0195 27.9698C31.0195 29.6576 32.3914 31.0295 34.0841 31.0295C35.7768 31.0295 37.1525 29.6576 37.1525 27.9698C37.1525 26.282 35.7768 24.9141 34.0841 24.9141Z" fill="white"/>
</mask>
<g mask="url(#mask146_2513_28206)">
<path d="M31.0195 24.9141H37.1525V31.0295H31.0195V24.9141Z" fill="#015096"/>
</g>
</g>
</g>
<mask id="mask147_2513_28206" style="mask-type:luminance" maskUnits="userSpaceOnUse" x="31" y="13" width="7" height="7">
<path d="M31.0234 13.0449H37.1564V19.1565H31.0234V13.0449Z" fill="white"/>
</mask>
<g mask="url(#mask147_2513_28206)">
<mask id="mask148_2513_28206" style="mask-type:luminance" maskUnits="userSpaceOnUse" x="31" y="13" width="7" height="7">
<path d="M34.088 13.0449C32.3953 13.0449 31.0234 14.4129 31.0234 16.1007C31.0234 17.7885 32.3953 19.1565 34.088 19.1565C35.7807 19.1565 37.1564 17.7885 37.1564 16.1007C37.1564 14.4129 35.7807 13.0449 34.088 13.0449Z" fill="white"/>
</mask>
<g mask="url(#mask148_2513_28206)">
<path d="M31.0234 13.0449H37.1564V19.1565H31.0234V13.0449Z" fill="#015096"/>
</g>
</g>
<mask id="mask149_2513_28206" style="mask-type:luminance" maskUnits="userSpaceOnUse" x="41" y="12" width="7" height="8">
<path d="M41.2656 12.8301H47.8276V19.3732H41.2656V12.8301Z" fill="white"/>
</mask>
<g mask="url(#mask149_2513_28206)">
<mask id="mask150_2513_28206" style="mask-type:luminance" maskUnits="userSpaceOnUse" x="41" y="12" width="7" height="8">
<path d="M44.5466 12.832C42.7341 12.832 41.2656 14.2963 41.2656 16.1036C41.2656 17.9108 42.7341 19.3751 44.5466 19.3751C46.3591 19.3751 47.8276 17.9108 47.8276 16.1036C47.8276 14.2963 46.3591 12.832 44.5466 12.832Z" fill="white"/>
</mask>
<g mask="url(#mask150_2513_28206)">
<path d="M41.2656 12.832H47.8276V19.3751H41.2656V12.832Z" fill="#015096"/>
</g>
</g>
<mask id="mask151_2513_28206" style="mask-type:luminance" maskUnits="userSpaceOnUse" x="51" y="12" width="8" height="8">
<path d="M51.5273 12.7031H58.3444V19.5006H51.5273V12.7031Z" fill="white"/>
</mask>
<g mask="url(#mask151_2513_28206)">
<mask id="mask152_2513_28206" style="mask-type:luminance" maskUnits="userSpaceOnUse" x="51" y="12" width="8" height="8">
<path d="M54.9359 12.7051C53.0538 12.7051 51.5273 14.2272 51.5273 16.1038C51.5273 17.9804 53.0538 19.5025 54.9359 19.5025C56.8179 19.5025 58.3444 17.9804 58.3444 16.1038C58.3444 14.2272 56.8179 12.7051 54.9359 12.7051Z" fill="white"/>
</mask>
<g mask="url(#mask152_2513_28206)">
<path d="M51.5273 12.7051H58.3444V19.5025H51.5273V12.7051Z" fill="#015096"/>
</g>
</g>
<mask id="mask153_2513_28206" style="mask-type:luminance" maskUnits="userSpaceOnUse" x="20" y="13" width="7" height="6">
<path d="M20.9609 13.2617H26.6611V18.9417H20.9609V13.2617Z" fill="white"/>
</mask>
<g mask="url(#mask153_2513_28206)">
<mask id="mask154_2513_28206" style="mask-type:luminance" maskUnits="userSpaceOnUse" x="20" y="13" width="7" height="6">
<path d="M23.8169 13.2617C22.2401 13.2617 20.9648 14.5333 20.9648 16.1017C20.9648 17.67 22.2401 18.9417 23.8169 18.9417C25.3897 18.9417 26.665 17.67 26.665 16.1017C26.665 14.5333 25.3897 13.2617 23.8169 13.2617Z" fill="white"/>
</mask>
<g mask="url(#mask154_2513_28206)">
<path d="M20.9648 13.2617H26.665V18.9417H20.9648V13.2617Z" fill="#015096"/>
</g>
</g>
<mask id="mask155_2513_28206" style="mask-type:luminance" maskUnits="userSpaceOnUse" x="10" y="13" width="7" height="6">
<path d="M10.9336 13.5605H16.027V18.6394H10.9336V13.5605Z" fill="white"/>
</mask>
<g mask="url(#mask155_2513_28206)">
<mask id="mask156_2513_28206" style="mask-type:luminance" maskUnits="userSpaceOnUse" x="10" y="13" width="7" height="6">
<path d="M13.4764 13.5605C12.0697 13.5605 10.9297 14.6973 10.9297 16.1C10.9297 17.5026 12.0697 18.6394 13.4764 18.6394C14.8831 18.6394 16.0231 17.5026 16.0231 16.1C16.0231 14.6973 14.8831 13.5605 13.4764 13.5605Z" fill="white"/>
</mask>
<g mask="url(#mask156_2513_28206)">
<path d="M10.9297 13.5605H16.0231V18.6394H10.9297V13.5605Z" fill="#015096"/>
</g>
</g>
<mask id="mask157_2513_28206" style="mask-type:luminance" maskUnits="userSpaceOnUse" x="30" y="12" width="8" height="8">
<path d="M37.5971 12.8242H30.6719V19.7296H37.5971V12.8242Z" fill="white"/>
</mask>
<g mask="url(#mask157_2513_28206)">
<mask id="mask158_2513_28206" style="mask-type:luminance" maskUnits="userSpaceOnUse" x="31" y="13" width="7" height="7">
<path d="M31.0195 13.0488H37.1525V19.1604H31.0195V13.0488Z" fill="white"/>
</mask>
<g mask="url(#mask158_2513_28206)">
<mask id="mask159_2513_28206" style="mask-type:luminance" maskUnits="userSpaceOnUse" x="31" y="13" width="7" height="7">
<path d="M34.0841 13.0488C32.3914 13.0488 31.0195 14.4168 31.0195 16.1046C31.0195 17.7924 32.3914 19.1604 34.0841 19.1604C35.7768 19.1604 37.1525 17.7924 37.1525 16.1046C37.1525 14.4168 35.7768 13.0488 34.0841 13.0488Z" fill="white"/>
</mask>
<g mask="url(#mask159_2513_28206)">
<path d="M31.0195 13.0488H37.1525V19.1604H31.0195V13.0488Z" fill="#015096"/>
</g>
</g>
</g>
<mask id="mask160_2513_28206" style="mask-type:luminance" maskUnits="userSpaceOnUse" x="40" y="11" width="9" height="9">
<path d="M48.477 11.8359H40.5625V19.7278H48.477V11.8359Z" fill="white"/>
</mask>
<g mask="url(#mask160_2513_28206)">
<mask id="mask161_2513_28206" style="mask-type:luminance" maskUnits="userSpaceOnUse" x="41" y="12" width="7" height="8">
<path d="M41.2656 12.832H47.8276V19.3752H41.2656V12.832Z" fill="white"/>
</mask>
<g mask="url(#mask161_2513_28206)">
<mask id="mask162_2513_28206" style="mask-type:luminance" maskUnits="userSpaceOnUse" x="41" y="12" width="7" height="8">
<path d="M44.5505 12.832C42.738 12.832 41.2695 14.2963 41.2695 16.1036C41.2695 17.9108 42.738 19.3752 44.5505 19.3752C46.363 19.3752 47.8315 17.9108 47.8315 16.1036C47.8315 14.2963 46.363 12.832 44.5505 12.832Z" fill="white"/>
</mask>
<g mask="url(#mask162_2513_28206)">
<path d="M41.2695 12.832H47.8315V19.3752H41.2695V12.832Z" fill="#015096"/>
</g>
</g>
</g>
<mask id="mask163_2513_28206" style="mask-type:luminance" maskUnits="userSpaceOnUse" x="41" y="1" width="7" height="7">
<path d="M41.2656 1.05273H47.8276V7.59585H41.2656V1.05273Z" fill="white"/>
</mask>
<g mask="url(#mask163_2513_28206)">
<mask id="mask164_2513_28206" style="mask-type:luminance" maskUnits="userSpaceOnUse" x="41" y="1" width="7" height="7">
<path d="M44.5466 1.05273C42.7341 1.05273 41.2656 2.51704 41.2656 4.32429C41.2656 6.13155 42.7341 7.59585 44.5466 7.59585C46.3591 7.59585 47.8276 6.13155 47.8276 4.32429C47.8276 2.51704 46.3591 1.05273 44.5466 1.05273Z" fill="white"/>
</mask>
<g mask="url(#mask164_2513_28206)">
<path d="M41.2656 1.05273H47.8276V7.59585H41.2656V1.05273Z" fill="#015096"/>
</g>
</g>
<mask id="mask165_2513_28206" style="mask-type:luminance" maskUnits="userSpaceOnUse" x="31" y="1" width="7" height="7">
<path d="M31.0234 1.26953H37.1564V7.38492H31.0234V1.26953Z" fill="white"/>
</mask>
<g mask="url(#mask165_2513_28206)">
<mask id="mask166_2513_28206" style="mask-type:luminance" maskUnits="userSpaceOnUse" x="31" y="1" width="7" height="7">
<path d="M34.088 1.26953C32.3953 1.26953 31.0234 2.6375 31.0234 4.3253C31.0234 6.0131 32.3953 7.38492 34.088 7.38492C35.7807 7.38492 37.1564 6.0131 37.1564 4.3253C37.1564 2.6375 35.7807 1.26953 34.088 1.26953Z" fill="white"/>
</mask>
<g mask="url(#mask166_2513_28206)">
<path d="M31.0234 1.26953H37.1564V7.38492H31.0234V1.26953Z" fill="#015096"/>
</g>
</g>
<mask id="mask167_2513_28206" style="mask-type:luminance" maskUnits="userSpaceOnUse" x="20" y="1" width="7" height="7">
<path d="M20.9609 1.49609H26.6611V7.17605H20.9609V1.49609Z" fill="white"/>
</mask>
<g mask="url(#mask167_2513_28206)">
<mask id="mask168_2513_28206" style="mask-type:luminance" maskUnits="userSpaceOnUse" x="20" y="1" width="7" height="7">
<path d="M23.8169 1.49414C22.2401 1.49414 20.9648 2.76577 20.9648 4.33412C20.9648 5.90246 22.2401 7.17409 23.8169 7.17409C25.3897 7.17409 26.665 5.90246 26.665 4.33412C26.665 2.76577 25.3897 1.49414 23.8169 1.49414Z" fill="white"/>
</mask>
<g mask="url(#mask168_2513_28206)">
<path d="M20.9648 1.49414H26.665V7.17409H20.9648V1.49414Z" fill="#015096"/>
</g>
</g>
<mask id="mask169_2513_28206" style="mask-type:luminance" maskUnits="userSpaceOnUse" x="10" y="1" width="7" height="6">
<path d="M10.9336 1.79883H16.027V6.87764H10.9336V1.79883Z" fill="white"/>
</mask>
<g mask="url(#mask169_2513_28206)">
<mask id="mask170_2513_28206" style="mask-type:luminance" maskUnits="userSpaceOnUse" x="10" y="1" width="7" height="6">
<path d="M13.4764 1.79883C12.0697 1.79883 10.9297 2.93559 10.9297 4.33824C10.9297 5.74088 12.0697 6.87764 13.4764 6.87764C14.8831 6.87764 16.0231 5.74088 16.0231 4.33824C16.0231 2.93559 14.8831 1.79883 13.4764 1.79883Z" fill="white"/>
</mask>
<g mask="url(#mask170_2513_28206)">
<path d="M10.9297 1.79883H16.0231V6.87764H10.9297V1.79883Z" fill="#015096"/>
</g>
</g>
<mask id="mask171_2513_28206" style="mask-type:luminance" maskUnits="userSpaceOnUse" x="0" y="1" width="6" height="6">
<path d="M0.898438 1.95898H5.67112V6.71797H0.898438V1.95898Z" fill="white"/>
</mask>
<g mask="url(#mask171_2513_28206)">
<mask id="mask172_2513_28206" style="mask-type:luminance" maskUnits="userSpaceOnUse" x="0" y="1" width="6" height="6">
<path d="M3.29062 1.95898C1.97282 1.95898 0.902344 3.02253 0.902344 4.33655C0.902344 5.65057 1.97282 6.71797 3.29062 6.71797C4.60842 6.71797 5.67503 5.65057 5.67503 4.33655C5.67503 3.02253 4.60842 1.95898 3.29062 1.95898Z" fill="white"/>
</mask>
<g mask="url(#mask172_2513_28206)">
<path d="M0.902344 1.95898H5.67503V6.71797H0.902344V1.95898Z" fill="#015096"/>
</g>
</g>
<mask id="mask173_2513_28206" style="mask-type:luminance" maskUnits="userSpaceOnUse" x="40" y="0" width="9" height="8">
<path d="M48.477 0H40.5625V7.89182H48.477V0Z" fill="white"/>
</mask>
<g mask="url(#mask173_2513_28206)">
<mask id="mask174_2513_28206" style="mask-type:luminance" maskUnits="userSpaceOnUse" x="41" y="1" width="7" height="7">
<path d="M41.2617 1.05469H47.8237V7.59781H41.2617V1.05469Z" fill="white"/>
</mask>
<g mask="url(#mask174_2513_28206)">
<mask id="mask175_2513_28206" style="mask-type:luminance" maskUnits="userSpaceOnUse" x="41" y="1" width="7" height="7">
<path d="M44.5427 1.05469C42.7302 1.05469 41.2617 2.51899 41.2617 4.32625C41.2617 6.13351 42.7302 7.59781 44.5427 7.59781C46.3552 7.59781 47.8237 6.13351 47.8237 4.32625C47.8237 2.51899 46.3552 1.05469 44.5427 1.05469Z" fill="white"/>
</mask>
<g mask="url(#mask175_2513_28206)">
<path d="M41.2617 1.05469H47.8237V7.59781H41.2617V1.05469Z" fill="#015096"/>
</g>
</g>
</g>
<mask id="mask176_2513_28206" style="mask-type:luminance" maskUnits="userSpaceOnUse" x="30" y="0" width="8" height="8">
<path d="M37.5971 0.984375H30.6719V7.88972H37.5971V0.984375Z" fill="white"/>
</mask>
<g mask="url(#mask176_2513_28206)">
<mask id="mask177_2513_28206" style="mask-type:luminance" maskUnits="userSpaceOnUse" x="31" y="1" width="7" height="7">
<path d="M31.0195 1.26953H37.1525V7.38492H31.0195V1.26953Z" fill="white"/>
</mask>
<g mask="url(#mask177_2513_28206)">
<mask id="mask178_2513_28206" style="mask-type:luminance" maskUnits="userSpaceOnUse" x="31" y="1" width="7" height="7">
<path d="M34.0841 1.26953C32.3914 1.26953 31.0195 2.6375 31.0195 4.3253C31.0195 6.0131 32.3914 7.38492 34.0841 7.38492C35.7768 7.38492 37.1525 6.0131 37.1525 4.3253C37.1525 2.6375 35.7768 1.26953 34.0841 1.26953Z" fill="white"/>
</mask>
<g mask="url(#mask178_2513_28206)">
<path d="M31.0195 1.26953H37.1525V7.38492H31.0195V1.26953Z" fill="#015096"/>
</g>
</g>
</g>
<mask id="mask179_2513_28206" style="mask-type:luminance" maskUnits="userSpaceOnUse" x="50" y="11" width="10" height="9">
<path d="M59.3648 11.834H50.4609V19.7258H59.3648V11.834Z" fill="white"/>
</mask>
<g mask="url(#mask179_2513_28206)">
<mask id="mask180_2513_28206" style="mask-type:luminance" maskUnits="userSpaceOnUse" x="51" y="12" width="8" height="8">
<path d="M51.5273 12.7031H58.3444V19.5006H51.5273V12.7031Z" fill="white"/>
</mask>
<g mask="url(#mask180_2513_28206)">
<mask id="mask181_2513_28206" style="mask-type:luminance" maskUnits="userSpaceOnUse" x="51" y="12" width="8" height="8">
<path d="M54.9359 12.7031C53.0538 12.7031 51.5273 14.2252 51.5273 16.1018C51.5273 17.9785 53.0538 19.5006 54.9359 19.5006C56.8179 19.5006 58.3444 17.9785 58.3444 16.1018C58.3444 14.2252 56.8179 12.7031 54.9359 12.7031Z" fill="white"/>
</mask>
<g mask="url(#mask181_2513_28206)">
<path d="M51.5273 12.7031H58.3444V19.5006H51.5273V12.7031Z" fill="#015096"/>
</g>
</g>
</g>
<mask id="mask182_2513_28206" style="mask-type:luminance" maskUnits="userSpaceOnUse" x="20" y="96" width="8" height="8">
<path d="M27.7104 96.6719H20.7852V103.577H27.7104V96.6719Z" fill="white"/>
</mask>
<g mask="url(#mask182_2513_28206)">
<mask id="mask183_2513_28206" style="mask-type:luminance" maskUnits="userSpaceOnUse" x="20" y="96" width="7" height="7">
<path d="M20.9688 96.7656H26.6689V102.449H20.9688V96.7656Z" fill="white"/>
</mask>
<g mask="url(#mask183_2513_28206)">
<mask id="mask184_2513_28206" style="mask-type:luminance" maskUnits="userSpaceOnUse" x="20" y="96" width="7" height="7">
<path d="M23.8208 96.7676C22.244 96.7676 20.9688 98.0392 20.9688 99.6076C20.9688 101.176 22.244 102.451 23.8208 102.451C25.3936 102.451 26.6689 101.176 26.6689 99.6076C26.6689 98.0392 25.3936 96.7676 23.8208 96.7676Z" fill="white"/>
</mask>
<g mask="url(#mask184_2513_28206)">
<path d="M20.9688 96.7676H26.6689V102.451H20.9688V96.7676Z" fill="#015096"/>
</g>
</g>
</g>
<mask id="mask185_2513_28206" style="mask-type:luminance" maskUnits="userSpaceOnUse" x="20" y="83" width="8" height="8">
<path d="M27.7104 83.8516H20.7852V90.7569H27.7104V83.8516Z" fill="white"/>
</mask>
<g mask="url(#mask185_2513_28206)">
<mask id="mask186_2513_28206" style="mask-type:luminance" maskUnits="userSpaceOnUse" x="20" y="84" width="7" height="7">
<path d="M20.9688 84.6445H26.6689V90.3245H20.9688V84.6445Z" fill="white"/>
</mask>
<g mask="url(#mask186_2513_28206)">
<mask id="mask187_2513_28206" style="mask-type:luminance" maskUnits="userSpaceOnUse" x="20" y="84" width="7" height="7">
<path d="M23.8208 84.6445C22.244 84.6445 20.9688 85.9162 20.9688 87.4845C20.9688 89.0529 22.244 90.3245 23.8208 90.3245C25.3936 90.3245 26.6689 89.0529 26.6689 87.4845C26.6689 85.9162 25.3936 84.6445 23.8208 84.6445Z" fill="white"/>
</mask>
<g mask="url(#mask187_2513_28206)">
<path d="M20.9688 84.6445H26.6689V90.3245H20.9688V84.6445Z" fill="#015096"/>
</g>
</g>
</g>
<mask id="mask188_2513_28206" style="mask-type:luminance" maskUnits="userSpaceOnUse" x="20" y="72" width="8" height="7">
<path d="M27.7104 72.0098H20.7852V78.9151H27.7104V72.0098Z" fill="white"/>
</mask>
<g mask="url(#mask188_2513_28206)">
<mask id="mask189_2513_28206" style="mask-type:luminance" maskUnits="userSpaceOnUse" x="20" y="72" width="7" height="7">
<path d="M20.9688 72.8047H26.6689V78.4885H20.9688V72.8047Z" fill="white"/>
</mask>
<g mask="url(#mask189_2513_28206)">
<mask id="mask190_2513_28206" style="mask-type:luminance" maskUnits="userSpaceOnUse" x="20" y="72" width="7" height="7">
<path d="M23.8208 72.8047C22.244 72.8047 20.9688 74.0763 20.9688 75.6447C20.9688 77.2169 22.244 78.4885 23.8208 78.4885C25.3936 78.4885 26.6689 77.2169 26.6689 75.6447C26.6689 74.0763 25.3936 72.8047 23.8208 72.8047Z" fill="white"/>
</mask>
<g mask="url(#mask190_2513_28206)">
<path d="M20.9688 72.8047H26.6689V78.4885H20.9688V72.8047Z" fill="#015096"/>
</g>
</g>
</g>
<mask id="mask191_2513_28206" style="mask-type:luminance" maskUnits="userSpaceOnUse" x="20" y="24" width="8" height="8">
<path d="M27.7104 24.6602H20.7852V31.5655H27.7104V24.6602Z" fill="white"/>
</mask>
<g mask="url(#mask191_2513_28206)">
<mask id="mask192_2513_28206" style="mask-type:luminance" maskUnits="userSpaceOnUse" x="20" y="25" width="7" height="6">
<path d="M20.9688 25.125H26.6689V30.8088H20.9688V25.125Z" fill="white"/>
</mask>
<g mask="url(#mask192_2513_28206)">
<mask id="mask193_2513_28206" style="mask-type:luminance" maskUnits="userSpaceOnUse" x="20" y="25" width="7" height="6">
<path d="M23.8208 25.125C22.244 25.125 20.9688 26.3966 20.9688 27.965C20.9688 29.5372 22.244 30.8088 23.8208 30.8088C25.3936 30.8088 26.6689 29.5372 26.6689 27.965C26.6689 26.3966 25.3936 25.125 23.8208 25.125Z" fill="white"/>
</mask>
<g mask="url(#mask193_2513_28206)">
<path d="M20.9688 25.125H26.6689V30.8088H20.9688V25.125Z" fill="#015096"/>
</g>
</g>
</g>
<mask id="mask194_2513_28206" style="mask-type:luminance" maskUnits="userSpaceOnUse" x="20" y="12" width="8" height="8">
<path d="M27.7104 12.8242H20.7852V19.7296H27.7104V12.8242Z" fill="white"/>
</mask>
<g mask="url(#mask194_2513_28206)">
<mask id="mask195_2513_28206" style="mask-type:luminance" maskUnits="userSpaceOnUse" x="20" y="13" width="7" height="6">
<path d="M20.9688 13.2617H26.6689V18.9417H20.9688V13.2617Z" fill="white"/>
</mask>
<g mask="url(#mask195_2513_28206)">
<mask id="mask196_2513_28206" style="mask-type:luminance" maskUnits="userSpaceOnUse" x="20" y="13" width="7" height="6">
<path d="M23.8208 13.2617C22.244 13.2617 20.9688 14.5334 20.9688 16.1017C20.9688 17.67 22.244 18.9417 23.8208 18.9417C25.3936 18.9417 26.6689 17.67 26.6689 16.1017C26.6689 14.5334 25.3936 13.2617 23.8208 13.2617Z" fill="white"/>
</mask>
<g mask="url(#mask196_2513_28206)">
<path d="M20.9688 13.2617H26.6689V18.9417H20.9688V13.2617Z" fill="#015096"/>
</g>
</g>
</g>
<mask id="mask197_2513_28206" style="mask-type:luminance" maskUnits="userSpaceOnUse" x="20" y="0" width="8" height="8">
<path d="M27.7104 0.984375H20.7852V7.88972H27.7104V0.984375Z" fill="white"/>
</mask>
<g mask="url(#mask197_2513_28206)">
<mask id="mask198_2513_28206" style="mask-type:luminance" maskUnits="userSpaceOnUse" x="20" y="1" width="7" height="7">
<path d="M20.9688 1.49609H26.6689V7.17605H20.9688V1.49609Z" fill="white"/>
</mask>
<g mask="url(#mask198_2513_28206)">
<mask id="mask199_2513_28206" style="mask-type:luminance" maskUnits="userSpaceOnUse" x="20" y="1" width="7" height="7">
<path d="M23.8208 1.49414C22.244 1.49414 20.9688 2.76577 20.9688 4.33412C20.9688 5.90246 22.244 7.17409 23.8208 7.17409C25.3936 7.17409 26.6689 5.90246 26.6689 4.33412C26.6689 2.76577 25.3936 1.49414 23.8208 1.49414Z" fill="white"/>
</mask>
<g mask="url(#mask199_2513_28206)">
<path d="M20.9688 1.49414H26.6689V7.17409H20.9688V1.49414Z" fill="#015096"/>
</g>
</g>
</g>
<mask id="mask200_2513_28206" style="mask-type:luminance" maskUnits="userSpaceOnUse" x="9" y="12" width="8" height="8">
<path d="M16.8276 12.8242H9.90234V19.7296H16.8276V12.8242Z" fill="white"/>
</mask>
<g mask="url(#mask200_2513_28206)">
<mask id="mask201_2513_28206" style="mask-type:luminance" maskUnits="userSpaceOnUse" x="10" y="13" width="7" height="6">
<path d="M10.9375 13.5645H16.0309V18.6433H10.9375V13.5645Z" fill="white"/>
</mask>
<g mask="url(#mask201_2513_28206)">
<mask id="mask202_2513_28206" style="mask-type:luminance" maskUnits="userSpaceOnUse" x="10" y="13" width="7" height="6">
<path d="M13.4881 13.5645C12.0814 13.5645 10.9414 14.7012 10.9414 16.1039C10.9414 17.5065 12.0814 18.6433 13.4881 18.6433C14.8948 18.6433 16.0348 17.5065 16.0348 16.1039C16.0348 14.7012 14.8948 13.5645 13.4881 13.5645Z" fill="white"/>
</mask>
<g mask="url(#mask202_2513_28206)">
<path d="M10.9414 13.5645H16.0348V18.6433H10.9414V13.5645Z" fill="#015096"/>
</g>
</g>
</g>
<mask id="mask203_2513_28206" style="mask-type:luminance" maskUnits="userSpaceOnUse" x="9" y="0" width="8" height="8">
<path d="M16.8276 0.982422H9.90234V7.88776H16.8276V0.982422Z" fill="white"/>
</mask>
<g mask="url(#mask203_2513_28206)">
<mask id="mask204_2513_28206" style="mask-type:luminance" maskUnits="userSpaceOnUse" x="10" y="1" width="7" height="6">
<path d="M10.9375 1.79688H16.0309V6.87569H10.9375V1.79688Z" fill="white"/>
</mask>
<g mask="url(#mask204_2513_28206)">
<mask id="mask205_2513_28206" style="mask-type:luminance" maskUnits="userSpaceOnUse" x="10" y="1" width="7" height="6">
<path d="M13.4881 1.79688C12.0814 1.79688 10.9414 2.93364 10.9414 4.33628C10.9414 5.73893 12.0814 6.87569 13.4881 6.87569C14.8948 6.87569 16.0348 5.73893 16.0348 4.33628C16.0348 2.93364 14.8948 1.79688 13.4881 1.79688Z" fill="white"/>
</mask>
<g mask="url(#mask205_2513_28206)">
<path d="M10.9414 1.79688H16.0348V6.87569H10.9414V1.79688Z" fill="#015096"/>
</g>
</g>
</g>
<mask id="mask206_2513_28206" style="mask-type:luminance" maskUnits="userSpaceOnUse" x="9" y="84" width="8" height="7">
<path d="M16.8276 84.8379H9.90234V90.7568H16.8276V84.8379Z" fill="white"/>
</mask>
<g mask="url(#mask206_2513_28206)">
<mask id="mask207_2513_28206" style="mask-type:luminance" maskUnits="userSpaceOnUse" x="10" y="84" width="7" height="7">
<path d="M10.9375 84.9453H16.0309V90.0241H10.9375V84.9453Z" fill="white"/>
</mask>
<g mask="url(#mask207_2513_28206)">
<mask id="mask208_2513_28206" style="mask-type:luminance" maskUnits="userSpaceOnUse" x="10" y="84" width="7" height="7">
<path d="M13.4881 84.9434C12.0814 84.9434 10.9414 86.0801 10.9414 87.4828C10.9414 88.8854 12.0814 90.0222 13.4881 90.0222C14.8948 90.0222 16.0348 88.8854 16.0348 87.4828C16.0348 86.0801 14.8948 84.9434 13.4881 84.9434Z" fill="white"/>
</mask>
<g mask="url(#mask208_2513_28206)">
<path d="M10.9414 84.9434H16.0348V90.0222H10.9414V84.9434Z" fill="#015096"/>
</g>
</g>
</g>
<mask id="mask209_2513_28206" style="mask-type:luminance" maskUnits="userSpaceOnUse" x="9" y="96" width="8" height="7">
<path d="M16.8276 96.6719H9.90234V102.591H16.8276V96.6719Z" fill="white"/>
</mask>
<g mask="url(#mask209_2513_28206)">
<mask id="mask210_2513_28206" style="mask-type:luminance" maskUnits="userSpaceOnUse" x="10" y="97" width="7" height="6">
<path d="M10.9336 97.0645H16.027V102.143H10.9336V97.0645Z" fill="white"/>
</mask>
<g mask="url(#mask210_2513_28206)">
<mask id="mask211_2513_28206" style="mask-type:luminance" maskUnits="userSpaceOnUse" x="10" y="97" width="7" height="6">
<path d="M13.4764 97.0625C12.0697 97.0625 10.9297 98.1993 10.9297 99.6019C10.9297 101.005 12.0697 102.141 13.4764 102.141C14.8831 102.141 16.0231 101.005 16.0231 99.6019C16.0231 98.1993 14.8831 97.0625 13.4764 97.0625Z" fill="white"/>
</mask>
<g mask="url(#mask211_2513_28206)">
<path d="M10.9297 97.0625H16.0231V102.141H10.9297V97.0625Z" fill="#015096"/>
</g>
</g>
</g>
<mask id="mask212_2513_28206" style="mask-type:luminance" maskUnits="userSpaceOnUse" x="0" y="96" width="6" height="7">
<path d="M5.9359 96.6719H0V102.591H5.9359V96.6719Z" fill="white"/>
</mask>
<g mask="url(#mask212_2513_28206)">
<mask id="mask213_2513_28206" style="mask-type:luminance" maskUnits="userSpaceOnUse" x="0" y="97" width="6" height="5">
<path d="M0.898438 97.2266H5.67112V101.986H0.898438V97.2266Z" fill="white"/>
</mask>
<g mask="url(#mask213_2513_28206)">
<mask id="mask214_2513_28206" style="mask-type:luminance" maskUnits="userSpaceOnUse" x="0" y="97" width="6" height="5">
<path d="M3.29062 97.2266C1.97282 97.2266 0.902344 98.2901 0.902344 99.6041C0.902344 100.918 1.97282 101.986 3.29062 101.986C4.60842 101.986 5.67503 100.918 5.67503 99.6041C5.67503 98.2901 4.60842 97.2266 3.29062 97.2266Z" fill="white"/>
</mask>
<g mask="url(#mask214_2513_28206)">
<path opacity="0.1" d="M0.902344 97.2266H5.67503V101.986H0.902344V97.2266Z" fill="#015096"/>
</g>
</g>
</g>
<mask id="mask215_2513_28206" style="mask-type:luminance" maskUnits="userSpaceOnUse" x="0" y="0" width="6" height="7">
<path d="M5.9359 0.984375H0V6.90324H5.9359V0.984375Z" fill="white"/>
</mask>
<g mask="url(#mask215_2513_28206)">
<mask id="mask216_2513_28206" style="mask-type:luminance" maskUnits="userSpaceOnUse" x="0" y="1" width="6" height="6">
<path d="M0.898438 1.96094H5.67112V6.71992H0.898438V1.96094Z" fill="white"/>
</mask>
<g mask="url(#mask216_2513_28206)">
<mask id="mask217_2513_28206" style="mask-type:luminance" maskUnits="userSpaceOnUse" x="0" y="1" width="6" height="6">
<path d="M3.29062 1.96289C1.97282 1.96289 0.902344 3.02644 0.902344 4.34046C0.902344 5.65447 1.97282 6.72187 3.29062 6.72187C4.60842 6.72187 5.67503 5.65447 5.67503 4.34046C5.67503 3.02644 4.60842 1.96289 3.29062 1.96289Z" fill="white"/>
</mask>
<g mask="url(#mask217_2513_28206)">
<path opacity="0.1" d="M0.902344 1.96289H5.67503V6.72187H0.902344V1.96289Z" fill="#015096"/>
</g>
</g>
</g>
</g>
</svg>
