<svg width="30" height="159" viewBox="0 0 30 159" fill="none" xmlns="http://www.w3.org/2000/svg">
<path d="M20.1271 137.054L20.3919 124.587L17.9416 123.051L17.8496 135.594L20.1271 137.054Z" fill="#F7B534"/>
<path d="M19.2827 139.832L19.3273 137.9L16.8768 136.363L16.8347 138.183L19.2827 139.832Z" fill="#F7B534"/>
<path d="M23.0802 122.929L20.3608 124.729L20.1315 137.1L19.137 137.958L19.0926 139.883L21.442 138.334L23.0802 122.929Z" fill="#EC9000"/>
<path d="M20.2422 137.033L19.2616 137.875L16.8936 136.402L18.0285 135.627L20.2422 137.033Z" fill="#FEE09E"/>
<path fill-rule="evenodd" clip-rule="evenodd" d="M27.0967 152.58C28.8008 151.534 29.8739 149.212 29.9028 145.875C29.9584 139.283 25.9192 131.211 20.8892 127.862C18.3031 126.139 15.9569 125.999 14.2773 127.162H14.275L5.4436 132.789L10.6736 136.271L11.76 135.579C12.3066 141.143 15.3948 147.314 19.334 150.714L13.0398 154.726L18.2697 158.209L27.1012 152.582L27.0967 152.58Z" fill="#FF771B"/>
<path fill-rule="evenodd" clip-rule="evenodd" d="M27.0967 152.58C28.8008 151.534 29.8739 149.212 29.9028 145.875C29.9584 139.283 25.9192 131.211 20.8892 127.862C18.3031 126.139 15.9569 125.999 14.2773 127.162H14.275L5.4436 132.789L10.6736 136.271L11.76 135.579C12.3066 141.143 15.3948 147.314 19.334 150.714L13.0398 154.726L18.2697 158.209L27.1012 152.582L27.0967 152.58Z" fill="url(#paint0_linear_7_3883)" fill-opacity="0.25"/>
<path fill-rule="evenodd" clip-rule="evenodd" d="M11.8065 133.651C6.77642 130.301 2.6462 132.931 2.59065 139.523C2.53511 146.115 6.57424 154.187 11.6043 157.536C16.6343 160.886 20.7645 158.256 20.8201 151.664C20.8756 145.072 16.8365 137.001 11.8065 133.651Z" fill="white"/>
<path fill-rule="evenodd" clip-rule="evenodd" d="M11.7376 141.757C10.1224 140.682 8.79603 141.527 8.77826 143.643C8.76048 145.759 10.058 148.352 11.6732 149.428C13.2884 150.503 14.6148 149.658 14.6326 147.542C14.6503 145.426 13.3528 142.833 11.7376 141.757Z" fill="#FF771B"/>
<path fill-rule="evenodd" clip-rule="evenodd" d="M11.7376 141.757C10.1224 140.682 8.79603 141.527 8.77826 143.643C8.76048 145.759 10.058 148.352 11.6732 149.428C13.2884 150.503 14.6148 149.658 14.6326 147.542C14.6503 145.426 13.3528 142.833 11.7376 141.757Z" fill="url(#paint1_linear_7_3883)"/>
<path fill-rule="evenodd" clip-rule="evenodd" d="M29.9567 144.909C27.515 146.564 24.5156 148.114 21.6096 149.683C21.0208 150.002 20.3498 150.07 19.7211 149.874C18.1636 149.382 16.4773 148.761 14.4889 147.833C14.4444 147.813 14.4222 147.755 14.4422 147.705C14.46 147.655 14.5111 147.63 14.5555 147.652C16.5351 148.575 18.217 149.194 19.7677 149.683C20.3565 149.866 20.983 149.804 21.534 149.505C24.4356 147.941 27.4305 146.391 29.8678 144.741C29.91 144.714 29.9633 144.729 29.9878 144.776C30.0122 144.824 29.9989 144.884 29.9567 144.912V144.909Z" fill="#C9C9C9"/>
<path fill-rule="evenodd" clip-rule="evenodd" d="M20.4531 127.686C20.4531 127.686 14.2656 131.63 12.0816 133.022C11.6506 133.295 11.3973 133.824 11.4262 134.381C11.5439 136.592 11.8239 141.815 11.8239 141.815C11.8261 141.87 11.7905 141.916 11.7417 141.921C11.6928 141.923 11.6528 141.883 11.6483 141.828C11.6483 141.828 11.3684 136.607 11.2506 134.393C11.2173 133.762 11.5062 133.162 11.9949 132.849C14.1789 131.457 20.3665 127.513 20.3665 127.513C20.4087 127.486 20.462 127.503 20.4865 127.551C20.5109 127.598 20.4953 127.659 20.4531 127.686Z" fill="#C9C9C9"/>
<path fill-rule="evenodd" clip-rule="evenodd" d="M14.6326 147.557L12.042 149.207C11.7887 149.367 11.6221 149.661 11.5977 149.989C11.4733 151.679 11.0534 157.341 11.0534 157.341C11.0489 157.396 11.0845 157.444 11.1333 157.449C11.1822 157.454 11.2244 157.414 11.2289 157.358C11.2289 157.358 11.6466 151.697 11.7732 150.007C11.7932 149.743 11.9265 149.51 12.1287 149.38L14.6237 147.79C14.6281 147.715 14.6304 147.637 14.6326 147.557ZM13.4817 143.686L9.74919 146.065C9.54257 146.195 9.30706 146.261 9.07155 146.251C7.78072 146.193 3.71048 146.012 3.71048 146.012C3.6616 146.012 3.62161 146.053 3.61938 146.108C3.61938 146.163 3.65493 146.208 3.70381 146.21C3.70381 146.21 7.77405 146.391 9.06489 146.449C9.33372 146.461 9.60033 146.389 9.83583 146.238L13.5795 143.851C13.5484 143.796 13.515 143.741 13.4817 143.686Z" fill="#C9C9C9"/>
<path d="M8.36354 132.559L9.63889 145.774L10.9131 144.869L11.2236 130.509L8.36354 132.559Z" fill="#EC9000"/>
<path d="M9.63889 145.774L8.36354 132.559L6.08044 131.041L7.54843 144.41L9.63889 145.774Z" fill="#F7B534"/>
<path d="M11.2946 141.557L12.4546 142.4L12.4154 144.209L11.2195 145.025L11.265 142.924L11.2946 141.557Z" fill="#474747"/>
<path d="M7.89454 127.917L23.551 117.92V122.583L7.89454 132.789V127.917Z" fill="#EC9000"/>
<path d="M23.5508 117.916L7.9106 127.925L4.52051 125.75L20.1093 116.219L23.5508 117.916Z" fill="#FEE09E"/>
<path d="M7.89388 127.917L4.5144 125.742V130.405L7.89388 132.789V127.917Z" fill="#F7B534"/>
<path d="M23.374 105.517V116.83L19.8319 125.885L12.6922 130.529L12.0206 130.1L9.46163 126.947L5.97618 124.872L4.15256 122.864V111.544L9.12338 102.25L13.4764 103.129L13.4765 99.4116L14.7673 98.088C15.3932 97.4462 16.3896 97.6607 16.7623 98.5174L18.559 102.648L23.374 105.517Z" fill="#EC9000"/>
<path d="M12.0769 100.047L14.4623 105.304L14.08 105.47L9.12338 102.25L11.0434 99.8887C11.3426 99.5207 11.8752 99.6021 12.0769 100.047Z" fill="#FEE09E"/>
<path d="M4.15295 111.528L9.12338 102.25L14.08 105.47L9.10905 114.797V126.083L12.6827 130.515L12.0206 130.1L9.46163 126.947L5.96185 124.855L4.15256 122.864L4.15295 111.528Z" fill="#F7B534"/>
<path d="M16.4794 98.7627L18.1972 102.847V108.872L14.4618 111.328V105.287L13.4764 103.129L13.4765 99.4116L14.4468 98.3485C15.0713 97.6646 16.1063 97.8756 16.4794 98.7627Z" fill="#F7B534"/>
<path d="M11.8452 100.325L14.08 105.47L13.7555 105.259L11.3444 109.719L9.46201 108.549L9.4616 102.469L9.12338 102.25L10.8047 100.16C11.106 99.7853 11.6473 99.8713 11.8452 100.325Z" fill="#F7B534"/>
<path d="M11.3283 109.752L9.44591 108.573L4.56333 111.727L8.71058 114.515L11.3283 109.752Z" fill="#FEE09E"/>
<path d="M18.1972 108.872L14.4618 106.415V111.312L18.1972 108.872Z" fill="#FEE09E"/>
<path d="M9.4616 108.54V102.469L4.56432 111.726L9.4616 108.54Z" fill="#EC9000"/>
<path d="M11.8375 99.9901L15.036 98.2128C15.036 98.2128 15.6356 98.0617 15.8904 98.7167C16.1453 99.3718 15.6806 99.6741 15.6806 99.6741L12.7431 101.417C12.7431 101.417 12.3879 100.685 12.2758 100.386C12.1007 100.089 11.8375 99.9901 11.8375 99.9901Z" fill="#A2A2A2"/>
<ellipse cx="0.672599" cy="0.957881" rx="0.672599" ry="0.957881" transform="matrix(-1 0 0 1 11.8745 100.167)" fill="#A2A2A2"/>
<path d="M15.6324 98.3454L12.0532 100.695L12.1727 100.965L15.9287 98.8334C15.9287 98.8334 15.9314 98.8032 15.8567 98.6346C15.782 98.466 15.6324 98.3454 15.6324 98.3454Z" fill="#EDEDED"/>
<path d="M12.0293 100.641L15.5925 98.3186C15.5925 98.3186 15.5916 98.3129 15.5205 98.2735C15.4493 98.234 15.3763 98.2192 15.3763 98.2192L11.9997 100.564L12.0293 100.641Z" fill="#D9D9D9"/>
<path fill-rule="evenodd" clip-rule="evenodd" d="M14.073 98.5723C14.073 98.5723 13.7784 97.9383 13.618 97.5786C13.5537 97.4353 13.4105 97.3566 13.2682 97.3856C13.1944 97.4006 13.1378 97.469 13.1318 97.5514C13.0975 97.987 13.2681 99.0195 13.2681 99.0195L13.6181 98.8208" fill="#726F6F"/>
<path fill-rule="evenodd" clip-rule="evenodd" d="M14.937 99.9901L14.0273 100.511C14.0273 100.511 14.8407 101.143 14.8981 101.18C15.7274 101.705 16.4006 101.279 16.4006 100.228C16.4006 100.02 16.374 99.8037 16.3252 99.5854L16.1434 97.0374C16.2171 96.8828 16.2583 96.6842 16.2583 96.4472C16.2583 95.8889 16.0293 95.2528 15.6837 94.7544V0.544276C15.6837 0.243566 15.4616 0 15.1872 0C14.9127 0 14.6915 0.243566 14.6915 0.544276V93.9328C14.1615 93.7773 13.7713 94.1436 13.7713 94.8715C13.7713 95.4214 13.9943 96.0472 14.3313 96.5427L15.3166 99.7794C15.3552 99.9049 15.2935 100.005 15.1803 100.001L14.9968 99.9901H14.937Z" fill="#726F6F"/>
<path fill-rule="evenodd" clip-rule="evenodd" d="M12.4891 99.4249C12.4891 99.4249 12.2172 98.7909 12.0691 98.4311C12.0098 98.2878 11.8776 98.2091 11.7462 98.2382C11.6781 98.2532 11.6258 98.3215 11.6203 98.404C11.5886 98.8396 11.7461 99.8721 11.7461 99.8721L12.0692 99.6733" fill="#726F6F"/>
<path fill-rule="evenodd" clip-rule="evenodd" d="M13.2867 100.843L12.4469 101.363C12.4469 101.363 13.1977 101.996 13.2508 102.032C14.0163 102.558 14.6377 102.132 14.6377 101.081C14.6377 100.873 14.6132 100.656 14.568 100.438L14.4002 97.8899C14.4683 97.7353 14.5063 97.5367 14.5063 97.2997C14.5063 96.7414 14.2949 96.1053 13.9759 95.6069L13.9759 1.10141C13.9759 0.800695 13.7709 0.557129 13.5176 0.557129C13.2642 0.557129 13.06 0.800695 13.06 1.10141L13.06 94.7854C12.5708 94.6299 12.2106 94.9962 12.2106 95.724C12.2106 96.2739 12.4164 96.8997 12.7275 97.3953L13.6371 100.632C13.6727 100.757 13.6157 100.858 13.5112 100.854L13.3418 100.843H13.2867Z" fill="#726F6F"/>
<defs>
<linearGradient id="paint0_linear_7_3883" x1="24.3271" y1="157.594" x2="24.3271" y2="142.306" gradientUnits="userSpaceOnUse">
<stop/>
<stop offset="1" stop-opacity="0"/>
</linearGradient>
<linearGradient id="paint1_linear_7_3883" x1="13.6256" y1="143.845" x2="9.14798" y2="145.998" gradientUnits="userSpaceOnUse">
<stop stop-opacity="0.25"/>
<stop offset="1" stop-opacity="0"/>
</linearGradient>
</defs>
</svg>
