<svg width="187" height="186" viewBox="0 0 187 186" fill="none" xmlns="http://www.w3.org/2000/svg">
<g clip-path="url(#clip0_8838_9591)">
<path d="M73.0679 129.593C97.4857 129.593 117.28 109.803 117.28 85.39C117.28 60.9774 97.4857 41.187 73.0679 41.187C48.65 41.187 28.8555 60.9774 28.8555 85.39C28.8555 109.803 48.65 129.593 73.0679 129.593Z" stroke="#FF771B" stroke-width="5.44922" stroke-miterlimit="10" stroke-linecap="round" stroke-linejoin="round"/>
<path d="M66.6068 118.037C60.3424 116.808 54.3657 113.772 49.5221 108.93C36.5395 95.9495 36.5395 74.8298 49.5221 61.8501C62.5047 48.8705 83.6291 48.8701 96.6117 61.8501C109.594 74.8302 109.594 95.9499 96.6117 108.93C91.7354 113.805 85.7104 116.849 79.3994 118.062" stroke="#FF771B" stroke-width="5.44922" stroke-miterlimit="10" stroke-linecap="round" stroke-linejoin="round"/>
<path d="M104.332 116.646L117.393 129.705" stroke="#FF771B" stroke-width="5.44922" stroke-miterlimit="10" stroke-linecap="round" stroke-linejoin="round"/>
<path d="M154.832 151.988L159.818 156.973C161.698 158.852 161.698 161.9 159.818 163.78L151.472 172.124C149.593 174.003 146.546 174.003 144.667 172.124L113.219 140.682C111.339 138.803 111.339 135.755 113.219 133.875L121.565 125.531C123.444 123.652 126.491 123.652 128.37 125.531L145.841 142.999" stroke="#FF771B" stroke-width="5.44922" stroke-miterlimit="10" stroke-linecap="round" stroke-linejoin="round"/>
<path d="M16.6664 39.3012C24.0783 39.3012 30.0868 33.294 30.0868 25.8837C30.0868 18.4735 24.0783 12.4663 16.6664 12.4663C9.25458 12.4663 3.24609 18.4735 3.24609 25.8837C3.24609 33.294 9.25458 39.3012 16.6664 39.3012Z" stroke="#FF771B" stroke-width="5.44922" stroke-miterlimit="10" stroke-linecap="round" stroke-linejoin="round"/>
<path d="M114.096 39.3012C121.508 39.3012 127.516 33.294 127.516 25.8837C127.516 18.4735 121.508 12.4663 114.096 12.4663C106.684 12.4663 100.676 18.4735 100.676 25.8837C100.676 33.294 106.684 39.3012 114.096 39.3012Z" stroke="#FF771B" stroke-width="5.44922" stroke-miterlimit="10" stroke-linecap="round" stroke-linejoin="round"/>
<path d="M72.9594 89.4135C80.3712 89.4135 86.3797 83.4063 86.3797 75.996C86.3797 68.5858 80.3712 62.5786 72.9594 62.5786C65.5476 62.5786 59.5391 68.5858 59.5391 75.996C59.5391 83.4063 65.5476 89.4135 72.9594 89.4135Z" stroke="#FF771B" stroke-width="5.44922" stroke-miterlimit="10" stroke-linecap="round" stroke-linejoin="round"/>
<path d="M170.381 89.4135C177.793 89.4135 183.802 83.4063 183.802 75.996C183.802 68.5858 177.793 62.5786 170.381 62.5786C162.969 62.5786 156.961 68.5858 156.961 75.996C156.961 83.4063 162.969 89.4135 170.381 89.4135Z" stroke="#FF771B" stroke-width="5.44922" stroke-miterlimit="10" stroke-linecap="round" stroke-linejoin="round"/>
<path d="M45.0737 51.1718L26.6953 34.8096" stroke="#FF771B" stroke-width="5.44922" stroke-miterlimit="10" stroke-linecap="round" stroke-linejoin="round"/>
<path d="M62.9433 67.0726L53.3672 58.5464" stroke="#FF771B" stroke-width="5.44922" stroke-miterlimit="10" stroke-linecap="round" stroke-linejoin="round"/>
<path d="M160.362 67.0732L124.117 34.8076" stroke="#FF771B" stroke-width="5.44922" stroke-miterlimit="10" stroke-linecap="round" stroke-linejoin="round"/>
<path d="M89.1745 56.2471L81.4766 65.627" stroke="#FF771B" stroke-width="5.44922" stroke-miterlimit="10" stroke-linecap="round" stroke-linejoin="round"/>
<path d="M105.582 36.2554L96.1875 47.7024" stroke="#FF771B" stroke-width="5.44922" stroke-miterlimit="10" stroke-linecap="round" stroke-linejoin="round"/>
<path d="M166.656 12.4663V14.8614" stroke="#FF771B" stroke-width="5.44922" stroke-miterlimit="10" stroke-linecap="round" stroke-linejoin="round"/>
<path d="M166.656 28.1172V30.5123" stroke="#FF771B" stroke-width="5.44922" stroke-miterlimit="10" stroke-linecap="round" stroke-linejoin="round"/>
<path d="M175.681 21.4893H173.285" stroke="#FF771B" stroke-width="5.44922" stroke-miterlimit="10" stroke-linecap="round" stroke-linejoin="round"/>
<path d="M160.028 21.4893H157.633" stroke="#FF771B" stroke-width="5.44922" stroke-miterlimit="10" stroke-linecap="round" stroke-linejoin="round"/>
<path d="M160.364 57.686V67.0732H150.977" stroke="#FF771B" stroke-width="5.44922" stroke-miterlimit="10" stroke-linecap="round" stroke-linejoin="round"/>
</g>
<defs>
<clipPath id="clip0_8838_9591">
<rect width="186" height="186" fill="white" transform="translate(0.53125)"/>
</clipPath>
</defs>
</svg>
