<svg width="16" height="14" viewBox="0 0 16 14" fill="none" xmlns="http://www.w3.org/2000/svg">
<path d="M8.73939 1.24335C8.66641 1.31982 8.60848 1.41081 8.56895 1.51106C8.52943 1.61131 8.50907 1.71884 8.50907 1.82744C8.50907 1.93605 8.52943 2.04357 8.56895 2.14382C8.60848 2.24407 8.66641 2.33506 8.73939 2.41154L12.321 6.19584H1.77861C1.57211 6.19584 1.37407 6.28251 1.22805 6.43679C1.08203 6.59108 1 6.80033 1 7.01851C1 7.2367 1.08203 7.44595 1.22805 7.60023C1.37407 7.75451 1.57211 7.84119 1.77861 7.84119H12.3054L8.73939 11.6008C8.59437 11.7549 8.51297 11.9634 8.51297 12.1808C8.51297 12.3981 8.59437 12.6066 8.73939 12.7608C8.88527 12.914 9.08261 13 9.28831 13C9.494 13 9.69134 12.914 9.83722 12.7608L14.7892 7.52857C14.8558 7.461 14.9089 7.3799 14.9451 7.29012C14.9813 7.20035 15 7.10377 15 7.00617C15 6.90858 14.9813 6.81199 14.9451 6.72222C14.9089 6.63245 14.8558 6.55134 14.7892 6.48377L9.84501 1.24335C9.77263 1.16624 9.68651 1.10504 9.59163 1.06327C9.49675 1.0215 9.39498 1 9.2922 1C9.18941 1 9.08764 1.0215 8.99276 1.06327C8.89788 1.10504 8.81177 1.16624 8.73939 1.24335Z" fill="#FF771B" stroke="#FF771B"/>
</svg>
