<svg width="58" height="58" viewBox="0 0 58 58" fill="none" xmlns="http://www.w3.org/2000/svg">
<path fill-rule="evenodd" clip-rule="evenodd" d="M21.1455 26.5833V31.4166C21.1455 32.8593 21.7183 34.2417 22.7381 35.2615C23.7579 36.2813 25.1403 36.8541 26.583 36.8541H31.4163C32.8591 36.8541 34.2414 36.2813 35.2613 35.2615C36.2811 34.2417 36.8538 32.8593 36.8538 31.4166V26.5833C36.8538 25.1405 36.2811 23.7582 35.2613 22.7383C34.2414 21.7185 32.8591 21.1458 31.4163 21.1458H26.583C25.1403 21.1458 23.7579 21.7185 22.7381 22.7383C21.7183 23.7582 21.1455 25.1405 21.1455 26.5833ZM24.7705 26.5833C24.7705 26.1023 24.9614 25.6408 25.3022 25.3024C25.6405 24.9617 26.1021 24.7708 26.583 24.7708H31.4163C31.8973 24.7708 32.3588 24.9617 32.6972 25.3024C33.0379 25.6408 33.2288 26.1023 33.2288 26.5833V31.4166C33.2288 31.8975 33.0379 32.3591 32.6972 32.6974C32.3588 33.0382 31.8973 33.2291 31.4163 33.2291H26.583C26.1021 33.2291 25.6405 33.0382 25.3022 32.6974C24.9614 32.3591 24.7705 31.8975 24.7705 31.4166V26.5833Z" fill="#FF771B"/>
<path fill-rule="evenodd" clip-rule="evenodd" d="M3.02051 8.45825V13.2916C3.02051 14.7343 3.59326 16.1167 4.61309 17.1365C5.63292 18.1563 7.01526 18.7291 8.45801 18.7291H13.2913C14.7341 18.7291 16.1164 18.1563 17.1363 17.1365C18.1561 16.1167 18.7288 14.7343 18.7288 13.2916V8.45825C18.7288 7.0155 18.1561 5.63317 17.1363 4.61334C16.1164 3.5935 14.7341 3.02075 13.2913 3.02075H8.45801C7.01526 3.02075 5.63292 3.5935 4.61309 4.61334C3.59326 5.63317 3.02051 7.0155 3.02051 8.45825ZM6.64551 8.45825C6.64551 7.97734 6.83642 7.51575 7.17717 7.17742C7.51551 6.83667 7.97709 6.64575 8.45801 6.64575H13.2913C13.7723 6.64575 14.2338 6.83667 14.5722 7.17742C14.9129 7.51575 15.1038 7.97734 15.1038 8.45825V13.2916C15.1038 13.7725 14.9129 14.2341 14.5722 14.5724C14.2338 14.9132 13.7723 15.1041 13.2913 15.1041H8.45801C7.97709 15.1041 7.51551 14.9132 7.17717 14.5724C6.83642 14.2341 6.64551 13.7725 6.64551 13.2916V8.45825Z" fill="#FF771B"/>
<path fill-rule="evenodd" clip-rule="evenodd" d="M39.2705 44.7083V49.5416C39.2705 50.9843 39.8433 52.3667 40.8631 53.3865C41.8829 54.4063 43.2653 54.9791 44.708 54.9791H49.5413C50.9841 54.9791 52.3664 54.4063 53.3863 53.3865C54.4061 52.3667 54.9788 50.9843 54.9788 49.5416V44.7083C54.9788 43.2655 54.4061 41.8832 53.3863 40.8633C52.3664 39.8435 50.9841 39.2708 49.5413 39.2708H44.708C43.2653 39.2708 41.8829 39.8435 40.8631 40.8633C39.8433 41.8832 39.2705 43.2655 39.2705 44.7083ZM42.8955 44.7083C42.8955 44.2273 43.0864 43.7658 43.4272 43.4274C43.7655 43.0867 44.2271 42.8958 44.708 42.8958H49.5413C50.0223 42.8958 50.4838 43.0867 50.8222 43.4274C51.1629 43.7658 51.3538 44.2273 51.3538 44.7083V49.5416C51.3538 50.0225 51.1629 50.4841 50.8222 50.8224C50.4838 51.1632 50.0223 51.3541 49.5413 51.3541H44.708C44.2271 51.3541 43.7655 51.1632 43.4272 50.8224C43.0864 50.4841 42.8955 50.0225 42.8955 49.5416V44.7083Z" fill="#FF771B"/>
<path fill-rule="evenodd" clip-rule="evenodd" d="M16.916 12.6875H48.3327C49.135 12.6875 49.9011 13.0065 50.469 13.572C51.0345 14.1399 51.3535 14.906 51.3535 15.7083V24.1667C51.3535 24.969 51.0345 25.7351 50.469 26.303C49.9011 26.8685 49.135 27.1875 48.3327 27.1875H41.0827C40.0822 27.1875 39.2702 27.9995 39.2702 29C39.2702 30.0005 40.0822 30.8125 41.0827 30.8125H48.3327C50.0944 30.8125 51.7861 30.1117 53.0331 28.8671C54.2777 27.6201 54.9785 25.9284 54.9785 24.1667C54.9785 21.5494 54.9785 18.3256 54.9785 15.7083C54.9785 13.9466 54.2777 12.2549 53.0331 11.0079C51.7861 9.76333 50.0944 9.0625 48.3327 9.0625C38.463 9.0625 16.916 9.0625 16.916 9.0625C15.9155 9.0625 15.1035 9.8745 15.1035 10.875C15.1035 11.8755 15.9155 12.6875 16.916 12.6875Z" fill="#FF771B"/>
<path fill-rule="evenodd" clip-rule="evenodd" d="M31.4163 45.3125H9.66634C8.86401 45.3125 8.09793 44.9935 7.53001 44.428C6.96451 43.8601 6.64551 43.094 6.64551 42.2917C6.64551 39.6744 6.64551 36.4506 6.64551 33.8333C6.64551 33.031 6.96451 32.2649 7.53001 31.697C8.09793 31.1315 8.86401 30.8125 9.66634 30.8125H22.958C23.9585 30.8125 24.7705 30.0005 24.7705 29C24.7705 27.9995 23.9585 27.1875 22.958 27.1875H9.66634C7.90459 27.1875 6.21292 27.8883 4.96592 29.1329C3.72134 30.3799 3.02051 32.0716 3.02051 33.8333V42.2917C3.02051 44.0534 3.72134 45.7451 4.96592 46.9921C6.21292 48.2367 7.90459 48.9375 9.66634 48.9375H31.4163C32.4168 48.9375 33.2288 48.1255 33.2288 47.125C33.2288 46.1245 32.4168 45.3125 31.4163 45.3125Z" fill="#FF771B"/>
<path fill-rule="evenodd" clip-rule="evenodd" d="M47.1976 32.5525L43.6475 29L47.1976 25.4475C47.9056 24.7418 47.9056 23.5915 47.1976 22.8858C46.4919 22.1777 45.3415 22.1777 44.6359 22.8858L39.8025 27.7191C39.0945 28.4272 39.0945 29.5727 39.8025 30.2808L44.6359 35.1141C45.3415 35.8222 46.4919 35.8222 47.1976 35.1141C47.9056 34.4085 47.9056 33.2581 47.1976 32.5525Z" fill="#FF771B"/>
<path fill-rule="evenodd" clip-rule="evenodd" d="M30.2802 53.2391L35.1136 48.4058C35.8216 47.6977 35.8216 46.5522 35.1136 45.8441L30.2802 41.0108C29.5746 40.3027 28.4242 40.3027 27.7186 41.0108C27.0105 41.7165 27.0105 42.8668 27.7186 43.5725L31.2686 47.125L27.7186 50.6775C27.0105 51.3831 27.0105 52.5335 27.7186 53.2391C28.4242 53.9472 29.5746 53.9472 30.2802 53.2391Z" fill="#FF771B"/>
</svg>
