<svg width="256" height="256" viewBox="0 0 256 256" fill="none" xmlns="http://www.w3.org/2000/svg">
<path d="M217.84 128.173C217.84 122.875 222.134 118.58 227.432 118.58V118.58C232.729 118.58 237.024 122.875 237.024 128.173V128.173C237.024 133.47 232.729 137.766 227.432 137.766V137.766C222.134 137.766 217.84 133.47 217.84 128.173V128.173Z" fill="#FF771B"/>
<path d="M191.668 100.361C191.668 95.065 195.964 90.772 201.26 90.772V90.772C206.555 90.772 210.852 95.065 210.852 100.361V100.361C210.852 105.656 206.555 109.949 201.26 109.949V109.949C195.964 109.949 191.668 105.656 191.668 100.361V100.361Z" fill="#FF8532"/>
<path d="M191.668 128.173C191.668 122.875 195.962 118.58 201.26 118.58V118.58C206.557 118.58 210.852 122.875 210.852 128.173V128.173C210.852 133.47 206.557 137.766 201.26 137.766V137.766C195.962 137.766 191.668 133.47 191.668 128.173V128.173Z" fill="#FF8532"/>
<path d="M191.668 155.794C191.668 150.499 195.964 146.206 201.26 146.206V146.206C206.555 146.206 210.852 150.499 210.852 155.794V155.794C210.852 161.09 206.555 165.383 201.26 165.383V165.383C195.964 165.383 191.668 161.09 191.668 155.794V155.794Z" fill="#FF8532"/>
<path d="M166.913 71.5746C166.913 66.8069 170.778 62.9419 175.546 62.9419V62.9419C180.314 62.9419 184.179 66.8069 184.179 71.5746V71.5746C184.179 76.3423 180.314 80.2073 175.546 80.2073V80.2073C170.778 80.2073 166.913 76.3423 166.913 71.5746V71.5746Z" fill="#FE9145"/>
<path d="M143.296 184.177C143.296 179.743 146.89 176.145 151.324 176.145V176.145C155.758 176.145 159.353 179.743 159.353 184.177V184.177C159.353 188.611 155.758 192.209 151.324 192.209V192.209C146.89 192.209 143.296 188.611 143.296 184.177V184.177Z" fill="#FFA05F"/>
<path d="M166.913 100.157C166.913 95.3894 170.778 91.5244 175.546 91.5244V91.5244C180.314 91.5244 184.179 95.3894 184.179 100.157V100.157C184.179 104.925 180.314 108.79 175.546 108.79V108.79C170.778 108.79 166.913 104.925 166.913 100.157V100.157Z" fill="#FE9145"/>
<path d="M166.913 128.176C166.913 123.409 170.778 119.543 175.546 119.543V119.543C180.314 119.543 184.179 123.409 184.179 128.176V128.176C184.179 132.944 180.314 136.81 175.546 136.81V136.81C170.778 136.81 166.913 132.944 166.913 128.176V128.176Z" fill="#FE9145"/>
<path d="M166.913 156.559C166.913 151.791 170.778 147.926 175.546 147.926V147.926C180.314 147.926 184.179 151.791 184.179 156.559V156.559C184.179 161.327 180.314 165.192 175.546 165.192V165.192C170.778 165.192 166.913 161.327 166.913 156.559V156.559Z" fill="#FE9145"/>
<path d="M166.913 184.192C166.913 179.424 170.778 175.559 175.546 175.559V175.559C180.314 175.559 184.179 179.424 184.179 184.192V184.192C184.179 188.96 180.314 192.825 175.546 192.825V192.825C170.778 192.825 166.913 188.96 166.913 184.192V184.192Z" fill="#FE9145"/>
<path d="M143.296 212.143C143.296 207.709 146.891 204.115 151.324 204.115V204.115C155.758 204.115 159.353 207.709 159.353 212.143V212.143C159.353 216.576 155.758 220.17 151.324 220.17V220.17C146.891 220.17 143.296 216.576 143.296 212.143V212.143Z" fill="#FFA05F"/>
<path d="M143.23 156.543C143.23 152.109 146.825 148.515 151.259 148.515V148.515C155.692 148.515 159.287 152.109 159.287 156.543V156.543C159.287 160.977 155.692 164.571 151.259 164.571V164.571C146.825 164.571 143.23 160.977 143.23 156.543V156.543Z" fill="#FFA05F"/>
<path d="M143.23 128.165C143.23 123.731 146.825 120.137 151.259 120.137V120.137C155.692 120.137 159.287 123.731 159.287 128.165V128.165C159.287 132.598 155.692 136.192 151.259 136.192V136.192C146.825 136.192 143.23 132.598 143.23 128.165V128.165Z" fill="#FFA05F"/>
<path d="M143.296 100.172C143.296 95.7387 146.891 92.1445 151.324 92.1445V92.1445C155.758 92.1445 159.353 95.7387 159.353 100.172V100.172C159.353 104.606 155.758 108.2 151.324 108.2V108.2C146.891 108.2 143.296 104.606 143.296 100.172V100.172Z" fill="#FFA05F"/>
<path d="M143.23 71.5592C143.23 67.1258 146.825 63.5317 151.259 63.5317V63.5317C155.692 63.5317 159.287 67.1258 159.287 71.5592V71.5592C159.287 75.9927 155.692 79.5867 151.259 79.5867V79.5867C146.825 79.5867 143.23 75.9927 143.23 71.5592V71.5592Z" fill="#FFA05F"/>
<path d="M119.074 71.5763C119.074 67.3092 122.533 63.8491 126.8 63.8491V63.8491C131.067 63.8491 134.526 67.3092 134.526 71.5763V71.5763C134.526 75.8433 131.067 79.3034 126.8 79.3034V79.3034C122.533 79.3034 119.074 75.8433 119.074 71.5763V71.5763Z" fill="#FFAD76"/>
<path d="M119.067 100.163C119.067 95.896 122.527 92.4355 126.794 92.4355V92.4355C131.061 92.4355 134.52 95.896 134.52 100.163V100.163C134.52 104.43 131.061 107.89 126.794 107.89V107.89C122.527 107.89 119.067 104.43 119.067 100.163V100.163Z" fill="#FFAD76"/>
<path d="M119.074 128.155C119.074 123.888 122.533 120.428 126.8 120.428V120.428C131.067 120.428 134.526 123.888 134.526 128.155V128.155C134.526 132.422 131.067 135.883 126.8 135.883V135.883C122.533 135.883 119.074 132.422 119.074 128.155V128.155Z" fill="#FFAD76"/>
<path d="M119.067 156.552C119.067 152.285 122.527 148.825 126.794 148.825V148.825C131.061 148.825 134.52 152.285 134.52 156.552V156.552C134.52 160.819 131.061 164.279 126.794 164.279V164.279C122.527 164.279 119.067 160.819 119.067 156.552V156.552Z" fill="#FFAD76"/>
<path d="M119.074 184.193C119.074 179.926 122.533 176.466 126.8 176.466V176.466C131.067 176.466 134.526 179.926 134.526 184.193V184.193C134.526 188.461 131.067 191.921 126.8 191.921V191.921C122.533 191.921 119.074 188.461 119.074 184.193V184.193Z" fill="#FFAD76"/>
<path d="M119.067 212.141C119.067 207.874 122.527 204.414 126.794 204.414V204.414C131.061 204.414 134.52 207.874 134.52 212.141V212.141C134.52 216.408 131.061 219.869 126.794 219.869V219.869C122.527 219.869 119.067 216.408 119.067 212.141V212.141Z" fill="#FFAD76"/>
<path d="M119.074 240.266C119.074 235.999 122.533 232.539 126.8 232.539V232.539C131.067 232.539 134.526 235.999 134.526 240.266V240.266C134.526 244.533 131.067 247.994 126.8 247.994V247.994C122.533 247.994 119.074 244.533 119.074 240.266V240.266Z" fill="#FFAD76"/>
<path d="M94.943 240.785C94.943 236.798 98.179 233.567 102.165 233.567V233.567C106.152 233.567 109.388 236.798 109.388 240.785V240.785C109.388 244.771 106.152 248.003 102.165 248.003V248.003C98.179 248.003 94.943 244.771 94.943 240.785V240.785Z" fill="#FFB482"/>
<path d="M94.943 212.138C94.943 208.152 98.1792 204.92 102.165 204.92V204.92C106.151 204.92 109.388 208.152 109.388 212.138V212.138C109.388 216.124 106.151 219.355 102.165 219.355V219.355C98.1792 219.355 94.943 216.124 94.943 212.138V212.138Z" fill="#FFB482"/>
<path d="M94.943 184.191C94.943 180.203 98.1767 176.969 102.165 176.969V176.969C106.154 176.969 109.388 180.203 109.388 184.191V184.191C109.388 188.18 106.154 191.413 102.165 191.413V191.413C98.1767 191.413 94.943 188.18 94.943 184.191V184.191Z" fill="#FFB482"/>
<path d="M94.943 156.554C94.943 152.565 98.1767 149.332 102.165 149.332V149.332C106.154 149.332 109.388 152.565 109.388 156.554V156.554C109.388 160.543 106.154 163.776 102.165 163.776V163.776C98.1767 163.776 94.943 160.543 94.943 156.554V156.554Z" fill="#FFB482"/>
<path d="M94.943 100.167C94.943 96.1811 98.1792 92.9497 102.165 92.9497V92.9497C106.151 92.9497 109.388 96.1811 109.388 100.167V100.167C109.388 104.153 106.151 107.385 102.165 107.385V107.385C98.1792 107.385 94.943 104.153 94.943 100.167V100.167Z" fill="#FFB482"/>
<path d="M94.943 71.578C94.943 67.5894 98.1767 64.356 102.165 64.356V64.356C106.154 64.356 109.388 67.5894 109.388 71.578V71.578C109.388 75.5666 106.154 78.8 102.165 78.8V78.8C98.1767 78.8 94.943 75.5666 94.943 71.578V71.578Z" fill="#FFB482"/>
<path d="M94.943 43.5427C94.943 39.5566 98.1792 36.3252 102.165 36.3252V36.3252C106.151 36.3252 109.388 39.5566 109.388 43.5427V43.5427C109.388 47.5288 106.151 50.7602 102.165 50.7602V50.7602C98.1792 50.7602 94.943 47.5288 94.943 43.5427V43.5427Z" fill="#FFB482"/>
<path d="M119.074 43.5499C119.074 39.2829 122.533 35.8228 126.8 35.8228V35.8228C131.067 35.8228 134.526 39.2829 134.526 43.5499V43.5499C134.526 47.8169 131.067 51.2771 126.8 51.2771V51.2771C122.533 51.2771 119.074 47.8169 119.074 43.5499V43.5499Z" fill="#FFAD76"/>
<path d="M119.067 15.7272C119.067 11.4601 122.527 8 126.794 8V8C131.061 8 134.52 11.4601 134.52 15.7272V15.7272C134.52 19.9942 131.061 23.4543 126.794 23.4543V23.4543C122.527 23.4543 119.067 19.9942 119.067 15.7272V15.7272Z" fill="#FFAD76"/>
<path d="M94.943 15.7284C94.943 11.7398 98.1767 8.50635 102.165 8.50635V8.50635C106.154 8.50635 109.388 11.7398 109.388 15.7284V15.7284C109.388 19.717 106.154 22.9504 102.165 22.9504V22.9504C98.1767 22.9504 94.943 19.717 94.943 15.7284V15.7284Z" fill="#FFB482"/>
<path d="M143.23 43.5441C143.23 39.1106 146.825 35.5166 151.259 35.5166V35.5166C155.692 35.5166 159.287 39.1106 159.287 43.5441V43.5441C159.287 47.9775 155.692 51.5716 151.259 51.5716V51.5716C146.825 51.5716 143.23 47.9775 143.23 43.5441V43.5441Z" fill="#FFA05F"/>
<path d="M71.241 240.774C71.241 237.067 74.2461 234.062 77.953 234.062V234.062C81.66 234.062 84.6651 237.067 84.6651 240.774V240.774C84.6651 244.481 81.66 247.487 77.953 247.487V247.487C74.2461 247.487 71.241 244.481 71.241 240.774V240.774Z" fill="#EFAF84"/>
<path d="M71.241 212.147C71.241 208.442 74.2482 205.438 77.953 205.438V205.438C81.6578 205.438 84.6651 208.442 84.6651 212.147V212.147C84.6651 215.851 81.6578 218.855 77.953 218.855V218.855C74.2482 218.855 71.241 215.851 71.241 212.147V212.147Z" fill="#EFAF84"/>
<path d="M71.241 184.188C71.241 180.481 74.2461 177.476 77.953 177.476V177.476C81.66 177.476 84.6651 180.481 84.6651 184.188V184.188C84.6651 187.895 81.66 190.9 77.953 190.9V190.9C74.2461 190.9 71.241 187.895 71.241 184.188V184.188Z" fill="#EFAF84"/>
<path d="M71.241 71.5711C71.241 67.8641 74.2461 64.8584 77.953 64.8584V64.8584C81.66 64.8584 84.6651 67.8641 84.6651 71.5711V71.5711C84.6651 75.2781 81.66 78.2838 77.953 78.2838V78.2838C74.2461 78.2838 71.241 75.2781 71.241 71.5711V71.5711Z" fill="#EFAF84"/>
<path d="M71.241 43.5475C71.241 39.8427 74.2482 36.8394 77.953 36.8394V36.8394C81.6578 36.8394 84.6651 39.8427 84.6651 43.5475V43.5475C84.6651 47.2523 81.6578 50.2557 77.953 50.2557V50.2557C74.2482 50.2557 71.241 47.2523 71.241 43.5475V43.5475Z" fill="#EFAF84"/>
<path d="M71.241 15.7435C71.241 12.0388 74.2484 9.03564 77.953 9.03564V9.03564C81.6577 9.03564 84.6651 12.0388 84.6651 15.7435V15.7435C84.6651 19.4481 81.6577 22.4513 77.953 22.4513V22.4513C74.2484 22.4513 71.241 19.4481 71.241 15.7435V15.7435Z" fill="#EFAF84"/>
<path d="M47.6428 43.552C47.6428 40.2399 50.3277 37.5537 53.6398 37.5537V37.5537C56.9518 37.5537 59.6367 40.2399 59.6367 43.552V43.552C59.6367 46.864 56.9518 49.5502 53.6398 49.5502V49.5502C50.3277 49.5502 47.6428 46.864 47.6428 43.552V43.552Z" fill="#FFC298"/>
<path d="M47.6428 15.7445C47.6428 12.4325 50.3277 9.74658 53.6398 9.74658V9.74658C56.9518 9.74658 59.6367 12.4325 59.6367 15.7445V15.7445C59.6367 19.0566 56.9518 21.7425 53.6398 21.7425V21.7425C50.3277 21.7425 47.6428 19.0566 47.6428 15.7445V15.7445Z" fill="#FFC298"/>
<path d="M47.6428 212.151C47.6428 208.839 50.3277 206.153 53.6398 206.153V206.153C56.9518 206.153 59.6367 208.839 59.6367 212.151V212.151C59.6367 215.463 56.9518 218.149 53.6398 218.149V218.149C50.3277 218.149 47.6428 215.463 47.6428 212.151V212.151Z" fill="#FFC298"/>
<path d="M47.6365 240.763C47.6365 237.451 50.3215 234.765 53.6335 234.765V234.765C56.9455 234.765 59.6305 237.451 59.6305 240.763V240.763C59.6305 244.075 56.9455 246.762 53.6335 246.762V246.762C50.3215 246.762 47.6365 244.075 47.6365 240.763V240.763Z" fill="#FFC298"/>
<path d="M23.9998 240.775C23.9998 237.671 26.5159 235.155 29.6196 235.155V235.155C32.7234 235.155 35.2395 237.671 35.2395 240.775V240.775C35.2395 243.879 32.7234 246.395 29.6196 246.395V246.395C26.5159 246.395 23.9998 243.879 23.9998 240.775V240.775Z" fill="#FFCFB0"/>
<path d="M23.9998 15.7641C23.9998 12.6604 26.5159 10.1436 29.6196 10.1436V10.1436C32.7234 10.1436 35.2395 12.6604 35.2395 15.7641V15.7641C35.2395 18.8679 32.7234 21.3847 29.6196 21.3847V21.3847C26.5159 21.3847 23.9998 18.8679 23.9998 15.7641V15.7641Z" fill="#FFCFB0"/>
</svg>
