<svg width="20" height="20" viewBox="0 0 20 20" fill="none" xmlns="http://www.w3.org/2000/svg">
<path d="M10.364 0.352992C10.1687 0.157979 9.85244 0.15798 9.65722 0.352992L8.60002 1.40908C8.40463 1.60426 8.40449 1.92088 8.5997 2.11624L14.3758 7.89658C14.6906 8.21161 14.4675 8.75 14.0221 8.75L0.5 8.75C0.223857 8.75 0 8.97386 0 9.25L0 10.75C0 11.0261 0.223858 11.25 0.5 11.25L14.0221 11.25C14.4675 11.25 14.6906 11.7884 14.3758 12.1034L8.5997 17.8838C8.40449 18.0791 8.40463 18.3957 8.60002 18.5909L9.65722 19.647C9.85244 19.842 10.1687 19.842 10.364 19.647L19.6671 10.3537C19.8626 10.1584 19.8626 9.84156 19.6671 9.64626L10.364 0.352992Z" fill="white"/>
</svg>
